%FSLAX24Y24*%
%MOIN*%
G70*
G01*
G75*
G04 Layer_Color=32896*
%ADD10R,0.0315X0.0354*%
%ADD11C,0.0200*%
%ADD12C,0.0150*%
%ADD13C,0.1000*%
%ADD14C,0.1250*%
%ADD15O,0.0787X0.0394*%
%ADD16O,0.0787X0.0394*%
%ADD17C,0.0700*%
%ADD18R,0.0591X0.0591*%
%ADD19C,0.0591*%
%ADD20C,0.0551*%
%ADD21C,0.0098*%
%ADD22C,0.0079*%
%ADD23C,0.0100*%
%ADD24R,0.0395X0.0434*%
%ADD25C,0.1080*%
%ADD26C,0.1330*%
%ADD27O,0.0867X0.0474*%
%ADD28O,0.0867X0.0474*%
%ADD29C,0.0780*%
%ADD30R,0.0671X0.0671*%
%ADD31C,0.0671*%
%ADD32C,0.0631*%
%ADD33C,0.0010*%
G36*
X54699Y33490D02*
X54707Y33489D01*
X54714Y33488D01*
X54721Y33487D01*
X54726Y33485D01*
X54730Y33484D01*
X54731Y33484D01*
X54732Y33484D01*
X54732Y33483D01*
X54733D01*
X54739Y33481D01*
X54744Y33477D01*
X54749Y33474D01*
X54753Y33472D01*
X54756Y33469D01*
X54758Y33467D01*
X54760Y33465D01*
X54760Y33465D01*
X54764Y33460D01*
X54767Y33454D01*
X54769Y33449D01*
X54771Y33444D01*
X54772Y33440D01*
X54773Y33436D01*
X54774Y33434D01*
X54774Y33433D01*
Y33433D01*
X54743Y33429D01*
X54741Y33435D01*
X54739Y33441D01*
X54736Y33446D01*
X54733Y33450D01*
X54731Y33452D01*
X54729Y33454D01*
X54728Y33456D01*
X54728Y33456D01*
X54723Y33459D01*
X54718Y33461D01*
X54713Y33462D01*
X54707Y33463D01*
X54702Y33463D01*
X54698Y33464D01*
X54695D01*
X54687Y33463D01*
X54679Y33462D01*
X54673Y33460D01*
X54668Y33458D01*
X54664Y33456D01*
X54661Y33454D01*
X54659Y33453D01*
X54659Y33453D01*
X54656Y33449D01*
X54654Y33445D01*
X54652Y33441D01*
X54651Y33437D01*
X54650Y33433D01*
X54650Y33429D01*
Y33427D01*
Y33426D01*
Y33426D01*
Y33425D01*
Y33424D01*
Y33421D01*
X54650Y33419D01*
Y33418D01*
Y33418D01*
X54654Y33417D01*
X54658Y33415D01*
X54667Y33413D01*
X54676Y33412D01*
X54685Y33410D01*
X54694Y33408D01*
X54697Y33408D01*
X54700Y33408D01*
X54703Y33407D01*
X54705D01*
X54706Y33407D01*
X54707D01*
X54713Y33406D01*
X54719Y33405D01*
X54724Y33405D01*
X54728Y33404D01*
X54731Y33403D01*
X54733Y33403D01*
X54734Y33402D01*
X54735D01*
X54739Y33401D01*
X54744Y33399D01*
X54747Y33398D01*
X54751Y33396D01*
X54753Y33394D01*
X54755Y33393D01*
X54757Y33392D01*
X54757Y33392D01*
X54761Y33389D01*
X54764Y33386D01*
X54767Y33383D01*
X54769Y33380D01*
X54771Y33378D01*
X54772Y33376D01*
X54773Y33374D01*
X54774Y33374D01*
X54776Y33369D01*
X54777Y33365D01*
X54778Y33361D01*
X54779Y33357D01*
X54779Y33354D01*
X54780Y33351D01*
Y33350D01*
Y33349D01*
X54779Y33341D01*
X54777Y33333D01*
X54774Y33327D01*
X54771Y33321D01*
X54768Y33316D01*
X54766Y33313D01*
X54764Y33311D01*
X54763Y33311D01*
X54756Y33305D01*
X54749Y33302D01*
X54741Y33299D01*
X54733Y33298D01*
X54727Y33296D01*
X54724Y33296D01*
X54721D01*
X54719Y33296D01*
X54716D01*
X54709Y33296D01*
X54703Y33297D01*
X54697Y33298D01*
X54692Y33299D01*
X54687Y33300D01*
X54684Y33301D01*
X54682Y33302D01*
X54682Y33302D01*
X54675Y33305D01*
X54670Y33308D01*
X54664Y33311D01*
X54659Y33315D01*
X54654Y33318D01*
X54651Y33321D01*
X54648Y33323D01*
X54648Y33323D01*
X54647Y33318D01*
X54646Y33314D01*
X54645Y33310D01*
X54644Y33307D01*
X54643Y33304D01*
X54642Y33302D01*
X54642Y33300D01*
X54641Y33300D01*
X54609D01*
X54612Y33308D01*
X54614Y33312D01*
X54615Y33315D01*
X54616Y33318D01*
X54616Y33320D01*
X54616Y33321D01*
Y33322D01*
X54617Y33325D01*
X54617Y33328D01*
Y33331D01*
X54618Y33335D01*
X54618Y33344D01*
Y33354D01*
X54618Y33363D01*
Y33367D01*
Y33371D01*
Y33373D01*
Y33376D01*
Y33377D01*
Y33378D01*
Y33420D01*
Y33427D01*
X54619Y33433D01*
X54619Y33438D01*
Y33442D01*
X54620Y33445D01*
X54620Y33447D01*
X54620Y33448D01*
Y33449D01*
X54622Y33453D01*
X54623Y33458D01*
X54625Y33461D01*
X54626Y33464D01*
X54628Y33467D01*
X54629Y33468D01*
X54630Y33470D01*
X54630Y33470D01*
X54633Y33473D01*
X54636Y33476D01*
X54640Y33478D01*
X54644Y33480D01*
X54647Y33482D01*
X54650Y33483D01*
X54651Y33484D01*
X54652Y33484D01*
X54658Y33486D01*
X54664Y33488D01*
X54671Y33488D01*
X54677Y33489D01*
X54682Y33490D01*
X54687Y33490D01*
X54691D01*
X54699Y33490D01*
D02*
G37*
G36*
X57529Y37962D02*
Y37951D01*
X57528Y37940D01*
X57527Y37930D01*
X57526Y37921D01*
X57525Y37913D01*
X57524Y37905D01*
X57523Y37898D01*
X57521Y37891D01*
X57520Y37885D01*
X57519Y37880D01*
X57518Y37875D01*
X57516Y37872D01*
X57515Y37869D01*
X57515Y37867D01*
X57514Y37866D01*
Y37866D01*
X57508Y37853D01*
X57500Y37842D01*
X57492Y37833D01*
X57484Y37826D01*
X57477Y37819D01*
X57471Y37815D01*
X57468Y37813D01*
X57467Y37813D01*
X57466Y37812D01*
X57465D01*
X57452Y37806D01*
X57437Y37801D01*
X57422Y37798D01*
X57408Y37796D01*
X57402Y37795D01*
X57396Y37795D01*
X57391Y37794D01*
X57386D01*
X57382Y37794D01*
X57377D01*
X57357Y37795D01*
X57340Y37797D01*
X57332Y37798D01*
X57324Y37800D01*
X57317Y37802D01*
X57312Y37804D01*
X57306Y37806D01*
X57301Y37808D01*
X57297Y37810D01*
X57294Y37811D01*
X57291Y37813D01*
X57289Y37813D01*
X57288Y37815D01*
X57288D01*
X57276Y37823D01*
X57265Y37832D01*
X57257Y37842D01*
X57251Y37850D01*
X57246Y37859D01*
X57243Y37864D01*
X57241Y37867D01*
X57241Y37868D01*
X57240Y37870D01*
Y37870D01*
X57236Y37884D01*
X57233Y37899D01*
X57230Y37914D01*
X57229Y37929D01*
X57228Y37936D01*
X57227Y37942D01*
Y37947D01*
X57227Y37953D01*
Y37957D01*
Y37960D01*
Y37961D01*
Y37962D01*
Y38184D01*
X57278D01*
Y37962D01*
Y37949D01*
X57279Y37937D01*
X57280Y37926D01*
X57281Y37916D01*
X57283Y37907D01*
X57285Y37899D01*
X57288Y37892D01*
X57289Y37886D01*
X57292Y37881D01*
X57294Y37876D01*
X57296Y37873D01*
X57298Y37870D01*
X57299Y37867D01*
X57301Y37866D01*
X57302Y37865D01*
Y37864D01*
X57306Y37860D01*
X57312Y37856D01*
X57324Y37850D01*
X57337Y37846D01*
X57351Y37842D01*
X57363Y37840D01*
X57368Y37840D01*
X57372D01*
X57377Y37839D01*
X57382D01*
X57394Y37840D01*
X57404Y37841D01*
X57413Y37843D01*
X57422Y37846D01*
X57428Y37847D01*
X57433Y37850D01*
X57436Y37851D01*
X57437Y37851D01*
X57445Y37857D01*
X57451Y37863D01*
X57457Y37869D01*
X57461Y37875D01*
X57465Y37880D01*
X57467Y37884D01*
X57468Y37887D01*
X57469Y37888D01*
X57471Y37893D01*
X57472Y37898D01*
X57474Y37910D01*
X57475Y37922D01*
X57477Y37934D01*
X57477Y37945D01*
X57478Y37950D01*
Y37954D01*
Y37957D01*
Y37960D01*
Y37961D01*
Y37962D01*
Y38184D01*
X57529D01*
Y37962D01*
D02*
G37*
G36*
X58244Y33490D02*
X58252Y33489D01*
X58259Y33488D01*
X58266Y33487D01*
X58271Y33485D01*
X58275Y33484D01*
X58276Y33484D01*
X58277Y33484D01*
X58277Y33483D01*
X58278D01*
X58284Y33481D01*
X58289Y33477D01*
X58295Y33474D01*
X58298Y33472D01*
X58302Y33469D01*
X58304Y33467D01*
X58305Y33465D01*
X58305Y33465D01*
X58309Y33460D01*
X58312Y33454D01*
X58314Y33449D01*
X58316Y33444D01*
X58317Y33440D01*
X58318Y33436D01*
X58319Y33434D01*
X58319Y33433D01*
Y33433D01*
X58288Y33429D01*
X58286Y33435D01*
X58284Y33441D01*
X58281Y33446D01*
X58279Y33450D01*
X58276Y33452D01*
X58274Y33454D01*
X58273Y33456D01*
X58273Y33456D01*
X58268Y33459D01*
X58263Y33461D01*
X58258Y33462D01*
X58252Y33463D01*
X58247Y33463D01*
X58243Y33464D01*
X58240D01*
X58232Y33463D01*
X58224Y33462D01*
X58218Y33460D01*
X58213Y33458D01*
X58209Y33456D01*
X58206Y33454D01*
X58204Y33453D01*
X58204Y33453D01*
X58201Y33449D01*
X58199Y33445D01*
X58197Y33441D01*
X58196Y33437D01*
X58196Y33433D01*
X58195Y33429D01*
Y33427D01*
Y33426D01*
Y33426D01*
Y33425D01*
Y33424D01*
Y33421D01*
X58196Y33419D01*
Y33418D01*
Y33418D01*
X58199Y33417D01*
X58203Y33415D01*
X58212Y33413D01*
X58221Y33412D01*
X58230Y33410D01*
X58239Y33408D01*
X58242Y33408D01*
X58245Y33408D01*
X58248Y33407D01*
X58250D01*
X58251Y33407D01*
X58252D01*
X58258Y33406D01*
X58264Y33405D01*
X58269Y33405D01*
X58273Y33404D01*
X58276Y33403D01*
X58278Y33403D01*
X58279Y33402D01*
X58280D01*
X58284Y33401D01*
X58289Y33399D01*
X58292Y33398D01*
X58296Y33396D01*
X58298Y33394D01*
X58300Y33393D01*
X58302Y33392D01*
X58302Y33392D01*
X58306Y33389D01*
X58309Y33386D01*
X58312Y33383D01*
X58314Y33380D01*
X58316Y33378D01*
X58318Y33376D01*
X58318Y33374D01*
X58319Y33374D01*
X58321Y33369D01*
X58322Y33365D01*
X58323Y33361D01*
X58324Y33357D01*
X58324Y33354D01*
X58325Y33351D01*
Y33350D01*
Y33349D01*
X58324Y33341D01*
X58322Y33333D01*
X58320Y33327D01*
X58316Y33321D01*
X58313Y33316D01*
X58311Y33313D01*
X58309Y33311D01*
X58308Y33311D01*
X58302Y33305D01*
X58294Y33302D01*
X58286Y33299D01*
X58279Y33298D01*
X58272Y33296D01*
X58269Y33296D01*
X58266D01*
X58264Y33296D01*
X58261D01*
X58254Y33296D01*
X58248Y33297D01*
X58242Y33298D01*
X58237Y33299D01*
X58233Y33300D01*
X58229Y33301D01*
X58227Y33302D01*
X58227Y33302D01*
X58220Y33305D01*
X58215Y33308D01*
X58209Y33311D01*
X58204Y33315D01*
X58199Y33318D01*
X58196Y33321D01*
X58194Y33323D01*
X58193Y33323D01*
X58192Y33318D01*
X58191Y33314D01*
X58190Y33310D01*
X58189Y33307D01*
X58188Y33304D01*
X58187Y33302D01*
X58187Y33300D01*
X58187Y33300D01*
X58154D01*
X58157Y33308D01*
X58159Y33312D01*
X58160Y33315D01*
X58161Y33318D01*
X58161Y33320D01*
X58162Y33321D01*
Y33322D01*
X58162Y33325D01*
X58162Y33328D01*
Y33331D01*
X58163Y33335D01*
X58163Y33344D01*
Y33354D01*
X58164Y33363D01*
Y33367D01*
Y33371D01*
Y33373D01*
Y33376D01*
Y33377D01*
Y33378D01*
Y33420D01*
Y33427D01*
X58164Y33433D01*
X58164Y33438D01*
Y33442D01*
X58165Y33445D01*
X58165Y33447D01*
X58165Y33448D01*
Y33449D01*
X58167Y33453D01*
X58168Y33458D01*
X58170Y33461D01*
X58171Y33464D01*
X58173Y33467D01*
X58174Y33468D01*
X58175Y33470D01*
X58175Y33470D01*
X58178Y33473D01*
X58181Y33476D01*
X58185Y33478D01*
X58189Y33480D01*
X58192Y33482D01*
X58195Y33483D01*
X58196Y33484D01*
X58197Y33484D01*
X58203Y33486D01*
X58209Y33488D01*
X58216Y33488D01*
X58222Y33489D01*
X58227Y33490D01*
X58232Y33490D01*
X58236D01*
X58244Y33490D01*
D02*
G37*
G36*
X57309D02*
X57318Y33489D01*
X57325Y33488D01*
X57331Y33487D01*
X57336Y33485D01*
X57340Y33484D01*
X57341Y33484D01*
X57342Y33484D01*
X57343Y33483D01*
X57343D01*
X57349Y33481D01*
X57355Y33477D01*
X57360Y33474D01*
X57364Y33472D01*
X57367Y33469D01*
X57369Y33467D01*
X57370Y33465D01*
X57371Y33465D01*
X57374Y33460D01*
X57377Y33454D01*
X57379Y33449D01*
X57381Y33444D01*
X57382Y33440D01*
X57384Y33436D01*
X57384Y33434D01*
X57384Y33433D01*
Y33433D01*
X57354Y33429D01*
X57352Y33435D01*
X57349Y33441D01*
X57346Y33446D01*
X57344Y33450D01*
X57341Y33452D01*
X57339Y33454D01*
X57338Y33456D01*
X57338Y33456D01*
X57334Y33459D01*
X57328Y33461D01*
X57323Y33462D01*
X57318Y33463D01*
X57313Y33463D01*
X57309Y33464D01*
X57305D01*
X57297Y33463D01*
X57290Y33462D01*
X57283Y33460D01*
X57278Y33458D01*
X57274Y33456D01*
X57272Y33454D01*
X57270Y33453D01*
X57269Y33453D01*
X57266Y33449D01*
X57264Y33445D01*
X57263Y33441D01*
X57261Y33437D01*
X57261Y33433D01*
X57260Y33429D01*
Y33427D01*
Y33426D01*
Y33426D01*
Y33425D01*
Y33424D01*
Y33421D01*
X57261Y33419D01*
Y33418D01*
Y33418D01*
X57264Y33417D01*
X57268Y33415D01*
X57277Y33413D01*
X57286Y33412D01*
X57295Y33410D01*
X57304Y33408D01*
X57307Y33408D01*
X57311Y33408D01*
X57313Y33407D01*
X57315D01*
X57316Y33407D01*
X57317D01*
X57323Y33406D01*
X57329Y33405D01*
X57334Y33405D01*
X57338Y33404D01*
X57341Y33403D01*
X57343Y33403D01*
X57345Y33402D01*
X57345D01*
X57350Y33401D01*
X57354Y33399D01*
X57357Y33398D01*
X57361Y33396D01*
X57364Y33394D01*
X57366Y33393D01*
X57367Y33392D01*
X57368Y33392D01*
X57371Y33389D01*
X57374Y33386D01*
X57377Y33383D01*
X57380Y33380D01*
X57382Y33378D01*
X57383Y33376D01*
X57384Y33374D01*
X57384Y33374D01*
X57386Y33369D01*
X57387Y33365D01*
X57388Y33361D01*
X57389Y33357D01*
X57389Y33354D01*
X57390Y33351D01*
Y33350D01*
Y33349D01*
X57389Y33341D01*
X57387Y33333D01*
X57385Y33327D01*
X57382Y33321D01*
X57378Y33316D01*
X57376Y33313D01*
X57374Y33311D01*
X57373Y33311D01*
X57367Y33305D01*
X57359Y33302D01*
X57352Y33299D01*
X57344Y33298D01*
X57337Y33296D01*
X57334Y33296D01*
X57332D01*
X57329Y33296D01*
X57327D01*
X57320Y33296D01*
X57313Y33297D01*
X57307Y33298D01*
X57302Y33299D01*
X57298Y33300D01*
X57295Y33301D01*
X57293Y33302D01*
X57292Y33302D01*
X57286Y33305D01*
X57280Y33308D01*
X57274Y33311D01*
X57269Y33315D01*
X57264Y33318D01*
X57261Y33321D01*
X57259Y33323D01*
X57258Y33323D01*
X57257Y33318D01*
X57256Y33314D01*
X57256Y33310D01*
X57254Y33307D01*
X57253Y33304D01*
X57252Y33302D01*
X57252Y33300D01*
X57252Y33300D01*
X57219D01*
X57222Y33308D01*
X57224Y33312D01*
X57225Y33315D01*
X57226Y33318D01*
X57226Y33320D01*
X57227Y33321D01*
Y33322D01*
X57227Y33325D01*
X57228Y33328D01*
Y33331D01*
X57228Y33335D01*
X57228Y33344D01*
Y33354D01*
X57229Y33363D01*
Y33367D01*
Y33371D01*
Y33373D01*
Y33376D01*
Y33377D01*
Y33378D01*
Y33420D01*
Y33427D01*
X57229Y33433D01*
X57229Y33438D01*
Y33442D01*
X57230Y33445D01*
X57230Y33447D01*
X57231Y33448D01*
Y33449D01*
X57232Y33453D01*
X57233Y33458D01*
X57235Y33461D01*
X57236Y33464D01*
X57238Y33467D01*
X57239Y33468D01*
X57240Y33470D01*
X57240Y33470D01*
X57244Y33473D01*
X57247Y33476D01*
X57251Y33478D01*
X57254Y33480D01*
X57257Y33482D01*
X57260Y33483D01*
X57261Y33484D01*
X57262Y33484D01*
X57268Y33486D01*
X57274Y33488D01*
X57281Y33488D01*
X57287Y33489D01*
X57293Y33490D01*
X57297Y33490D01*
X57301D01*
X57309Y33490D01*
D02*
G37*
G36*
X56803Y33370D02*
Y33363D01*
X56802Y33357D01*
Y33352D01*
X56802Y33348D01*
X56802Y33345D01*
Y33343D01*
X56801Y33341D01*
Y33341D01*
X56800Y33336D01*
X56799Y33332D01*
X56797Y33328D01*
X56795Y33324D01*
X56794Y33321D01*
X56793Y33319D01*
X56792Y33318D01*
X56792Y33318D01*
X56788Y33314D01*
X56785Y33311D01*
X56782Y33309D01*
X56778Y33306D01*
X56775Y33304D01*
X56773Y33303D01*
X56771Y33302D01*
X56770Y33302D01*
X56765Y33300D01*
X56760Y33298D01*
X56754Y33297D01*
X56750Y33296D01*
X56745Y33296D01*
X56742Y33296D01*
X56740D01*
X56733Y33296D01*
X56726Y33297D01*
X56721Y33298D01*
X56715Y33301D01*
X56710Y33303D01*
X56705Y33305D01*
X56700Y33309D01*
X56696Y33311D01*
X56693Y33314D01*
X56690Y33317D01*
X56687Y33319D01*
X56685Y33322D01*
X56683Y33324D01*
X56682Y33326D01*
X56681Y33327D01*
X56681Y33327D01*
Y33300D01*
X56653D01*
Y33486D01*
X56684D01*
Y33386D01*
X56685Y33378D01*
X56685Y33370D01*
X56686Y33364D01*
X56687Y33359D01*
X56688Y33355D01*
X56689Y33352D01*
X56689Y33350D01*
X56690Y33350D01*
X56692Y33345D01*
X56694Y33341D01*
X56698Y33338D01*
X56700Y33335D01*
X56703Y33333D01*
X56705Y33331D01*
X56707Y33330D01*
X56707Y33330D01*
X56712Y33327D01*
X56717Y33326D01*
X56721Y33324D01*
X56725Y33323D01*
X56728Y33323D01*
X56731Y33323D01*
X56733D01*
X56738Y33323D01*
X56743Y33324D01*
X56747Y33325D01*
X56751Y33326D01*
X56753Y33327D01*
X56755Y33328D01*
X56757Y33329D01*
X56757Y33330D01*
X56760Y33332D01*
X56763Y33335D01*
X56765Y33339D01*
X56767Y33342D01*
X56768Y33345D01*
X56769Y33347D01*
X56770Y33349D01*
Y33349D01*
X56770Y33353D01*
X56770Y33358D01*
X56771Y33364D01*
Y33369D01*
X56771Y33374D01*
Y33378D01*
Y33380D01*
Y33381D01*
Y33382D01*
Y33382D01*
Y33486D01*
X56803D01*
Y33370D01*
D02*
G37*
G36*
X58705Y33490D02*
X58713Y33488D01*
X58721Y33486D01*
X58727Y33484D01*
X58733Y33482D01*
X58737Y33481D01*
X58739Y33480D01*
X58740Y33479D01*
X58740Y33479D01*
X58741D01*
X58748Y33474D01*
X58754Y33468D01*
X58759Y33463D01*
X58763Y33458D01*
X58766Y33452D01*
X58769Y33449D01*
X58770Y33447D01*
X58770Y33446D01*
X58771Y33445D01*
Y33445D01*
X58774Y33436D01*
X58776Y33427D01*
X58778Y33418D01*
X58779Y33410D01*
X58780Y33403D01*
Y33400D01*
X58781Y33397D01*
Y33395D01*
Y33393D01*
Y33392D01*
Y33392D01*
X58780Y33383D01*
X58779Y33376D01*
X58779Y33368D01*
X58777Y33361D01*
X58775Y33355D01*
X58773Y33349D01*
X58771Y33343D01*
X58769Y33339D01*
X58767Y33334D01*
X58765Y33331D01*
X58763Y33328D01*
X58761Y33325D01*
X58759Y33323D01*
X58759Y33321D01*
X58758Y33321D01*
X58758Y33320D01*
X58753Y33316D01*
X58748Y33312D01*
X58743Y33309D01*
X58738Y33306D01*
X58733Y33304D01*
X58728Y33302D01*
X58719Y33299D01*
X58714Y33298D01*
X58710Y33297D01*
X58706Y33296D01*
X58703Y33296D01*
X58700Y33296D01*
X58697D01*
X58691Y33296D01*
X58686Y33296D01*
X58676Y33298D01*
X58667Y33302D01*
X58660Y33305D01*
X58654Y33308D01*
X58651Y33309D01*
X58649Y33311D01*
X58648Y33312D01*
X58646Y33313D01*
X58646Y33314D01*
X58646D01*
X58639Y33321D01*
X58633Y33329D01*
X58628Y33337D01*
X58625Y33345D01*
X58622Y33353D01*
X58621Y33356D01*
X58621Y33359D01*
X58620Y33360D01*
X58620Y33362D01*
X58619Y33363D01*
Y33364D01*
X58650Y33368D01*
X58652Y33360D01*
X58654Y33352D01*
X58657Y33346D01*
X58660Y33341D01*
X58662Y33337D01*
X58664Y33335D01*
X58666Y33333D01*
X58666Y33333D01*
X58671Y33329D01*
X58676Y33326D01*
X58681Y33324D01*
X58686Y33323D01*
X58690Y33322D01*
X58694Y33321D01*
X58697D01*
X58701Y33322D01*
X58705Y33322D01*
X58712Y33324D01*
X58719Y33327D01*
X58724Y33330D01*
X58728Y33333D01*
X58731Y33335D01*
X58733Y33337D01*
X58734Y33338D01*
X58736Y33342D01*
X58739Y33346D01*
X58742Y33354D01*
X58745Y33363D01*
X58746Y33372D01*
X58747Y33380D01*
X58748Y33383D01*
Y33387D01*
X58748Y33389D01*
Y33391D01*
Y33392D01*
Y33393D01*
Y33399D01*
X58747Y33406D01*
X58747Y33412D01*
X58746Y33417D01*
X58745Y33422D01*
X58743Y33426D01*
X58742Y33430D01*
X58741Y33434D01*
X58740Y33437D01*
X58738Y33440D01*
X58737Y33442D01*
X58736Y33444D01*
X58735Y33445D01*
X58734Y33446D01*
X58734Y33447D01*
X58731Y33450D01*
X58728Y33453D01*
X58721Y33457D01*
X58715Y33460D01*
X58709Y33462D01*
X58703Y33463D01*
X58699Y33464D01*
X58697Y33464D01*
X58695D01*
X58690Y33464D01*
X58684Y33463D01*
X58680Y33461D01*
X58676Y33460D01*
X58673Y33458D01*
X58671Y33456D01*
X58669Y33455D01*
X58669Y33454D01*
X58665Y33451D01*
X58662Y33446D01*
X58659Y33442D01*
X58656Y33437D01*
X58655Y33433D01*
X58654Y33429D01*
X58653Y33427D01*
X58653Y33427D01*
Y33426D01*
X58623Y33431D01*
X58625Y33441D01*
X58629Y33450D01*
X58633Y33457D01*
X58637Y33463D01*
X58641Y33468D01*
X58644Y33472D01*
X58646Y33474D01*
X58647Y33474D01*
X58647D01*
X58655Y33479D01*
X58663Y33483D01*
X58671Y33486D01*
X58679Y33488D01*
X58686Y33489D01*
X58689Y33490D01*
X58692D01*
X58694Y33490D01*
X58697D01*
X58705Y33490D01*
D02*
G37*
G36*
X57785Y33300D02*
X57756D01*
X57685Y33486D01*
X57718D01*
X57759Y33372D01*
X57762Y33365D01*
X57764Y33358D01*
X57766Y33352D01*
X57768Y33347D01*
X57769Y33343D01*
X57770Y33340D01*
X57770Y33338D01*
X57771Y33337D01*
X57773Y33344D01*
X57775Y33351D01*
X57777Y33357D01*
X57779Y33363D01*
X57781Y33367D01*
X57782Y33371D01*
X57783Y33373D01*
X57783Y33374D01*
X57823Y33486D01*
X57856D01*
X57785Y33300D01*
D02*
G37*
G36*
X58782Y37800D02*
X58733D01*
Y38127D01*
X58623Y37800D01*
X58577D01*
X58465Y38122D01*
Y37800D01*
X58416D01*
Y38184D01*
X58485D01*
X58576Y37917D01*
X58581Y37902D01*
X58586Y37890D01*
X58589Y37880D01*
X58592Y37871D01*
X58594Y37864D01*
X58596Y37860D01*
X58596Y37857D01*
X58597Y37856D01*
X58599Y37863D01*
X58602Y37873D01*
X58605Y37882D01*
X58608Y37891D01*
X58611Y37899D01*
X58613Y37906D01*
X58614Y37909D01*
X58614Y37911D01*
X58615Y37912D01*
Y37912D01*
X58706Y38184D01*
X58782D01*
Y37800D01*
D02*
G37*
G36*
X56229Y33421D02*
X56199Y33417D01*
X56196Y33421D01*
X56193Y33424D01*
X56190Y33427D01*
X56187Y33430D01*
X56185Y33432D01*
X56182Y33433D01*
X56181Y33434D01*
X56180Y33435D01*
X56176Y33437D01*
X56171Y33439D01*
X56166Y33440D01*
X56162Y33441D01*
X56158Y33442D01*
X56155Y33442D01*
X56153D01*
X56144Y33441D01*
X56136Y33440D01*
X56129Y33437D01*
X56124Y33434D01*
X56119Y33431D01*
X56116Y33429D01*
X56114Y33427D01*
X56113Y33426D01*
X56108Y33420D01*
X56104Y33413D01*
X56102Y33406D01*
X56100Y33399D01*
X56099Y33393D01*
X56098Y33390D01*
Y33388D01*
X56098Y33387D01*
Y33385D01*
Y33384D01*
Y33384D01*
X56099Y33374D01*
X56100Y33365D01*
X56103Y33357D01*
X56106Y33350D01*
X56109Y33345D01*
X56111Y33341D01*
X56113Y33339D01*
X56114Y33339D01*
Y33338D01*
X56117Y33335D01*
X56120Y33333D01*
X56126Y33328D01*
X56133Y33326D01*
X56139Y33323D01*
X56144Y33322D01*
X56148Y33322D01*
X56150Y33321D01*
X56152D01*
X56159Y33322D01*
X56165Y33323D01*
X56171Y33325D01*
X56175Y33327D01*
X56179Y33330D01*
X56182Y33331D01*
X56184Y33333D01*
X56184Y33333D01*
X56189Y33338D01*
X56192Y33344D01*
X56196Y33350D01*
X56198Y33356D01*
X56199Y33361D01*
X56200Y33366D01*
X56201Y33367D01*
X56201Y33368D01*
Y33369D01*
Y33369D01*
X56234Y33367D01*
X56233Y33361D01*
X56232Y33355D01*
X56229Y33345D01*
X56225Y33336D01*
X56221Y33329D01*
X56218Y33326D01*
X56216Y33323D01*
X56214Y33321D01*
X56213Y33319D01*
X56211Y33317D01*
X56210Y33316D01*
X56210Y33316D01*
X56209Y33315D01*
X56205Y33312D01*
X56200Y33309D01*
X56196Y33306D01*
X56191Y33304D01*
X56182Y33300D01*
X56173Y33298D01*
X56168Y33297D01*
X56164Y33297D01*
X56161Y33296D01*
X56158Y33296D01*
X56156Y33296D01*
X56152D01*
X56144Y33296D01*
X56137Y33297D01*
X56130Y33298D01*
X56124Y33300D01*
X56118Y33303D01*
X56112Y33305D01*
X56107Y33308D01*
X56103Y33311D01*
X56098Y33314D01*
X56095Y33317D01*
X56092Y33319D01*
X56090Y33322D01*
X56088Y33324D01*
X56086Y33325D01*
X56085Y33326D01*
X56085Y33327D01*
X56081Y33331D01*
X56078Y33336D01*
X56075Y33341D01*
X56073Y33347D01*
X56070Y33357D01*
X56067Y33366D01*
X56066Y33370D01*
X56066Y33374D01*
X56065Y33378D01*
X56065Y33381D01*
X56065Y33383D01*
Y33385D01*
Y33386D01*
Y33387D01*
X56065Y33393D01*
X56066Y33400D01*
X56067Y33406D01*
X56068Y33412D01*
X56070Y33417D01*
X56072Y33422D01*
X56074Y33426D01*
X56076Y33430D01*
X56079Y33434D01*
X56081Y33437D01*
X56082Y33440D01*
X56084Y33442D01*
X56086Y33444D01*
X56087Y33445D01*
X56088Y33446D01*
X56088Y33446D01*
X56092Y33451D01*
X56097Y33454D01*
X56102Y33457D01*
X56107Y33460D01*
X56111Y33462D01*
X56116Y33464D01*
X56125Y33467D01*
X56129Y33468D01*
X56133Y33468D01*
X56136Y33469D01*
X56139Y33469D01*
X56141Y33470D01*
X56144D01*
X56154Y33469D01*
X56163Y33467D01*
X56171Y33465D01*
X56178Y33461D01*
X56184Y33458D01*
X56187Y33457D01*
X56189Y33456D01*
X56191Y33455D01*
X56192Y33454D01*
X56192Y33454D01*
X56193Y33453D01*
X56179Y33522D01*
X56077D01*
Y33552D01*
X56204D01*
X56229Y33421D01*
D02*
G37*
G36*
X55207Y33490D02*
X55215Y33488D01*
X55222Y33486D01*
X55228Y33484D01*
X55233Y33481D01*
X55237Y33479D01*
X55239Y33479D01*
X55240Y33478D01*
X55240Y33477D01*
X55240D01*
X55247Y33472D01*
X55253Y33467D01*
X55257Y33461D01*
X55262Y33456D01*
X55265Y33451D01*
X55267Y33447D01*
X55267Y33445D01*
X55268Y33444D01*
X55269Y33443D01*
Y33443D01*
X55272Y33434D01*
X55274Y33426D01*
X55276Y33417D01*
X55277Y33410D01*
X55278Y33403D01*
Y33401D01*
X55278Y33398D01*
Y33396D01*
Y33395D01*
Y33394D01*
Y33394D01*
X55278Y33387D01*
X55277Y33380D01*
X55275Y33367D01*
X55273Y33361D01*
X55271Y33356D01*
X55269Y33351D01*
X55267Y33346D01*
X55265Y33342D01*
X55263Y33338D01*
X55262Y33335D01*
X55260Y33332D01*
X55259Y33330D01*
X55258Y33328D01*
X55257Y33328D01*
X55257Y33327D01*
X55253Y33323D01*
X55248Y33318D01*
X55244Y33315D01*
X55239Y33312D01*
X55234Y33309D01*
X55229Y33307D01*
X55224Y33305D01*
X55219Y33304D01*
X55215Y33302D01*
X55211Y33302D01*
X55207Y33301D01*
X55204Y33300D01*
X55201Y33300D01*
X55198D01*
X55192Y33300D01*
X55187Y33301D01*
X55182Y33302D01*
X55177Y33304D01*
X55168Y33308D01*
X55161Y33312D01*
X55155Y33316D01*
X55152Y33319D01*
X55150Y33320D01*
X55148Y33322D01*
X55147Y33323D01*
X55147Y33324D01*
X55146Y33324D01*
Y33319D01*
Y33314D01*
Y33309D01*
Y33305D01*
X55147Y33302D01*
Y33298D01*
X55148Y33293D01*
X55148Y33289D01*
X55148Y33286D01*
X55149Y33284D01*
Y33284D01*
X55151Y33279D01*
X55153Y33273D01*
X55155Y33270D01*
X55158Y33266D01*
X55161Y33263D01*
X55163Y33261D01*
X55164Y33260D01*
X55165Y33260D01*
X55170Y33257D01*
X55175Y33255D01*
X55180Y33253D01*
X55186Y33252D01*
X55191Y33251D01*
X55195Y33251D01*
X55198D01*
X55205Y33251D01*
X55212Y33252D01*
X55217Y33254D01*
X55222Y33256D01*
X55226Y33257D01*
X55228Y33258D01*
X55230Y33259D01*
X55230Y33260D01*
X55233Y33263D01*
X55236Y33266D01*
X55238Y33269D01*
X55239Y33273D01*
X55240Y33276D01*
X55241Y33278D01*
X55241Y33280D01*
Y33280D01*
X55272Y33285D01*
Y33279D01*
X55271Y33274D01*
X55269Y33265D01*
X55266Y33257D01*
X55262Y33251D01*
X55258Y33246D01*
X55255Y33243D01*
X55253Y33241D01*
X55253Y33240D01*
X55252D01*
X55244Y33235D01*
X55235Y33231D01*
X55226Y33229D01*
X55217Y33227D01*
X55210Y33226D01*
X55207Y33225D01*
X55204D01*
X55201Y33225D01*
X55198D01*
X55188Y33225D01*
X55179Y33226D01*
X55171Y33228D01*
X55164Y33230D01*
X55159Y33232D01*
X55155Y33234D01*
X55153Y33234D01*
X55152Y33235D01*
X55152Y33235D01*
X55151D01*
X55145Y33240D01*
X55139Y33244D01*
X55134Y33249D01*
X55130Y33254D01*
X55127Y33258D01*
X55125Y33261D01*
X55124Y33263D01*
X55123Y33264D01*
Y33264D01*
X55122Y33268D01*
X55120Y33272D01*
X55118Y33281D01*
X55117Y33291D01*
X55116Y33301D01*
X55115Y33306D01*
X55115Y33311D01*
Y33314D01*
X55115Y33318D01*
Y33321D01*
Y33323D01*
Y33325D01*
Y33325D01*
Y33486D01*
X55143D01*
Y33463D01*
X55147Y33468D01*
X55152Y33472D01*
X55156Y33475D01*
X55161Y33479D01*
X55165Y33481D01*
X55170Y33483D01*
X55174Y33485D01*
X55178Y33486D01*
X55186Y33488D01*
X55189Y33489D01*
X55192Y33490D01*
X55194Y33490D01*
X55198D01*
X55207Y33490D01*
D02*
G37*
G36*
X55742Y33551D02*
X55746Y33545D01*
X55751Y33539D01*
X55756Y33534D01*
X55760Y33529D01*
X55763Y33526D01*
X55766Y33523D01*
X55766Y33523D01*
X55767Y33523D01*
X55774Y33516D01*
X55782Y33511D01*
X55790Y33506D01*
X55797Y33501D01*
X55803Y33498D01*
X55806Y33497D01*
X55808Y33495D01*
X55809Y33494D01*
X55811Y33493D01*
X55812Y33493D01*
X55812D01*
Y33462D01*
X55807Y33465D01*
X55801Y33467D01*
X55795Y33470D01*
X55790Y33472D01*
X55786Y33475D01*
X55783Y33477D01*
X55780Y33478D01*
X55780Y33479D01*
X55779D01*
X55773Y33483D01*
X55767Y33487D01*
X55762Y33490D01*
X55758Y33494D01*
X55754Y33497D01*
X55751Y33499D01*
X55750Y33500D01*
X55749Y33500D01*
Y33300D01*
X55718D01*
Y33557D01*
X55739D01*
X55742Y33551D01*
D02*
G37*
G36*
X54570Y33520D02*
X54538D01*
Y33556D01*
X54570D01*
Y33520D01*
D02*
G37*
G36*
X55966Y33557D02*
X55976Y33555D01*
X55985Y33552D01*
X55992Y33549D01*
X55998Y33545D01*
X56000Y33544D01*
X56002Y33543D01*
X56004Y33541D01*
X56005Y33541D01*
X56006Y33540D01*
X56006Y33540D01*
X56013Y33533D01*
X56019Y33525D01*
X56023Y33517D01*
X56026Y33509D01*
X56029Y33502D01*
X56030Y33499D01*
X56031Y33496D01*
X56031Y33494D01*
X56031Y33493D01*
X56032Y33491D01*
Y33491D01*
X56000Y33486D01*
X55999Y33494D01*
X55996Y33501D01*
X55994Y33507D01*
X55991Y33511D01*
X55989Y33515D01*
X55987Y33518D01*
X55985Y33520D01*
X55985Y33520D01*
X55980Y33524D01*
X55975Y33527D01*
X55970Y33529D01*
X55965Y33530D01*
X55961Y33531D01*
X55957Y33532D01*
X55954D01*
X55948Y33531D01*
X55942Y33530D01*
X55937Y33528D01*
X55932Y33526D01*
X55929Y33524D01*
X55926Y33522D01*
X55925Y33520D01*
X55924Y33520D01*
X55920Y33516D01*
X55918Y33511D01*
X55915Y33506D01*
X55914Y33502D01*
X55913Y33497D01*
X55912Y33494D01*
Y33492D01*
Y33492D01*
Y33491D01*
X55913Y33484D01*
X55915Y33477D01*
X55918Y33472D01*
X55921Y33467D01*
X55924Y33464D01*
X55926Y33461D01*
X55928Y33460D01*
X55929Y33459D01*
X55935Y33456D01*
X55941Y33453D01*
X55947Y33451D01*
X55953Y33450D01*
X55958Y33449D01*
X55961Y33449D01*
X55966D01*
X55968Y33449D01*
X55970D01*
X55973Y33422D01*
X55969Y33423D01*
X55964Y33424D01*
X55960Y33424D01*
X55957Y33424D01*
X55955Y33425D01*
X55951D01*
X55943Y33424D01*
X55937Y33422D01*
X55930Y33421D01*
X55925Y33418D01*
X55921Y33415D01*
X55918Y33413D01*
X55916Y33412D01*
X55916Y33411D01*
X55911Y33405D01*
X55907Y33399D01*
X55905Y33393D01*
X55903Y33388D01*
X55902Y33383D01*
X55902Y33379D01*
X55901Y33377D01*
Y33376D01*
Y33376D01*
Y33375D01*
X55902Y33367D01*
X55903Y33360D01*
X55906Y33353D01*
X55909Y33348D01*
X55912Y33343D01*
X55914Y33340D01*
X55916Y33338D01*
X55916Y33337D01*
X55922Y33332D01*
X55928Y33328D01*
X55935Y33326D01*
X55941Y33324D01*
X55946Y33323D01*
X55950Y33322D01*
X55951Y33322D01*
X55954D01*
X55960Y33322D01*
X55967Y33324D01*
X55972Y33326D01*
X55976Y33328D01*
X55980Y33330D01*
X55983Y33332D01*
X55985Y33333D01*
X55985Y33334D01*
X55990Y33339D01*
X55994Y33344D01*
X55997Y33351D01*
X55999Y33357D01*
X56001Y33363D01*
X56002Y33368D01*
X56003Y33369D01*
Y33371D01*
X56003Y33372D01*
Y33372D01*
X56035Y33368D01*
X56034Y33362D01*
X56033Y33357D01*
X56029Y33346D01*
X56026Y33337D01*
X56021Y33330D01*
X56019Y33327D01*
X56017Y33324D01*
X56015Y33321D01*
X56013Y33319D01*
X56012Y33318D01*
X56010Y33316D01*
X56010Y33316D01*
X56010Y33316D01*
X56005Y33312D01*
X56001Y33309D01*
X55996Y33306D01*
X55992Y33304D01*
X55982Y33300D01*
X55973Y33298D01*
X55969Y33297D01*
X55965Y33297D01*
X55962Y33296D01*
X55959Y33296D01*
X55957Y33296D01*
X55954D01*
X55947Y33296D01*
X55941Y33297D01*
X55934Y33298D01*
X55928Y33299D01*
X55923Y33301D01*
X55918Y33303D01*
X55913Y33305D01*
X55909Y33307D01*
X55905Y33309D01*
X55902Y33311D01*
X55899Y33313D01*
X55896Y33315D01*
X55895Y33317D01*
X55893Y33318D01*
X55893Y33318D01*
X55892Y33319D01*
X55888Y33323D01*
X55884Y33328D01*
X55881Y33333D01*
X55878Y33337D01*
X55875Y33342D01*
X55873Y33347D01*
X55871Y33356D01*
X55870Y33360D01*
X55869Y33364D01*
X55868Y33367D01*
X55868Y33370D01*
X55868Y33373D01*
Y33374D01*
Y33375D01*
Y33376D01*
X55868Y33385D01*
X55870Y33393D01*
X55872Y33400D01*
X55874Y33406D01*
X55877Y33410D01*
X55879Y33414D01*
X55880Y33416D01*
X55880Y33417D01*
X55886Y33423D01*
X55891Y33428D01*
X55897Y33431D01*
X55903Y33434D01*
X55908Y33437D01*
X55912Y33438D01*
X55913Y33438D01*
X55914D01*
X55915Y33439D01*
X55916D01*
X55909Y33442D01*
X55904Y33446D01*
X55900Y33449D01*
X55896Y33453D01*
X55893Y33456D01*
X55891Y33458D01*
X55889Y33460D01*
X55889Y33461D01*
X55886Y33466D01*
X55884Y33471D01*
X55882Y33476D01*
X55881Y33481D01*
X55880Y33485D01*
X55880Y33488D01*
Y33490D01*
Y33491D01*
X55880Y33497D01*
X55882Y33503D01*
X55883Y33509D01*
X55885Y33514D01*
X55886Y33518D01*
X55888Y33521D01*
X55889Y33523D01*
X55889Y33523D01*
X55893Y33529D01*
X55898Y33534D01*
X55902Y33538D01*
X55907Y33542D01*
X55911Y33545D01*
X55914Y33546D01*
X55916Y33548D01*
X55916Y33548D01*
X55917D01*
X55923Y33551D01*
X55930Y33554D01*
X55937Y33555D01*
X55942Y33556D01*
X55948Y33557D01*
X55951Y33557D01*
X55960D01*
X55966Y33557D01*
D02*
G37*
G36*
X54989Y33490D02*
X54996Y33489D01*
X55001Y33487D01*
X55006Y33486D01*
X55010Y33484D01*
X55013Y33483D01*
X55015Y33482D01*
X55016Y33481D01*
X55021Y33478D01*
X55026Y33474D01*
X55029Y33471D01*
X55033Y33467D01*
X55035Y33464D01*
X55037Y33462D01*
X55038Y33460D01*
X55039Y33460D01*
Y33486D01*
X55067D01*
Y33300D01*
X55035D01*
Y33396D01*
X55035Y33405D01*
X55035Y33413D01*
X55034Y33420D01*
X55033Y33425D01*
X55032Y33429D01*
X55031Y33433D01*
X55031Y33434D01*
X55030Y33435D01*
X55028Y33440D01*
X55026Y33444D01*
X55023Y33447D01*
X55020Y33451D01*
X55018Y33452D01*
X55016Y33454D01*
X55014Y33455D01*
X55014Y33456D01*
X55010Y33458D01*
X55005Y33460D01*
X55001Y33461D01*
X54998Y33462D01*
X54994Y33462D01*
X54992Y33463D01*
X54989D01*
X54983Y33462D01*
X54978Y33461D01*
X54974Y33459D01*
X54970Y33458D01*
X54967Y33456D01*
X54966Y33454D01*
X54965Y33452D01*
X54964Y33452D01*
X54962Y33448D01*
X54960Y33443D01*
X54959Y33438D01*
X54957Y33432D01*
X54957Y33428D01*
X54957Y33424D01*
Y33422D01*
Y33421D01*
Y33421D01*
Y33421D01*
Y33300D01*
X54925D01*
Y33408D01*
X54925Y33418D01*
X54923Y33426D01*
X54921Y33433D01*
X54918Y33439D01*
X54916Y33444D01*
X54914Y33447D01*
X54912Y33449D01*
X54912Y33449D01*
X54907Y33454D01*
X54901Y33457D01*
X54896Y33460D01*
X54891Y33461D01*
X54886Y33462D01*
X54882Y33463D01*
X54879D01*
X54875Y33462D01*
X54872Y33462D01*
X54868Y33461D01*
X54866Y33460D01*
X54864Y33459D01*
X54862Y33458D01*
X54861Y33458D01*
X54861Y33458D01*
X54858Y33456D01*
X54856Y33453D01*
X54854Y33451D01*
X54852Y33449D01*
X54851Y33447D01*
X54850Y33445D01*
X54849Y33444D01*
Y33444D01*
X54848Y33440D01*
X54847Y33436D01*
X54847Y33427D01*
X54846Y33423D01*
Y33420D01*
Y33417D01*
Y33417D01*
Y33417D01*
Y33300D01*
X54815D01*
Y33427D01*
Y33433D01*
X54815Y33438D01*
X54817Y33448D01*
X54819Y33456D01*
X54822Y33463D01*
X54825Y33468D01*
X54827Y33472D01*
X54829Y33474D01*
X54830Y33474D01*
X54836Y33479D01*
X54843Y33483D01*
X54850Y33486D01*
X54857Y33488D01*
X54863Y33489D01*
X54865Y33490D01*
X54868D01*
X54870Y33490D01*
X54872D01*
X54879Y33490D01*
X54885Y33488D01*
X54891Y33487D01*
X54896Y33485D01*
X54906Y33479D01*
X54911Y33477D01*
X54914Y33474D01*
X54918Y33470D01*
X54921Y33468D01*
X54924Y33465D01*
X54926Y33462D01*
X54928Y33460D01*
X54929Y33459D01*
X54930Y33458D01*
X54930Y33457D01*
X54932Y33463D01*
X54935Y33468D01*
X54938Y33472D01*
X54941Y33475D01*
X54944Y33478D01*
X54946Y33480D01*
X54948Y33481D01*
X54949Y33481D01*
X54954Y33484D01*
X54959Y33486D01*
X54965Y33488D01*
X54970Y33489D01*
X54975Y33490D01*
X54979Y33490D01*
X54982D01*
X54989Y33490D01*
D02*
G37*
G36*
X53856D02*
X53862Y33489D01*
X53868Y33487D01*
X53873Y33486D01*
X53877Y33484D01*
X53880Y33483D01*
X53882Y33482D01*
X53882Y33481D01*
X53888Y33478D01*
X53892Y33474D01*
X53896Y33471D01*
X53899Y33467D01*
X53902Y33464D01*
X53904Y33462D01*
X53905Y33460D01*
X53906Y33460D01*
Y33486D01*
X53934D01*
Y33300D01*
X53902D01*
Y33396D01*
X53902Y33405D01*
X53901Y33413D01*
X53900Y33420D01*
X53899Y33425D01*
X53898Y33429D01*
X53898Y33433D01*
X53897Y33434D01*
X53897Y33435D01*
X53895Y33440D01*
X53892Y33444D01*
X53890Y33447D01*
X53887Y33451D01*
X53884Y33452D01*
X53882Y33454D01*
X53881Y33455D01*
X53881Y33456D01*
X53876Y33458D01*
X53872Y33460D01*
X53868Y33461D01*
X53864Y33462D01*
X53861Y33462D01*
X53858Y33463D01*
X53856D01*
X53850Y33462D01*
X53845Y33461D01*
X53840Y33459D01*
X53837Y33458D01*
X53834Y33456D01*
X53833Y33454D01*
X53831Y33452D01*
X53831Y33452D01*
X53828Y33448D01*
X53826Y33443D01*
X53825Y33438D01*
X53824Y33432D01*
X53824Y33428D01*
X53823Y33424D01*
Y33422D01*
Y33421D01*
Y33421D01*
Y33421D01*
Y33300D01*
X53792D01*
Y33408D01*
X53791Y33418D01*
X53790Y33426D01*
X53788Y33433D01*
X53785Y33439D01*
X53783Y33444D01*
X53781Y33447D01*
X53779Y33449D01*
X53779Y33449D01*
X53774Y33454D01*
X53768Y33457D01*
X53762Y33460D01*
X53757Y33461D01*
X53753Y33462D01*
X53749Y33463D01*
X53746D01*
X53742Y33462D01*
X53739Y33462D01*
X53735Y33461D01*
X53732Y33460D01*
X53730Y33459D01*
X53729Y33458D01*
X53728Y33458D01*
X53727Y33458D01*
X53725Y33456D01*
X53722Y33453D01*
X53720Y33451D01*
X53719Y33449D01*
X53718Y33447D01*
X53717Y33445D01*
X53716Y33444D01*
Y33444D01*
X53715Y33440D01*
X53714Y33436D01*
X53713Y33427D01*
X53713Y33423D01*
Y33420D01*
Y33417D01*
Y33417D01*
Y33417D01*
Y33300D01*
X53681D01*
Y33427D01*
Y33433D01*
X53682Y33438D01*
X53684Y33448D01*
X53686Y33456D01*
X53689Y33463D01*
X53692Y33468D01*
X53694Y33472D01*
X53696Y33474D01*
X53696Y33474D01*
X53703Y33479D01*
X53709Y33483D01*
X53716Y33486D01*
X53723Y33488D01*
X53729Y33489D01*
X53732Y33490D01*
X53734D01*
X53736Y33490D01*
X53739D01*
X53746Y33490D01*
X53751Y33488D01*
X53757Y33487D01*
X53763Y33485D01*
X53773Y33479D01*
X53777Y33477D01*
X53781Y33474D01*
X53785Y33470D01*
X53788Y33468D01*
X53790Y33465D01*
X53793Y33462D01*
X53794Y33460D01*
X53796Y33459D01*
X53796Y33458D01*
X53797Y33457D01*
X53799Y33463D01*
X53802Y33468D01*
X53805Y33472D01*
X53808Y33475D01*
X53811Y33478D01*
X53813Y33480D01*
X53815Y33481D01*
X53815Y33481D01*
X53820Y33484D01*
X53826Y33486D01*
X53832Y33488D01*
X53837Y33489D01*
X53842Y33490D01*
X53845Y33490D01*
X53849D01*
X53856Y33490D01*
D02*
G37*
G36*
X56942D02*
X56950Y33488D01*
X56956Y33486D01*
X56962Y33484D01*
X56967Y33482D01*
X56971Y33480D01*
X56974Y33479D01*
X56974Y33478D01*
X56974D01*
X56981Y33474D01*
X56987Y33468D01*
X56991Y33463D01*
X56995Y33457D01*
X56999Y33452D01*
X57001Y33448D01*
X57001Y33447D01*
X57002Y33446D01*
X57003Y33445D01*
Y33445D01*
X57006Y33436D01*
X57008Y33428D01*
X57010Y33419D01*
X57011Y33411D01*
X57012Y33405D01*
Y33401D01*
X57012Y33399D01*
Y33397D01*
Y33396D01*
Y33395D01*
Y33394D01*
X57012Y33386D01*
X57011Y33378D01*
X57010Y33371D01*
X57008Y33364D01*
X57007Y33357D01*
X57005Y33351D01*
X57003Y33346D01*
X57000Y33341D01*
X56998Y33337D01*
X56996Y33333D01*
X56994Y33329D01*
X56992Y33327D01*
X56991Y33325D01*
X56990Y33323D01*
X56989Y33322D01*
X56988Y33322D01*
X56984Y33317D01*
X56979Y33313D01*
X56974Y33310D01*
X56969Y33307D01*
X56965Y33304D01*
X56960Y33302D01*
X56951Y33299D01*
X56947Y33298D01*
X56943Y33297D01*
X56940Y33296D01*
X56937Y33296D01*
X56935Y33296D01*
X56932D01*
X56926Y33296D01*
X56921Y33297D01*
X56916Y33298D01*
X56912Y33299D01*
X56909Y33300D01*
X56906Y33301D01*
X56904Y33302D01*
X56904Y33302D01*
X56899Y33305D01*
X56895Y33308D01*
X56891Y33311D01*
X56889Y33313D01*
X56886Y33316D01*
X56884Y33318D01*
X56884Y33319D01*
X56883Y33319D01*
Y33229D01*
X56852D01*
Y33486D01*
X56880D01*
Y33461D01*
X56884Y33466D01*
X56888Y33470D01*
X56892Y33474D01*
X56897Y33477D01*
X56901Y33481D01*
X56906Y33483D01*
X56910Y33485D01*
X56914Y33486D01*
X56922Y33488D01*
X56926Y33489D01*
X56928Y33490D01*
X56931Y33490D01*
X56934D01*
X56942Y33490D01*
D02*
G37*
G36*
X56414Y33460D02*
X56333D01*
X56327Y33461D01*
X56321D01*
X56315Y33461D01*
X56310D01*
X56307Y33461D01*
X56303D01*
X56421Y33325D01*
Y33300D01*
X56257D01*
Y33327D01*
X56343D01*
X56357Y33327D01*
X56364Y33326D01*
X56370D01*
X56375Y33326D01*
X56379Y33325D01*
X56381Y33325D01*
X56383D01*
X56363Y33347D01*
X56263Y33465D01*
Y33486D01*
X56414D01*
Y33460D01*
D02*
G37*
G36*
X62556Y37738D02*
X61759D01*
Y39401D01*
X62556D01*
Y37738D01*
D02*
G37*
G36*
X54402Y33300D02*
X54366D01*
Y33336D01*
X54402D01*
Y33300D01*
D02*
G37*
G36*
X58524Y33490D02*
X58530Y33489D01*
X58541Y33487D01*
X58551Y33483D01*
X58555Y33481D01*
X58559Y33480D01*
X58563Y33478D01*
X58566Y33476D01*
X58569Y33474D01*
X58571Y33472D01*
X58573Y33471D01*
X58575Y33470D01*
X58575Y33470D01*
X58576Y33469D01*
X58581Y33464D01*
X58585Y33459D01*
X58589Y33453D01*
X58592Y33447D01*
X58595Y33440D01*
X58597Y33434D01*
X58599Y33428D01*
X58601Y33422D01*
X58602Y33416D01*
X58603Y33410D01*
X58603Y33406D01*
X58604Y33401D01*
Y33398D01*
X58604Y33395D01*
Y33394D01*
Y33393D01*
X58604Y33384D01*
X58603Y33376D01*
X58602Y33369D01*
X58600Y33362D01*
X58599Y33355D01*
X58597Y33349D01*
X58594Y33344D01*
X58592Y33339D01*
X58590Y33335D01*
X58588Y33331D01*
X58586Y33328D01*
X58584Y33325D01*
X58583Y33323D01*
X58582Y33322D01*
X58581Y33321D01*
X58580Y33321D01*
X58576Y33316D01*
X58571Y33312D01*
X58566Y33309D01*
X58560Y33306D01*
X58555Y33304D01*
X58550Y33302D01*
X58540Y33299D01*
X58535Y33298D01*
X58531Y33297D01*
X58527Y33296D01*
X58524Y33296D01*
X58521Y33296D01*
X58517D01*
X58508Y33296D01*
X58500Y33298D01*
X58493Y33299D01*
X58486Y33302D01*
X58481Y33304D01*
X58476Y33305D01*
X58475Y33306D01*
X58474Y33307D01*
X58473Y33307D01*
X58473D01*
X58465Y33312D01*
X58459Y33317D01*
X58454Y33322D01*
X58449Y33327D01*
X58446Y33332D01*
X58443Y33335D01*
X58442Y33338D01*
X58441Y33338D01*
Y33339D01*
X58438Y33347D01*
X58435Y33356D01*
X58433Y33366D01*
X58431Y33374D01*
X58431Y33379D01*
X58431Y33383D01*
Y33386D01*
X58430Y33389D01*
Y33392D01*
Y33394D01*
Y33395D01*
Y33395D01*
X58431Y33403D01*
X58431Y33411D01*
X58433Y33418D01*
X58434Y33425D01*
X58436Y33431D01*
X58438Y33437D01*
X58440Y33442D01*
X58442Y33447D01*
X58445Y33451D01*
X58447Y33454D01*
X58449Y33458D01*
X58451Y33460D01*
X58453Y33462D01*
X58454Y33463D01*
X58454Y33464D01*
X58455Y33465D01*
X58460Y33469D01*
X58465Y33473D01*
X58470Y33476D01*
X58475Y33479D01*
X58480Y33482D01*
X58485Y33484D01*
X58495Y33487D01*
X58500Y33488D01*
X58504Y33489D01*
X58508Y33489D01*
X58511Y33490D01*
X58514Y33490D01*
X58517D01*
X58524Y33490D01*
D02*
G37*
G36*
X54570Y33300D02*
X54538D01*
Y33486D01*
X54570D01*
Y33300D01*
D02*
G37*
G36*
X54491D02*
X54459D01*
Y33556D01*
X54491D01*
Y33300D01*
D02*
G37*
G36*
X54063Y33490D02*
X54070Y33489D01*
X54081Y33487D01*
X54091Y33483D01*
X54095Y33481D01*
X54099Y33480D01*
X54103Y33478D01*
X54106Y33476D01*
X54109Y33474D01*
X54111Y33472D01*
X54113Y33471D01*
X54115Y33470D01*
X54115Y33470D01*
X54116Y33469D01*
X54121Y33464D01*
X54125Y33459D01*
X54129Y33453D01*
X54132Y33447D01*
X54135Y33440D01*
X54137Y33434D01*
X54139Y33428D01*
X54141Y33422D01*
X54142Y33416D01*
X54143Y33410D01*
X54143Y33406D01*
X54144Y33401D01*
Y33398D01*
X54144Y33395D01*
Y33394D01*
Y33393D01*
X54144Y33384D01*
X54143Y33376D01*
X54142Y33369D01*
X54140Y33362D01*
X54139Y33355D01*
X54137Y33349D01*
X54134Y33344D01*
X54132Y33339D01*
X54130Y33335D01*
X54128Y33331D01*
X54126Y33328D01*
X54124Y33325D01*
X54123Y33323D01*
X54122Y33322D01*
X54121Y33321D01*
X54120Y33321D01*
X54116Y33316D01*
X54111Y33312D01*
X54106Y33309D01*
X54100Y33306D01*
X54095Y33304D01*
X54090Y33302D01*
X54080Y33299D01*
X54075Y33298D01*
X54071Y33297D01*
X54067Y33296D01*
X54064Y33296D01*
X54061Y33296D01*
X54057D01*
X54048Y33296D01*
X54040Y33298D01*
X54033Y33299D01*
X54026Y33302D01*
X54021Y33304D01*
X54016Y33305D01*
X54015Y33306D01*
X54014Y33307D01*
X54013Y33307D01*
X54013D01*
X54005Y33312D01*
X53999Y33317D01*
X53994Y33322D01*
X53989Y33327D01*
X53986Y33332D01*
X53983Y33335D01*
X53982Y33338D01*
X53981Y33338D01*
Y33339D01*
X53978Y33347D01*
X53975Y33356D01*
X53973Y33366D01*
X53971Y33374D01*
X53971Y33379D01*
X53971Y33383D01*
Y33386D01*
X53970Y33389D01*
Y33392D01*
Y33394D01*
Y33395D01*
Y33395D01*
X53971Y33403D01*
X53971Y33411D01*
X53973Y33418D01*
X53974Y33425D01*
X53976Y33431D01*
X53978Y33437D01*
X53980Y33442D01*
X53982Y33447D01*
X53985Y33451D01*
X53987Y33454D01*
X53989Y33458D01*
X53991Y33460D01*
X53992Y33462D01*
X53994Y33463D01*
X53994Y33464D01*
X53995Y33465D01*
X54000Y33469D01*
X54005Y33473D01*
X54010Y33476D01*
X54015Y33479D01*
X54020Y33482D01*
X54025Y33484D01*
X54035Y33487D01*
X54040Y33488D01*
X54044Y33489D01*
X54047Y33489D01*
X54051Y33490D01*
X54054Y33490D01*
X54057D01*
X54063Y33490D01*
D02*
G37*
G36*
X55470Y33560D02*
X55480Y33559D01*
X55489Y33558D01*
X55498Y33557D01*
X55507Y33555D01*
X55515Y33552D01*
X55522Y33550D01*
X55528Y33548D01*
X55535Y33545D01*
X55540Y33543D01*
X55544Y33541D01*
X55548Y33539D01*
X55551Y33538D01*
X55553Y33536D01*
X55555Y33536D01*
X55555Y33535D01*
X55562Y33530D01*
X55569Y33525D01*
X55575Y33519D01*
X55581Y33513D01*
X55586Y33507D01*
X55591Y33501D01*
X55596Y33495D01*
X55600Y33490D01*
X55604Y33484D01*
X55607Y33479D01*
X55609Y33474D01*
X55612Y33470D01*
X55613Y33467D01*
X55614Y33465D01*
X55615Y33463D01*
X55616Y33463D01*
X55619Y33455D01*
X55621Y33448D01*
X55625Y33434D01*
X55629Y33420D01*
X55630Y33413D01*
X55630Y33408D01*
X55631Y33402D01*
X55632Y33397D01*
X55632Y33392D01*
Y33389D01*
X55633Y33386D01*
Y33383D01*
Y33382D01*
Y33382D01*
X55632Y33367D01*
X55630Y33354D01*
X55628Y33342D01*
X55627Y33337D01*
X55625Y33332D01*
X55624Y33327D01*
X55623Y33323D01*
X55622Y33319D01*
X55621Y33316D01*
X55620Y33314D01*
X55619Y33312D01*
X55618Y33311D01*
Y33311D01*
X55614Y33301D01*
X55608Y33293D01*
X55602Y33285D01*
X55597Y33278D01*
X55591Y33273D01*
X55588Y33268D01*
X55586Y33267D01*
X55585Y33266D01*
X55584Y33265D01*
X55584Y33265D01*
X55575Y33258D01*
X55565Y33252D01*
X55556Y33247D01*
X55547Y33242D01*
X55543Y33241D01*
X55540Y33239D01*
X55536Y33238D01*
X55533Y33237D01*
X55531Y33236D01*
X55529Y33235D01*
X55528Y33235D01*
X55528D01*
X55515Y33231D01*
X55503Y33229D01*
X55491Y33227D01*
X55480Y33226D01*
X55475Y33226D01*
X55470Y33225D01*
X55466D01*
X55463Y33225D01*
X55456D01*
X55441Y33225D01*
X55434Y33226D01*
X55427Y33227D01*
X55421Y33227D01*
X55415Y33228D01*
X55409Y33229D01*
X55404Y33231D01*
X55400Y33231D01*
X55396Y33233D01*
X55393Y33233D01*
X55390Y33234D01*
X55388Y33235D01*
X55386Y33236D01*
X55385Y33236D01*
X55384D01*
X55373Y33240D01*
X55364Y33245D01*
X55355Y33250D01*
X55347Y33255D01*
X55341Y33259D01*
X55339Y33261D01*
X55337Y33263D01*
X55335Y33264D01*
X55334Y33265D01*
X55333Y33266D01*
X55333Y33266D01*
X55325Y33273D01*
X55319Y33280D01*
X55313Y33286D01*
X55309Y33292D01*
X55306Y33296D01*
X55304Y33300D01*
X55302Y33302D01*
X55302Y33303D01*
X55334D01*
X55340Y33295D01*
X55347Y33288D01*
X55355Y33282D01*
X55363Y33277D01*
X55370Y33272D01*
X55372Y33270D01*
X55375Y33269D01*
X55377Y33268D01*
X55379Y33267D01*
X55380Y33266D01*
X55380D01*
X55392Y33261D01*
X55405Y33257D01*
X55418Y33254D01*
X55430Y33252D01*
X55435Y33252D01*
X55441Y33251D01*
X55445Y33251D01*
X55449D01*
X55453Y33250D01*
X55457D01*
X55473Y33251D01*
X55487Y33253D01*
X55494Y33254D01*
X55501Y33255D01*
X55506Y33256D01*
X55512Y33258D01*
X55517Y33259D01*
X55522Y33261D01*
X55526Y33262D01*
X55529Y33263D01*
X55531Y33264D01*
X55533Y33265D01*
X55535Y33265D01*
X55535D01*
X55541Y33268D01*
X55547Y33272D01*
X55553Y33275D01*
X55558Y33279D01*
X55563Y33282D01*
X55567Y33286D01*
X55571Y33290D01*
X55575Y33294D01*
X55578Y33297D01*
X55581Y33300D01*
X55583Y33304D01*
X55585Y33306D01*
X55587Y33308D01*
X55588Y33310D01*
X55588Y33311D01*
X55589Y33311D01*
X55592Y33317D01*
X55595Y33323D01*
X55599Y33335D01*
X55602Y33348D01*
X55605Y33359D01*
X55606Y33364D01*
X55606Y33369D01*
X55607Y33373D01*
Y33377D01*
X55607Y33380D01*
Y33382D01*
Y33384D01*
Y33384D01*
X55607Y33392D01*
X55606Y33399D01*
X55604Y33413D01*
X55603Y33420D01*
X55601Y33426D01*
X55600Y33432D01*
X55598Y33438D01*
X55596Y33443D01*
X55595Y33447D01*
X55593Y33451D01*
X55591Y33454D01*
X55590Y33457D01*
X55590Y33459D01*
X55589Y33460D01*
Y33461D01*
X55585Y33467D01*
X55581Y33474D01*
X55577Y33479D01*
X55573Y33484D01*
X55568Y33490D01*
X55564Y33494D01*
X55560Y33498D01*
X55555Y33502D01*
X55551Y33505D01*
X55548Y33508D01*
X55545Y33510D01*
X55542Y33512D01*
X55539Y33514D01*
X55538Y33515D01*
X55536Y33515D01*
X55536Y33516D01*
X55529Y33519D01*
X55523Y33522D01*
X55517Y33525D01*
X55510Y33527D01*
X55497Y33530D01*
X55492Y33532D01*
X55486Y33533D01*
X55481Y33534D01*
X55476Y33534D01*
X55472Y33535D01*
X55468D01*
X55465Y33535D01*
X55461D01*
X55448Y33534D01*
X55436Y33533D01*
X55425Y33530D01*
X55419Y33529D01*
X55415Y33528D01*
X55411Y33526D01*
X55407Y33525D01*
X55403Y33523D01*
X55401Y33522D01*
X55399Y33522D01*
X55397Y33521D01*
X55396Y33520D01*
X55396D01*
X55385Y33514D01*
X55376Y33507D01*
X55368Y33500D01*
X55362Y33494D01*
X55357Y33488D01*
X55354Y33484D01*
X55353Y33482D01*
X55352Y33481D01*
X55351Y33480D01*
Y33479D01*
X55346Y33470D01*
X55342Y33460D01*
X55340Y33451D01*
X55338Y33443D01*
X55337Y33439D01*
X55337Y33435D01*
X55336Y33432D01*
Y33430D01*
X55336Y33428D01*
Y33426D01*
Y33425D01*
Y33425D01*
X55336Y33415D01*
X55338Y33407D01*
X55340Y33399D01*
X55342Y33391D01*
X55344Y33385D01*
X55345Y33383D01*
X55346Y33380D01*
X55347Y33379D01*
X55347Y33378D01*
X55348Y33377D01*
Y33376D01*
X55352Y33368D01*
X55357Y33361D01*
X55363Y33354D01*
X55368Y33349D01*
X55373Y33345D01*
X55376Y33342D01*
X55378Y33341D01*
X55379Y33340D01*
X55379Y33339D01*
X55380D01*
X55385Y33335D01*
X55390Y33333D01*
X55394Y33331D01*
X55397Y33330D01*
X55400Y33329D01*
X55402Y33328D01*
X55404D01*
X55407Y33329D01*
X55410Y33330D01*
X55412Y33331D01*
X55412Y33332D01*
X55414Y33334D01*
X55416Y33337D01*
X55416Y33339D01*
Y33339D01*
Y33340D01*
Y33341D01*
X55416Y33342D01*
X55415Y33345D01*
X55414Y33350D01*
X55413Y33354D01*
X55412Y33359D01*
X55412Y33363D01*
X55411Y33364D01*
Y33366D01*
X55411Y33366D01*
Y33367D01*
X55386Y33484D01*
X55417D01*
X55423Y33457D01*
X55427Y33463D01*
X55431Y33467D01*
X55435Y33472D01*
X55439Y33475D01*
X55442Y33477D01*
X55444Y33479D01*
X55446Y33481D01*
X55447Y33481D01*
X55452Y33484D01*
X55457Y33486D01*
X55462Y33487D01*
X55466Y33488D01*
X55470Y33489D01*
X55473Y33489D01*
X55476D01*
X55483Y33488D01*
X55490Y33487D01*
X55497Y33485D01*
X55504Y33482D01*
X55509Y33479D01*
X55513Y33477D01*
X55515Y33476D01*
X55516Y33476D01*
X55517Y33475D01*
X55517D01*
X55524Y33469D01*
X55531Y33463D01*
X55537Y33456D01*
X55542Y33449D01*
X55547Y33443D01*
X55548Y33440D01*
X55549Y33438D01*
X55551Y33436D01*
X55551Y33434D01*
X55552Y33433D01*
Y33433D01*
X55557Y33423D01*
X55560Y33413D01*
X55563Y33403D01*
X55564Y33395D01*
X55565Y33391D01*
X55565Y33388D01*
X55566Y33385D01*
Y33382D01*
X55566Y33380D01*
Y33379D01*
Y33378D01*
Y33378D01*
X55566Y33369D01*
X55565Y33362D01*
X55563Y33355D01*
X55561Y33349D01*
X55560Y33344D01*
X55559Y33340D01*
X55558Y33338D01*
X55558Y33337D01*
X55557Y33337D01*
Y33336D01*
X55554Y33330D01*
X55550Y33324D01*
X55546Y33319D01*
X55542Y33316D01*
X55538Y33312D01*
X55536Y33310D01*
X55534Y33309D01*
X55533Y33309D01*
X55528Y33305D01*
X55522Y33304D01*
X55517Y33302D01*
X55513Y33301D01*
X55509Y33300D01*
X55506Y33300D01*
X55503D01*
X55498Y33300D01*
X55493Y33301D01*
X55488Y33302D01*
X55484Y33304D01*
X55480Y33305D01*
X55478Y33306D01*
X55476Y33307D01*
X55475Y33307D01*
X55470Y33311D01*
X55465Y33314D01*
X55461Y33318D01*
X55457Y33321D01*
X55454Y33324D01*
X55451Y33326D01*
X55450Y33328D01*
X55450Y33328D01*
X55449Y33325D01*
X55449Y33321D01*
X55448Y33319D01*
X55448Y33317D01*
X55447Y33315D01*
X55447Y33314D01*
X55446Y33314D01*
Y33313D01*
X55443Y33309D01*
X55440Y33305D01*
X55438Y33304D01*
X55437Y33304D01*
X55436Y33303D01*
X55435D01*
X55432Y33302D01*
X55429Y33301D01*
X55423Y33300D01*
X55420D01*
X55418Y33299D01*
X55416D01*
X55409Y33300D01*
X55402Y33301D01*
X55395Y33302D01*
X55389Y33305D01*
X55383Y33307D01*
X55377Y33311D01*
X55372Y33314D01*
X55367Y33317D01*
X55362Y33320D01*
X55358Y33323D01*
X55355Y33326D01*
X55352Y33329D01*
X55349Y33331D01*
X55348Y33333D01*
X55347Y33334D01*
X55346Y33334D01*
X55340Y33342D01*
X55334Y33350D01*
X55329Y33357D01*
X55325Y33365D01*
X55322Y33373D01*
X55319Y33380D01*
X55317Y33387D01*
X55315Y33394D01*
X55313Y33400D01*
X55312Y33406D01*
X55311Y33411D01*
X55311Y33415D01*
Y33419D01*
X55310Y33422D01*
Y33424D01*
Y33424D01*
Y33431D01*
X55311Y33437D01*
X55313Y33449D01*
X55316Y33460D01*
X55317Y33466D01*
X55319Y33470D01*
X55320Y33475D01*
X55322Y33479D01*
X55324Y33482D01*
X55325Y33484D01*
X55326Y33487D01*
X55327Y33489D01*
X55327Y33490D01*
X55327Y33490D01*
X55331Y33496D01*
X55336Y33502D01*
X55340Y33508D01*
X55344Y33513D01*
X55349Y33518D01*
X55354Y33522D01*
X55358Y33526D01*
X55362Y33529D01*
X55366Y33532D01*
X55370Y33535D01*
X55373Y33538D01*
X55376Y33539D01*
X55379Y33541D01*
X55380Y33542D01*
X55382Y33543D01*
X55382D01*
X55389Y33546D01*
X55395Y33548D01*
X55409Y33553D01*
X55422Y33556D01*
X55428Y33557D01*
X55434Y33558D01*
X55439Y33559D01*
X55444Y33560D01*
X55449Y33560D01*
X55452D01*
X55455Y33561D01*
X55460D01*
X55470Y33560D01*
D02*
G37*
G36*
X58065Y33489D02*
X58069Y33489D01*
X58073Y33488D01*
X58077Y33487D01*
X58079Y33487D01*
X58081Y33486D01*
X58082D01*
X58086Y33484D01*
X58090Y33483D01*
X58093Y33481D01*
X58096Y33480D01*
X58098Y33479D01*
X58100Y33477D01*
X58101Y33477D01*
X58102Y33477D01*
X58105Y33474D01*
X58108Y33471D01*
X58111Y33468D01*
X58113Y33465D01*
X58115Y33463D01*
X58116Y33461D01*
X58117Y33460D01*
X58117Y33459D01*
X58119Y33455D01*
X58120Y33451D01*
X58121Y33447D01*
X58122Y33444D01*
X58122Y33441D01*
X58123Y33438D01*
Y33437D01*
Y33436D01*
X58122Y33431D01*
X58121Y33426D01*
X58121Y33422D01*
X58119Y33419D01*
X58118Y33415D01*
X58117Y33413D01*
X58116Y33412D01*
X58116Y33411D01*
X58113Y33407D01*
X58110Y33404D01*
X58107Y33401D01*
X58103Y33398D01*
X58100Y33396D01*
X58098Y33395D01*
X58096Y33394D01*
X58096Y33394D01*
X58093Y33392D01*
X58090Y33391D01*
X58082Y33389D01*
X58074Y33386D01*
X58066Y33384D01*
X58059Y33382D01*
X58056Y33381D01*
X58053Y33380D01*
X58050Y33379D01*
X58049Y33379D01*
X58048Y33378D01*
X58047D01*
X58043Y33377D01*
X58038Y33376D01*
X58035Y33375D01*
X58031Y33374D01*
X58026Y33372D01*
X58022Y33371D01*
X58018Y33369D01*
X58017Y33369D01*
X58015Y33368D01*
X58015Y33368D01*
X58012Y33366D01*
X58009Y33363D01*
X58008Y33360D01*
X58007Y33357D01*
X58006Y33355D01*
X58006Y33353D01*
Y33351D01*
Y33351D01*
X58006Y33347D01*
X58007Y33343D01*
X58009Y33339D01*
X58011Y33336D01*
X58013Y33334D01*
X58015Y33332D01*
X58016Y33330D01*
X58016Y33330D01*
X58020Y33327D01*
X58025Y33325D01*
X58031Y33323D01*
X58036Y33323D01*
X58041Y33322D01*
X58045Y33321D01*
X58048D01*
X58056Y33322D01*
X58063Y33323D01*
X58068Y33325D01*
X58073Y33327D01*
X58077Y33328D01*
X58080Y33330D01*
X58082Y33331D01*
X58082Y33331D01*
X58086Y33335D01*
X58089Y33340D01*
X58092Y33345D01*
X58094Y33350D01*
X58095Y33354D01*
X58096Y33357D01*
X58096Y33360D01*
Y33360D01*
Y33360D01*
X58128Y33355D01*
X58125Y33345D01*
X58122Y33336D01*
X58118Y33328D01*
X58114Y33322D01*
X58110Y33317D01*
X58107Y33313D01*
X58105Y33311D01*
X58104Y33311D01*
X58104D01*
X58100Y33308D01*
X58096Y33305D01*
X58087Y33302D01*
X58078Y33299D01*
X58069Y33298D01*
X58061Y33296D01*
X58057Y33296D01*
X58054D01*
X58052Y33296D01*
X58048D01*
X58041Y33296D01*
X58033Y33297D01*
X58027Y33298D01*
X58021Y33300D01*
X58016Y33301D01*
X58013Y33302D01*
X58010Y33303D01*
X58009Y33303D01*
X58003Y33306D01*
X57998Y33310D01*
X57993Y33313D01*
X57990Y33317D01*
X57986Y33320D01*
X57984Y33322D01*
X57983Y33324D01*
X57983Y33325D01*
X57979Y33330D01*
X57977Y33335D01*
X57976Y33340D01*
X57974Y33345D01*
X57974Y33348D01*
X57973Y33351D01*
Y33353D01*
Y33354D01*
X57974Y33360D01*
X57974Y33365D01*
X57976Y33370D01*
X57977Y33374D01*
X57979Y33377D01*
X57980Y33379D01*
X57981Y33381D01*
X57981Y33381D01*
X57984Y33385D01*
X57987Y33388D01*
X57991Y33391D01*
X57994Y33394D01*
X57997Y33395D01*
X57999Y33396D01*
X58001Y33397D01*
X58002Y33398D01*
X58004Y33399D01*
X58008Y33400D01*
X58015Y33402D01*
X58022Y33405D01*
X58030Y33407D01*
X58037Y33409D01*
X58040Y33410D01*
X58043Y33411D01*
X58045Y33412D01*
X58047Y33412D01*
X58048Y33412D01*
X58048D01*
X58053Y33413D01*
X58056Y33415D01*
X58063Y33416D01*
X58068Y33418D01*
X58071Y33419D01*
X58074Y33420D01*
X58075Y33420D01*
X58076Y33421D01*
X58077D01*
X58079Y33422D01*
X58082Y33423D01*
X58084Y33424D01*
X58086Y33426D01*
X58088Y33428D01*
X58088Y33428D01*
X58089Y33429D01*
X58091Y33433D01*
X58092Y33436D01*
Y33438D01*
X58092Y33439D01*
Y33440D01*
Y33440D01*
X58092Y33444D01*
X58091Y33447D01*
X58089Y33450D01*
X58087Y33452D01*
X58086Y33454D01*
X58085Y33456D01*
X58084Y33456D01*
X58083Y33457D01*
X58079Y33459D01*
X58074Y33461D01*
X58069Y33462D01*
X58064Y33463D01*
X58059Y33464D01*
X58056Y33464D01*
X58052D01*
X58045Y33464D01*
X58040Y33463D01*
X58035Y33461D01*
X58031Y33460D01*
X58028Y33459D01*
X58025Y33457D01*
X58024Y33456D01*
X58024Y33456D01*
X58020Y33453D01*
X58017Y33449D01*
X58015Y33445D01*
X58013Y33442D01*
X58012Y33439D01*
X58011Y33436D01*
X58011Y33435D01*
Y33434D01*
X57980Y33438D01*
X57982Y33444D01*
X57983Y33450D01*
X57985Y33455D01*
X57987Y33459D01*
X57989Y33462D01*
X57990Y33464D01*
X57991Y33466D01*
X57992Y33466D01*
X57995Y33470D01*
X57999Y33474D01*
X58003Y33476D01*
X58007Y33479D01*
X58010Y33481D01*
X58013Y33482D01*
X58015Y33483D01*
X58016Y33483D01*
X58016D01*
X58022Y33486D01*
X58029Y33487D01*
X58035Y33488D01*
X58041Y33489D01*
X58047Y33490D01*
X58051Y33490D01*
X58060D01*
X58065Y33489D01*
D02*
G37*
G36*
X57130D02*
X57134Y33489D01*
X57139Y33488D01*
X57142Y33487D01*
X57144Y33487D01*
X57146Y33486D01*
X57147D01*
X57151Y33484D01*
X57155Y33483D01*
X57158Y33481D01*
X57161Y33480D01*
X57164Y33479D01*
X57165Y33477D01*
X57166Y33477D01*
X57167Y33477D01*
X57170Y33474D01*
X57173Y33471D01*
X57176Y33468D01*
X57178Y33465D01*
X57180Y33463D01*
X57181Y33461D01*
X57182Y33460D01*
X57182Y33459D01*
X57184Y33455D01*
X57185Y33451D01*
X57187Y33447D01*
X57187Y33444D01*
X57187Y33441D01*
X57188Y33438D01*
Y33437D01*
Y33436D01*
X57187Y33431D01*
X57187Y33426D01*
X57186Y33422D01*
X57184Y33419D01*
X57183Y33415D01*
X57182Y33413D01*
X57182Y33412D01*
X57181Y33411D01*
X57178Y33407D01*
X57175Y33404D01*
X57172Y33401D01*
X57168Y33398D01*
X57166Y33396D01*
X57163Y33395D01*
X57161Y33394D01*
X57161Y33394D01*
X57158Y33392D01*
X57155Y33391D01*
X57148Y33389D01*
X57139Y33386D01*
X57132Y33384D01*
X57124Y33382D01*
X57121Y33381D01*
X57118Y33380D01*
X57116Y33379D01*
X57114Y33379D01*
X57113Y33378D01*
X57112D01*
X57108Y33377D01*
X57104Y33376D01*
X57100Y33375D01*
X57096Y33374D01*
X57091Y33372D01*
X57087Y33371D01*
X57084Y33369D01*
X57082Y33369D01*
X57080Y33368D01*
X57080Y33368D01*
X57077Y33366D01*
X57075Y33363D01*
X57073Y33360D01*
X57072Y33357D01*
X57071Y33355D01*
X57071Y33353D01*
Y33351D01*
Y33351D01*
X57071Y33347D01*
X57072Y33343D01*
X57074Y33339D01*
X57076Y33336D01*
X57078Y33334D01*
X57080Y33332D01*
X57081Y33330D01*
X57081Y33330D01*
X57086Y33327D01*
X57091Y33325D01*
X57096Y33323D01*
X57102Y33323D01*
X57106Y33322D01*
X57110Y33321D01*
X57114D01*
X57121Y33322D01*
X57128Y33323D01*
X57134Y33325D01*
X57139Y33327D01*
X57142Y33328D01*
X57145Y33330D01*
X57147Y33331D01*
X57147Y33331D01*
X57151Y33335D01*
X57155Y33340D01*
X57157Y33345D01*
X57159Y33350D01*
X57160Y33354D01*
X57161Y33357D01*
X57162Y33360D01*
Y33360D01*
Y33360D01*
X57193Y33355D01*
X57190Y33345D01*
X57187Y33336D01*
X57183Y33328D01*
X57179Y33322D01*
X57175Y33317D01*
X57172Y33313D01*
X57170Y33311D01*
X57169Y33311D01*
X57169D01*
X57165Y33308D01*
X57161Y33305D01*
X57152Y33302D01*
X57143Y33299D01*
X57134Y33298D01*
X57126Y33296D01*
X57123Y33296D01*
X57119D01*
X57117Y33296D01*
X57114D01*
X57106Y33296D01*
X57098Y33297D01*
X57092Y33298D01*
X57086Y33300D01*
X57081Y33301D01*
X57078Y33302D01*
X57075Y33303D01*
X57075Y33303D01*
X57068Y33306D01*
X57063Y33310D01*
X57058Y33313D01*
X57055Y33317D01*
X57052Y33320D01*
X57049Y33322D01*
X57048Y33324D01*
X57048Y33325D01*
X57045Y33330D01*
X57042Y33335D01*
X57041Y33340D01*
X57040Y33345D01*
X57039Y33348D01*
X57038Y33351D01*
Y33353D01*
Y33354D01*
X57039Y33360D01*
X57040Y33365D01*
X57041Y33370D01*
X57042Y33374D01*
X57044Y33377D01*
X57045Y33379D01*
X57046Y33381D01*
X57046Y33381D01*
X57049Y33385D01*
X57052Y33388D01*
X57056Y33391D01*
X57059Y33394D01*
X57062Y33395D01*
X57065Y33396D01*
X57066Y33397D01*
X57067Y33398D01*
X57070Y33399D01*
X57073Y33400D01*
X57080Y33402D01*
X57088Y33405D01*
X57095Y33407D01*
X57102Y33409D01*
X57105Y33410D01*
X57108Y33411D01*
X57111Y33412D01*
X57112Y33412D01*
X57113Y33412D01*
X57114D01*
X57118Y33413D01*
X57121Y33415D01*
X57128Y33416D01*
X57133Y33418D01*
X57136Y33419D01*
X57139Y33420D01*
X57141Y33420D01*
X57141Y33421D01*
X57142D01*
X57144Y33422D01*
X57147Y33423D01*
X57149Y33424D01*
X57151Y33426D01*
X57153Y33428D01*
X57153Y33428D01*
X57154Y33429D01*
X57156Y33433D01*
X57157Y33436D01*
Y33438D01*
X57157Y33439D01*
Y33440D01*
Y33440D01*
X57157Y33444D01*
X57156Y33447D01*
X57155Y33450D01*
X57153Y33452D01*
X57151Y33454D01*
X57150Y33456D01*
X57149Y33456D01*
X57148Y33457D01*
X57144Y33459D01*
X57139Y33461D01*
X57134Y33462D01*
X57129Y33463D01*
X57125Y33464D01*
X57121Y33464D01*
X57117D01*
X57111Y33464D01*
X57105Y33463D01*
X57100Y33461D01*
X57096Y33460D01*
X57093Y33459D01*
X57091Y33457D01*
X57089Y33456D01*
X57089Y33456D01*
X57085Y33453D01*
X57082Y33449D01*
X57080Y33445D01*
X57079Y33442D01*
X57077Y33439D01*
X57077Y33436D01*
X57076Y33435D01*
Y33434D01*
X57045Y33438D01*
X57047Y33444D01*
X57049Y33450D01*
X57050Y33455D01*
X57052Y33459D01*
X57054Y33462D01*
X57056Y33464D01*
X57056Y33466D01*
X57057Y33466D01*
X57060Y33470D01*
X57064Y33474D01*
X57068Y33476D01*
X57072Y33479D01*
X57075Y33481D01*
X57079Y33482D01*
X57080Y33483D01*
X57081Y33483D01*
X57081D01*
X57088Y33486D01*
X57094Y33487D01*
X57100Y33488D01*
X57107Y33489D01*
X57112Y33490D01*
X57116Y33490D01*
X57125D01*
X57130Y33489D01*
D02*
G37*
G36*
X57459Y33300D02*
X57428D01*
Y33556D01*
X57459D01*
Y33300D01*
D02*
G37*
G36*
X54245Y33490D02*
X54253Y33488D01*
X54261Y33486D01*
X54267Y33484D01*
X54273Y33482D01*
X54277Y33481D01*
X54279Y33480D01*
X54280Y33479D01*
X54280Y33479D01*
X54281D01*
X54288Y33474D01*
X54294Y33468D01*
X54299Y33463D01*
X54303Y33458D01*
X54306Y33452D01*
X54309Y33449D01*
X54310Y33447D01*
X54310Y33446D01*
X54311Y33445D01*
Y33445D01*
X54314Y33436D01*
X54316Y33427D01*
X54318Y33418D01*
X54319Y33410D01*
X54320Y33403D01*
Y33400D01*
X54320Y33397D01*
Y33395D01*
Y33393D01*
Y33392D01*
Y33392D01*
X54320Y33383D01*
X54319Y33376D01*
X54319Y33368D01*
X54317Y33361D01*
X54315Y33355D01*
X54313Y33349D01*
X54311Y33343D01*
X54309Y33339D01*
X54307Y33334D01*
X54305Y33331D01*
X54303Y33328D01*
X54301Y33325D01*
X54299Y33323D01*
X54299Y33321D01*
X54298Y33321D01*
X54297Y33320D01*
X54293Y33316D01*
X54288Y33312D01*
X54283Y33309D01*
X54278Y33306D01*
X54273Y33304D01*
X54268Y33302D01*
X54258Y33299D01*
X54254Y33298D01*
X54250Y33297D01*
X54246Y33296D01*
X54243Y33296D01*
X54240Y33296D01*
X54237D01*
X54231Y33296D01*
X54226Y33296D01*
X54216Y33298D01*
X54207Y33302D01*
X54200Y33305D01*
X54194Y33308D01*
X54191Y33309D01*
X54189Y33311D01*
X54187Y33312D01*
X54186Y33313D01*
X54186Y33314D01*
X54186D01*
X54179Y33321D01*
X54173Y33329D01*
X54168Y33337D01*
X54164Y33345D01*
X54162Y33353D01*
X54161Y33356D01*
X54161Y33359D01*
X54160Y33360D01*
X54160Y33362D01*
X54159Y33363D01*
Y33364D01*
X54190Y33368D01*
X54192Y33360D01*
X54194Y33352D01*
X54197Y33346D01*
X54200Y33341D01*
X54202Y33337D01*
X54204Y33335D01*
X54206Y33333D01*
X54206Y33333D01*
X54211Y33329D01*
X54216Y33326D01*
X54221Y33324D01*
X54226Y33323D01*
X54230Y33322D01*
X54234Y33321D01*
X54237D01*
X54241Y33322D01*
X54245Y33322D01*
X54252Y33324D01*
X54259Y33327D01*
X54264Y33330D01*
X54268Y33333D01*
X54271Y33335D01*
X54273Y33337D01*
X54274Y33338D01*
X54276Y33342D01*
X54279Y33346D01*
X54282Y33354D01*
X54285Y33363D01*
X54286Y33372D01*
X54287Y33380D01*
X54288Y33383D01*
Y33387D01*
X54288Y33389D01*
Y33391D01*
Y33392D01*
Y33393D01*
Y33399D01*
X54287Y33406D01*
X54287Y33412D01*
X54286Y33417D01*
X54285Y33422D01*
X54283Y33426D01*
X54282Y33430D01*
X54281Y33434D01*
X54280Y33437D01*
X54278Y33440D01*
X54277Y33442D01*
X54276Y33444D01*
X54275Y33445D01*
X54274Y33446D01*
X54274Y33447D01*
X54271Y33450D01*
X54268Y33453D01*
X54261Y33457D01*
X54255Y33460D01*
X54249Y33462D01*
X54243Y33463D01*
X54239Y33464D01*
X54237Y33464D01*
X54235D01*
X54230Y33464D01*
X54224Y33463D01*
X54220Y33461D01*
X54216Y33460D01*
X54213Y33458D01*
X54210Y33456D01*
X54209Y33455D01*
X54209Y33454D01*
X54205Y33451D01*
X54202Y33446D01*
X54199Y33442D01*
X54196Y33437D01*
X54195Y33433D01*
X54194Y33429D01*
X54193Y33427D01*
X54193Y33427D01*
Y33426D01*
X54163Y33431D01*
X54165Y33441D01*
X54169Y33450D01*
X54173Y33457D01*
X54177Y33463D01*
X54181Y33468D01*
X54184Y33472D01*
X54186Y33474D01*
X54187Y33474D01*
X54187D01*
X54194Y33479D01*
X54203Y33483D01*
X54211Y33486D01*
X54219Y33488D01*
X54226Y33489D01*
X54229Y33490D01*
X54232D01*
X54233Y33490D01*
X54237D01*
X54245Y33490D01*
D02*
G37*
G36*
X62556Y34716D02*
X61759D01*
Y36501D01*
X62556D01*
Y34716D01*
D02*
G37*
G36*
X57589Y33490D02*
X57595Y33489D01*
X57602Y33488D01*
X57607Y33486D01*
X57613Y33484D01*
X57618Y33482D01*
X57623Y33479D01*
X57627Y33477D01*
X57631Y33474D01*
X57634Y33472D01*
X57637Y33470D01*
X57640Y33468D01*
X57642Y33466D01*
X57643Y33465D01*
X57644Y33464D01*
X57644Y33464D01*
X57648Y33459D01*
X57652Y33453D01*
X57655Y33447D01*
X57658Y33442D01*
X57660Y33435D01*
X57662Y33429D01*
X57665Y33418D01*
X57666Y33412D01*
X57667Y33407D01*
X57667Y33403D01*
X57667Y33399D01*
X57668Y33396D01*
Y33393D01*
Y33391D01*
Y33391D01*
X57667Y33383D01*
X57667Y33375D01*
X57666Y33367D01*
X57664Y33361D01*
X57662Y33355D01*
X57660Y33349D01*
X57658Y33344D01*
X57656Y33339D01*
X57654Y33335D01*
X57651Y33331D01*
X57650Y33328D01*
X57648Y33325D01*
X57646Y33323D01*
X57645Y33322D01*
X57644Y33321D01*
X57644Y33321D01*
X57639Y33316D01*
X57634Y33312D01*
X57629Y33309D01*
X57624Y33306D01*
X57619Y33304D01*
X57613Y33302D01*
X57603Y33299D01*
X57598Y33298D01*
X57594Y33297D01*
X57590Y33296D01*
X57586Y33296D01*
X57584Y33296D01*
X57580D01*
X57568Y33296D01*
X57558Y33298D01*
X57548Y33301D01*
X57541Y33304D01*
X57538Y33305D01*
X57535Y33306D01*
X57533Y33308D01*
X57531Y33309D01*
X57529Y33310D01*
X57527Y33311D01*
X57527Y33311D01*
X57527D01*
X57520Y33318D01*
X57513Y33325D01*
X57509Y33332D01*
X57505Y33339D01*
X57502Y33346D01*
X57501Y33349D01*
X57500Y33351D01*
X57499Y33353D01*
X57499Y33355D01*
X57498Y33355D01*
Y33356D01*
X57531Y33360D01*
X57534Y33353D01*
X57537Y33347D01*
X57540Y33342D01*
X57543Y33338D01*
X57546Y33334D01*
X57548Y33332D01*
X57550Y33331D01*
X57550Y33330D01*
X57555Y33327D01*
X57560Y33325D01*
X57565Y33324D01*
X57570Y33323D01*
X57573Y33322D01*
X57577Y33321D01*
X57580D01*
X57588Y33322D01*
X57595Y33324D01*
X57602Y33327D01*
X57608Y33330D01*
X57612Y33332D01*
X57616Y33335D01*
X57618Y33337D01*
X57618Y33337D01*
X57623Y33344D01*
X57628Y33352D01*
X57630Y33360D01*
X57633Y33367D01*
X57634Y33374D01*
X57635Y33377D01*
X57635Y33380D01*
Y33382D01*
X57635Y33383D01*
Y33384D01*
Y33385D01*
X57497D01*
X57497Y33388D01*
Y33391D01*
Y33392D01*
Y33393D01*
X57497Y33401D01*
X57498Y33409D01*
X57499Y33417D01*
X57501Y33423D01*
X57502Y33430D01*
X57504Y33436D01*
X57507Y33441D01*
X57509Y33446D01*
X57511Y33450D01*
X57513Y33454D01*
X57515Y33457D01*
X57517Y33460D01*
X57518Y33461D01*
X57520Y33463D01*
X57520Y33464D01*
X57521Y33464D01*
X57525Y33469D01*
X57530Y33473D01*
X57535Y33476D01*
X57540Y33479D01*
X57545Y33482D01*
X57550Y33484D01*
X57560Y33487D01*
X57564Y33488D01*
X57568Y33489D01*
X57572Y33489D01*
X57575Y33490D01*
X57578Y33490D01*
X57582D01*
X57589Y33490D01*
D02*
G37*
G36*
X56535D02*
X56541Y33489D01*
X56547Y33488D01*
X56553Y33486D01*
X56559Y33484D01*
X56564Y33482D01*
X56569Y33479D01*
X56573Y33477D01*
X56577Y33474D01*
X56580Y33472D01*
X56583Y33470D01*
X56586Y33468D01*
X56588Y33466D01*
X56589Y33465D01*
X56589Y33464D01*
X56590Y33464D01*
X56594Y33459D01*
X56598Y33453D01*
X56601Y33447D01*
X56604Y33442D01*
X56606Y33435D01*
X56608Y33429D01*
X56611Y33418D01*
X56612Y33412D01*
X56613Y33407D01*
X56613Y33403D01*
X56613Y33399D01*
X56614Y33396D01*
Y33393D01*
Y33391D01*
Y33391D01*
X56613Y33383D01*
X56613Y33375D01*
X56611Y33367D01*
X56610Y33361D01*
X56608Y33355D01*
X56606Y33349D01*
X56604Y33344D01*
X56602Y33339D01*
X56600Y33335D01*
X56597Y33331D01*
X56595Y33328D01*
X56593Y33325D01*
X56592Y33323D01*
X56591Y33322D01*
X56590Y33321D01*
X56590Y33321D01*
X56585Y33316D01*
X56580Y33312D01*
X56575Y33309D01*
X56570Y33306D01*
X56565Y33304D01*
X56559Y33302D01*
X56549Y33299D01*
X56544Y33298D01*
X56540Y33297D01*
X56536Y33296D01*
X56532Y33296D01*
X56529Y33296D01*
X56526D01*
X56514Y33296D01*
X56504Y33298D01*
X56494Y33301D01*
X56487Y33304D01*
X56483Y33305D01*
X56481Y33306D01*
X56478Y33308D01*
X56476Y33309D01*
X56474Y33310D01*
X56473Y33311D01*
X56473Y33311D01*
X56472D01*
X56465Y33318D01*
X56459Y33325D01*
X56455Y33332D01*
X56451Y33339D01*
X56448Y33346D01*
X56446Y33349D01*
X56446Y33351D01*
X56445Y33353D01*
X56444Y33355D01*
X56444Y33355D01*
Y33356D01*
X56476Y33360D01*
X56480Y33353D01*
X56483Y33347D01*
X56486Y33342D01*
X56489Y33338D01*
X56492Y33334D01*
X56494Y33332D01*
X56495Y33331D01*
X56496Y33330D01*
X56501Y33327D01*
X56506Y33325D01*
X56511Y33324D01*
X56515Y33323D01*
X56519Y33322D01*
X56522Y33321D01*
X56526D01*
X56534Y33322D01*
X56541Y33324D01*
X56548Y33327D01*
X56554Y33330D01*
X56558Y33332D01*
X56561Y33335D01*
X56563Y33337D01*
X56564Y33337D01*
X56569Y33344D01*
X56574Y33352D01*
X56576Y33360D01*
X56579Y33367D01*
X56580Y33374D01*
X56581Y33377D01*
X56581Y33380D01*
Y33382D01*
X56581Y33383D01*
Y33384D01*
Y33385D01*
X56443D01*
X56443Y33388D01*
Y33391D01*
Y33392D01*
Y33393D01*
X56443Y33401D01*
X56444Y33409D01*
X56445Y33417D01*
X56446Y33423D01*
X56448Y33430D01*
X56450Y33436D01*
X56453Y33441D01*
X56455Y33446D01*
X56457Y33450D01*
X56459Y33454D01*
X56461Y33457D01*
X56463Y33460D01*
X56464Y33461D01*
X56465Y33463D01*
X56466Y33464D01*
X56467Y33464D01*
X56471Y33469D01*
X56476Y33473D01*
X56481Y33476D01*
X56486Y33479D01*
X56491Y33482D01*
X56496Y33484D01*
X56506Y33487D01*
X56510Y33488D01*
X56514Y33489D01*
X56518Y33489D01*
X56521Y33490D01*
X56524Y33490D01*
X56527D01*
X56535Y33490D01*
D02*
G37*
G36*
X58394Y33300D02*
X58362D01*
Y33556D01*
X58394D01*
Y33300D01*
D02*
G37*
G36*
X57927D02*
X57891D01*
Y33336D01*
X57927D01*
Y33300D01*
D02*
G37*
G36*
X58970Y33490D02*
X58976Y33489D01*
X58983Y33487D01*
X58988Y33485D01*
X58993Y33483D01*
X58998Y33480D01*
X59002Y33477D01*
X59007Y33475D01*
X59010Y33472D01*
X59013Y33469D01*
X59016Y33466D01*
X59018Y33464D01*
X59020Y33462D01*
X59021Y33460D01*
X59021Y33460D01*
X59022Y33459D01*
Y33486D01*
X59050D01*
Y33300D01*
X59018D01*
Y33401D01*
Y33408D01*
X59018Y33413D01*
X59017Y33419D01*
X59016Y33424D01*
X59015Y33428D01*
X59014Y33432D01*
X59013Y33436D01*
X59011Y33439D01*
X59010Y33442D01*
X59009Y33444D01*
X59006Y33447D01*
X59005Y33449D01*
X59004Y33450D01*
X58999Y33454D01*
X58992Y33457D01*
X58987Y33460D01*
X58981Y33461D01*
X58976Y33462D01*
X58973Y33463D01*
X58969D01*
X58965Y33462D01*
X58961Y33462D01*
X58957Y33461D01*
X58954Y33460D01*
X58951Y33459D01*
X58949Y33458D01*
X58948Y33457D01*
X58947Y33457D01*
X58944Y33454D01*
X58942Y33452D01*
X58939Y33449D01*
X58937Y33447D01*
X58936Y33445D01*
X58935Y33443D01*
X58935Y33442D01*
Y33441D01*
X58933Y33437D01*
X58932Y33433D01*
X58931Y33428D01*
X58931Y33424D01*
X58931Y33419D01*
Y33416D01*
Y33413D01*
Y33413D01*
Y33413D01*
Y33300D01*
X58899D01*
Y33414D01*
Y33422D01*
X58899Y33428D01*
X58900Y33433D01*
Y33438D01*
X58900Y33441D01*
X58901Y33443D01*
X58901Y33444D01*
Y33445D01*
X58902Y33449D01*
X58904Y33454D01*
X58905Y33458D01*
X58907Y33461D01*
X58908Y33464D01*
X58910Y33466D01*
X58910Y33467D01*
X58911Y33468D01*
X58913Y33471D01*
X58917Y33474D01*
X58921Y33477D01*
X58924Y33479D01*
X58927Y33481D01*
X58929Y33483D01*
X58931Y33483D01*
X58932Y33484D01*
X58937Y33486D01*
X58942Y33487D01*
X58948Y33488D01*
X58952Y33489D01*
X58956Y33490D01*
X58960Y33490D01*
X58963D01*
X58970Y33490D01*
D02*
G37*
G36*
X58851Y33300D02*
X58819D01*
Y33486D01*
X58851D01*
Y33300D01*
D02*
G37*
G36*
Y33520D02*
X58819D01*
Y33556D01*
X58851D01*
Y33520D01*
D02*
G37*
G36*
X54750Y37446D02*
X53930D01*
Y38106D01*
X54750D01*
Y37446D01*
D02*
G37*
G36*
X59584Y37636D02*
X59592Y37635D01*
X59608Y37631D01*
X59622Y37627D01*
X59633Y37622D01*
X59639Y37619D01*
X59643Y37617D01*
X59646Y37614D01*
X59650Y37612D01*
X59652Y37610D01*
X59654Y37609D01*
X59654Y37608D01*
X59655Y37607D01*
X59660Y37602D01*
X59665Y37596D01*
X59669Y37590D01*
X59672Y37584D01*
X59678Y37572D01*
X59681Y37561D01*
X59683Y37551D01*
X59684Y37547D01*
X59684Y37544D01*
X59685Y37541D01*
Y37538D01*
Y37537D01*
Y37537D01*
X59684Y37527D01*
X59682Y37518D01*
X59680Y37510D01*
X59678Y37503D01*
X59675Y37497D01*
X59673Y37493D01*
X59671Y37490D01*
X59671Y37489D01*
X59665Y37482D01*
X59658Y37476D01*
X59651Y37471D01*
X59643Y37466D01*
X59637Y37464D01*
X59632Y37461D01*
X59628Y37459D01*
X59627Y37459D01*
X59627D01*
X59639Y37455D01*
X59650Y37449D01*
X59660Y37444D01*
X59667Y37438D01*
X59673Y37433D01*
X59678Y37428D01*
X59680Y37425D01*
X59681Y37424D01*
Y37424D01*
X59688Y37414D01*
X59692Y37403D01*
X59695Y37393D01*
X59698Y37383D01*
X59699Y37375D01*
X59699Y37371D01*
Y37368D01*
X59700Y37365D01*
Y37363D01*
Y37362D01*
Y37361D01*
X59699Y37352D01*
X59698Y37343D01*
X59697Y37335D01*
X59695Y37327D01*
X59689Y37313D01*
X59686Y37306D01*
X59682Y37300D01*
X59680Y37295D01*
X59677Y37290D01*
X59674Y37286D01*
X59671Y37283D01*
X59668Y37280D01*
X59667Y37279D01*
X59666Y37277D01*
X59665Y37277D01*
X59658Y37271D01*
X59651Y37266D01*
X59644Y37262D01*
X59636Y37258D01*
X59629Y37255D01*
X59621Y37252D01*
X59606Y37248D01*
X59599Y37246D01*
X59594Y37245D01*
X59588Y37245D01*
X59583Y37244D01*
X59579Y37244D01*
X59574D01*
X59563Y37244D01*
X59553Y37245D01*
X59544Y37246D01*
X59536Y37249D01*
X59527Y37251D01*
X59520Y37254D01*
X59513Y37257D01*
X59506Y37261D01*
X59501Y37263D01*
X59496Y37266D01*
X59492Y37269D01*
X59488Y37272D01*
X59485Y37274D01*
X59484Y37276D01*
X59482Y37276D01*
X59482Y37277D01*
X59475Y37283D01*
X59470Y37290D01*
X59465Y37297D01*
X59461Y37304D01*
X59458Y37311D01*
X59455Y37318D01*
X59451Y37331D01*
X59448Y37342D01*
X59448Y37348D01*
X59447Y37352D01*
X59447Y37355D01*
Y37358D01*
Y37359D01*
Y37360D01*
X59447Y37373D01*
X59450Y37385D01*
X59453Y37395D01*
X59456Y37404D01*
X59460Y37411D01*
X59462Y37417D01*
X59465Y37420D01*
X59465Y37421D01*
X59473Y37430D01*
X59482Y37438D01*
X59491Y37445D01*
X59499Y37450D01*
X59507Y37454D01*
X59513Y37457D01*
X59516Y37458D01*
X59517Y37458D01*
X59519Y37459D01*
X59519D01*
X59509Y37463D01*
X59501Y37468D01*
X59493Y37473D01*
X59487Y37478D01*
X59482Y37482D01*
X59479Y37486D01*
X59477Y37488D01*
X59477Y37489D01*
X59472Y37496D01*
X59468Y37504D01*
X59466Y37512D01*
X59464Y37520D01*
X59463Y37526D01*
X59462Y37531D01*
Y37534D01*
Y37535D01*
X59463Y37543D01*
X59464Y37551D01*
X59467Y37564D01*
X59472Y37576D01*
X59478Y37587D01*
X59484Y37595D01*
X59486Y37599D01*
X59489Y37602D01*
X59491Y37604D01*
X59492Y37606D01*
X59493Y37606D01*
X59493Y37607D01*
X59499Y37612D01*
X59506Y37617D01*
X59512Y37620D01*
X59519Y37624D01*
X59533Y37629D01*
X59546Y37633D01*
X59557Y37634D01*
X59562Y37636D01*
X59567D01*
X59570Y37636D01*
X59575D01*
X59584Y37636D01*
D02*
G37*
G36*
X58180Y38190D02*
X58195Y38188D01*
X58208Y38186D01*
X58221Y38183D01*
X58232Y38178D01*
X58244Y38174D01*
X58253Y38169D01*
X58263Y38164D01*
X58271Y38159D01*
X58278Y38153D01*
X58284Y38149D01*
X58289Y38145D01*
X58293Y38142D01*
X58296Y38139D01*
X58298Y38137D01*
X58299Y38136D01*
X58307Y38126D01*
X58315Y38115D01*
X58322Y38102D01*
X58328Y38090D01*
X58333Y38078D01*
X58337Y38066D01*
X58340Y38053D01*
X58343Y38042D01*
X58345Y38030D01*
X58346Y38020D01*
X58348Y38011D01*
X58349Y38002D01*
Y37996D01*
X58349Y37991D01*
Y37988D01*
Y37987D01*
X58348Y37968D01*
X58346Y37950D01*
X58342Y37934D01*
X58341Y37927D01*
X58338Y37920D01*
X58337Y37913D01*
X58335Y37908D01*
X58333Y37903D01*
X58331Y37899D01*
X58330Y37895D01*
X58329Y37893D01*
X58328Y37891D01*
Y37891D01*
X58318Y37875D01*
X58308Y37860D01*
X58297Y37849D01*
X58287Y37838D01*
X58277Y37830D01*
X58273Y37827D01*
X58270Y37824D01*
X58267Y37822D01*
X58265Y37820D01*
X58263Y37820D01*
X58263Y37819D01*
X58255Y37815D01*
X58246Y37811D01*
X58229Y37805D01*
X58213Y37800D01*
X58198Y37797D01*
X58191Y37796D01*
X58185Y37795D01*
X58180Y37794D01*
X58175D01*
X58171Y37794D01*
X58166D01*
X58148Y37795D01*
X58130Y37797D01*
X58114Y37801D01*
X58101Y37805D01*
X58094Y37808D01*
X58089Y37809D01*
X58084Y37812D01*
X58080Y37813D01*
X58077Y37815D01*
X58074Y37816D01*
X58073Y37817D01*
X58073D01*
X58057Y37827D01*
X58044Y37838D01*
X58032Y37850D01*
X58023Y37861D01*
X58016Y37871D01*
X58013Y37875D01*
X58010Y37879D01*
X58008Y37882D01*
X58007Y37885D01*
X58006Y37886D01*
Y37887D01*
X57998Y37904D01*
X57992Y37922D01*
X57988Y37940D01*
X57985Y37956D01*
X57984Y37964D01*
X57983Y37970D01*
X57983Y37976D01*
Y37981D01*
X57982Y37985D01*
Y37989D01*
Y37991D01*
Y37991D01*
X57983Y38012D01*
X57986Y38032D01*
X57989Y38049D01*
X57991Y38057D01*
X57993Y38064D01*
X57995Y38071D01*
X57998Y38077D01*
X58000Y38082D01*
X58001Y38086D01*
X58003Y38090D01*
X58004Y38092D01*
X58005Y38094D01*
Y38094D01*
X58014Y38111D01*
X58024Y38125D01*
X58035Y38137D01*
X58046Y38147D01*
X58055Y38155D01*
X58059Y38158D01*
X58063Y38160D01*
X58066Y38163D01*
X58068Y38164D01*
X58069Y38165D01*
X58070D01*
X58078Y38170D01*
X58086Y38174D01*
X58103Y38180D01*
X58119Y38184D01*
X58134Y38188D01*
X58141Y38188D01*
X58146Y38190D01*
X58152Y38190D01*
X58157D01*
X58160Y38191D01*
X58166D01*
X58180Y38190D01*
D02*
G37*
G36*
X59557D02*
X59570Y38188D01*
X59582Y38187D01*
X59593Y38184D01*
X59601Y38181D01*
X59604Y38180D01*
X59607Y38180D01*
X59610Y38178D01*
X59612Y38178D01*
X59612Y38177D01*
X59613D01*
X59624Y38172D01*
X59634Y38166D01*
X59642Y38159D01*
X59649Y38153D01*
X59654Y38147D01*
X59658Y38143D01*
X59660Y38140D01*
X59661Y38139D01*
Y38139D01*
X59666Y38129D01*
X59670Y38119D01*
X59673Y38111D01*
X59675Y38102D01*
X59676Y38095D01*
X59677Y38090D01*
Y38087D01*
Y38085D01*
Y38085D01*
Y38084D01*
X59677Y38075D01*
X59675Y38066D01*
X59673Y38057D01*
X59670Y38050D01*
X59668Y38045D01*
X59666Y38040D01*
X59664Y38038D01*
X59664Y38036D01*
X59658Y38029D01*
X59652Y38022D01*
X59645Y38016D01*
X59638Y38011D01*
X59632Y38007D01*
X59628Y38004D01*
X59624Y38001D01*
X59624Y38001D01*
X59623D01*
X59619Y37998D01*
X59614Y37997D01*
X59602Y37992D01*
X59590Y37988D01*
X59578Y37984D01*
X59567Y37981D01*
X59562Y37980D01*
X59558Y37979D01*
X59555Y37978D01*
X59552Y37977D01*
X59550Y37977D01*
X59549D01*
X59540Y37974D01*
X59531Y37972D01*
X59523Y37970D01*
X59516Y37968D01*
X59510Y37967D01*
X59504Y37965D01*
X59500Y37964D01*
X59495Y37963D01*
X59491Y37961D01*
X59488Y37960D01*
X59484Y37959D01*
X59481Y37959D01*
X59481Y37958D01*
X59473Y37954D01*
X59465Y37950D01*
X59459Y37947D01*
X59454Y37943D01*
X59451Y37940D01*
X59448Y37937D01*
X59447Y37936D01*
X59446Y37935D01*
X59443Y37930D01*
X59440Y37925D01*
X59438Y37919D01*
X59437Y37914D01*
X59436Y37910D01*
X59436Y37906D01*
Y37904D01*
Y37904D01*
X59436Y37897D01*
X59438Y37891D01*
X59439Y37885D01*
X59441Y37881D01*
X59443Y37877D01*
X59445Y37874D01*
X59446Y37871D01*
X59447Y37871D01*
X59452Y37866D01*
X59457Y37861D01*
X59462Y37857D01*
X59468Y37853D01*
X59473Y37850D01*
X59477Y37849D01*
X59479Y37847D01*
X59480Y37847D01*
X59489Y37844D01*
X59498Y37842D01*
X59506Y37840D01*
X59514Y37840D01*
X59521Y37839D01*
X59526Y37839D01*
X59531D01*
X59543Y37839D01*
X59554Y37840D01*
X59564Y37842D01*
X59573Y37844D01*
X59580Y37846D01*
X59586Y37848D01*
X59589Y37849D01*
X59590Y37850D01*
X59590D01*
X59599Y37854D01*
X59607Y37859D01*
X59614Y37864D01*
X59619Y37869D01*
X59624Y37873D01*
X59626Y37877D01*
X59628Y37879D01*
X59629Y37880D01*
X59633Y37887D01*
X59636Y37895D01*
X59639Y37903D01*
X59641Y37911D01*
X59642Y37918D01*
X59643Y37923D01*
X59644Y37926D01*
Y37927D01*
Y37928D01*
X59692Y37923D01*
X59691Y37909D01*
X59688Y37897D01*
X59685Y37884D01*
X59681Y37874D01*
X59678Y37866D01*
X59676Y37862D01*
X59674Y37859D01*
X59673Y37857D01*
X59672Y37855D01*
X59672Y37854D01*
Y37854D01*
X59663Y37843D01*
X59654Y37834D01*
X59645Y37826D01*
X59636Y37820D01*
X59628Y37815D01*
X59622Y37811D01*
X59619Y37810D01*
X59618Y37809D01*
X59617Y37808D01*
X59616D01*
X59602Y37804D01*
X59587Y37800D01*
X59573Y37797D01*
X59559Y37795D01*
X59553Y37795D01*
X59547Y37794D01*
X59542D01*
X59538Y37794D01*
X59529D01*
X59514Y37794D01*
X59500Y37796D01*
X59487Y37798D01*
X59477Y37801D01*
X59467Y37804D01*
X59464Y37805D01*
X59461Y37806D01*
X59459Y37807D01*
X59457Y37808D01*
X59456Y37808D01*
X59455D01*
X59443Y37815D01*
X59433Y37821D01*
X59424Y37828D01*
X59417Y37835D01*
X59411Y37841D01*
X59408Y37846D01*
X59405Y37849D01*
X59404Y37850D01*
X59398Y37860D01*
X59394Y37871D01*
X59391Y37881D01*
X59389Y37889D01*
X59388Y37897D01*
X59387Y37903D01*
Y37905D01*
Y37907D01*
Y37908D01*
Y37908D01*
X59387Y37919D01*
X59389Y37930D01*
X59392Y37939D01*
X59395Y37947D01*
X59398Y37954D01*
X59401Y37959D01*
X59402Y37961D01*
X59403Y37963D01*
X59409Y37971D01*
X59417Y37978D01*
X59425Y37985D01*
X59433Y37991D01*
X59441Y37995D01*
X59447Y37999D01*
X59449Y38000D01*
X59450Y38001D01*
X59452Y38002D01*
X59452D01*
X59457Y38004D01*
X59463Y38006D01*
X59469Y38008D01*
X59476Y38010D01*
X59490Y38014D01*
X59504Y38018D01*
X59516Y38021D01*
X59522Y38023D01*
X59528Y38024D01*
X59532Y38025D01*
X59535Y38026D01*
X59537Y38026D01*
X59538D01*
X59549Y38029D01*
X59559Y38032D01*
X59567Y38034D01*
X59576Y38037D01*
X59583Y38039D01*
X59588Y38041D01*
X59594Y38043D01*
X59598Y38046D01*
X59602Y38047D01*
X59606Y38049D01*
X59608Y38050D01*
X59610Y38052D01*
X59613Y38053D01*
X59614Y38054D01*
X59618Y38059D01*
X59622Y38064D01*
X59625Y38070D01*
X59626Y38076D01*
X59628Y38080D01*
X59628Y38084D01*
Y38087D01*
Y38088D01*
X59627Y38097D01*
X59625Y38104D01*
X59622Y38111D01*
X59618Y38117D01*
X59614Y38122D01*
X59611Y38126D01*
X59608Y38128D01*
X59608Y38129D01*
X59604Y38132D01*
X59599Y38135D01*
X59588Y38139D01*
X59577Y38142D01*
X59566Y38143D01*
X59556Y38145D01*
X59552D01*
X59548Y38146D01*
X59540D01*
X59525Y38145D01*
X59511Y38143D01*
X59500Y38140D01*
X59490Y38136D01*
X59483Y38133D01*
X59478Y38130D01*
X59475Y38128D01*
X59474Y38127D01*
X59466Y38119D01*
X59460Y38111D01*
X59455Y38102D01*
X59452Y38093D01*
X59449Y38085D01*
X59448Y38078D01*
X59447Y38076D01*
X59447Y38074D01*
Y38073D01*
Y38073D01*
X59398Y38076D01*
X59399Y38088D01*
X59402Y38100D01*
X59405Y38110D01*
X59409Y38119D01*
X59412Y38126D01*
X59415Y38132D01*
X59417Y38135D01*
X59418Y38136D01*
X59425Y38146D01*
X59433Y38154D01*
X59441Y38161D01*
X59449Y38167D01*
X59457Y38171D01*
X59463Y38174D01*
X59465Y38176D01*
X59467Y38176D01*
X59467Y38177D01*
X59468D01*
X59480Y38181D01*
X59493Y38185D01*
X59506Y38187D01*
X59518Y38189D01*
X59528Y38190D01*
X59532D01*
X59536Y38191D01*
X59543D01*
X59557Y38190D01*
D02*
G37*
G36*
X58791Y37640D02*
X58807Y37639D01*
X58821Y37637D01*
X58834Y37635D01*
X58847Y37632D01*
X58859Y37628D01*
X58869Y37626D01*
X58879Y37622D01*
X58889Y37618D01*
X58896Y37615D01*
X58903Y37612D01*
X58909Y37609D01*
X58914Y37606D01*
X58917Y37605D01*
X58919Y37603D01*
X58920Y37603D01*
X58930Y37595D01*
X58940Y37588D01*
X58949Y37579D01*
X58958Y37570D01*
X58966Y37561D01*
X58974Y37552D01*
X58981Y37543D01*
X58987Y37534D01*
X58992Y37526D01*
X58997Y37519D01*
X59001Y37511D01*
X59004Y37506D01*
X59007Y37501D01*
X59009Y37497D01*
X59010Y37495D01*
X59010Y37494D01*
X59015Y37483D01*
X59018Y37472D01*
X59025Y37451D01*
X59030Y37430D01*
X59031Y37420D01*
X59033Y37411D01*
X59034Y37403D01*
X59035Y37396D01*
X59035Y37389D01*
Y37383D01*
X59036Y37379D01*
Y37375D01*
Y37373D01*
Y37372D01*
X59035Y37351D01*
X59033Y37331D01*
X59029Y37313D01*
X59027Y37305D01*
X59025Y37297D01*
X59023Y37290D01*
X59021Y37285D01*
X59020Y37279D01*
X59018Y37275D01*
X59016Y37270D01*
X59016Y37268D01*
X59014Y37266D01*
Y37266D01*
X59007Y37252D01*
X58999Y37239D01*
X58990Y37227D01*
X58982Y37217D01*
X58974Y37209D01*
X58968Y37203D01*
X58966Y37200D01*
X58964Y37199D01*
X58963Y37198D01*
X58962Y37197D01*
X58949Y37187D01*
X58935Y37177D01*
X58921Y37170D01*
X58907Y37163D01*
X58901Y37161D01*
X58896Y37159D01*
X58891Y37157D01*
X58887Y37155D01*
X58883Y37154D01*
X58881Y37153D01*
X58879Y37152D01*
X58879D01*
X58860Y37147D01*
X58841Y37144D01*
X58823Y37141D01*
X58806Y37139D01*
X58799Y37138D01*
X58792Y37138D01*
X58786D01*
X58781Y37137D01*
X58771D01*
X58748Y37138D01*
X58738Y37139D01*
X58728Y37140D01*
X58718Y37141D01*
X58709Y37142D01*
X58701Y37144D01*
X58693Y37146D01*
X58687Y37147D01*
X58681Y37149D01*
X58676Y37150D01*
X58672Y37152D01*
X58668Y37152D01*
X58665Y37153D01*
X58664Y37154D01*
X58663D01*
X58647Y37160D01*
X58632Y37168D01*
X58619Y37176D01*
X58608Y37183D01*
X58598Y37189D01*
X58595Y37192D01*
X58592Y37194D01*
X58590Y37196D01*
X58587Y37198D01*
X58587Y37199D01*
X58586Y37199D01*
X58574Y37210D01*
X58565Y37220D01*
X58557Y37230D01*
X58550Y37238D01*
X58546Y37245D01*
X58542Y37250D01*
X58541Y37254D01*
X58540Y37255D01*
X58587D01*
X58597Y37243D01*
X58608Y37232D01*
X58619Y37223D01*
X58631Y37215D01*
X58641Y37208D01*
X58645Y37206D01*
X58649Y37203D01*
X58652Y37201D01*
X58655Y37200D01*
X58656Y37199D01*
X58657D01*
X58675Y37192D01*
X58694Y37186D01*
X58714Y37182D01*
X58732Y37179D01*
X58740Y37177D01*
X58748Y37177D01*
X58755Y37176D01*
X58760D01*
X58766Y37176D01*
X58772D01*
X58796Y37177D01*
X58818Y37179D01*
X58828Y37181D01*
X58838Y37183D01*
X58846Y37184D01*
X58855Y37187D01*
X58862Y37189D01*
X58869Y37191D01*
X58875Y37193D01*
X58880Y37194D01*
X58884Y37196D01*
X58887Y37197D01*
X58889Y37198D01*
X58889D01*
X58899Y37203D01*
X58908Y37207D01*
X58916Y37213D01*
X58924Y37218D01*
X58931Y37224D01*
X58938Y37230D01*
X58944Y37235D01*
X58949Y37241D01*
X58954Y37246D01*
X58958Y37251D01*
X58962Y37255D01*
X58965Y37259D01*
X58967Y37262D01*
X58969Y37265D01*
X58969Y37266D01*
X58970Y37266D01*
X58975Y37275D01*
X58979Y37285D01*
X58986Y37303D01*
X58990Y37321D01*
X58994Y37339D01*
X58995Y37347D01*
X58996Y37354D01*
X58997Y37360D01*
Y37366D01*
X58997Y37370D01*
Y37373D01*
Y37376D01*
Y37376D01*
X58997Y37388D01*
X58996Y37399D01*
X58993Y37420D01*
X58991Y37430D01*
X58989Y37440D01*
X58986Y37448D01*
X58983Y37457D01*
X58981Y37464D01*
X58979Y37471D01*
X58976Y37477D01*
X58974Y37482D01*
X58972Y37486D01*
X58971Y37489D01*
X58970Y37490D01*
Y37491D01*
X58965Y37501D01*
X58958Y37510D01*
X58952Y37519D01*
X58946Y37527D01*
X58939Y37534D01*
X58932Y37541D01*
X58926Y37547D01*
X58920Y37552D01*
X58914Y37557D01*
X58909Y37562D01*
X58904Y37565D01*
X58899Y37568D01*
X58896Y37571D01*
X58893Y37572D01*
X58892Y37573D01*
X58891Y37574D01*
X58881Y37579D01*
X58872Y37583D01*
X58862Y37587D01*
X58852Y37590D01*
X58833Y37596D01*
X58824Y37597D01*
X58815Y37599D01*
X58808Y37600D01*
X58801Y37601D01*
X58794Y37602D01*
X58789D01*
X58784Y37603D01*
X58779D01*
X58759Y37602D01*
X58741Y37599D01*
X58724Y37596D01*
X58716Y37593D01*
X58709Y37592D01*
X58703Y37589D01*
X58697Y37587D01*
X58692Y37585D01*
X58688Y37583D01*
X58685Y37582D01*
X58682Y37581D01*
X58681Y37580D01*
X58680D01*
X58665Y37571D01*
X58651Y37561D01*
X58639Y37551D01*
X58630Y37541D01*
X58623Y37533D01*
X58618Y37526D01*
X58616Y37523D01*
X58615Y37521D01*
X58614Y37520D01*
Y37519D01*
X58606Y37504D01*
X58600Y37490D01*
X58596Y37476D01*
X58594Y37464D01*
X58593Y37458D01*
X58592Y37453D01*
X58591Y37448D01*
Y37445D01*
X58591Y37441D01*
Y37439D01*
Y37438D01*
Y37437D01*
X58591Y37423D01*
X58594Y37410D01*
X58596Y37398D01*
X58600Y37387D01*
X58603Y37378D01*
X58604Y37374D01*
X58605Y37371D01*
X58607Y37368D01*
X58608Y37366D01*
X58608Y37365D01*
Y37365D01*
X58615Y37352D01*
X58623Y37341D01*
X58631Y37331D01*
X58639Y37324D01*
X58646Y37317D01*
X58651Y37313D01*
X58653Y37311D01*
X58655Y37310D01*
X58656Y37308D01*
X58656D01*
X58665Y37303D01*
X58672Y37299D01*
X58677Y37297D01*
X58683Y37294D01*
X58687Y37293D01*
X58690Y37293D01*
X58693D01*
X58698Y37293D01*
X58702Y37295D01*
X58704Y37297D01*
X58706Y37297D01*
X58708Y37301D01*
X58710Y37306D01*
X58711Y37308D01*
Y37309D01*
Y37310D01*
Y37311D01*
X58710Y37313D01*
X58710Y37318D01*
X58708Y37324D01*
X58707Y37331D01*
X58706Y37338D01*
X58704Y37344D01*
X58704Y37347D01*
Y37348D01*
X58703Y37349D01*
Y37350D01*
X58665Y37526D01*
X58712D01*
X58721Y37485D01*
X58727Y37494D01*
X58733Y37501D01*
X58739Y37507D01*
X58745Y37513D01*
X58749Y37516D01*
X58753Y37519D01*
X58756Y37521D01*
X58757Y37521D01*
X58765Y37526D01*
X58772Y37528D01*
X58780Y37531D01*
X58786Y37532D01*
X58792Y37533D01*
X58796Y37534D01*
X58800D01*
X58811Y37533D01*
X58822Y37530D01*
X58833Y37527D01*
X58842Y37523D01*
X58851Y37519D01*
X58857Y37516D01*
X58859Y37514D01*
X58861Y37514D01*
X58862Y37513D01*
X58862D01*
X58873Y37504D01*
X58884Y37494D01*
X58893Y37483D01*
X58900Y37473D01*
X58907Y37464D01*
X58909Y37460D01*
X58911Y37457D01*
X58913Y37454D01*
X58914Y37451D01*
X58915Y37450D01*
Y37449D01*
X58922Y37434D01*
X58927Y37419D01*
X58931Y37405D01*
X58933Y37392D01*
X58934Y37387D01*
X58935Y37382D01*
X58935Y37378D01*
Y37373D01*
X58936Y37371D01*
Y37368D01*
Y37367D01*
Y37366D01*
X58935Y37354D01*
X58934Y37342D01*
X58932Y37332D01*
X58929Y37323D01*
X58927Y37316D01*
X58925Y37310D01*
X58924Y37307D01*
X58923Y37306D01*
X58923Y37305D01*
Y37304D01*
X58917Y37294D01*
X58911Y37286D01*
X58906Y37279D01*
X58900Y37273D01*
X58894Y37269D01*
X58890Y37265D01*
X58888Y37263D01*
X58887Y37263D01*
X58879Y37258D01*
X58870Y37255D01*
X58863Y37253D01*
X58856Y37251D01*
X58850Y37250D01*
X58846Y37249D01*
X58842D01*
X58834Y37250D01*
X58826Y37251D01*
X58819Y37253D01*
X58813Y37255D01*
X58807Y37258D01*
X58803Y37259D01*
X58801Y37261D01*
X58800Y37261D01*
X58792Y37266D01*
X58784Y37271D01*
X58778Y37276D01*
X58772Y37282D01*
X58768Y37286D01*
X58764Y37289D01*
X58762Y37292D01*
X58761Y37293D01*
X58760Y37287D01*
X58760Y37282D01*
X58759Y37278D01*
X58758Y37275D01*
X58758Y37273D01*
X58757Y37271D01*
X58756Y37270D01*
Y37270D01*
X58752Y37263D01*
X58746Y37258D01*
X58744Y37256D01*
X58742Y37255D01*
X58741Y37254D01*
X58740D01*
X58735Y37252D01*
X58731Y37251D01*
X58721Y37249D01*
X58717D01*
X58714Y37249D01*
X58711D01*
X58700Y37249D01*
X58690Y37251D01*
X58680Y37254D01*
X58670Y37257D01*
X58661Y37261D01*
X58653Y37266D01*
X58645Y37270D01*
X58637Y37275D01*
X58630Y37280D01*
X58624Y37285D01*
X58619Y37289D01*
X58614Y37293D01*
X58611Y37297D01*
X58608Y37299D01*
X58607Y37301D01*
X58606Y37301D01*
X58597Y37313D01*
X58589Y37324D01*
X58581Y37336D01*
X58575Y37348D01*
X58570Y37359D01*
X58565Y37370D01*
X58562Y37381D01*
X58559Y37391D01*
X58557Y37400D01*
X58555Y37409D01*
X58554Y37417D01*
X58553Y37423D01*
Y37428D01*
X58552Y37433D01*
Y37435D01*
Y37436D01*
Y37446D01*
X58553Y37455D01*
X58556Y37474D01*
X58560Y37490D01*
X58563Y37499D01*
X58565Y37506D01*
X58567Y37512D01*
X58570Y37518D01*
X58572Y37523D01*
X58574Y37527D01*
X58576Y37530D01*
X58577Y37533D01*
X58577Y37534D01*
X58578Y37535D01*
X58584Y37544D01*
X58590Y37554D01*
X58597Y37562D01*
X58603Y37569D01*
X58610Y37576D01*
X58617Y37583D01*
X58624Y37589D01*
X58630Y37594D01*
X58636Y37599D01*
X58642Y37603D01*
X58647Y37606D01*
X58651Y37609D01*
X58655Y37611D01*
X58658Y37613D01*
X58659Y37614D01*
X58660D01*
X58670Y37619D01*
X58680Y37623D01*
X58700Y37630D01*
X58720Y37634D01*
X58728Y37636D01*
X58737Y37637D01*
X58745Y37638D01*
X58753Y37640D01*
X58760Y37640D01*
X58765D01*
X58770Y37641D01*
X58776D01*
X58791Y37640D01*
D02*
G37*
G36*
X56842Y37800D02*
X56556D01*
Y37845D01*
X56792D01*
Y37976D01*
X56579D01*
Y38021D01*
X56792D01*
Y38139D01*
X56565D01*
Y38184D01*
X56842D01*
Y37800D01*
D02*
G37*
G36*
X59915Y38190D02*
X59928Y38188D01*
X59940Y38187D01*
X59951Y38184D01*
X59959Y38181D01*
X59962Y38180D01*
X59965Y38180D01*
X59968Y38178D01*
X59970Y38178D01*
X59970Y38177D01*
X59971D01*
X59982Y38172D01*
X59992Y38166D01*
X60000Y38159D01*
X60007Y38153D01*
X60012Y38147D01*
X60016Y38143D01*
X60018Y38140D01*
X60019Y38139D01*
Y38139D01*
X60024Y38129D01*
X60028Y38119D01*
X60031Y38111D01*
X60033Y38102D01*
X60034Y38095D01*
X60035Y38090D01*
Y38087D01*
Y38085D01*
Y38085D01*
Y38084D01*
X60035Y38075D01*
X60033Y38066D01*
X60031Y38057D01*
X60028Y38050D01*
X60026Y38045D01*
X60024Y38040D01*
X60023Y38038D01*
X60022Y38036D01*
X60016Y38029D01*
X60010Y38022D01*
X60003Y38016D01*
X59996Y38011D01*
X59990Y38007D01*
X59986Y38004D01*
X59982Y38001D01*
X59982Y38001D01*
X59981D01*
X59977Y37998D01*
X59972Y37997D01*
X59960Y37992D01*
X59948Y37988D01*
X59936Y37984D01*
X59925Y37981D01*
X59920Y37980D01*
X59916Y37979D01*
X59913Y37978D01*
X59910Y37977D01*
X59908Y37977D01*
X59907D01*
X59898Y37974D01*
X59889Y37972D01*
X59881Y37970D01*
X59874Y37968D01*
X59868Y37967D01*
X59862Y37965D01*
X59858Y37964D01*
X59853Y37963D01*
X59849Y37961D01*
X59846Y37960D01*
X59842Y37959D01*
X59839Y37959D01*
X59839Y37958D01*
X59831Y37954D01*
X59823Y37950D01*
X59817Y37947D01*
X59812Y37943D01*
X59809Y37940D01*
X59806Y37937D01*
X59805Y37936D01*
X59804Y37935D01*
X59801Y37930D01*
X59798Y37925D01*
X59796Y37919D01*
X59795Y37914D01*
X59794Y37910D01*
X59794Y37906D01*
Y37904D01*
Y37904D01*
X59794Y37897D01*
X59796Y37891D01*
X59797Y37885D01*
X59799Y37881D01*
X59801Y37877D01*
X59803Y37874D01*
X59804Y37871D01*
X59805Y37871D01*
X59810Y37866D01*
X59815Y37861D01*
X59820Y37857D01*
X59826Y37853D01*
X59831Y37850D01*
X59835Y37849D01*
X59837Y37847D01*
X59838Y37847D01*
X59847Y37844D01*
X59856Y37842D01*
X59864Y37840D01*
X59872Y37840D01*
X59879Y37839D01*
X59884Y37839D01*
X59889D01*
X59901Y37839D01*
X59912Y37840D01*
X59922Y37842D01*
X59931Y37844D01*
X59938Y37846D01*
X59944Y37848D01*
X59947Y37849D01*
X59948Y37850D01*
X59948D01*
X59957Y37854D01*
X59965Y37859D01*
X59972Y37864D01*
X59977Y37869D01*
X59982Y37873D01*
X59984Y37877D01*
X59986Y37879D01*
X59987Y37880D01*
X59991Y37887D01*
X59994Y37895D01*
X59997Y37903D01*
X59999Y37911D01*
X60000Y37918D01*
X60001Y37923D01*
X60002Y37926D01*
Y37927D01*
Y37928D01*
X60050Y37923D01*
X60049Y37909D01*
X60046Y37897D01*
X60043Y37884D01*
X60039Y37874D01*
X60036Y37866D01*
X60034Y37862D01*
X60032Y37859D01*
X60031Y37857D01*
X60030Y37855D01*
X60030Y37854D01*
Y37854D01*
X60021Y37843D01*
X60012Y37834D01*
X60003Y37826D01*
X59994Y37820D01*
X59986Y37815D01*
X59980Y37811D01*
X59977Y37810D01*
X59976Y37809D01*
X59975Y37808D01*
X59974D01*
X59960Y37804D01*
X59945Y37800D01*
X59931Y37797D01*
X59917Y37795D01*
X59911Y37795D01*
X59905Y37794D01*
X59900D01*
X59896Y37794D01*
X59887D01*
X59872Y37794D01*
X59858Y37796D01*
X59845Y37798D01*
X59835Y37801D01*
X59825Y37804D01*
X59822Y37805D01*
X59819Y37806D01*
X59817Y37807D01*
X59815Y37808D01*
X59814Y37808D01*
X59813D01*
X59801Y37815D01*
X59791Y37821D01*
X59782Y37828D01*
X59775Y37835D01*
X59769Y37841D01*
X59766Y37846D01*
X59763Y37849D01*
X59762Y37850D01*
X59756Y37860D01*
X59752Y37871D01*
X59749Y37881D01*
X59747Y37889D01*
X59746Y37897D01*
X59745Y37903D01*
Y37905D01*
Y37907D01*
Y37908D01*
Y37908D01*
X59745Y37919D01*
X59747Y37930D01*
X59750Y37939D01*
X59753Y37947D01*
X59756Y37954D01*
X59759Y37959D01*
X59760Y37961D01*
X59761Y37963D01*
X59767Y37971D01*
X59775Y37978D01*
X59783Y37985D01*
X59791Y37991D01*
X59799Y37995D01*
X59805Y37999D01*
X59807Y38000D01*
X59808Y38001D01*
X59810Y38002D01*
X59810D01*
X59815Y38004D01*
X59821Y38006D01*
X59827Y38008D01*
X59834Y38010D01*
X59848Y38014D01*
X59862Y38018D01*
X59875Y38021D01*
X59880Y38023D01*
X59886Y38024D01*
X59890Y38025D01*
X59893Y38026D01*
X59895Y38026D01*
X59896D01*
X59907Y38029D01*
X59917Y38032D01*
X59925Y38034D01*
X59934Y38037D01*
X59941Y38039D01*
X59946Y38041D01*
X59952Y38043D01*
X59956Y38046D01*
X59960Y38047D01*
X59964Y38049D01*
X59966Y38050D01*
X59968Y38052D01*
X59971Y38053D01*
X59972Y38054D01*
X59976Y38059D01*
X59980Y38064D01*
X59983Y38070D01*
X59984Y38076D01*
X59986Y38080D01*
X59986Y38084D01*
Y38087D01*
Y38088D01*
X59985Y38097D01*
X59983Y38104D01*
X59980Y38111D01*
X59976Y38117D01*
X59972Y38122D01*
X59969Y38126D01*
X59966Y38128D01*
X59966Y38129D01*
X59962Y38132D01*
X59957Y38135D01*
X59946Y38139D01*
X59935Y38142D01*
X59924Y38143D01*
X59914Y38145D01*
X59910D01*
X59906Y38146D01*
X59898D01*
X59883Y38145D01*
X59869Y38143D01*
X59858Y38140D01*
X59848Y38136D01*
X59841Y38133D01*
X59836Y38130D01*
X59833Y38128D01*
X59832Y38127D01*
X59824Y38119D01*
X59818Y38111D01*
X59813Y38102D01*
X59810Y38093D01*
X59807Y38085D01*
X59806Y38078D01*
X59805Y38076D01*
X59805Y38074D01*
Y38073D01*
Y38073D01*
X59756Y38076D01*
X59757Y38088D01*
X59760Y38100D01*
X59763Y38110D01*
X59767Y38119D01*
X59770Y38126D01*
X59773Y38132D01*
X59775Y38135D01*
X59776Y38136D01*
X59783Y38146D01*
X59791Y38154D01*
X59799Y38161D01*
X59807Y38167D01*
X59815Y38171D01*
X59821Y38174D01*
X59823Y38176D01*
X59825Y38176D01*
X59825Y38177D01*
X59826D01*
X59838Y38181D01*
X59851Y38185D01*
X59864Y38187D01*
X59876Y38189D01*
X59886Y38190D01*
X59890D01*
X59894Y38191D01*
X59901D01*
X59915Y38190D01*
D02*
G37*
G36*
X58083Y37636D02*
X58092Y37635D01*
X58110Y37631D01*
X58118Y37630D01*
X58125Y37627D01*
X58132Y37624D01*
X58137Y37622D01*
X58143Y37619D01*
X58147Y37617D01*
X58151Y37614D01*
X58155Y37612D01*
X58157Y37610D01*
X58159Y37609D01*
X58160Y37608D01*
X58161Y37607D01*
X58167Y37602D01*
X58171Y37596D01*
X58180Y37582D01*
X58187Y37569D01*
X58191Y37555D01*
X58195Y37544D01*
X58195Y37538D01*
X58197Y37534D01*
X58197Y37530D01*
X58198Y37527D01*
Y37526D01*
Y37525D01*
X58149Y37520D01*
X58148Y37533D01*
X58146Y37544D01*
X58143Y37553D01*
X58139Y37561D01*
X58135Y37568D01*
X58132Y37572D01*
X58129Y37575D01*
X58129Y37576D01*
X58120Y37583D01*
X58112Y37588D01*
X58102Y37592D01*
X58094Y37595D01*
X58086Y37596D01*
X58080Y37596D01*
X58078Y37597D01*
X58074D01*
X58063Y37596D01*
X58052Y37594D01*
X58043Y37591D01*
X58036Y37588D01*
X58030Y37583D01*
X58025Y37581D01*
X58023Y37578D01*
X58022Y37578D01*
X58015Y37570D01*
X58010Y37562D01*
X58006Y37554D01*
X58004Y37547D01*
X58002Y37540D01*
X58002Y37535D01*
X58001Y37531D01*
Y37531D01*
Y37530D01*
X58002Y37520D01*
X58005Y37510D01*
X58008Y37500D01*
X58012Y37492D01*
X58016Y37484D01*
X58020Y37478D01*
X58021Y37476D01*
X58022Y37474D01*
X58023Y37473D01*
Y37473D01*
X58028Y37467D01*
X58033Y37461D01*
X58039Y37454D01*
X58046Y37448D01*
X58060Y37434D01*
X58074Y37421D01*
X58087Y37410D01*
X58093Y37404D01*
X58098Y37400D01*
X58102Y37396D01*
X58105Y37394D01*
X58108Y37392D01*
X58108Y37392D01*
X58122Y37379D01*
X58135Y37368D01*
X58146Y37358D01*
X58154Y37350D01*
X58161Y37343D01*
X58166Y37338D01*
X58169Y37334D01*
X58170Y37334D01*
Y37333D01*
X58178Y37324D01*
X58184Y37315D01*
X58190Y37306D01*
X58194Y37299D01*
X58197Y37292D01*
X58199Y37287D01*
X58201Y37283D01*
X58201Y37283D01*
Y37282D01*
X58203Y37276D01*
X58205Y37270D01*
X58205Y37265D01*
X58206Y37261D01*
X58207Y37256D01*
Y37253D01*
Y37251D01*
Y37250D01*
X57952D01*
Y37295D01*
X58141D01*
X58135Y37304D01*
X58128Y37312D01*
X58125Y37316D01*
X58123Y37318D01*
X58122Y37320D01*
X58121Y37320D01*
X58118Y37323D01*
X58115Y37326D01*
X58108Y37333D01*
X58098Y37341D01*
X58089Y37349D01*
X58081Y37357D01*
X58074Y37363D01*
X58071Y37365D01*
X58068Y37367D01*
X58067Y37368D01*
X58067Y37369D01*
X58057Y37377D01*
X58049Y37384D01*
X58041Y37391D01*
X58034Y37397D01*
X58027Y37404D01*
X58022Y37409D01*
X58016Y37414D01*
X58011Y37419D01*
X58007Y37423D01*
X58004Y37427D01*
X57998Y37432D01*
X57995Y37435D01*
X57994Y37437D01*
X57987Y37446D01*
X57980Y37454D01*
X57974Y37462D01*
X57970Y37469D01*
X57967Y37475D01*
X57964Y37479D01*
X57963Y37482D01*
X57963Y37483D01*
X57959Y37492D01*
X57957Y37500D01*
X57955Y37507D01*
X57954Y37514D01*
X57953Y37520D01*
X57953Y37525D01*
Y37528D01*
Y37529D01*
X57953Y37537D01*
X57954Y37545D01*
X57958Y37560D01*
X57963Y37573D01*
X57969Y37584D01*
X57975Y37593D01*
X57978Y37596D01*
X57980Y37600D01*
X57982Y37602D01*
X57984Y37604D01*
X57985Y37605D01*
X57985Y37605D01*
X57992Y37610D01*
X57998Y37616D01*
X58005Y37620D01*
X58013Y37623D01*
X58027Y37628D01*
X58042Y37632D01*
X58048Y37634D01*
X58054Y37634D01*
X58059Y37635D01*
X58064Y37636D01*
X58068Y37636D01*
X58073D01*
X58083Y37636D01*
D02*
G37*
G36*
X57894Y37431D02*
X57849Y37425D01*
X57845Y37431D01*
X57840Y37436D01*
X57836Y37441D01*
X57832Y37445D01*
X57827Y37448D01*
X57824Y37450D01*
X57822Y37451D01*
X57821Y37452D01*
X57814Y37455D01*
X57807Y37458D01*
X57800Y37460D01*
X57793Y37462D01*
X57788Y37462D01*
X57784Y37463D01*
X57779D01*
X57767Y37462D01*
X57755Y37459D01*
X57744Y37455D01*
X57736Y37451D01*
X57729Y37447D01*
X57724Y37443D01*
X57722Y37441D01*
X57720Y37440D01*
X57713Y37430D01*
X57707Y37420D01*
X57703Y37409D01*
X57700Y37399D01*
X57699Y37390D01*
X57698Y37386D01*
Y37382D01*
X57698Y37380D01*
Y37378D01*
Y37376D01*
Y37376D01*
X57699Y37361D01*
X57701Y37347D01*
X57705Y37335D01*
X57709Y37325D01*
X57713Y37318D01*
X57717Y37312D01*
X57720Y37308D01*
X57721Y37308D01*
Y37307D01*
X57726Y37303D01*
X57730Y37299D01*
X57740Y37293D01*
X57750Y37289D01*
X57758Y37285D01*
X57767Y37283D01*
X57773Y37283D01*
X57775Y37282D01*
X57779D01*
X57789Y37283D01*
X57798Y37285D01*
X57806Y37288D01*
X57813Y37291D01*
X57819Y37294D01*
X57823Y37297D01*
X57826Y37299D01*
X57827Y37300D01*
X57834Y37307D01*
X57839Y37316D01*
X57844Y37325D01*
X57847Y37334D01*
X57849Y37342D01*
X57851Y37348D01*
X57851Y37351D01*
X57852Y37352D01*
Y37354D01*
Y37354D01*
X57902Y37351D01*
X57901Y37342D01*
X57899Y37333D01*
X57894Y37318D01*
X57888Y37304D01*
X57881Y37293D01*
X57878Y37289D01*
X57875Y37285D01*
X57872Y37281D01*
X57870Y37278D01*
X57867Y37276D01*
X57865Y37274D01*
X57865Y37273D01*
X57864Y37273D01*
X57858Y37268D01*
X57851Y37263D01*
X57844Y37259D01*
X57837Y37256D01*
X57823Y37251D01*
X57809Y37247D01*
X57803Y37246D01*
X57797Y37245D01*
X57792Y37245D01*
X57788Y37244D01*
X57784Y37244D01*
X57779D01*
X57767Y37244D01*
X57756Y37245D01*
X57746Y37248D01*
X57736Y37251D01*
X57727Y37254D01*
X57719Y37258D01*
X57711Y37262D01*
X57705Y37267D01*
X57698Y37271D01*
X57693Y37275D01*
X57688Y37279D01*
X57685Y37283D01*
X57682Y37286D01*
X57679Y37288D01*
X57678Y37289D01*
X57678Y37290D01*
X57672Y37297D01*
X57668Y37304D01*
X57664Y37312D01*
X57660Y37320D01*
X57655Y37335D01*
X57651Y37349D01*
X57650Y37355D01*
X57649Y37361D01*
X57648Y37366D01*
X57648Y37371D01*
X57647Y37375D01*
Y37378D01*
Y37379D01*
Y37380D01*
X57648Y37390D01*
X57649Y37400D01*
X57651Y37409D01*
X57653Y37417D01*
X57655Y37425D01*
X57658Y37433D01*
X57661Y37439D01*
X57665Y37445D01*
X57668Y37451D01*
X57671Y37455D01*
X57674Y37459D01*
X57677Y37463D01*
X57679Y37466D01*
X57681Y37468D01*
X57682Y37469D01*
X57682Y37469D01*
X57689Y37476D01*
X57696Y37481D01*
X57703Y37486D01*
X57710Y37490D01*
X57717Y37493D01*
X57724Y37496D01*
X57738Y37500D01*
X57744Y37502D01*
X57750Y37503D01*
X57754Y37503D01*
X57759Y37504D01*
X57762Y37504D01*
X57767D01*
X57781Y37503D01*
X57795Y37500D01*
X57807Y37497D01*
X57817Y37492D01*
X57827Y37488D01*
X57830Y37486D01*
X57834Y37484D01*
X57836Y37482D01*
X57838Y37481D01*
X57839Y37480D01*
X57840Y37480D01*
X57819Y37583D01*
X57665D01*
Y37628D01*
X57856D01*
X57894Y37431D01*
D02*
G37*
G36*
X56721Y37640D02*
X56738Y37637D01*
X56754Y37633D01*
X56761Y37631D01*
X56767Y37629D01*
X56773Y37627D01*
X56779Y37625D01*
X56784Y37623D01*
X56787Y37621D01*
X56791Y37620D01*
X56793Y37619D01*
X56794Y37617D01*
X56795D01*
X56810Y37608D01*
X56823Y37597D01*
X56834Y37586D01*
X56843Y37575D01*
X56850Y37565D01*
X56853Y37561D01*
X56856Y37557D01*
X56857Y37554D01*
X56859Y37551D01*
X56860Y37550D01*
Y37550D01*
X56867Y37533D01*
X56873Y37514D01*
X56877Y37497D01*
X56880Y37480D01*
X56881Y37473D01*
X56881Y37466D01*
X56882Y37460D01*
Y37455D01*
X56883Y37451D01*
Y37448D01*
Y37445D01*
Y37445D01*
X56882Y37424D01*
X56880Y37406D01*
X56876Y37388D01*
X56874Y37380D01*
X56873Y37373D01*
X56871Y37366D01*
X56869Y37360D01*
X56867Y37355D01*
X56866Y37350D01*
X56865Y37347D01*
X56863Y37344D01*
X56863Y37342D01*
Y37342D01*
X56855Y37325D01*
X56845Y37310D01*
X56835Y37297D01*
X56825Y37287D01*
X56817Y37279D01*
X56810Y37273D01*
X56807Y37272D01*
X56805Y37270D01*
X56804Y37269D01*
X56804Y37269D01*
X56796Y37264D01*
X56788Y37261D01*
X56771Y37254D01*
X56755Y37250D01*
X56738Y37246D01*
X56731Y37246D01*
X56724Y37245D01*
X56718Y37244D01*
X56713D01*
X56708Y37244D01*
X56702D01*
X56691Y37244D01*
X56681Y37245D01*
X56662Y37249D01*
X56653Y37251D01*
X56644Y37254D01*
X56636Y37257D01*
X56629Y37260D01*
X56623Y37263D01*
X56618Y37266D01*
X56613Y37269D01*
X56609Y37271D01*
X56605Y37273D01*
X56603Y37275D01*
X56602Y37276D01*
X56601Y37276D01*
X56594Y37283D01*
X56587Y37290D01*
X56575Y37305D01*
X56564Y37321D01*
X56557Y37337D01*
X56553Y37344D01*
X56551Y37350D01*
X56549Y37356D01*
X56546Y37361D01*
X56545Y37366D01*
X56544Y37369D01*
X56543Y37371D01*
Y37372D01*
X56594Y37385D01*
X56599Y37368D01*
X56605Y37352D01*
X56612Y37340D01*
X56618Y37330D01*
X56625Y37322D01*
X56630Y37316D01*
X56633Y37313D01*
X56634Y37312D01*
X56635Y37311D01*
X56646Y37303D01*
X56658Y37297D01*
X56670Y37293D01*
X56681Y37290D01*
X56691Y37288D01*
X56696Y37287D01*
X56700D01*
X56702Y37287D01*
X56707D01*
X56719Y37287D01*
X56732Y37290D01*
X56743Y37293D01*
X56752Y37296D01*
X56760Y37299D01*
X56767Y37301D01*
X56769Y37303D01*
X56771Y37304D01*
X56771Y37304D01*
X56772D01*
X56783Y37312D01*
X56791Y37321D01*
X56799Y37330D01*
X56805Y37339D01*
X56810Y37347D01*
X56813Y37354D01*
X56814Y37356D01*
X56815Y37358D01*
X56816Y37359D01*
Y37359D01*
X56821Y37373D01*
X56824Y37388D01*
X56826Y37403D01*
X56828Y37416D01*
X56829Y37422D01*
X56829Y37427D01*
Y37433D01*
X56830Y37437D01*
Y37440D01*
Y37442D01*
Y37444D01*
Y37445D01*
X56829Y37459D01*
X56828Y37472D01*
X56826Y37485D01*
X56824Y37496D01*
X56822Y37505D01*
X56821Y37509D01*
X56820Y37512D01*
X56819Y37515D01*
X56819Y37517D01*
X56818Y37518D01*
Y37519D01*
X56813Y37531D01*
X56807Y37543D01*
X56800Y37552D01*
X56793Y37561D01*
X56787Y37567D01*
X56781Y37572D01*
X56778Y37575D01*
X56777Y37576D01*
X56777D01*
X56765Y37583D01*
X56753Y37588D01*
X56740Y37592D01*
X56729Y37595D01*
X56718Y37596D01*
X56714Y37597D01*
X56710D01*
X56707Y37597D01*
X56703D01*
X56689Y37597D01*
X56677Y37595D01*
X56666Y37592D01*
X56657Y37588D01*
X56649Y37584D01*
X56644Y37581D01*
X56640Y37579D01*
X56639Y37578D01*
X56630Y37570D01*
X56622Y37561D01*
X56615Y37550D01*
X56610Y37540D01*
X56606Y37531D01*
X56604Y37527D01*
X56602Y37524D01*
X56601Y37521D01*
X56601Y37519D01*
X56600Y37517D01*
Y37517D01*
X56550Y37528D01*
X56557Y37547D01*
X56561Y37556D01*
X56565Y37564D01*
X56570Y37571D01*
X56574Y37578D01*
X56578Y37584D01*
X56583Y37590D01*
X56587Y37595D01*
X56591Y37599D01*
X56595Y37603D01*
X56598Y37606D01*
X56601Y37608D01*
X56603Y37610D01*
X56604Y37610D01*
X56605Y37611D01*
X56612Y37616D01*
X56620Y37621D01*
X56628Y37625D01*
X56636Y37628D01*
X56653Y37634D01*
X56668Y37637D01*
X56675Y37638D01*
X56681Y37639D01*
X56687Y37640D01*
X56692Y37640D01*
X56696Y37641D01*
X56702D01*
X56721Y37640D01*
D02*
G37*
G36*
X57475Y37250D02*
X57423D01*
X57272Y37634D01*
X57324D01*
X57428Y37355D01*
X57432Y37344D01*
X57436Y37332D01*
X57440Y37321D01*
X57442Y37312D01*
X57445Y37304D01*
X57447Y37297D01*
X57447Y37295D01*
X57448Y37293D01*
X57448Y37293D01*
Y37292D01*
X57455Y37314D01*
X57458Y37325D01*
X57462Y37335D01*
X57465Y37343D01*
X57466Y37349D01*
X57468Y37352D01*
X57468Y37354D01*
X57469Y37355D01*
Y37355D01*
X57568Y37634D01*
X57624D01*
X57475Y37250D01*
D02*
G37*
G36*
X58357Y37627D02*
X58363Y37617D01*
X58370Y37609D01*
X58377Y37600D01*
X58384Y37594D01*
X58389Y37589D01*
X58393Y37585D01*
X58393Y37585D01*
X58394Y37584D01*
X58405Y37575D01*
X58417Y37566D01*
X58428Y37558D01*
X58439Y37552D01*
X58448Y37547D01*
X58452Y37545D01*
X58456Y37543D01*
X58458Y37541D01*
X58460Y37540D01*
X58462Y37540D01*
X58462D01*
Y37493D01*
X58454Y37497D01*
X58445Y37501D01*
X58437Y37504D01*
X58429Y37509D01*
X58423Y37512D01*
X58418Y37515D01*
X58414Y37517D01*
X58414Y37518D01*
X58413D01*
X58403Y37524D01*
X58394Y37530D01*
X58387Y37535D01*
X58380Y37541D01*
X58375Y37545D01*
X58371Y37548D01*
X58369Y37550D01*
X58368Y37551D01*
Y37250D01*
X58321D01*
Y37636D01*
X58352D01*
X58357Y37627D01*
D02*
G37*
G36*
X57268Y37250D02*
X57214D01*
X57173Y37366D01*
X57011D01*
X56967Y37250D01*
X56910D01*
X57066Y37634D01*
X57121D01*
X57268Y37250D01*
D02*
G37*
G36*
X59424D02*
X59370D01*
X59329Y37366D01*
X59167D01*
X59123Y37250D01*
X59065D01*
X59221Y37634D01*
X59277D01*
X59424Y37250D01*
D02*
G37*
G36*
X56700Y38479D02*
X53886D01*
Y39211D01*
X56700D01*
Y38479D01*
D02*
G37*
G36*
X57144Y37800D02*
X56904D01*
Y37845D01*
X57093D01*
Y38184D01*
X57144D01*
Y37800D01*
D02*
G37*
G36*
X56818Y33800D02*
X56784D01*
X56684Y34056D01*
X56718D01*
X56787Y33870D01*
X56790Y33862D01*
X56793Y33855D01*
X56795Y33848D01*
X56797Y33841D01*
X56799Y33836D01*
X56800Y33832D01*
X56800Y33830D01*
X56801Y33829D01*
X56801Y33828D01*
Y33828D01*
X56805Y33843D01*
X56808Y33850D01*
X56810Y33857D01*
X56812Y33862D01*
X56813Y33866D01*
X56814Y33868D01*
X56814Y33869D01*
X56815Y33870D01*
Y33870D01*
X56881Y34056D01*
X56918D01*
X56818Y33800D01*
D02*
G37*
G36*
X55769Y33800D02*
X55770Y33796D01*
X55771Y33794D01*
X55772Y33792D01*
X55772Y33792D01*
X55774Y33786D01*
X55776Y33780D01*
X55778Y33776D01*
X55779Y33773D01*
X55780Y33771D01*
X55781Y33770D01*
X55781Y33769D01*
Y33768D01*
X55785Y33764D01*
X55789Y33761D01*
X55790Y33760D01*
X55791Y33759D01*
X55792Y33758D01*
X55792D01*
X55794Y33757D01*
X55797Y33756D01*
X55803Y33755D01*
X55805D01*
X55807Y33755D01*
X55809D01*
X55815Y33755D01*
X55820Y33756D01*
X55823Y33757D01*
X55825Y33757D01*
X55826Y33758D01*
X55827D01*
X55823Y33729D01*
X55815Y33726D01*
X55812Y33726D01*
X55809Y33725D01*
X55806D01*
X55805Y33725D01*
X55803D01*
X55797Y33725D01*
X55793Y33726D01*
X55788Y33727D01*
X55785Y33729D01*
X55781Y33730D01*
X55779Y33731D01*
X55778Y33732D01*
X55777Y33732D01*
X55773Y33735D01*
X55769Y33739D01*
X55766Y33743D01*
X55763Y33746D01*
X55761Y33750D01*
X55759Y33752D01*
X55758Y33754D01*
X55758Y33755D01*
X55757Y33757D01*
X55755Y33760D01*
X55752Y33766D01*
X55750Y33773D01*
X55746Y33780D01*
X55744Y33787D01*
X55743Y33789D01*
X55742Y33792D01*
X55741Y33794D01*
X55741Y33796D01*
X55740Y33796D01*
Y33797D01*
X55670Y33986D01*
X55701D01*
X55741Y33877D01*
X55744Y33869D01*
X55746Y33862D01*
X55748Y33855D01*
X55750Y33849D01*
X55752Y33844D01*
X55753Y33839D01*
X55753Y33838D01*
Y33837D01*
X55754Y33836D01*
Y33836D01*
X55756Y33844D01*
X55758Y33852D01*
X55761Y33859D01*
X55763Y33866D01*
X55765Y33871D01*
X55766Y33875D01*
X55767Y33877D01*
X55767Y33878D01*
X55767Y33878D01*
Y33879D01*
X55806Y33986D01*
X55840D01*
X55769Y33800D01*
D02*
G37*
G36*
X57150Y33800D02*
X57118D01*
Y34001D01*
X56983Y33800D01*
X56948D01*
Y34056D01*
X56981D01*
Y33855D01*
X57116Y34056D01*
X57150D01*
Y33800D01*
D02*
G37*
G36*
X59316Y37800D02*
X59266D01*
Y37971D01*
X59200D01*
X59194Y37970D01*
X59189D01*
X59185Y37970D01*
X59182Y37969D01*
X59180D01*
X59179Y37968D01*
X59178D01*
X59170Y37966D01*
X59163Y37962D01*
X59160Y37960D01*
X59157Y37959D01*
X59156Y37959D01*
X59156Y37958D01*
X59151Y37955D01*
X59147Y37951D01*
X59138Y37943D01*
X59135Y37939D01*
X59132Y37935D01*
X59130Y37933D01*
X59130Y37932D01*
X59124Y37925D01*
X59118Y37916D01*
X59112Y37908D01*
X59106Y37899D01*
X59101Y37891D01*
X59096Y37885D01*
X59095Y37883D01*
X59094Y37881D01*
X59093Y37880D01*
Y37880D01*
X59042Y37800D01*
X58978D01*
X59045Y37904D01*
X59053Y37915D01*
X59060Y37925D01*
X59067Y37934D01*
X59074Y37942D01*
X59079Y37947D01*
X59083Y37952D01*
X59086Y37954D01*
X59087Y37956D01*
X59091Y37959D01*
X59096Y37963D01*
X59106Y37969D01*
X59110Y37971D01*
X59114Y37973D01*
X59116Y37974D01*
X59118Y37975D01*
X59108Y37977D01*
X59098Y37978D01*
X59089Y37981D01*
X59082Y37984D01*
X59074Y37987D01*
X59068Y37990D01*
X59061Y37992D01*
X59056Y37995D01*
X59051Y37998D01*
X59047Y38001D01*
X59044Y38004D01*
X59041Y38005D01*
X59039Y38008D01*
X59037Y38009D01*
X59036Y38010D01*
X59032Y38015D01*
X59027Y38021D01*
X59020Y38033D01*
X59016Y38044D01*
X59013Y38055D01*
X59010Y38064D01*
X59010Y38069D01*
Y38072D01*
X59009Y38075D01*
Y38077D01*
Y38078D01*
Y38079D01*
X59010Y38091D01*
X59012Y38101D01*
X59015Y38111D01*
X59017Y38120D01*
X59020Y38127D01*
X59023Y38132D01*
X59025Y38136D01*
X59026Y38137D01*
X59032Y38146D01*
X59039Y38154D01*
X59046Y38160D01*
X59053Y38165D01*
X59059Y38169D01*
X59064Y38172D01*
X59067Y38173D01*
X59068Y38174D01*
X59068D01*
X59074Y38176D01*
X59079Y38177D01*
X59092Y38180D01*
X59105Y38182D01*
X59117Y38183D01*
X59129Y38184D01*
X59133D01*
X59138Y38184D01*
X59316D01*
Y37800D01*
D02*
G37*
G36*
X55280Y34057D02*
X55289Y34055D01*
X55297Y34053D01*
X55304Y34050D01*
X55309Y34047D01*
X55313Y34045D01*
X55315Y34044D01*
X55316Y34043D01*
X55316Y34042D01*
X55317D01*
X55323Y34036D01*
X55329Y34029D01*
X55333Y34022D01*
X55337Y34015D01*
X55340Y34009D01*
X55342Y34006D01*
X55342Y34004D01*
X55343Y34002D01*
X55344Y34000D01*
X55344Y34000D01*
Y33999D01*
X55346Y33994D01*
X55347Y33988D01*
X55349Y33976D01*
X55351Y33964D01*
X55352Y33952D01*
X55352Y33947D01*
X55353Y33942D01*
Y33938D01*
X55353Y33934D01*
Y33931D01*
Y33928D01*
Y33927D01*
Y33926D01*
X55353Y33913D01*
X55352Y33901D01*
X55351Y33890D01*
X55349Y33880D01*
X55347Y33870D01*
X55345Y33862D01*
X55343Y33854D01*
X55341Y33847D01*
X55338Y33841D01*
X55336Y33836D01*
X55334Y33832D01*
X55332Y33828D01*
X55331Y33825D01*
X55329Y33823D01*
X55329Y33822D01*
X55328Y33822D01*
X55324Y33817D01*
X55320Y33813D01*
X55315Y33810D01*
X55310Y33807D01*
X55305Y33804D01*
X55300Y33802D01*
X55291Y33799D01*
X55287Y33798D01*
X55283Y33797D01*
X55279Y33796D01*
X55276Y33796D01*
X55273Y33796D01*
X55270D01*
X55260Y33796D01*
X55251Y33798D01*
X55243Y33800D01*
X55236Y33803D01*
X55231Y33806D01*
X55227Y33808D01*
X55225Y33809D01*
X55224Y33810D01*
X55224Y33811D01*
X55223D01*
X55217Y33817D01*
X55211Y33824D01*
X55207Y33831D01*
X55203Y33838D01*
X55200Y33844D01*
X55198Y33846D01*
X55197Y33849D01*
X55196Y33851D01*
X55196Y33852D01*
X55196Y33853D01*
Y33853D01*
X55194Y33859D01*
X55193Y33864D01*
X55190Y33876D01*
X55189Y33889D01*
X55188Y33900D01*
X55187Y33906D01*
X55187Y33911D01*
Y33915D01*
X55186Y33919D01*
Y33922D01*
Y33924D01*
Y33926D01*
Y33926D01*
X55187Y33940D01*
Y33946D01*
X55187Y33952D01*
X55188Y33957D01*
X55188Y33962D01*
X55189Y33967D01*
X55189Y33971D01*
X55190Y33974D01*
X55190Y33978D01*
X55191Y33981D01*
X55191Y33983D01*
X55192Y33984D01*
Y33986D01*
X55192Y33986D01*
Y33987D01*
X55195Y33995D01*
X55197Y34002D01*
X55200Y34009D01*
X55202Y34014D01*
X55205Y34019D01*
X55207Y34022D01*
X55208Y34024D01*
X55208Y34025D01*
X55212Y34030D01*
X55216Y34035D01*
X55221Y34039D01*
X55225Y34043D01*
X55228Y34045D01*
X55231Y34047D01*
X55233Y34048D01*
X55234Y34049D01*
X55240Y34052D01*
X55246Y34054D01*
X55252Y34055D01*
X55258Y34056D01*
X55262Y34057D01*
X55266Y34057D01*
X55270D01*
X55280Y34057D01*
D02*
G37*
G36*
X56574Y34060D02*
X56583Y34059D01*
X56591Y34058D01*
X56598Y34056D01*
X56603Y34054D01*
X56606Y34053D01*
X56608Y34053D01*
X56609Y34052D01*
X56611Y34052D01*
X56611Y34052D01*
X56611D01*
X56619Y34048D01*
X56625Y34044D01*
X56631Y34039D01*
X56635Y34036D01*
X56639Y34032D01*
X56641Y34029D01*
X56643Y34027D01*
X56643Y34026D01*
Y34026D01*
X56647Y34020D01*
X56650Y34013D01*
X56652Y34007D01*
X56653Y34001D01*
X56654Y33997D01*
X56654Y33993D01*
Y33991D01*
Y33990D01*
Y33990D01*
Y33990D01*
X56654Y33983D01*
X56653Y33977D01*
X56652Y33972D01*
X56650Y33967D01*
X56648Y33963D01*
X56647Y33960D01*
X56646Y33958D01*
X56645Y33958D01*
X56641Y33952D01*
X56637Y33948D01*
X56633Y33944D01*
X56628Y33940D01*
X56624Y33938D01*
X56621Y33936D01*
X56619Y33934D01*
X56618Y33934D01*
X56618D01*
X56615Y33932D01*
X56612Y33931D01*
X56604Y33928D01*
X56596Y33926D01*
X56588Y33923D01*
X56581Y33921D01*
X56577Y33920D01*
X56575Y33919D01*
X56572Y33919D01*
X56570Y33918D01*
X56569Y33918D01*
X56569D01*
X56563Y33916D01*
X56557Y33915D01*
X56551Y33913D01*
X56547Y33912D01*
X56543Y33911D01*
X56539Y33910D01*
X56536Y33909D01*
X56533Y33908D01*
X56530Y33908D01*
X56528Y33907D01*
X56525Y33906D01*
X56524Y33906D01*
X56523Y33905D01*
X56518Y33903D01*
X56513Y33900D01*
X56509Y33898D01*
X56506Y33896D01*
X56503Y33893D01*
X56501Y33892D01*
X56501Y33890D01*
X56500Y33890D01*
X56498Y33887D01*
X56496Y33883D01*
X56495Y33880D01*
X56494Y33876D01*
X56494Y33873D01*
X56493Y33871D01*
Y33869D01*
Y33869D01*
X56494Y33865D01*
X56494Y33861D01*
X56496Y33857D01*
X56497Y33854D01*
X56498Y33851D01*
X56499Y33849D01*
X56500Y33848D01*
X56501Y33847D01*
X56504Y33844D01*
X56507Y33841D01*
X56511Y33838D01*
X56515Y33835D01*
X56518Y33834D01*
X56521Y33832D01*
X56522Y33832D01*
X56523Y33831D01*
X56529Y33829D01*
X56535Y33828D01*
X56540Y33827D01*
X56546Y33827D01*
X56550Y33826D01*
X56554Y33826D01*
X56557D01*
X56565Y33826D01*
X56572Y33827D01*
X56579Y33828D01*
X56585Y33830D01*
X56590Y33831D01*
X56593Y33832D01*
X56595Y33833D01*
X56596Y33833D01*
X56596D01*
X56602Y33836D01*
X56608Y33839D01*
X56612Y33843D01*
X56615Y33846D01*
X56618Y33849D01*
X56620Y33851D01*
X56622Y33853D01*
X56622Y33853D01*
X56625Y33858D01*
X56627Y33863D01*
X56629Y33869D01*
X56630Y33874D01*
X56631Y33878D01*
X56632Y33882D01*
X56632Y33884D01*
Y33885D01*
Y33885D01*
X56664Y33882D01*
X56663Y33873D01*
X56662Y33864D01*
X56659Y33856D01*
X56657Y33850D01*
X56655Y33844D01*
X56654Y33841D01*
X56652Y33839D01*
X56652Y33838D01*
X56651Y33837D01*
X56650Y33836D01*
Y33836D01*
X56645Y33829D01*
X56639Y33823D01*
X56633Y33818D01*
X56627Y33813D01*
X56622Y33810D01*
X56617Y33807D01*
X56616Y33807D01*
X56615Y33806D01*
X56614Y33805D01*
X56613D01*
X56604Y33802D01*
X56594Y33800D01*
X56585Y33798D01*
X56576Y33797D01*
X56571Y33796D01*
X56567Y33796D01*
X56564D01*
X56561Y33796D01*
X56555D01*
X56545Y33796D01*
X56536Y33797D01*
X56528Y33799D01*
X56521Y33801D01*
X56514Y33802D01*
X56512Y33803D01*
X56510Y33804D01*
X56508Y33805D01*
X56507Y33805D01*
X56507Y33805D01*
X56506D01*
X56498Y33810D01*
X56491Y33814D01*
X56485Y33819D01*
X56481Y33823D01*
X56477Y33827D01*
X56475Y33830D01*
X56473Y33833D01*
X56472Y33834D01*
X56468Y33840D01*
X56466Y33847D01*
X56463Y33854D01*
X56462Y33860D01*
X56461Y33865D01*
X56460Y33869D01*
Y33870D01*
Y33871D01*
Y33872D01*
Y33872D01*
X56461Y33880D01*
X56462Y33887D01*
X56464Y33893D01*
X56466Y33898D01*
X56468Y33903D01*
X56470Y33906D01*
X56471Y33908D01*
X56471Y33908D01*
X56476Y33914D01*
X56481Y33919D01*
X56486Y33924D01*
X56492Y33928D01*
X56497Y33930D01*
X56501Y33933D01*
X56502Y33933D01*
X56503Y33934D01*
X56504Y33935D01*
X56504D01*
X56507Y33936D01*
X56511Y33937D01*
X56515Y33939D01*
X56520Y33940D01*
X56529Y33943D01*
X56538Y33945D01*
X56547Y33947D01*
X56551Y33949D01*
X56554Y33949D01*
X56557Y33950D01*
X56559Y33951D01*
X56561Y33951D01*
X56561D01*
X56569Y33953D01*
X56575Y33954D01*
X56581Y33956D01*
X56586Y33958D01*
X56591Y33960D01*
X56595Y33961D01*
X56599Y33962D01*
X56602Y33964D01*
X56604Y33965D01*
X56607Y33966D01*
X56608Y33967D01*
X56609Y33968D01*
X56611Y33969D01*
X56612Y33969D01*
X56615Y33973D01*
X56617Y33976D01*
X56619Y33980D01*
X56620Y33984D01*
X56621Y33987D01*
X56622Y33990D01*
Y33991D01*
Y33992D01*
X56621Y33998D01*
X56619Y34003D01*
X56617Y34007D01*
X56615Y34011D01*
X56612Y34015D01*
X56610Y34017D01*
X56608Y34019D01*
X56608Y34019D01*
X56605Y34021D01*
X56602Y34023D01*
X56595Y34026D01*
X56588Y34028D01*
X56580Y34029D01*
X56574Y34030D01*
X56570D01*
X56568Y34030D01*
X56563D01*
X56553Y34030D01*
X56544Y34029D01*
X56536Y34027D01*
X56530Y34024D01*
X56525Y34022D01*
X56521Y34020D01*
X56519Y34018D01*
X56519Y34018D01*
X56514Y34013D01*
X56509Y34007D01*
X56506Y34001D01*
X56504Y33995D01*
X56502Y33990D01*
X56501Y33986D01*
X56501Y33984D01*
X56501Y33983D01*
Y33982D01*
Y33982D01*
X56468Y33984D01*
X56469Y33992D01*
X56471Y34000D01*
X56473Y34007D01*
X56475Y34013D01*
X56477Y34017D01*
X56479Y34021D01*
X56481Y34023D01*
X56481Y34024D01*
X56486Y34030D01*
X56491Y34036D01*
X56497Y34041D01*
X56502Y34045D01*
X56507Y34047D01*
X56511Y34050D01*
X56513Y34050D01*
X56514Y34051D01*
X56514Y34051D01*
X56515D01*
X56523Y34054D01*
X56531Y34057D01*
X56540Y34058D01*
X56548Y34059D01*
X56554Y34060D01*
X56557D01*
X56560Y34061D01*
X56565D01*
X56574Y34060D01*
D02*
G37*
G36*
X54966Y33890D02*
Y33861D01*
X54855D01*
Y33800D01*
X54823D01*
Y33861D01*
X54789D01*
Y33890D01*
X54823D01*
Y34056D01*
X54849D01*
X54966Y33890D01*
D02*
G37*
G36*
X55060Y34051D02*
X55064Y34045D01*
X55069Y34039D01*
X55074Y34034D01*
X55078Y34029D01*
X55081Y34026D01*
X55084Y34023D01*
X55084Y34023D01*
X55085Y34023D01*
X55092Y34016D01*
X55100Y34011D01*
X55108Y34006D01*
X55115Y34001D01*
X55121Y33998D01*
X55124Y33997D01*
X55126Y33995D01*
X55127Y33994D01*
X55129Y33993D01*
X55130Y33993D01*
X55130D01*
Y33962D01*
X55125Y33965D01*
X55119Y33967D01*
X55113Y33970D01*
X55108Y33972D01*
X55104Y33975D01*
X55101Y33977D01*
X55098Y33978D01*
X55098Y33979D01*
X55097D01*
X55091Y33983D01*
X55085Y33987D01*
X55080Y33990D01*
X55076Y33994D01*
X55072Y33997D01*
X55069Y33999D01*
X55068Y34000D01*
X55067Y34000D01*
Y33800D01*
X55036D01*
Y34057D01*
X55056D01*
X55060Y34051D01*
D02*
G37*
G36*
X55474Y34057D02*
X55480Y34057D01*
X55492Y34054D01*
X55497Y34053D01*
X55502Y34052D01*
X55507Y34050D01*
X55510Y34048D01*
X55514Y34046D01*
X55517Y34045D01*
X55520Y34043D01*
X55522Y34041D01*
X55524Y34040D01*
X55525Y34039D01*
X55526Y34039D01*
X55526Y34038D01*
X55530Y34034D01*
X55533Y34030D01*
X55539Y34022D01*
X55543Y34013D01*
X55546Y34004D01*
X55549Y33996D01*
X55549Y33992D01*
X55550Y33989D01*
X55550Y33987D01*
X55551Y33985D01*
Y33984D01*
Y33983D01*
X55518Y33980D01*
X55517Y33988D01*
X55516Y33996D01*
X55514Y34002D01*
X55511Y34007D01*
X55509Y34012D01*
X55507Y34015D01*
X55505Y34016D01*
X55505Y34017D01*
X55499Y34022D01*
X55493Y34025D01*
X55487Y34028D01*
X55481Y34030D01*
X55476Y34030D01*
X55472Y34031D01*
X55471Y34031D01*
X55468D01*
X55461Y34031D01*
X55454Y34029D01*
X55448Y34027D01*
X55443Y34025D01*
X55439Y34022D01*
X55436Y34020D01*
X55434Y34019D01*
X55433Y34018D01*
X55429Y34013D01*
X55425Y34008D01*
X55423Y34003D01*
X55421Y33998D01*
X55420Y33993D01*
X55420Y33990D01*
X55420Y33988D01*
Y33987D01*
Y33987D01*
X55420Y33980D01*
X55422Y33973D01*
X55424Y33967D01*
X55427Y33961D01*
X55430Y33956D01*
X55432Y33952D01*
X55433Y33951D01*
X55434Y33949D01*
X55434Y33949D01*
Y33949D01*
X55438Y33945D01*
X55441Y33940D01*
X55445Y33936D01*
X55450Y33932D01*
X55459Y33923D01*
X55468Y33914D01*
X55477Y33906D01*
X55481Y33903D01*
X55484Y33900D01*
X55487Y33898D01*
X55489Y33896D01*
X55491Y33895D01*
X55491Y33894D01*
X55500Y33886D01*
X55509Y33879D01*
X55516Y33872D01*
X55522Y33867D01*
X55526Y33862D01*
X55530Y33858D01*
X55532Y33856D01*
X55532Y33856D01*
Y33855D01*
X55537Y33849D01*
X55541Y33843D01*
X55545Y33837D01*
X55548Y33832D01*
X55550Y33828D01*
X55552Y33825D01*
X55553Y33822D01*
X55553Y33822D01*
Y33821D01*
X55554Y33818D01*
X55555Y33814D01*
X55556Y33810D01*
X55556Y33807D01*
X55556Y33804D01*
Y33802D01*
Y33800D01*
Y33800D01*
X55387D01*
Y33830D01*
X55513D01*
X55508Y33836D01*
X55504Y33841D01*
X55502Y33844D01*
X55501Y33845D01*
X55500Y33846D01*
X55500Y33847D01*
X55498Y33849D01*
X55496Y33851D01*
X55491Y33855D01*
X55484Y33861D01*
X55478Y33866D01*
X55473Y33871D01*
X55468Y33875D01*
X55466Y33877D01*
X55464Y33878D01*
X55464Y33879D01*
X55463Y33879D01*
X55457Y33885D01*
X55452Y33889D01*
X55446Y33894D01*
X55441Y33898D01*
X55437Y33903D01*
X55433Y33906D01*
X55429Y33910D01*
X55426Y33913D01*
X55423Y33915D01*
X55421Y33918D01*
X55418Y33921D01*
X55416Y33924D01*
X55415Y33924D01*
X55410Y33931D01*
X55405Y33936D01*
X55402Y33942D01*
X55399Y33946D01*
X55397Y33950D01*
X55395Y33953D01*
X55394Y33955D01*
X55394Y33956D01*
X55391Y33961D01*
X55390Y33967D01*
X55389Y33972D01*
X55388Y33976D01*
X55388Y33980D01*
X55387Y33983D01*
Y33985D01*
Y33986D01*
X55388Y33991D01*
X55388Y33997D01*
X55391Y34007D01*
X55394Y34015D01*
X55398Y34023D01*
X55402Y34029D01*
X55404Y34031D01*
X55406Y34033D01*
X55407Y34035D01*
X55408Y34036D01*
X55409Y34036D01*
X55409Y34037D01*
X55413Y34040D01*
X55418Y34044D01*
X55422Y34046D01*
X55427Y34049D01*
X55437Y34052D01*
X55446Y34055D01*
X55451Y34056D01*
X55455Y34056D01*
X55458Y34057D01*
X55461Y34057D01*
X55464Y34057D01*
X55468D01*
X55474Y34057D01*
D02*
G37*
G36*
X55100Y36496D02*
X53944D01*
Y37161D01*
X55100D01*
Y36496D01*
D02*
G37*
G36*
X55951Y33990D02*
X55959Y33989D01*
X55966Y33988D01*
X55973Y33987D01*
X55978Y33985D01*
X55982Y33984D01*
X55983Y33984D01*
X55984Y33984D01*
X55984Y33983D01*
X55985D01*
X55991Y33981D01*
X55996Y33977D01*
X56001Y33974D01*
X56005Y33972D01*
X56008Y33969D01*
X56010Y33967D01*
X56012Y33965D01*
X56012Y33965D01*
X56016Y33960D01*
X56019Y33954D01*
X56021Y33949D01*
X56023Y33944D01*
X56024Y33940D01*
X56025Y33936D01*
X56026Y33934D01*
X56026Y33933D01*
Y33933D01*
X55995Y33929D01*
X55993Y33935D01*
X55991Y33941D01*
X55988Y33946D01*
X55985Y33950D01*
X55983Y33952D01*
X55981Y33954D01*
X55980Y33956D01*
X55980Y33956D01*
X55975Y33959D01*
X55970Y33961D01*
X55965Y33962D01*
X55959Y33963D01*
X55954Y33963D01*
X55950Y33964D01*
X55947D01*
X55939Y33963D01*
X55931Y33962D01*
X55925Y33960D01*
X55920Y33958D01*
X55916Y33956D01*
X55913Y33954D01*
X55911Y33953D01*
X55911Y33953D01*
X55908Y33949D01*
X55906Y33945D01*
X55904Y33941D01*
X55903Y33937D01*
X55902Y33933D01*
X55902Y33929D01*
Y33927D01*
Y33926D01*
Y33926D01*
Y33925D01*
Y33924D01*
Y33921D01*
X55902Y33919D01*
Y33918D01*
Y33918D01*
X55906Y33917D01*
X55910Y33915D01*
X55919Y33913D01*
X55928Y33912D01*
X55937Y33910D01*
X55946Y33908D01*
X55949Y33908D01*
X55952Y33908D01*
X55955Y33907D01*
X55957D01*
X55958Y33907D01*
X55959D01*
X55965Y33906D01*
X55971Y33905D01*
X55976Y33905D01*
X55980Y33904D01*
X55983Y33903D01*
X55985Y33903D01*
X55986Y33902D01*
X55987D01*
X55991Y33901D01*
X55996Y33899D01*
X55999Y33898D01*
X56003Y33896D01*
X56005Y33894D01*
X56007Y33893D01*
X56009Y33892D01*
X56009Y33892D01*
X56013Y33889D01*
X56016Y33886D01*
X56019Y33883D01*
X56021Y33880D01*
X56023Y33878D01*
X56024Y33876D01*
X56025Y33874D01*
X56026Y33874D01*
X56028Y33869D01*
X56029Y33865D01*
X56030Y33861D01*
X56031Y33857D01*
X56031Y33854D01*
X56031Y33851D01*
Y33850D01*
Y33849D01*
X56031Y33841D01*
X56029Y33833D01*
X56026Y33827D01*
X56023Y33821D01*
X56020Y33816D01*
X56018Y33813D01*
X56016Y33811D01*
X56015Y33811D01*
X56008Y33805D01*
X56001Y33802D01*
X55993Y33799D01*
X55985Y33798D01*
X55979Y33796D01*
X55976Y33796D01*
X55973D01*
X55971Y33796D01*
X55968D01*
X55961Y33796D01*
X55955Y33797D01*
X55949Y33798D01*
X55944Y33799D01*
X55939Y33800D01*
X55936Y33801D01*
X55934Y33802D01*
X55934Y33802D01*
X55927Y33805D01*
X55922Y33808D01*
X55916Y33811D01*
X55911Y33815D01*
X55906Y33818D01*
X55903Y33821D01*
X55900Y33823D01*
X55900Y33823D01*
X55899Y33818D01*
X55898Y33814D01*
X55897Y33810D01*
X55896Y33807D01*
X55895Y33804D01*
X55894Y33802D01*
X55894Y33800D01*
X55893Y33800D01*
X55861D01*
X55864Y33808D01*
X55866Y33812D01*
X55867Y33815D01*
X55868Y33818D01*
X55868Y33820D01*
X55868Y33821D01*
Y33822D01*
X55869Y33825D01*
X55869Y33828D01*
Y33831D01*
X55870Y33835D01*
X55870Y33844D01*
Y33854D01*
X55870Y33863D01*
Y33867D01*
Y33871D01*
Y33873D01*
Y33876D01*
Y33877D01*
Y33878D01*
Y33920D01*
Y33927D01*
X55871Y33933D01*
X55871Y33938D01*
Y33942D01*
X55872Y33945D01*
X55872Y33947D01*
X55872Y33948D01*
Y33949D01*
X55874Y33953D01*
X55875Y33958D01*
X55877Y33961D01*
X55878Y33964D01*
X55880Y33967D01*
X55881Y33968D01*
X55882Y33970D01*
X55882Y33970D01*
X55885Y33973D01*
X55888Y33976D01*
X55892Y33978D01*
X55896Y33980D01*
X55899Y33982D01*
X55902Y33983D01*
X55903Y33984D01*
X55904Y33984D01*
X55910Y33986D01*
X55916Y33988D01*
X55923Y33988D01*
X55929Y33989D01*
X55934Y33990D01*
X55939Y33990D01*
X55943D01*
X55951Y33990D01*
D02*
G37*
G36*
X57916Y37800D02*
X57778D01*
X57766Y37801D01*
X57754Y37801D01*
X57743Y37802D01*
X57735Y37804D01*
X57727Y37805D01*
X57722Y37805D01*
X57718Y37806D01*
X57717D01*
X57707Y37809D01*
X57698Y37812D01*
X57691Y37815D01*
X57684Y37818D01*
X57679Y37821D01*
X57675Y37823D01*
X57672Y37825D01*
X57671Y37825D01*
X57664Y37830D01*
X57658Y37836D01*
X57652Y37842D01*
X57647Y37847D01*
X57642Y37853D01*
X57639Y37857D01*
X57637Y37859D01*
X57636Y37860D01*
X57630Y37869D01*
X57625Y37878D01*
X57621Y37888D01*
X57617Y37897D01*
X57614Y37905D01*
X57612Y37911D01*
X57611Y37913D01*
X57611Y37915D01*
X57610Y37916D01*
Y37916D01*
X57606Y37929D01*
X57604Y37943D01*
X57602Y37956D01*
X57601Y37968D01*
X57600Y37978D01*
Y37983D01*
X57599Y37987D01*
Y37990D01*
Y37992D01*
Y37994D01*
Y37994D01*
X57600Y38013D01*
X57602Y38030D01*
X57604Y38045D01*
X57606Y38052D01*
X57607Y38059D01*
X57608Y38064D01*
X57610Y38070D01*
X57611Y38074D01*
X57612Y38078D01*
X57613Y38081D01*
X57614Y38083D01*
X57615Y38084D01*
Y38085D01*
X57621Y38100D01*
X57628Y38112D01*
X57636Y38124D01*
X57643Y38133D01*
X57650Y38140D01*
X57655Y38146D01*
X57659Y38150D01*
X57660Y38151D01*
X57660D01*
X57670Y38158D01*
X57679Y38164D01*
X57688Y38169D01*
X57697Y38172D01*
X57705Y38175D01*
X57711Y38177D01*
X57714Y38178D01*
X57715D01*
X57716Y38178D01*
X57716D01*
X57726Y38180D01*
X57737Y38182D01*
X57749Y38183D01*
X57759Y38184D01*
X57769Y38184D01*
X57916D01*
Y37800D01*
D02*
G37*
G36*
X56241Y33990D02*
X56248Y33989D01*
X56253Y33987D01*
X56258Y33986D01*
X56262Y33984D01*
X56265Y33983D01*
X56267Y33982D01*
X56268Y33981D01*
X56273Y33978D01*
X56278Y33974D01*
X56281Y33971D01*
X56285Y33967D01*
X56287Y33964D01*
X56289Y33962D01*
X56290Y33960D01*
X56291Y33960D01*
Y33986D01*
X56319D01*
Y33800D01*
X56287D01*
Y33896D01*
X56287Y33905D01*
X56287Y33913D01*
X56286Y33920D01*
X56285Y33925D01*
X56284Y33929D01*
X56283Y33933D01*
X56283Y33934D01*
X56282Y33935D01*
X56280Y33940D01*
X56278Y33944D01*
X56275Y33947D01*
X56272Y33951D01*
X56270Y33952D01*
X56268Y33954D01*
X56266Y33955D01*
X56266Y33956D01*
X56262Y33958D01*
X56257Y33960D01*
X56253Y33961D01*
X56249Y33962D01*
X56246Y33962D01*
X56244Y33963D01*
X56241D01*
X56235Y33962D01*
X56230Y33961D01*
X56226Y33959D01*
X56222Y33958D01*
X56219Y33956D01*
X56218Y33954D01*
X56217Y33952D01*
X56216Y33952D01*
X56214Y33948D01*
X56212Y33943D01*
X56210Y33938D01*
X56209Y33932D01*
X56209Y33928D01*
X56209Y33924D01*
Y33922D01*
Y33921D01*
Y33921D01*
Y33921D01*
Y33800D01*
X56177D01*
Y33908D01*
X56177Y33918D01*
X56175Y33926D01*
X56173Y33933D01*
X56170Y33939D01*
X56168Y33944D01*
X56166Y33947D01*
X56164Y33949D01*
X56164Y33949D01*
X56159Y33954D01*
X56153Y33957D01*
X56148Y33960D01*
X56143Y33961D01*
X56138Y33962D01*
X56134Y33963D01*
X56131D01*
X56127Y33962D01*
X56124Y33962D01*
X56120Y33961D01*
X56118Y33960D01*
X56116Y33959D01*
X56114Y33958D01*
X56113Y33958D01*
X56113Y33958D01*
X56110Y33956D01*
X56108Y33953D01*
X56106Y33951D01*
X56104Y33949D01*
X56103Y33947D01*
X56102Y33945D01*
X56101Y33944D01*
Y33944D01*
X56100Y33940D01*
X56099Y33936D01*
X56099Y33927D01*
X56098Y33923D01*
Y33920D01*
Y33917D01*
Y33917D01*
Y33917D01*
Y33800D01*
X56067D01*
Y33927D01*
Y33933D01*
X56067Y33938D01*
X56069Y33948D01*
X56071Y33956D01*
X56074Y33963D01*
X56077Y33968D01*
X56079Y33972D01*
X56081Y33974D01*
X56082Y33974D01*
X56088Y33979D01*
X56095Y33983D01*
X56102Y33986D01*
X56109Y33988D01*
X56115Y33989D01*
X56117Y33990D01*
X56120D01*
X56122Y33990D01*
X56124D01*
X56131Y33990D01*
X56137Y33988D01*
X56143Y33987D01*
X56148Y33985D01*
X56158Y33979D01*
X56163Y33977D01*
X56166Y33974D01*
X56170Y33970D01*
X56173Y33968D01*
X56176Y33965D01*
X56178Y33962D01*
X56180Y33960D01*
X56181Y33959D01*
X56182Y33958D01*
X56182Y33957D01*
X56184Y33963D01*
X56187Y33968D01*
X56190Y33972D01*
X56193Y33975D01*
X56196Y33978D01*
X56198Y33980D01*
X56200Y33981D01*
X56201Y33981D01*
X56206Y33984D01*
X56211Y33986D01*
X56217Y33988D01*
X56222Y33989D01*
X56227Y33990D01*
X56231Y33990D01*
X56234D01*
X56241Y33990D01*
D02*
G37*
%LPC*%
G36*
X58800Y37495D02*
X58797D01*
X58787Y37494D01*
X58779Y37492D01*
X58772Y37488D01*
X58766Y37485D01*
X58761Y37481D01*
X58757Y37478D01*
X58755Y37475D01*
X58754Y37475D01*
X58748Y37466D01*
X58744Y37458D01*
X58741Y37448D01*
X58738Y37440D01*
X58737Y37432D01*
X58736Y37425D01*
Y37423D01*
Y37421D01*
Y37420D01*
Y37420D01*
X58737Y37410D01*
X58738Y37400D01*
X58739Y37391D01*
X58741Y37383D01*
X58743Y37376D01*
X58744Y37371D01*
X58745Y37367D01*
X58746Y37366D01*
Y37366D01*
X58749Y37356D01*
X58753Y37348D01*
X58758Y37341D01*
X58761Y37334D01*
X58765Y37329D01*
X58768Y37325D01*
X58769Y37323D01*
X58770Y37322D01*
X58775Y37316D01*
X58781Y37311D01*
X58786Y37306D01*
X58791Y37303D01*
X58795Y37300D01*
X58798Y37298D01*
X58800Y37297D01*
X58801Y37296D01*
X58807Y37293D01*
X58813Y37292D01*
X58818Y37290D01*
X58822Y37289D01*
X58827Y37289D01*
X58830Y37288D01*
X58832D01*
X58839Y37289D01*
X58847Y37291D01*
X58854Y37294D01*
X58859Y37298D01*
X58864Y37301D01*
X58868Y37304D01*
X58870Y37307D01*
X58870Y37307D01*
X58876Y37316D01*
X58880Y37324D01*
X58883Y37334D01*
X58885Y37343D01*
X58886Y37351D01*
X58887Y37358D01*
Y37360D01*
Y37362D01*
Y37363D01*
Y37363D01*
X58887Y37372D01*
X58886Y37380D01*
X58885Y37389D01*
X58883Y37396D01*
X58882Y37403D01*
X58880Y37408D01*
X58880Y37411D01*
X58879Y37413D01*
X58876Y37423D01*
X58872Y37431D01*
X58869Y37439D01*
X58865Y37445D01*
X58862Y37451D01*
X58859Y37455D01*
X58858Y37458D01*
X58857Y37458D01*
X58852Y37465D01*
X58846Y37471D01*
X58842Y37475D01*
X58837Y37479D01*
X58834Y37482D01*
X58831Y37484D01*
X58829Y37485D01*
X58828Y37486D01*
X58822Y37489D01*
X58817Y37491D01*
X58812Y37492D01*
X58807Y37493D01*
X58803Y37494D01*
X58800Y37495D01*
D02*
G37*
G36*
X59578Y37438D02*
X59575D01*
X59563Y37437D01*
X59551Y37435D01*
X59541Y37431D01*
X59533Y37427D01*
X59527Y37423D01*
X59522Y37419D01*
X59519Y37417D01*
X59518Y37416D01*
X59510Y37407D01*
X59505Y37397D01*
X59501Y37388D01*
X59498Y37379D01*
X59496Y37371D01*
X59496Y37365D01*
X59495Y37363D01*
Y37361D01*
Y37360D01*
Y37359D01*
X59496Y37347D01*
X59499Y37337D01*
X59502Y37327D01*
X59506Y37319D01*
X59510Y37313D01*
X59514Y37308D01*
X59516Y37305D01*
X59517Y37304D01*
X59526Y37297D01*
X59535Y37292D01*
X59544Y37287D01*
X59553Y37285D01*
X59561Y37283D01*
X59567Y37283D01*
X59570Y37282D01*
X59573D01*
X59581Y37283D01*
X59589Y37284D01*
X59595Y37285D01*
X59602Y37287D01*
X59607Y37289D01*
X59611Y37290D01*
X59613Y37292D01*
X59614Y37292D01*
X59620Y37296D01*
X59626Y37301D01*
X59631Y37306D01*
X59635Y37311D01*
X59638Y37315D01*
X59640Y37318D01*
X59641Y37321D01*
X59642Y37321D01*
X59645Y37328D01*
X59647Y37335D01*
X59649Y37342D01*
X59650Y37348D01*
X59651Y37354D01*
X59651Y37357D01*
Y37360D01*
Y37361D01*
X59650Y37372D01*
X59648Y37383D01*
X59644Y37393D01*
X59640Y37401D01*
X59637Y37407D01*
X59633Y37412D01*
X59631Y37415D01*
X59630Y37416D01*
X59621Y37424D01*
X59612Y37429D01*
X59603Y37433D01*
X59594Y37435D01*
X59587Y37437D01*
X59580Y37438D01*
X59578Y37438D01*
D02*
G37*
G36*
X62155Y35559D02*
X62149D01*
X62145Y35559D01*
X62140D01*
X62134Y35558D01*
X62127Y35558D01*
X62120Y35556D01*
X62103Y35554D01*
X62086Y35550D01*
X62067Y35544D01*
X62050Y35537D01*
X62050D01*
X62049Y35535D01*
X62046Y35534D01*
X62043Y35532D01*
X62039Y35530D01*
X62035Y35527D01*
X62025Y35520D01*
X62014Y35511D01*
X62003Y35500D01*
X61992Y35486D01*
X61983Y35472D01*
Y35471D01*
X61981Y35470D01*
X61980Y35468D01*
X61979Y35464D01*
X61977Y35461D01*
X61975Y35456D01*
X61973Y35450D01*
X61971Y35444D01*
X61969Y35438D01*
X61967Y35431D01*
X61963Y35415D01*
X61960Y35397D01*
X61959Y35379D01*
Y35378D01*
Y35376D01*
Y35373D01*
X61960Y35369D01*
X61960Y35364D01*
X61961Y35358D01*
X61962Y35352D01*
X61963Y35345D01*
X61966Y35329D01*
X61972Y35313D01*
X61975Y35305D01*
X61979Y35297D01*
X61984Y35289D01*
X61989Y35282D01*
X61990Y35281D01*
X61990Y35280D01*
X61992Y35278D01*
X61994Y35275D01*
X61997Y35272D01*
X62001Y35268D01*
X62005Y35264D01*
X62010Y35260D01*
X62016Y35255D01*
X62022Y35251D01*
X62029Y35246D01*
X62036Y35242D01*
X62044Y35238D01*
X62053Y35234D01*
X62072Y35227D01*
X62083Y35277D01*
X62083D01*
X62081Y35277D01*
X62079Y35278D01*
X62076Y35279D01*
X62073Y35281D01*
X62069Y35283D01*
X62060Y35287D01*
X62050Y35292D01*
X62039Y35299D01*
X62030Y35307D01*
X62022Y35316D01*
X62021Y35317D01*
X62019Y35321D01*
X62016Y35326D01*
X62012Y35334D01*
X62008Y35342D01*
X62005Y35353D01*
X62003Y35366D01*
X62003Y35380D01*
Y35380D01*
Y35382D01*
Y35384D01*
X62003Y35387D01*
Y35391D01*
X62004Y35395D01*
X62005Y35406D01*
X62008Y35417D01*
X62012Y35430D01*
X62017Y35442D01*
X62024Y35454D01*
Y35454D01*
X62025Y35455D01*
X62028Y35458D01*
X62033Y35463D01*
X62039Y35470D01*
X62048Y35476D01*
X62057Y35483D01*
X62069Y35490D01*
X62081Y35495D01*
X62082D01*
X62083Y35496D01*
X62085Y35496D01*
X62088Y35497D01*
X62091Y35498D01*
X62095Y35499D01*
X62104Y35501D01*
X62115Y35503D01*
X62128Y35505D01*
X62141Y35506D01*
X62155Y35507D01*
X62163D01*
X62167Y35506D01*
X62173D01*
X62178Y35506D01*
X62184Y35505D01*
X62197Y35503D01*
X62212Y35501D01*
X62227Y35497D01*
X62241Y35493D01*
X62241D01*
X62242Y35492D01*
X62244Y35491D01*
X62246Y35490D01*
X62253Y35487D01*
X62261Y35482D01*
X62270Y35476D01*
X62279Y35468D01*
X62288Y35459D01*
X62296Y35449D01*
Y35448D01*
X62296Y35448D01*
X62297Y35446D01*
X62299Y35444D01*
X62301Y35437D01*
X62304Y35429D01*
X62307Y35420D01*
X62310Y35408D01*
X62313Y35396D01*
X62313Y35383D01*
Y35383D01*
Y35382D01*
Y35379D01*
X62313Y35376D01*
Y35373D01*
X62312Y35368D01*
X62310Y35358D01*
X62307Y35347D01*
X62303Y35335D01*
X62297Y35323D01*
X62289Y35311D01*
X62288Y35311D01*
X62287Y35310D01*
X62284Y35307D01*
X62278Y35301D01*
X62270Y35295D01*
X62260Y35289D01*
X62248Y35282D01*
X62232Y35276D01*
X62215Y35271D01*
X62228Y35220D01*
X62229D01*
X62231Y35221D01*
X62234Y35222D01*
X62239Y35223D01*
X62244Y35225D01*
X62250Y35228D01*
X62256Y35230D01*
X62263Y35234D01*
X62279Y35241D01*
X62295Y35252D01*
X62310Y35263D01*
X62317Y35270D01*
X62324Y35278D01*
X62324Y35279D01*
X62325Y35280D01*
X62327Y35282D01*
X62329Y35286D01*
X62331Y35290D01*
X62334Y35294D01*
X62337Y35300D01*
X62340Y35306D01*
X62343Y35313D01*
X62346Y35321D01*
X62349Y35329D01*
X62351Y35338D01*
X62355Y35358D01*
X62356Y35368D01*
X62356Y35379D01*
Y35380D01*
Y35382D01*
Y35385D01*
X62356Y35390D01*
Y35395D01*
X62355Y35401D01*
X62354Y35408D01*
X62354Y35415D01*
X62350Y35431D01*
X62346Y35448D01*
X62339Y35465D01*
X62336Y35473D01*
X62331Y35480D01*
X62331Y35481D01*
X62330Y35482D01*
X62328Y35484D01*
X62327Y35487D01*
X62321Y35494D01*
X62313Y35502D01*
X62303Y35512D01*
X62290Y35521D01*
X62275Y35531D01*
X62258Y35540D01*
X62258D01*
X62256Y35540D01*
X62253Y35541D01*
X62250Y35542D01*
X62245Y35544D01*
X62240Y35546D01*
X62234Y35548D01*
X62227Y35549D01*
X62220Y35551D01*
X62212Y35553D01*
X62194Y35556D01*
X62176Y35559D01*
X62155Y35559D01*
D02*
G37*
G36*
X62183Y35170D02*
X62139D01*
Y35065D01*
X62034D01*
Y35021D01*
X62139D01*
Y34916D01*
X62183D01*
Y35021D01*
X62288D01*
Y35065D01*
X62183D01*
Y35170D01*
D02*
G37*
G36*
X62235Y38082D02*
X62187D01*
Y37938D01*
X62235D01*
Y38082D01*
D02*
G37*
G36*
X62155Y38459D02*
X62149D01*
X62145Y38459D01*
X62140D01*
X62134Y38458D01*
X62127Y38458D01*
X62120Y38456D01*
X62103Y38454D01*
X62086Y38450D01*
X62067Y38444D01*
X62050Y38437D01*
X62050D01*
X62049Y38435D01*
X62046Y38434D01*
X62043Y38432D01*
X62039Y38430D01*
X62035Y38427D01*
X62025Y38420D01*
X62014Y38411D01*
X62003Y38400D01*
X61992Y38386D01*
X61983Y38372D01*
Y38371D01*
X61981Y38370D01*
X61980Y38368D01*
X61979Y38364D01*
X61977Y38361D01*
X61975Y38356D01*
X61973Y38350D01*
X61971Y38344D01*
X61969Y38338D01*
X61967Y38331D01*
X61963Y38315D01*
X61960Y38297D01*
X61959Y38279D01*
Y38278D01*
Y38276D01*
Y38273D01*
X61960Y38269D01*
X61960Y38264D01*
X61961Y38258D01*
X61962Y38252D01*
X61963Y38245D01*
X61966Y38229D01*
X61972Y38213D01*
X61975Y38205D01*
X61979Y38197D01*
X61984Y38189D01*
X61989Y38182D01*
X61990Y38181D01*
X61990Y38180D01*
X61992Y38178D01*
X61994Y38175D01*
X61997Y38172D01*
X62001Y38168D01*
X62005Y38164D01*
X62010Y38160D01*
X62016Y38155D01*
X62022Y38151D01*
X62029Y38146D01*
X62036Y38142D01*
X62044Y38138D01*
X62053Y38134D01*
X62072Y38127D01*
X62083Y38177D01*
X62083D01*
X62081Y38177D01*
X62079Y38178D01*
X62076Y38179D01*
X62073Y38181D01*
X62069Y38183D01*
X62060Y38187D01*
X62050Y38192D01*
X62039Y38199D01*
X62030Y38207D01*
X62022Y38216D01*
X62021Y38217D01*
X62019Y38221D01*
X62016Y38226D01*
X62012Y38234D01*
X62008Y38242D01*
X62005Y38253D01*
X62003Y38266D01*
X62003Y38280D01*
Y38280D01*
Y38282D01*
Y38284D01*
X62003Y38287D01*
Y38291D01*
X62004Y38295D01*
X62005Y38306D01*
X62008Y38317D01*
X62012Y38330D01*
X62017Y38342D01*
X62024Y38354D01*
Y38354D01*
X62025Y38355D01*
X62028Y38358D01*
X62033Y38363D01*
X62039Y38370D01*
X62048Y38376D01*
X62057Y38383D01*
X62069Y38390D01*
X62081Y38395D01*
X62082D01*
X62083Y38396D01*
X62085Y38396D01*
X62088Y38397D01*
X62091Y38398D01*
X62095Y38399D01*
X62104Y38401D01*
X62115Y38403D01*
X62128Y38405D01*
X62141Y38406D01*
X62155Y38407D01*
X62163D01*
X62167Y38406D01*
X62173D01*
X62178Y38406D01*
X62184Y38405D01*
X62197Y38403D01*
X62212Y38401D01*
X62227Y38397D01*
X62241Y38393D01*
X62241D01*
X62242Y38392D01*
X62244Y38391D01*
X62246Y38390D01*
X62253Y38387D01*
X62261Y38382D01*
X62270Y38376D01*
X62279Y38368D01*
X62288Y38359D01*
X62296Y38349D01*
Y38348D01*
X62296Y38348D01*
X62297Y38346D01*
X62299Y38344D01*
X62301Y38337D01*
X62304Y38329D01*
X62307Y38320D01*
X62310Y38308D01*
X62313Y38296D01*
X62313Y38283D01*
Y38283D01*
Y38282D01*
Y38279D01*
X62313Y38276D01*
Y38273D01*
X62312Y38268D01*
X62310Y38258D01*
X62307Y38247D01*
X62303Y38235D01*
X62297Y38223D01*
X62289Y38211D01*
X62288Y38211D01*
X62287Y38210D01*
X62284Y38207D01*
X62278Y38201D01*
X62270Y38195D01*
X62260Y38189D01*
X62248Y38182D01*
X62232Y38176D01*
X62215Y38171D01*
X62228Y38120D01*
X62229D01*
X62231Y38121D01*
X62234Y38122D01*
X62239Y38123D01*
X62244Y38125D01*
X62250Y38128D01*
X62256Y38130D01*
X62263Y38134D01*
X62279Y38141D01*
X62295Y38152D01*
X62310Y38163D01*
X62317Y38170D01*
X62324Y38178D01*
X62324Y38179D01*
X62325Y38180D01*
X62327Y38182D01*
X62329Y38186D01*
X62331Y38190D01*
X62334Y38194D01*
X62337Y38200D01*
X62340Y38206D01*
X62343Y38213D01*
X62346Y38221D01*
X62349Y38229D01*
X62351Y38238D01*
X62355Y38258D01*
X62356Y38268D01*
X62356Y38279D01*
Y38280D01*
Y38282D01*
Y38285D01*
X62356Y38290D01*
Y38295D01*
X62355Y38301D01*
X62354Y38308D01*
X62354Y38315D01*
X62350Y38331D01*
X62346Y38348D01*
X62339Y38365D01*
X62336Y38373D01*
X62331Y38380D01*
X62331Y38381D01*
X62330Y38382D01*
X62328Y38384D01*
X62327Y38387D01*
X62321Y38394D01*
X62313Y38402D01*
X62303Y38412D01*
X62290Y38421D01*
X62275Y38431D01*
X62258Y38440D01*
X62258D01*
X62256Y38440D01*
X62253Y38441D01*
X62250Y38442D01*
X62245Y38444D01*
X62240Y38446D01*
X62234Y38448D01*
X62227Y38449D01*
X62220Y38451D01*
X62212Y38453D01*
X62194Y38456D01*
X62176Y38459D01*
X62155Y38459D01*
D02*
G37*
G36*
X59266Y38142D02*
X59144D01*
X59129Y38141D01*
X59116Y38139D01*
X59106Y38136D01*
X59097Y38133D01*
X59091Y38130D01*
X59085Y38127D01*
X59083Y38125D01*
X59082Y38124D01*
X59075Y38117D01*
X59070Y38109D01*
X59067Y38102D01*
X59064Y38095D01*
X59063Y38088D01*
X59062Y38084D01*
Y38080D01*
Y38080D01*
Y38079D01*
X59063Y38072D01*
X59064Y38066D01*
X59065Y38060D01*
X59067Y38055D01*
X59069Y38050D01*
X59071Y38047D01*
X59072Y38045D01*
X59072Y38045D01*
X59077Y38039D01*
X59081Y38035D01*
X59086Y38030D01*
X59091Y38027D01*
X59095Y38025D01*
X59099Y38023D01*
X59101Y38022D01*
X59102Y38022D01*
X59110Y38019D01*
X59119Y38018D01*
X59128Y38016D01*
X59137Y38016D01*
X59144Y38015D01*
X59151Y38015D01*
X59266D01*
Y38142D01*
D02*
G37*
G36*
X58171Y38147D02*
X58166D01*
X58152Y38146D01*
X58139Y38144D01*
X58127Y38141D01*
X58117Y38138D01*
X58109Y38133D01*
X58103Y38131D01*
X58100Y38129D01*
X58098Y38128D01*
X58098Y38128D01*
X58097D01*
X58087Y38120D01*
X58077Y38111D01*
X58069Y38102D01*
X58063Y38093D01*
X58057Y38085D01*
X58054Y38079D01*
X58053Y38077D01*
X58052Y38075D01*
X58051Y38074D01*
Y38073D01*
X58046Y38060D01*
X58042Y38046D01*
X58039Y38032D01*
X58036Y38019D01*
X58035Y38008D01*
Y38003D01*
X58035Y37999D01*
Y37996D01*
Y37994D01*
Y37992D01*
Y37991D01*
X58035Y37978D01*
X58036Y37965D01*
X58038Y37953D01*
X58041Y37942D01*
X58043Y37932D01*
X58046Y37922D01*
X58050Y37914D01*
X58053Y37906D01*
X58057Y37899D01*
X58060Y37894D01*
X58063Y37888D01*
X58066Y37884D01*
X58069Y37881D01*
X58070Y37878D01*
X58072Y37877D01*
X58072Y37877D01*
X58079Y37870D01*
X58087Y37864D01*
X58094Y37859D01*
X58103Y37854D01*
X58110Y37850D01*
X58118Y37847D01*
X58133Y37842D01*
X58140Y37840D01*
X58146Y37839D01*
X58152Y37838D01*
X58157Y37837D01*
X58161Y37837D01*
X58166D01*
X58177Y37837D01*
X58186Y37839D01*
X58196Y37840D01*
X58204Y37843D01*
X58213Y37846D01*
X58221Y37850D01*
X58228Y37853D01*
X58234Y37857D01*
X58240Y37860D01*
X58245Y37864D01*
X58249Y37867D01*
X58253Y37870D01*
X58256Y37873D01*
X58258Y37875D01*
X58259Y37876D01*
X58260Y37877D01*
X58266Y37884D01*
X58272Y37893D01*
X58277Y37902D01*
X58281Y37911D01*
X58284Y37920D01*
X58288Y37929D01*
X58292Y37946D01*
X58294Y37954D01*
X58295Y37962D01*
X58296Y37968D01*
X58296Y37974D01*
X58297Y37980D01*
Y37983D01*
Y37985D01*
Y37986D01*
X58296Y38002D01*
X58295Y38016D01*
X58293Y38029D01*
X58291Y38042D01*
X58288Y38053D01*
X58284Y38063D01*
X58281Y38072D01*
X58277Y38080D01*
X58274Y38087D01*
X58270Y38093D01*
X58267Y38098D01*
X58264Y38102D01*
X58262Y38105D01*
X58260Y38108D01*
X58259Y38109D01*
X58258Y38109D01*
X58251Y38116D01*
X58243Y38122D01*
X58235Y38127D01*
X58227Y38131D01*
X58220Y38135D01*
X58212Y38138D01*
X58197Y38142D01*
X58191Y38144D01*
X58185Y38145D01*
X58179Y38146D01*
X58174Y38146D01*
X58171Y38147D01*
D02*
G37*
G36*
X57866Y38139D02*
X57785D01*
X57770Y38139D01*
X57756Y38138D01*
X57745Y38137D01*
X57736Y38135D01*
X57729Y38133D01*
X57724Y38132D01*
X57721Y38132D01*
X57720Y38131D01*
X57710Y38126D01*
X57701Y38119D01*
X57692Y38112D01*
X57685Y38105D01*
X57680Y38098D01*
X57675Y38093D01*
X57674Y38090D01*
X57673Y38088D01*
X57672Y38088D01*
Y38087D01*
X57668Y38081D01*
X57666Y38074D01*
X57660Y38059D01*
X57657Y38044D01*
X57654Y38029D01*
X57654Y38022D01*
X57653Y38016D01*
X57653Y38010D01*
X57652Y38005D01*
Y38001D01*
Y37998D01*
Y37995D01*
Y37995D01*
X57653Y37979D01*
X57654Y37965D01*
X57656Y37952D01*
X57657Y37941D01*
X57659Y37932D01*
X57660Y37929D01*
X57661Y37926D01*
X57661Y37923D01*
X57662Y37922D01*
X57663Y37921D01*
Y37921D01*
X57667Y37910D01*
X57671Y37900D01*
X57676Y37892D01*
X57680Y37885D01*
X57684Y37880D01*
X57688Y37875D01*
X57690Y37873D01*
X57691Y37872D01*
X57696Y37867D01*
X57701Y37863D01*
X57707Y37860D01*
X57713Y37857D01*
X57718Y37855D01*
X57722Y37853D01*
X57724Y37853D01*
X57725Y37852D01*
X57734Y37850D01*
X57743Y37848D01*
X57753Y37847D01*
X57763Y37846D01*
X57771Y37846D01*
X57778Y37845D01*
X57866D01*
Y38139D01*
D02*
G37*
G36*
X59251Y37595D02*
X59247Y37582D01*
X59243Y37568D01*
X59238Y37555D01*
X59233Y37542D01*
X59230Y37531D01*
X59228Y37526D01*
X59226Y37522D01*
X59225Y37519D01*
X59224Y37516D01*
X59223Y37514D01*
Y37514D01*
X59183Y37408D01*
X59314D01*
X59272Y37520D01*
X59267Y37534D01*
X59263Y37547D01*
X59259Y37559D01*
X59257Y37571D01*
X59254Y37581D01*
X59253Y37585D01*
X59252Y37588D01*
X59251Y37591D01*
Y37593D01*
X59251Y37594D01*
Y37595D01*
D02*
G37*
G36*
X57095D02*
X57091Y37582D01*
X57087Y37568D01*
X57082Y37555D01*
X57077Y37542D01*
X57074Y37531D01*
X57072Y37526D01*
X57070Y37522D01*
X57069Y37519D01*
X57068Y37516D01*
X57067Y37514D01*
Y37514D01*
X57028Y37408D01*
X57158D01*
X57116Y37520D01*
X57111Y37534D01*
X57107Y37547D01*
X57104Y37559D01*
X57101Y37571D01*
X57098Y37581D01*
X57097Y37585D01*
X57096Y37588D01*
X57096Y37591D01*
Y37593D01*
X57095Y37594D01*
Y37595D01*
D02*
G37*
G36*
X59578Y37597D02*
X59574D01*
X59564Y37597D01*
X59556Y37595D01*
X59548Y37592D01*
X59541Y37589D01*
X59536Y37585D01*
X59532Y37582D01*
X59530Y37580D01*
X59529Y37579D01*
X59523Y37572D01*
X59519Y37565D01*
X59516Y37558D01*
X59513Y37551D01*
X59512Y37545D01*
X59511Y37540D01*
Y37537D01*
Y37537D01*
Y37536D01*
X59512Y37527D01*
X59514Y37519D01*
X59516Y37511D01*
X59520Y37506D01*
X59523Y37500D01*
X59526Y37497D01*
X59528Y37495D01*
X59529Y37494D01*
X59536Y37488D01*
X59543Y37484D01*
X59551Y37481D01*
X59558Y37479D01*
X59564Y37478D01*
X59569Y37477D01*
X59574D01*
X59584Y37478D01*
X59592Y37480D01*
X59601Y37482D01*
X59607Y37486D01*
X59612Y37489D01*
X59616Y37492D01*
X59619Y37493D01*
X59619Y37494D01*
X59625Y37501D01*
X59629Y37509D01*
X59632Y37516D01*
X59634Y37523D01*
X59635Y37529D01*
X59636Y37534D01*
Y37537D01*
Y37538D01*
X59636Y37547D01*
X59633Y37555D01*
X59630Y37562D01*
X59627Y37568D01*
X59624Y37573D01*
X59622Y37577D01*
X59619Y37579D01*
X59619Y37580D01*
X59612Y37586D01*
X59604Y37590D01*
X59596Y37593D01*
X59589Y37595D01*
X59583Y37596D01*
X59578Y37597D01*
D02*
G37*
G36*
X62350Y38845D02*
X61966Y38698D01*
Y38642D01*
X62350Y38486D01*
Y38544D01*
X62234Y38588D01*
Y38750D01*
X62350Y38791D01*
Y38845D01*
D02*
G37*
G36*
X61966Y39201D02*
Y39145D01*
X62245Y39046D01*
X62245D01*
X62246Y39045D01*
X62248Y39044D01*
X62251Y39043D01*
X62257Y39041D01*
X62265Y39039D01*
X62275Y39035D01*
X62286Y39032D01*
X62308Y39025D01*
X62307D01*
X62307Y39025D01*
X62305Y39024D01*
X62303Y39023D01*
X62296Y39022D01*
X62288Y39019D01*
X62279Y39016D01*
X62268Y39013D01*
X62256Y39009D01*
X62245Y39005D01*
X61966Y38900D01*
Y38849D01*
X62350Y38999D01*
Y39051D01*
X61966Y39201D01*
D02*
G37*
G36*
X62350Y35945D02*
X61966Y35798D01*
Y35742D01*
X62350Y35586D01*
Y35644D01*
X62234Y35688D01*
Y35850D01*
X62350Y35891D01*
Y35945D01*
D02*
G37*
G36*
X55590Y38702D02*
X55381D01*
Y38679D01*
X55590D01*
Y38702D01*
D02*
G37*
G36*
X54520Y37902D02*
X54392D01*
Y37872D01*
X54495D01*
X54509Y37803D01*
X54508Y37804D01*
X54507Y37804D01*
X54506Y37805D01*
X54505Y37806D01*
X54502Y37807D01*
X54500Y37808D01*
X54494Y37811D01*
X54487Y37815D01*
X54479Y37817D01*
X54470Y37819D01*
X54460Y37820D01*
X54457D01*
X54455Y37819D01*
X54452Y37819D01*
X54449Y37818D01*
X54445Y37818D01*
X54441Y37817D01*
X54432Y37814D01*
X54427Y37812D01*
X54422Y37810D01*
X54417Y37807D01*
X54413Y37804D01*
X54408Y37801D01*
X54404Y37796D01*
X54403Y37796D01*
X54403Y37795D01*
X54401Y37794D01*
X54400Y37792D01*
X54398Y37790D01*
X54396Y37787D01*
X54394Y37784D01*
X54392Y37780D01*
X54390Y37776D01*
X54388Y37772D01*
X54386Y37767D01*
X54384Y37762D01*
X54383Y37756D01*
X54382Y37750D01*
X54381Y37743D01*
X54380Y37737D01*
Y37736D01*
Y37735D01*
Y37733D01*
X54381Y37731D01*
X54381Y37728D01*
X54382Y37724D01*
X54382Y37720D01*
X54383Y37716D01*
X54385Y37707D01*
X54389Y37697D01*
X54391Y37691D01*
X54394Y37686D01*
X54397Y37681D01*
X54401Y37677D01*
X54401Y37676D01*
X54402Y37675D01*
X54403Y37674D01*
X54405Y37672D01*
X54408Y37669D01*
X54411Y37667D01*
X54414Y37664D01*
X54419Y37661D01*
X54423Y37658D01*
X54428Y37655D01*
X54434Y37653D01*
X54440Y37650D01*
X54446Y37648D01*
X54453Y37647D01*
X54460Y37646D01*
X54468Y37646D01*
X54472D01*
X54474Y37646D01*
X54477Y37646D01*
X54480Y37647D01*
X54484Y37647D01*
X54488Y37648D01*
X54497Y37650D01*
X54507Y37654D01*
X54511Y37656D01*
X54516Y37659D01*
X54521Y37662D01*
X54525Y37665D01*
X54525Y37666D01*
X54526Y37666D01*
X54527Y37667D01*
X54529Y37669D01*
X54530Y37671D01*
X54532Y37673D01*
X54534Y37676D01*
X54536Y37679D01*
X54541Y37686D01*
X54545Y37695D01*
X54548Y37705D01*
X54549Y37711D01*
X54550Y37717D01*
X54517Y37719D01*
Y37719D01*
Y37718D01*
X54516Y37717D01*
X54516Y37716D01*
X54515Y37711D01*
X54513Y37706D01*
X54511Y37700D01*
X54508Y37694D01*
X54505Y37688D01*
X54500Y37683D01*
X54499Y37683D01*
X54498Y37681D01*
X54495Y37680D01*
X54491Y37677D01*
X54486Y37675D01*
X54481Y37673D01*
X54475Y37672D01*
X54468Y37671D01*
X54466D01*
X54464Y37672D01*
X54460Y37672D01*
X54454Y37673D01*
X54449Y37676D01*
X54442Y37678D01*
X54436Y37683D01*
X54433Y37685D01*
X54429Y37688D01*
Y37689D01*
X54429Y37689D01*
X54427Y37691D01*
X54424Y37695D01*
X54422Y37700D01*
X54419Y37707D01*
X54416Y37715D01*
X54415Y37724D01*
X54414Y37734D01*
Y37734D01*
Y37735D01*
Y37737D01*
X54414Y37738D01*
Y37740D01*
X54415Y37743D01*
X54416Y37749D01*
X54417Y37756D01*
X54420Y37763D01*
X54424Y37770D01*
X54429Y37776D01*
X54430Y37777D01*
X54432Y37779D01*
X54435Y37781D01*
X54440Y37784D01*
X54445Y37787D01*
X54452Y37790D01*
X54460Y37791D01*
X54468Y37792D01*
X54471D01*
X54474Y37792D01*
X54478Y37791D01*
X54482Y37790D01*
X54487Y37789D01*
X54492Y37787D01*
X54496Y37785D01*
X54497Y37784D01*
X54498Y37783D01*
X54500Y37782D01*
X54503Y37780D01*
X54506Y37777D01*
X54509Y37774D01*
X54512Y37771D01*
X54515Y37767D01*
X54545Y37771D01*
X54520Y37902D01*
D02*
G37*
G36*
X54246Y39006D02*
X54212D01*
Y38780D01*
X54086D01*
Y38750D01*
X54246D01*
Y39006D01*
D02*
G37*
G36*
X55270Y39011D02*
X55265D01*
X55262Y39010D01*
X55259D01*
X55253Y39009D01*
X55245Y39008D01*
X55236Y39007D01*
X55228Y39004D01*
X55220Y39001D01*
X55219D01*
X55219Y39001D01*
X55218Y39000D01*
X55216Y39000D01*
X55212Y38997D01*
X55207Y38995D01*
X55202Y38991D01*
X55196Y38986D01*
X55191Y38980D01*
X55186Y38974D01*
X55186Y38973D01*
X55184Y38971D01*
X55182Y38967D01*
X55180Y38963D01*
X55178Y38957D01*
X55176Y38950D01*
X55174Y38942D01*
X55173Y38934D01*
X55206Y38932D01*
Y38932D01*
Y38933D01*
X55206Y38934D01*
X55206Y38936D01*
X55207Y38940D01*
X55209Y38945D01*
X55211Y38951D01*
X55214Y38957D01*
X55218Y38963D01*
X55224Y38968D01*
X55224Y38968D01*
X55226Y38970D01*
X55230Y38972D01*
X55234Y38974D01*
X55241Y38977D01*
X55248Y38979D01*
X55257Y38980D01*
X55268Y38980D01*
X55273D01*
X55275Y38980D01*
X55279D01*
X55285Y38979D01*
X55293Y38978D01*
X55300Y38976D01*
X55307Y38973D01*
X55310Y38971D01*
X55313Y38969D01*
X55313Y38969D01*
X55315Y38967D01*
X55317Y38965D01*
X55319Y38961D01*
X55322Y38957D01*
X55324Y38953D01*
X55326Y38948D01*
X55326Y38942D01*
Y38941D01*
Y38940D01*
X55326Y38937D01*
X55325Y38934D01*
X55324Y38930D01*
X55322Y38926D01*
X55320Y38923D01*
X55317Y38919D01*
X55316Y38919D01*
X55314Y38918D01*
X55313Y38917D01*
X55312Y38916D01*
X55309Y38915D01*
X55307Y38914D01*
X55303Y38912D01*
X55300Y38911D01*
X55296Y38910D01*
X55291Y38908D01*
X55286Y38906D01*
X55280Y38904D01*
X55273Y38903D01*
X55266Y38901D01*
X55266D01*
X55264Y38901D01*
X55262Y38900D01*
X55259Y38899D01*
X55256Y38899D01*
X55252Y38897D01*
X55243Y38895D01*
X55234Y38893D01*
X55225Y38890D01*
X55220Y38889D01*
X55216Y38887D01*
X55212Y38886D01*
X55209Y38885D01*
X55209D01*
X55208Y38884D01*
X55207Y38883D01*
X55206Y38883D01*
X55202Y38880D01*
X55197Y38878D01*
X55191Y38874D01*
X55186Y38869D01*
X55181Y38864D01*
X55176Y38858D01*
X55176Y38858D01*
X55175Y38856D01*
X55173Y38853D01*
X55171Y38848D01*
X55169Y38843D01*
X55167Y38837D01*
X55166Y38830D01*
X55165Y38822D01*
Y38822D01*
Y38821D01*
Y38820D01*
Y38819D01*
X55166Y38815D01*
X55167Y38810D01*
X55168Y38804D01*
X55170Y38797D01*
X55173Y38790D01*
X55177Y38784D01*
X55178Y38783D01*
X55179Y38780D01*
X55182Y38777D01*
X55186Y38773D01*
X55190Y38769D01*
X55196Y38764D01*
X55203Y38760D01*
X55211Y38755D01*
X55211D01*
X55212Y38755D01*
X55213Y38755D01*
X55215Y38754D01*
X55217Y38753D01*
X55219Y38752D01*
X55225Y38751D01*
X55233Y38749D01*
X55241Y38747D01*
X55250Y38746D01*
X55260Y38746D01*
X55266D01*
X55269Y38746D01*
X55272D01*
X55276Y38746D01*
X55280Y38747D01*
X55289Y38748D01*
X55299Y38750D01*
X55309Y38752D01*
X55318Y38755D01*
X55319D01*
X55319Y38756D01*
X55321Y38757D01*
X55322Y38757D01*
X55326Y38760D01*
X55332Y38763D01*
X55338Y38768D01*
X55344Y38773D01*
X55350Y38779D01*
X55355Y38786D01*
Y38786D01*
X55356Y38787D01*
X55357Y38788D01*
X55357Y38789D01*
X55358Y38791D01*
X55360Y38794D01*
X55362Y38800D01*
X55364Y38806D01*
X55367Y38814D01*
X55368Y38823D01*
X55369Y38832D01*
X55337Y38835D01*
Y38835D01*
Y38834D01*
X55337Y38832D01*
X55336Y38828D01*
X55335Y38824D01*
X55334Y38819D01*
X55332Y38813D01*
X55330Y38808D01*
X55327Y38803D01*
X55326Y38803D01*
X55325Y38801D01*
X55323Y38799D01*
X55320Y38796D01*
X55317Y38793D01*
X55312Y38789D01*
X55307Y38786D01*
X55301Y38783D01*
X55301D01*
X55300Y38783D01*
X55298Y38782D01*
X55295Y38781D01*
X55289Y38780D01*
X55284Y38778D01*
X55277Y38777D01*
X55270Y38776D01*
X55262Y38776D01*
X55259D01*
X55255Y38776D01*
X55250Y38777D01*
X55245Y38777D01*
X55240Y38778D01*
X55234Y38779D01*
X55228Y38781D01*
X55227Y38782D01*
X55225Y38782D01*
X55223Y38784D01*
X55220Y38785D01*
X55216Y38788D01*
X55212Y38791D01*
X55209Y38794D01*
X55206Y38797D01*
X55205Y38798D01*
X55204Y38799D01*
X55203Y38801D01*
X55202Y38804D01*
X55201Y38807D01*
X55199Y38811D01*
X55199Y38815D01*
X55198Y38819D01*
Y38819D01*
Y38821D01*
X55199Y38823D01*
X55199Y38826D01*
X55200Y38830D01*
X55201Y38833D01*
X55203Y38837D01*
X55205Y38840D01*
X55206Y38840D01*
X55206Y38842D01*
X55208Y38843D01*
X55211Y38846D01*
X55214Y38848D01*
X55218Y38850D01*
X55223Y38853D01*
X55228Y38855D01*
X55229Y38856D01*
X55230Y38856D01*
X55233Y38857D01*
X55235Y38858D01*
X55238Y38858D01*
X55241Y38859D01*
X55244Y38860D01*
X55248Y38861D01*
X55252Y38862D01*
X55256Y38863D01*
X55262Y38865D01*
X55268Y38866D01*
X55274Y38868D01*
X55274D01*
X55275Y38868D01*
X55277Y38869D01*
X55280Y38869D01*
X55282Y38870D01*
X55286Y38871D01*
X55293Y38873D01*
X55301Y38876D01*
X55309Y38878D01*
X55317Y38881D01*
X55320Y38882D01*
X55323Y38884D01*
X55323D01*
X55324Y38884D01*
X55326Y38886D01*
X55329Y38888D01*
X55333Y38890D01*
X55338Y38894D01*
X55342Y38898D01*
X55346Y38902D01*
X55350Y38908D01*
X55351Y38908D01*
X55352Y38910D01*
X55353Y38913D01*
X55355Y38917D01*
X55357Y38922D01*
X55358Y38927D01*
X55359Y38933D01*
X55359Y38940D01*
Y38940D01*
Y38940D01*
Y38941D01*
Y38943D01*
X55358Y38947D01*
X55358Y38951D01*
X55357Y38957D01*
X55355Y38963D01*
X55352Y38970D01*
X55348Y38976D01*
Y38976D01*
X55348Y38977D01*
X55346Y38979D01*
X55344Y38982D01*
X55340Y38986D01*
X55336Y38989D01*
X55330Y38994D01*
X55324Y38998D01*
X55316Y39002D01*
X55316D01*
X55316Y39002D01*
X55314Y39002D01*
X55312Y39003D01*
X55311Y39004D01*
X55308Y39004D01*
X55303Y39006D01*
X55296Y39008D01*
X55288Y39009D01*
X55279Y39010D01*
X55270Y39011D01*
D02*
G37*
G36*
X54772Y36961D02*
X54767D01*
X54765Y36960D01*
X54762D01*
X54755Y36959D01*
X54748Y36958D01*
X54739Y36957D01*
X54731Y36954D01*
X54722Y36951D01*
X54722D01*
X54721Y36951D01*
X54720Y36950D01*
X54718Y36950D01*
X54714Y36948D01*
X54709Y36945D01*
X54703Y36941D01*
X54698Y36937D01*
X54692Y36932D01*
X54687Y36926D01*
X54686Y36925D01*
X54685Y36923D01*
X54682Y36920D01*
X54679Y36915D01*
X54676Y36909D01*
X54673Y36902D01*
X54670Y36894D01*
X54667Y36884D01*
X54698Y36876D01*
Y36876D01*
X54698Y36877D01*
X54699Y36879D01*
X54700Y36883D01*
X54702Y36887D01*
X54704Y36892D01*
X54706Y36897D01*
X54709Y36902D01*
X54712Y36907D01*
X54712Y36907D01*
X54714Y36909D01*
X54716Y36911D01*
X54718Y36913D01*
X54722Y36916D01*
X54726Y36919D01*
X54731Y36922D01*
X54737Y36925D01*
X54737Y36925D01*
X54739Y36926D01*
X54743Y36927D01*
X54747Y36928D01*
X54752Y36929D01*
X54758Y36930D01*
X54765Y36931D01*
X54772Y36932D01*
X54776D01*
X54780Y36931D01*
X54785Y36931D01*
X54792Y36930D01*
X54799Y36929D01*
X54805Y36927D01*
X54812Y36924D01*
X54813Y36924D01*
X54815Y36923D01*
X54818Y36922D01*
X54822Y36919D01*
X54826Y36916D01*
X54831Y36913D01*
X54835Y36910D01*
X54839Y36906D01*
X54840Y36905D01*
X54841Y36904D01*
X54843Y36901D01*
X54845Y36898D01*
X54848Y36894D01*
X54850Y36890D01*
X54853Y36885D01*
X54855Y36880D01*
Y36880D01*
X54856Y36879D01*
X54856Y36878D01*
X54857Y36876D01*
X54857Y36874D01*
X54858Y36871D01*
X54860Y36865D01*
X54862Y36857D01*
X54863Y36849D01*
X54865Y36839D01*
X54865Y36829D01*
Y36828D01*
Y36827D01*
Y36826D01*
X54865Y36823D01*
Y36820D01*
X54864Y36817D01*
X54864Y36813D01*
X54863Y36809D01*
X54862Y36799D01*
X54860Y36790D01*
X54857Y36780D01*
X54853Y36771D01*
Y36771D01*
X54853Y36770D01*
X54852Y36769D01*
X54851Y36767D01*
X54848Y36763D01*
X54845Y36758D01*
X54840Y36753D01*
X54834Y36747D01*
X54827Y36741D01*
X54819Y36737D01*
X54819D01*
X54818Y36736D01*
X54817Y36735D01*
X54815Y36735D01*
X54813Y36734D01*
X54811Y36733D01*
X54805Y36731D01*
X54797Y36729D01*
X54790Y36727D01*
X54781Y36726D01*
X54771Y36726D01*
X54767D01*
X54763Y36726D01*
X54758Y36727D01*
X54751Y36728D01*
X54744Y36729D01*
X54736Y36731D01*
X54728Y36734D01*
X54728D01*
X54728Y36734D01*
X54726Y36735D01*
X54725Y36735D01*
X54721Y36737D01*
X54716Y36739D01*
X54711Y36742D01*
X54706Y36745D01*
X54701Y36749D01*
X54696Y36752D01*
Y36801D01*
X54772D01*
Y36831D01*
X54663D01*
Y36735D01*
X54664Y36735D01*
X54664Y36735D01*
X54666Y36734D01*
X54668Y36732D01*
X54670Y36730D01*
X54673Y36729D01*
X54679Y36724D01*
X54687Y36720D01*
X54696Y36714D01*
X54705Y36710D01*
X54715Y36705D01*
X54716D01*
X54716Y36705D01*
X54718Y36705D01*
X54720Y36704D01*
X54722Y36703D01*
X54725Y36702D01*
X54728Y36702D01*
X54732Y36701D01*
X54740Y36699D01*
X54749Y36697D01*
X54759Y36696D01*
X54769Y36696D01*
X54773D01*
X54776Y36696D01*
X54779D01*
X54783Y36696D01*
X54787Y36697D01*
X54792Y36698D01*
X54803Y36700D01*
X54814Y36702D01*
X54826Y36706D01*
X54838Y36712D01*
X54838Y36712D01*
X54839Y36712D01*
X54841Y36713D01*
X54843Y36715D01*
X54846Y36716D01*
X54849Y36718D01*
X54855Y36723D01*
X54863Y36730D01*
X54870Y36738D01*
X54878Y36748D01*
X54884Y36758D01*
Y36758D01*
X54885Y36760D01*
X54886Y36761D01*
X54887Y36764D01*
X54888Y36766D01*
X54889Y36770D01*
X54891Y36774D01*
X54892Y36778D01*
X54894Y36783D01*
X54895Y36789D01*
X54898Y36800D01*
X54899Y36813D01*
X54900Y36827D01*
Y36827D01*
Y36828D01*
Y36830D01*
X54900Y36833D01*
Y36837D01*
X54899Y36840D01*
X54899Y36845D01*
X54898Y36849D01*
X54896Y36860D01*
X54893Y36872D01*
X54889Y36884D01*
X54884Y36897D01*
Y36897D01*
X54884Y36898D01*
X54883Y36900D01*
X54882Y36902D01*
X54880Y36905D01*
X54878Y36907D01*
X54873Y36915D01*
X54866Y36923D01*
X54859Y36930D01*
X54850Y36938D01*
X54845Y36941D01*
X54840Y36945D01*
X54839D01*
X54838Y36945D01*
X54836Y36946D01*
X54834Y36947D01*
X54832Y36948D01*
X54828Y36950D01*
X54824Y36951D01*
X54820Y36953D01*
X54815Y36954D01*
X54810Y36955D01*
X54799Y36958D01*
X54786Y36960D01*
X54772Y36961D01*
D02*
G37*
G36*
X54355Y36956D02*
X54257D01*
X54250Y36956D01*
X54243Y36955D01*
X54235Y36955D01*
X54228Y36953D01*
X54222Y36952D01*
X54221D01*
X54221Y36952D01*
X54220D01*
X54218Y36951D01*
X54214Y36950D01*
X54209Y36948D01*
X54203Y36946D01*
X54197Y36943D01*
X54191Y36939D01*
X54184Y36934D01*
X54184D01*
X54184Y36933D01*
X54181Y36931D01*
X54177Y36927D01*
X54173Y36922D01*
X54168Y36916D01*
X54163Y36908D01*
X54158Y36900D01*
X54154Y36890D01*
Y36890D01*
X54154Y36889D01*
X54153Y36887D01*
X54152Y36885D01*
X54152Y36883D01*
X54151Y36880D01*
X54150Y36876D01*
X54149Y36872D01*
X54148Y36868D01*
X54147Y36863D01*
X54145Y36853D01*
X54144Y36842D01*
X54144Y36829D01*
Y36829D01*
Y36828D01*
Y36827D01*
Y36824D01*
X54144Y36822D01*
Y36819D01*
X54145Y36812D01*
X54145Y36804D01*
X54147Y36795D01*
X54148Y36786D01*
X54151Y36778D01*
Y36777D01*
X54151Y36776D01*
X54152Y36775D01*
X54152Y36774D01*
X54154Y36770D01*
X54155Y36764D01*
X54158Y36758D01*
X54161Y36752D01*
X54164Y36746D01*
X54168Y36740D01*
X54169Y36739D01*
X54170Y36738D01*
X54172Y36735D01*
X54175Y36732D01*
X54179Y36728D01*
X54183Y36724D01*
X54187Y36720D01*
X54192Y36717D01*
X54192Y36716D01*
X54194Y36716D01*
X54197Y36714D01*
X54200Y36712D01*
X54205Y36710D01*
X54210Y36708D01*
X54216Y36706D01*
X54222Y36704D01*
X54223D01*
X54225Y36704D01*
X54229Y36703D01*
X54234Y36702D01*
X54240Y36702D01*
X54247Y36701D01*
X54255Y36700D01*
X54263Y36700D01*
X54355D01*
Y36956D01*
D02*
G37*
G36*
X54365Y37906D02*
X54328D01*
X54261Y37720D01*
Y37720D01*
X54261Y37719D01*
X54261Y37718D01*
X54260Y37716D01*
X54259Y37712D01*
X54257Y37707D01*
X54254Y37700D01*
X54252Y37693D01*
X54248Y37678D01*
Y37678D01*
X54247Y37679D01*
X54247Y37680D01*
X54247Y37682D01*
X54245Y37686D01*
X54244Y37691D01*
X54242Y37698D01*
X54240Y37705D01*
X54237Y37712D01*
X54234Y37720D01*
X54165Y37906D01*
X54130D01*
X54231Y37650D01*
X54265D01*
X54365Y37906D01*
D02*
G37*
G36*
X54614Y36956D02*
X54579D01*
X54444Y36755D01*
Y36956D01*
X54412D01*
Y36700D01*
X54447D01*
X54581Y36901D01*
Y36700D01*
X54614D01*
Y36956D01*
D02*
G37*
G36*
X56379Y39011D02*
X56376D01*
X56373Y39010D01*
X56370Y39010D01*
X56366Y39009D01*
X56362Y39009D01*
X56357Y39008D01*
X56347Y39006D01*
X56336Y39002D01*
X56330Y39000D01*
X56325Y38997D01*
X56320Y38994D01*
X56315Y38991D01*
X56314Y38990D01*
X56314Y38990D01*
X56312Y38989D01*
X56310Y38987D01*
X56309Y38985D01*
X56306Y38982D01*
X56303Y38980D01*
X56300Y38977D01*
X56297Y38973D01*
X56294Y38969D01*
X56291Y38964D01*
X56288Y38959D01*
X56286Y38954D01*
X56283Y38948D01*
X56278Y38936D01*
X56312Y38928D01*
Y38928D01*
X56312Y38929D01*
X56312Y38931D01*
X56313Y38933D01*
X56314Y38935D01*
X56316Y38938D01*
X56318Y38943D01*
X56322Y38950D01*
X56326Y38957D01*
X56332Y38963D01*
X56338Y38969D01*
X56339Y38969D01*
X56341Y38971D01*
X56344Y38973D01*
X56349Y38975D01*
X56355Y38978D01*
X56363Y38980D01*
X56371Y38981D01*
X56380Y38982D01*
X56383D01*
X56385Y38981D01*
X56388D01*
X56390Y38981D01*
X56397Y38980D01*
X56405Y38978D01*
X56413Y38975D01*
X56422Y38972D01*
X56429Y38967D01*
X56430D01*
X56430Y38966D01*
X56433Y38965D01*
X56436Y38961D01*
X56440Y38957D01*
X56445Y38952D01*
X56449Y38945D01*
X56454Y38938D01*
X56457Y38929D01*
Y38929D01*
X56457Y38928D01*
X56458Y38927D01*
X56458Y38925D01*
X56459Y38923D01*
X56459Y38920D01*
X56461Y38914D01*
X56463Y38906D01*
X56464Y38898D01*
X56465Y38889D01*
X56465Y38880D01*
Y38879D01*
Y38878D01*
Y38877D01*
Y38874D01*
X56465Y38872D01*
Y38868D01*
X56464Y38865D01*
X56464Y38861D01*
X56463Y38852D01*
X56461Y38842D01*
X56459Y38832D01*
X56456Y38823D01*
Y38823D01*
X56455Y38822D01*
X56454Y38821D01*
X56454Y38819D01*
X56452Y38814D01*
X56449Y38809D01*
X56444Y38803D01*
X56439Y38797D01*
X56433Y38791D01*
X56426Y38786D01*
X56426D01*
X56426Y38786D01*
X56424Y38785D01*
X56423Y38784D01*
X56418Y38783D01*
X56413Y38780D01*
X56407Y38778D01*
X56399Y38777D01*
X56391Y38775D01*
X56383Y38775D01*
X56380D01*
X56378Y38775D01*
X56376D01*
X56372Y38775D01*
X56366Y38777D01*
X56358Y38778D01*
X56350Y38782D01*
X56342Y38785D01*
X56335Y38791D01*
X56334Y38791D01*
X56334Y38792D01*
X56332Y38794D01*
X56328Y38798D01*
X56324Y38803D01*
X56319Y38810D01*
X56315Y38818D01*
X56311Y38828D01*
X56308Y38840D01*
X56274Y38831D01*
Y38831D01*
X56274Y38829D01*
X56275Y38827D01*
X56276Y38824D01*
X56277Y38821D01*
X56279Y38817D01*
X56280Y38812D01*
X56283Y38808D01*
X56288Y38797D01*
X56295Y38787D01*
X56303Y38777D01*
X56307Y38772D01*
X56312Y38768D01*
X56313Y38767D01*
X56314Y38767D01*
X56315Y38766D01*
X56317Y38764D01*
X56320Y38762D01*
X56323Y38761D01*
X56327Y38759D01*
X56331Y38757D01*
X56336Y38755D01*
X56341Y38753D01*
X56347Y38751D01*
X56353Y38749D01*
X56365Y38746D01*
X56372Y38746D01*
X56380Y38746D01*
X56384D01*
X56387Y38746D01*
X56390D01*
X56394Y38746D01*
X56399Y38747D01*
X56404Y38748D01*
X56415Y38750D01*
X56426Y38753D01*
X56437Y38757D01*
X56442Y38759D01*
X56447Y38762D01*
X56448Y38763D01*
X56449Y38763D01*
X56450Y38764D01*
X56452Y38766D01*
X56456Y38770D01*
X56462Y38775D01*
X56468Y38782D01*
X56475Y38790D01*
X56481Y38800D01*
X56487Y38811D01*
Y38812D01*
X56487Y38813D01*
X56488Y38814D01*
X56489Y38817D01*
X56490Y38820D01*
X56491Y38823D01*
X56492Y38827D01*
X56493Y38832D01*
X56495Y38837D01*
X56496Y38842D01*
X56498Y38854D01*
X56500Y38866D01*
X56500Y38880D01*
Y38880D01*
Y38882D01*
Y38884D01*
X56500Y38886D01*
Y38890D01*
X56499Y38894D01*
X56499Y38899D01*
X56498Y38904D01*
X56496Y38915D01*
X56494Y38926D01*
X56490Y38938D01*
X56485Y38950D01*
Y38950D01*
X56484Y38951D01*
X56483Y38952D01*
X56482Y38955D01*
X56480Y38957D01*
X56479Y38960D01*
X56473Y38966D01*
X56468Y38974D01*
X56460Y38981D01*
X56451Y38989D01*
X56441Y38995D01*
X56441D01*
X56440Y38996D01*
X56439Y38996D01*
X56436Y38997D01*
X56434Y38998D01*
X56431Y39000D01*
X56427Y39001D01*
X56423Y39003D01*
X56419Y39004D01*
X56414Y39005D01*
X56404Y39008D01*
X56392Y39010D01*
X56379Y39011D01*
D02*
G37*
G36*
X56251Y39006D02*
X56049D01*
Y38976D01*
X56133D01*
Y38750D01*
X56167D01*
Y38976D01*
X56251D01*
Y39006D01*
D02*
G37*
G36*
X54742D02*
X54708D01*
X54573Y38805D01*
Y39006D01*
X54540D01*
Y38750D01*
X54575D01*
X54710Y38951D01*
Y38750D01*
X54742D01*
Y39006D01*
D02*
G37*
G36*
X54900Y39011D02*
X54896D01*
X54893Y39010D01*
X54890D01*
X54883Y39009D01*
X54876Y39008D01*
X54867Y39007D01*
X54859Y39004D01*
X54850Y39001D01*
X54850D01*
X54849Y39001D01*
X54848Y39000D01*
X54846Y39000D01*
X54843Y38998D01*
X54837Y38995D01*
X54832Y38991D01*
X54826Y38987D01*
X54820Y38982D01*
X54815Y38976D01*
X54814Y38975D01*
X54813Y38973D01*
X54811Y38970D01*
X54807Y38965D01*
X54804Y38959D01*
X54801Y38952D01*
X54798Y38944D01*
X54795Y38934D01*
X54826Y38926D01*
Y38926D01*
X54827Y38927D01*
X54827Y38929D01*
X54828Y38933D01*
X54830Y38937D01*
X54832Y38942D01*
X54834Y38947D01*
X54837Y38952D01*
X54840Y38957D01*
X54841Y38957D01*
X54842Y38959D01*
X54844Y38961D01*
X54846Y38963D01*
X54850Y38966D01*
X54854Y38969D01*
X54859Y38972D01*
X54865Y38975D01*
X54866Y38975D01*
X54867Y38976D01*
X54871Y38977D01*
X54875Y38978D01*
X54880Y38979D01*
X54886Y38980D01*
X54893Y38981D01*
X54900Y38982D01*
X54904D01*
X54908Y38981D01*
X54913Y38981D01*
X54920Y38980D01*
X54927Y38979D01*
X54933Y38977D01*
X54940Y38974D01*
X54941Y38974D01*
X54943Y38973D01*
X54946Y38972D01*
X54950Y38969D01*
X54954Y38966D01*
X54959Y38963D01*
X54963Y38960D01*
X54967Y38956D01*
X54968Y38955D01*
X54969Y38954D01*
X54971Y38951D01*
X54973Y38948D01*
X54976Y38944D01*
X54979Y38940D01*
X54981Y38935D01*
X54983Y38930D01*
Y38930D01*
X54984Y38929D01*
X54984Y38928D01*
X54985Y38926D01*
X54986Y38924D01*
X54986Y38921D01*
X54988Y38915D01*
X54990Y38907D01*
X54991Y38899D01*
X54993Y38889D01*
X54993Y38879D01*
Y38878D01*
Y38877D01*
Y38876D01*
X54993Y38873D01*
Y38870D01*
X54992Y38867D01*
X54992Y38863D01*
X54991Y38859D01*
X54990Y38849D01*
X54988Y38840D01*
X54985Y38830D01*
X54981Y38821D01*
Y38821D01*
X54981Y38820D01*
X54980Y38819D01*
X54979Y38817D01*
X54976Y38813D01*
X54973Y38808D01*
X54968Y38803D01*
X54962Y38797D01*
X54955Y38791D01*
X54947Y38787D01*
X54947D01*
X54946Y38786D01*
X54945Y38785D01*
X54944Y38785D01*
X54942Y38784D01*
X54939Y38783D01*
X54933Y38781D01*
X54926Y38779D01*
X54918Y38777D01*
X54909Y38776D01*
X54899Y38776D01*
X54896D01*
X54891Y38776D01*
X54886Y38777D01*
X54880Y38778D01*
X54872Y38779D01*
X54864Y38781D01*
X54857Y38784D01*
X54856D01*
X54856Y38784D01*
X54855Y38785D01*
X54853Y38785D01*
X54849Y38787D01*
X54844Y38789D01*
X54839Y38792D01*
X54834Y38795D01*
X54829Y38799D01*
X54825Y38802D01*
Y38851D01*
X54900D01*
Y38881D01*
X54791D01*
Y38785D01*
X54792Y38785D01*
X54793Y38785D01*
X54794Y38784D01*
X54796Y38782D01*
X54798Y38780D01*
X54801Y38779D01*
X54807Y38774D01*
X54815Y38770D01*
X54824Y38764D01*
X54834Y38760D01*
X54843Y38755D01*
X54844D01*
X54844Y38755D01*
X54846Y38755D01*
X54848Y38754D01*
X54850Y38753D01*
X54853Y38752D01*
X54857Y38752D01*
X54860Y38751D01*
X54868Y38749D01*
X54877Y38747D01*
X54887Y38746D01*
X54897Y38746D01*
X54901D01*
X54904Y38746D01*
X54907D01*
X54911Y38746D01*
X54915Y38747D01*
X54920Y38748D01*
X54931Y38750D01*
X54942Y38752D01*
X54954Y38756D01*
X54966Y38762D01*
X54967Y38762D01*
X54967Y38762D01*
X54969Y38763D01*
X54971Y38765D01*
X54974Y38766D01*
X54977Y38768D01*
X54983Y38773D01*
X54991Y38780D01*
X54998Y38788D01*
X55006Y38798D01*
X55013Y38808D01*
Y38809D01*
X55013Y38810D01*
X55014Y38811D01*
X55015Y38814D01*
X55016Y38816D01*
X55018Y38820D01*
X55019Y38824D01*
X55020Y38828D01*
X55022Y38833D01*
X55023Y38839D01*
X55026Y38850D01*
X55027Y38863D01*
X55028Y38877D01*
Y38877D01*
Y38878D01*
Y38880D01*
X55028Y38883D01*
Y38886D01*
X55027Y38890D01*
X55027Y38895D01*
X55026Y38899D01*
X55024Y38910D01*
X55022Y38922D01*
X55018Y38934D01*
X55013Y38947D01*
Y38947D01*
X55012Y38948D01*
X55011Y38950D01*
X55010Y38952D01*
X55008Y38955D01*
X55006Y38957D01*
X55001Y38965D01*
X54995Y38973D01*
X54987Y38980D01*
X54978Y38988D01*
X54973Y38991D01*
X54968Y38995D01*
X54967D01*
X54967Y38995D01*
X54965Y38996D01*
X54963Y38997D01*
X54960Y38998D01*
X54956Y39000D01*
X54952Y39001D01*
X54948Y39003D01*
X54944Y39004D01*
X54938Y39005D01*
X54927Y39008D01*
X54914Y39010D01*
X54900Y39011D01*
D02*
G37*
G36*
X55113Y39006D02*
X55079D01*
Y38750D01*
X55113D01*
Y39006D01*
D02*
G37*
G36*
X54413D02*
X54376D01*
X54272Y38750D01*
X54311D01*
X54340Y38828D01*
X54448D01*
X54476Y38750D01*
X54511D01*
X54413Y39006D01*
D02*
G37*
G36*
X56013D02*
X55894D01*
X55891Y39006D01*
X55888D01*
X55880Y39005D01*
X55872Y39005D01*
X55864Y39003D01*
X55855Y39002D01*
X55851Y39000D01*
X55848Y38999D01*
X55848D01*
X55847Y38999D01*
X55845Y38998D01*
X55842Y38996D01*
X55838Y38993D01*
X55833Y38990D01*
X55828Y38986D01*
X55824Y38981D01*
X55819Y38975D01*
X55819Y38974D01*
X55818Y38972D01*
X55816Y38968D01*
X55814Y38963D01*
X55812Y38957D01*
X55810Y38951D01*
X55809Y38944D01*
X55809Y38936D01*
Y38936D01*
Y38935D01*
Y38933D01*
X55809Y38931D01*
Y38929D01*
X55809Y38926D01*
X55811Y38920D01*
X55813Y38913D01*
X55816Y38905D01*
X55821Y38897D01*
X55823Y38894D01*
X55826Y38890D01*
X55827Y38889D01*
X55828Y38888D01*
X55830Y38887D01*
X55832Y38886D01*
X55834Y38884D01*
X55837Y38882D01*
X55840Y38880D01*
X55843Y38878D01*
X55848Y38876D01*
X55852Y38874D01*
X55857Y38872D01*
X55862Y38871D01*
X55868Y38869D01*
X55874Y38868D01*
X55881Y38867D01*
X55880Y38866D01*
X55878Y38865D01*
X55876Y38864D01*
X55873Y38863D01*
X55867Y38858D01*
X55863Y38856D01*
X55860Y38854D01*
X55860Y38853D01*
X55858Y38851D01*
X55855Y38848D01*
X55851Y38844D01*
X55847Y38839D01*
X55842Y38833D01*
X55837Y38827D01*
X55832Y38819D01*
X55788Y38750D01*
X55830D01*
X55864Y38803D01*
Y38803D01*
X55865Y38804D01*
X55866Y38805D01*
X55867Y38807D01*
X55869Y38811D01*
X55873Y38816D01*
X55877Y38822D01*
X55881Y38828D01*
X55885Y38833D01*
X55889Y38838D01*
X55889Y38839D01*
X55890Y38840D01*
X55892Y38842D01*
X55894Y38845D01*
X55900Y38851D01*
X55903Y38853D01*
X55906Y38855D01*
X55906Y38856D01*
X55907Y38856D01*
X55909Y38857D01*
X55911Y38858D01*
X55915Y38860D01*
X55921Y38862D01*
X55922D01*
X55922Y38863D01*
X55924D01*
X55926Y38863D01*
X55929Y38863D01*
X55932D01*
X55936Y38864D01*
X55979D01*
Y38750D01*
X56013D01*
Y39006D01*
D02*
G37*
G36*
X55757D02*
X55723D01*
Y38780D01*
X55597D01*
Y38750D01*
X55757D01*
Y39006D01*
D02*
G37*
G36*
X54060Y33464D02*
X54053D01*
X54049Y33463D01*
X54042Y33461D01*
X54035Y33458D01*
X54029Y33455D01*
X54025Y33452D01*
X54021Y33449D01*
X54019Y33447D01*
X54019Y33446D01*
Y33446D01*
X54013Y33438D01*
X54009Y33430D01*
X54007Y33421D01*
X54005Y33413D01*
X54003Y33405D01*
X54003Y33402D01*
Y33399D01*
X54003Y33397D01*
Y33395D01*
Y33394D01*
Y33394D01*
Y33387D01*
X54003Y33381D01*
X54004Y33375D01*
X54005Y33370D01*
X54006Y33365D01*
X54008Y33360D01*
X54009Y33356D01*
X54010Y33353D01*
X54012Y33350D01*
X54013Y33347D01*
X54015Y33344D01*
X54016Y33343D01*
X54017Y33341D01*
X54017Y33340D01*
X54018Y33339D01*
Y33339D01*
X54021Y33336D01*
X54024Y33333D01*
X54031Y33329D01*
X54037Y33326D01*
X54044Y33324D01*
X54049Y33322D01*
X54053Y33322D01*
X54055Y33321D01*
X54057D01*
X54062Y33322D01*
X54066Y33322D01*
X54073Y33324D01*
X54080Y33327D01*
X54086Y33330D01*
X54090Y33334D01*
X54094Y33336D01*
X54096Y33338D01*
X54097Y33339D01*
X54099Y33343D01*
X54102Y33346D01*
X54106Y33355D01*
X54108Y33364D01*
X54110Y33373D01*
X54111Y33380D01*
X54111Y33384D01*
Y33387D01*
X54112Y33389D01*
Y33391D01*
Y33392D01*
Y33392D01*
Y33399D01*
X54111Y33405D01*
X54110Y33411D01*
X54109Y33416D01*
X54108Y33421D01*
X54107Y33425D01*
X54106Y33429D01*
X54104Y33433D01*
X54103Y33436D01*
X54101Y33438D01*
X54100Y33441D01*
X54099Y33443D01*
X54098Y33444D01*
X54097Y33445D01*
X54097Y33446D01*
X54093Y33449D01*
X54090Y33452D01*
X54084Y33456D01*
X54077Y33460D01*
X54071Y33461D01*
X54065Y33463D01*
X54061Y33463D01*
X54060Y33464D01*
D02*
G37*
G36*
X56933Y33465D02*
X56931D01*
X56927Y33465D01*
X56924Y33464D01*
X56917Y33462D01*
X56911Y33459D01*
X56905Y33456D01*
X56901Y33452D01*
X56898Y33449D01*
X56896Y33447D01*
X56895Y33446D01*
Y33446D01*
X56893Y33442D01*
X56890Y33438D01*
X56886Y33429D01*
X56884Y33420D01*
X56882Y33411D01*
X56881Y33403D01*
X56880Y33399D01*
Y33396D01*
X56880Y33394D01*
Y33392D01*
Y33390D01*
Y33390D01*
Y33384D01*
X56881Y33378D01*
X56881Y33373D01*
X56882Y33367D01*
X56884Y33363D01*
X56885Y33359D01*
X56886Y33355D01*
X56887Y33351D01*
X56889Y33348D01*
X56890Y33346D01*
X56891Y33343D01*
X56892Y33341D01*
X56893Y33340D01*
X56894Y33339D01*
X56894Y33339D01*
Y33338D01*
X56897Y33335D01*
X56900Y33333D01*
X56906Y33328D01*
X56912Y33326D01*
X56917Y33323D01*
X56922Y33322D01*
X56925Y33322D01*
X56927Y33321D01*
X56929D01*
X56933Y33322D01*
X56936Y33322D01*
X56943Y33324D01*
X56949Y33327D01*
X56955Y33330D01*
X56959Y33334D01*
X56962Y33337D01*
X56964Y33339D01*
X56965Y33339D01*
X56968Y33343D01*
X56970Y33347D01*
X56974Y33355D01*
X56976Y33364D01*
X56978Y33373D01*
X56979Y33381D01*
X56979Y33384D01*
Y33387D01*
X56980Y33390D01*
Y33392D01*
Y33393D01*
Y33393D01*
Y33400D01*
X56979Y33406D01*
X56979Y33412D01*
X56978Y33417D01*
X56977Y33422D01*
X56976Y33426D01*
X56974Y33431D01*
X56973Y33434D01*
X56972Y33437D01*
X56970Y33440D01*
X56969Y33442D01*
X56968Y33444D01*
X56967Y33445D01*
X56967Y33447D01*
X56966Y33447D01*
X56963Y33451D01*
X56960Y33453D01*
X56954Y33458D01*
X56949Y33461D01*
X56943Y33463D01*
X56938Y33464D01*
X56935Y33465D01*
X56933Y33465D01*
D02*
G37*
G36*
X58520Y33464D02*
X58513D01*
X58509Y33463D01*
X58502Y33461D01*
X58495Y33458D01*
X58489Y33455D01*
X58485Y33452D01*
X58481Y33449D01*
X58479Y33447D01*
X58479Y33446D01*
Y33446D01*
X58473Y33438D01*
X58469Y33430D01*
X58467Y33421D01*
X58465Y33413D01*
X58463Y33405D01*
X58463Y33402D01*
Y33399D01*
X58463Y33397D01*
Y33395D01*
Y33394D01*
Y33394D01*
Y33387D01*
X58463Y33381D01*
X58464Y33375D01*
X58465Y33370D01*
X58466Y33365D01*
X58468Y33360D01*
X58469Y33356D01*
X58470Y33353D01*
X58472Y33350D01*
X58473Y33347D01*
X58475Y33344D01*
X58476Y33343D01*
X58477Y33341D01*
X58477Y33340D01*
X58478Y33339D01*
Y33339D01*
X58481Y33336D01*
X58485Y33333D01*
X58491Y33329D01*
X58497Y33326D01*
X58504Y33324D01*
X58509Y33322D01*
X58513Y33322D01*
X58515Y33321D01*
X58517D01*
X58522Y33322D01*
X58526Y33322D01*
X58533Y33324D01*
X58540Y33327D01*
X58546Y33330D01*
X58550Y33334D01*
X58554Y33336D01*
X58556Y33338D01*
X58557Y33339D01*
X58559Y33343D01*
X58562Y33346D01*
X58566Y33355D01*
X58568Y33364D01*
X58570Y33373D01*
X58571Y33380D01*
X58571Y33384D01*
Y33387D01*
X58572Y33389D01*
Y33391D01*
Y33392D01*
Y33392D01*
Y33399D01*
X58571Y33405D01*
X58570Y33411D01*
X58570Y33416D01*
X58568Y33421D01*
X58567Y33425D01*
X58566Y33429D01*
X58564Y33433D01*
X58563Y33436D01*
X58561Y33438D01*
X58560Y33441D01*
X58559Y33443D01*
X58558Y33444D01*
X58557Y33445D01*
X58557Y33446D01*
X58554Y33449D01*
X58550Y33452D01*
X58544Y33456D01*
X58537Y33460D01*
X58531Y33461D01*
X58525Y33463D01*
X58521Y33463D01*
X58520Y33464D01*
D02*
G37*
G36*
X58196Y33393D02*
Y33382D01*
X58196Y33374D01*
X58196Y33368D01*
X58197Y33362D01*
X58198Y33358D01*
X58199Y33354D01*
X58200Y33352D01*
X58200Y33350D01*
X58201Y33350D01*
X58203Y33345D01*
X58207Y33341D01*
X58210Y33337D01*
X58213Y33334D01*
X58217Y33331D01*
X58219Y33330D01*
X58221Y33328D01*
X58222Y33328D01*
X58227Y33325D01*
X58233Y33323D01*
X58238Y33322D01*
X58243Y33321D01*
X58247Y33321D01*
X58250Y33320D01*
X58254D01*
X58260Y33321D01*
X58266Y33321D01*
X58271Y33323D01*
X58275Y33325D01*
X58278Y33326D01*
X58280Y33327D01*
X58281Y33328D01*
X58282Y33328D01*
X58285Y33332D01*
X58287Y33335D01*
X58289Y33339D01*
X58290Y33342D01*
X58291Y33345D01*
X58291Y33348D01*
Y33349D01*
Y33350D01*
X58291Y33353D01*
X58290Y33355D01*
X58289Y33360D01*
X58288Y33362D01*
X58288Y33363D01*
X58287Y33364D01*
Y33364D01*
X58283Y33369D01*
X58279Y33372D01*
X58277Y33373D01*
X58276Y33374D01*
X58275Y33375D01*
X58275D01*
X58271Y33376D01*
X58267Y33377D01*
X58258Y33379D01*
X58254Y33380D01*
X58250Y33381D01*
X58248Y33381D01*
X58247D01*
X58241Y33382D01*
X58235Y33383D01*
X58229Y33384D01*
X58224Y33385D01*
X58220Y33386D01*
X58216Y33387D01*
X58212Y33388D01*
X58208Y33389D01*
X58205Y33390D01*
X58203Y33391D01*
X58201Y33391D01*
X58199Y33392D01*
X58197Y33392D01*
X58196Y33393D01*
X58196Y33393D01*
D02*
G37*
G36*
X61966Y36301D02*
Y36245D01*
X62245Y36146D01*
X62245D01*
X62246Y36145D01*
X62248Y36144D01*
X62251Y36143D01*
X62257Y36141D01*
X62265Y36139D01*
X62275Y36135D01*
X62286Y36132D01*
X62308Y36125D01*
X62307D01*
X62307Y36124D01*
X62305Y36124D01*
X62303Y36123D01*
X62296Y36122D01*
X62288Y36119D01*
X62279Y36116D01*
X62268Y36113D01*
X62256Y36109D01*
X62245Y36105D01*
X61966Y36000D01*
Y35949D01*
X62350Y36099D01*
Y36151D01*
X61966Y36301D01*
D02*
G37*
G36*
X54650Y33393D02*
Y33382D01*
X54651Y33374D01*
X54651Y33368D01*
X54652Y33362D01*
X54653Y33358D01*
X54654Y33354D01*
X54655Y33352D01*
X54655Y33350D01*
X54655Y33350D01*
X54658Y33345D01*
X54662Y33341D01*
X54665Y33337D01*
X54668Y33334D01*
X54671Y33331D01*
X54674Y33330D01*
X54676Y33328D01*
X54677Y33328D01*
X54682Y33325D01*
X54687Y33323D01*
X54693Y33322D01*
X54698Y33321D01*
X54702Y33321D01*
X54705Y33320D01*
X54709D01*
X54715Y33321D01*
X54721Y33321D01*
X54726Y33323D01*
X54730Y33325D01*
X54733Y33326D01*
X54735Y33327D01*
X54736Y33328D01*
X54737Y33328D01*
X54740Y33332D01*
X54742Y33335D01*
X54744Y33339D01*
X54745Y33342D01*
X54746Y33345D01*
X54746Y33348D01*
Y33349D01*
Y33350D01*
X54746Y33353D01*
X54745Y33355D01*
X54744Y33360D01*
X54743Y33362D01*
X54742Y33363D01*
X54742Y33364D01*
Y33364D01*
X54738Y33369D01*
X54734Y33372D01*
X54732Y33373D01*
X54731Y33374D01*
X54730Y33375D01*
X54730D01*
X54726Y33376D01*
X54722Y33377D01*
X54713Y33379D01*
X54709Y33380D01*
X54705Y33381D01*
X54703Y33381D01*
X54702D01*
X54696Y33382D01*
X54690Y33383D01*
X54684Y33384D01*
X54679Y33385D01*
X54675Y33386D01*
X54671Y33387D01*
X54667Y33388D01*
X54663Y33389D01*
X54660Y33390D01*
X54658Y33391D01*
X54655Y33391D01*
X54654Y33392D01*
X54652Y33392D01*
X54651Y33393D01*
X54650Y33393D01*
D02*
G37*
G36*
X57261D02*
Y33382D01*
X57261Y33374D01*
X57261Y33368D01*
X57262Y33362D01*
X57263Y33358D01*
X57264Y33354D01*
X57265Y33352D01*
X57265Y33350D01*
X57266Y33350D01*
X57268Y33345D01*
X57272Y33341D01*
X57276Y33337D01*
X57279Y33334D01*
X57282Y33331D01*
X57284Y33330D01*
X57286Y33328D01*
X57287Y33328D01*
X57292Y33325D01*
X57298Y33323D01*
X57303Y33322D01*
X57308Y33321D01*
X57313Y33321D01*
X57316Y33320D01*
X57319D01*
X57325Y33321D01*
X57331Y33321D01*
X57336Y33323D01*
X57340Y33325D01*
X57343Y33326D01*
X57345Y33327D01*
X57346Y33328D01*
X57347Y33328D01*
X57350Y33332D01*
X57352Y33335D01*
X57354Y33339D01*
X57355Y33342D01*
X57356Y33345D01*
X57356Y33348D01*
Y33349D01*
Y33350D01*
X57356Y33353D01*
X57355Y33355D01*
X57354Y33360D01*
X57353Y33362D01*
X57353Y33363D01*
X57352Y33364D01*
Y33364D01*
X57348Y33369D01*
X57344Y33372D01*
X57343Y33373D01*
X57341Y33374D01*
X57340Y33375D01*
X57340D01*
X57336Y33376D01*
X57332Y33377D01*
X57323Y33379D01*
X57319Y33380D01*
X57315Y33381D01*
X57313Y33381D01*
X57312D01*
X57306Y33382D01*
X57300Y33383D01*
X57295Y33384D01*
X57290Y33385D01*
X57285Y33386D01*
X57281Y33387D01*
X57277Y33388D01*
X57274Y33389D01*
X57270Y33390D01*
X57268Y33391D01*
X57266Y33391D01*
X57264Y33392D01*
X57263Y33392D01*
X57261Y33393D01*
X57261Y33393D01*
D02*
G37*
G36*
X55475Y33463D02*
X55473D01*
X55467Y33463D01*
X55462Y33461D01*
X55457Y33459D01*
X55453Y33456D01*
X55450Y33454D01*
X55447Y33452D01*
X55445Y33450D01*
X55445Y33450D01*
X55441Y33444D01*
X55438Y33438D01*
X55436Y33432D01*
X55434Y33426D01*
X55434Y33421D01*
X55433Y33417D01*
Y33415D01*
Y33414D01*
Y33413D01*
Y33413D01*
X55433Y33406D01*
X55434Y33400D01*
X55435Y33394D01*
X55436Y33389D01*
X55437Y33384D01*
X55438Y33380D01*
X55439Y33378D01*
X55439Y33378D01*
Y33377D01*
X55442Y33371D01*
X55444Y33365D01*
X55447Y33360D01*
X55450Y33356D01*
X55452Y33353D01*
X55454Y33350D01*
X55455Y33348D01*
X55455Y33348D01*
X55459Y33344D01*
X55463Y33341D01*
X55466Y33337D01*
X55469Y33335D01*
X55472Y33333D01*
X55474Y33332D01*
X55476Y33331D01*
X55476Y33331D01*
X55480Y33329D01*
X55484Y33328D01*
X55487Y33327D01*
X55490Y33326D01*
X55493Y33326D01*
X55495Y33325D01*
X55497D01*
X55502Y33326D01*
X55507Y33327D01*
X55511Y33329D01*
X55515Y33332D01*
X55518Y33334D01*
X55521Y33336D01*
X55522Y33338D01*
X55522Y33338D01*
X55526Y33344D01*
X55529Y33350D01*
X55531Y33356D01*
X55532Y33362D01*
X55533Y33367D01*
X55534Y33372D01*
Y33373D01*
Y33374D01*
Y33375D01*
Y33376D01*
X55533Y33382D01*
X55533Y33387D01*
X55532Y33392D01*
X55531Y33398D01*
X55530Y33402D01*
X55529Y33405D01*
X55529Y33408D01*
X55528Y33408D01*
X55526Y33415D01*
X55524Y33421D01*
X55521Y33426D01*
X55519Y33430D01*
X55517Y33434D01*
X55515Y33437D01*
X55514Y33438D01*
X55513Y33439D01*
X55510Y33443D01*
X55506Y33447D01*
X55503Y33450D01*
X55500Y33453D01*
X55498Y33455D01*
X55496Y33456D01*
X55495Y33457D01*
X55494Y33457D01*
X55490Y33459D01*
X55487Y33461D01*
X55483Y33461D01*
X55480Y33462D01*
X55477Y33463D01*
X55475Y33463D01*
D02*
G37*
G36*
X55902Y33893D02*
Y33882D01*
X55903Y33874D01*
X55903Y33868D01*
X55904Y33862D01*
X55905Y33858D01*
X55906Y33854D01*
X55907Y33852D01*
X55907Y33850D01*
X55907Y33850D01*
X55910Y33845D01*
X55914Y33841D01*
X55917Y33837D01*
X55920Y33834D01*
X55923Y33831D01*
X55926Y33830D01*
X55928Y33828D01*
X55929Y33828D01*
X55934Y33825D01*
X55939Y33823D01*
X55945Y33822D01*
X55950Y33821D01*
X55954Y33821D01*
X55957Y33820D01*
X55960D01*
X55967Y33821D01*
X55973Y33821D01*
X55978Y33823D01*
X55982Y33825D01*
X55985Y33826D01*
X55987Y33827D01*
X55988Y33828D01*
X55989Y33828D01*
X55992Y33832D01*
X55994Y33835D01*
X55996Y33839D01*
X55997Y33842D01*
X55998Y33845D01*
X55998Y33848D01*
Y33849D01*
Y33850D01*
X55998Y33853D01*
X55997Y33855D01*
X55996Y33860D01*
X55995Y33862D01*
X55994Y33863D01*
X55994Y33864D01*
Y33864D01*
X55990Y33869D01*
X55986Y33872D01*
X55984Y33873D01*
X55983Y33874D01*
X55982Y33875D01*
X55982D01*
X55978Y33876D01*
X55974Y33877D01*
X55965Y33879D01*
X55960Y33880D01*
X55957Y33881D01*
X55955Y33881D01*
X55954D01*
X55948Y33882D01*
X55942Y33883D01*
X55936Y33884D01*
X55931Y33885D01*
X55927Y33886D01*
X55923Y33887D01*
X55919Y33888D01*
X55915Y33889D01*
X55912Y33890D01*
X55910Y33891D01*
X55907Y33891D01*
X55906Y33892D01*
X55904Y33892D01*
X55903Y33893D01*
X55902Y33893D01*
D02*
G37*
G36*
X55272Y34031D02*
X55270D01*
X55266Y34031D01*
X55262Y34030D01*
X55255Y34028D01*
X55249Y34025D01*
X55244Y34021D01*
X55239Y34017D01*
X55236Y34013D01*
X55234Y34011D01*
X55234Y34011D01*
Y34010D01*
X55231Y34006D01*
X55228Y34001D01*
X55227Y33995D01*
X55225Y33988D01*
X55222Y33975D01*
X55221Y33961D01*
X55220Y33954D01*
X55219Y33947D01*
X55219Y33942D01*
Y33937D01*
X55219Y33932D01*
Y33929D01*
Y33927D01*
Y33926D01*
Y33915D01*
X55219Y33905D01*
X55220Y33895D01*
X55221Y33887D01*
X55222Y33879D01*
X55223Y33872D01*
X55225Y33866D01*
X55226Y33860D01*
X55228Y33856D01*
X55229Y33852D01*
X55230Y33849D01*
X55231Y33846D01*
X55232Y33844D01*
X55233Y33843D01*
X55234Y33843D01*
Y33842D01*
X55236Y33839D01*
X55239Y33835D01*
X55243Y33832D01*
X55246Y33830D01*
X55251Y33827D01*
X55257Y33824D01*
X55262Y33823D01*
X55266Y33822D01*
X55268Y33821D01*
X55270D01*
X55274Y33822D01*
X55278Y33822D01*
X55285Y33825D01*
X55291Y33828D01*
X55296Y33832D01*
X55301Y33835D01*
X55304Y33839D01*
X55306Y33841D01*
X55306Y33842D01*
Y33842D01*
X55309Y33846D01*
X55311Y33852D01*
X55313Y33858D01*
X55315Y33864D01*
X55317Y33878D01*
X55319Y33892D01*
X55320Y33899D01*
X55320Y33905D01*
X55321Y33911D01*
Y33916D01*
X55321Y33921D01*
Y33924D01*
Y33926D01*
Y33926D01*
Y33938D01*
X55320Y33948D01*
X55319Y33958D01*
X55319Y33966D01*
X55317Y33974D01*
X55316Y33981D01*
X55314Y33988D01*
X55313Y33993D01*
X55312Y33998D01*
X55310Y34002D01*
X55308Y34005D01*
X55307Y34008D01*
X55306Y34010D01*
X55306Y34011D01*
X55305Y34012D01*
Y34013D01*
X55303Y34016D01*
X55300Y34019D01*
X55294Y34023D01*
X55288Y34027D01*
X55283Y34029D01*
X55278Y34030D01*
X55274Y34031D01*
X55272Y34031D01*
D02*
G37*
G36*
X54855Y34005D02*
Y33890D01*
X54935D01*
X54855Y34005D01*
D02*
G37*
G36*
X56529Y33464D02*
X56527D01*
X56523Y33464D01*
X56519Y33463D01*
X56511Y33461D01*
X56504Y33458D01*
X56499Y33455D01*
X56494Y33451D01*
X56491Y33449D01*
X56489Y33446D01*
X56488Y33446D01*
Y33445D01*
X56485Y33441D01*
X56482Y33435D01*
X56480Y33429D01*
X56478Y33424D01*
X56477Y33419D01*
X56476Y33414D01*
Y33413D01*
X56476Y33412D01*
Y33411D01*
Y33410D01*
X56580D01*
X56579Y33419D01*
X56577Y33427D01*
X56574Y33433D01*
X56571Y33439D01*
X56568Y33444D01*
X56566Y33447D01*
X56565Y33449D01*
X56564Y33449D01*
X56558Y33454D01*
X56552Y33458D01*
X56546Y33461D01*
X56540Y33462D01*
X56535Y33463D01*
X56531Y33464D01*
X56529Y33464D01*
D02*
G37*
G36*
X55197Y33464D02*
X55191D01*
X55187Y33463D01*
X55180Y33461D01*
X55174Y33458D01*
X55169Y33455D01*
X55165Y33452D01*
X55162Y33449D01*
X55160Y33447D01*
X55159Y33447D01*
Y33446D01*
X55156Y33443D01*
X55154Y33439D01*
X55150Y33431D01*
X55147Y33422D01*
X55146Y33414D01*
X55145Y33406D01*
X55144Y33403D01*
Y33400D01*
X55144Y33398D01*
Y33396D01*
Y33395D01*
Y33395D01*
Y33389D01*
X55145Y33382D01*
X55145Y33377D01*
X55146Y33372D01*
X55147Y33367D01*
X55148Y33363D01*
X55150Y33359D01*
X55151Y33355D01*
X55153Y33352D01*
X55154Y33350D01*
X55155Y33348D01*
X55156Y33346D01*
X55157Y33344D01*
X55158Y33343D01*
X55159Y33343D01*
Y33343D01*
X55164Y33337D01*
X55170Y33333D01*
X55177Y33330D01*
X55182Y33328D01*
X55187Y33327D01*
X55191Y33327D01*
X55193Y33326D01*
X55195D01*
X55199Y33327D01*
X55203Y33327D01*
X55210Y33329D01*
X55216Y33332D01*
X55221Y33335D01*
X55225Y33337D01*
X55228Y33340D01*
X55230Y33342D01*
X55231Y33343D01*
X55233Y33346D01*
X55236Y33350D01*
X55239Y33358D01*
X55242Y33367D01*
X55244Y33376D01*
X55245Y33383D01*
X55245Y33387D01*
Y33390D01*
X55246Y33392D01*
Y33394D01*
Y33396D01*
Y33396D01*
X55245Y33408D01*
X55243Y33418D01*
X55242Y33422D01*
X55241Y33427D01*
X55240Y33431D01*
X55238Y33434D01*
X55237Y33437D01*
X55236Y33440D01*
X55235Y33442D01*
X55233Y33444D01*
X55232Y33445D01*
X55232Y33446D01*
X55231Y33447D01*
X55228Y33450D01*
X55225Y33452D01*
X55219Y33456D01*
X55213Y33460D01*
X55208Y33462D01*
X55203Y33463D01*
X55199Y33463D01*
X55197Y33464D01*
D02*
G37*
G36*
X57583Y33464D02*
X57581D01*
X57577Y33464D01*
X57573Y33463D01*
X57565Y33461D01*
X57559Y33458D01*
X57553Y33455D01*
X57548Y33451D01*
X57545Y33449D01*
X57543Y33446D01*
X57542Y33446D01*
Y33445D01*
X57539Y33441D01*
X57536Y33435D01*
X57534Y33429D01*
X57533Y33424D01*
X57531Y33419D01*
X57531Y33414D01*
Y33413D01*
X57530Y33412D01*
Y33411D01*
Y33410D01*
X57634D01*
X57633Y33419D01*
X57631Y33427D01*
X57628Y33433D01*
X57625Y33439D01*
X57623Y33444D01*
X57620Y33447D01*
X57619Y33449D01*
X57618Y33449D01*
X57612Y33454D01*
X57606Y33458D01*
X57600Y33461D01*
X57594Y33462D01*
X57589Y33463D01*
X57585Y33464D01*
X57583Y33464D01*
D02*
G37*
%LPD*%
G36*
X55979Y38893D02*
X55903D01*
X55899Y38894D01*
X55894Y38894D01*
X55888Y38894D01*
X55881Y38895D01*
X55876Y38896D01*
X55871Y38898D01*
X55870Y38898D01*
X55868Y38899D01*
X55866Y38900D01*
X55863Y38901D01*
X55860Y38904D01*
X55856Y38906D01*
X55853Y38910D01*
X55851Y38913D01*
X55850Y38913D01*
X55849Y38915D01*
X55848Y38917D01*
X55847Y38920D01*
X55846Y38923D01*
X55845Y38927D01*
X55844Y38931D01*
X55844Y38936D01*
Y38936D01*
Y38937D01*
Y38939D01*
X55844Y38942D01*
X55845Y38947D01*
X55847Y38951D01*
X55849Y38956D01*
X55853Y38961D01*
X55857Y38966D01*
X55858Y38966D01*
X55859Y38968D01*
X55863Y38970D01*
X55867Y38972D01*
X55873Y38974D01*
X55880Y38976D01*
X55888Y38977D01*
X55899Y38978D01*
X55979D01*
Y38893D01*
D02*
G37*
G36*
X54396Y38979D02*
X54396Y38979D01*
Y38977D01*
X54397Y38975D01*
X54398Y38973D01*
X54398Y38970D01*
X54400Y38964D01*
X54402Y38956D01*
X54404Y38948D01*
X54407Y38939D01*
X54410Y38930D01*
X54438Y38855D01*
X54351D01*
X54378Y38926D01*
Y38926D01*
X54378Y38927D01*
X54379Y38929D01*
X54380Y38931D01*
X54381Y38934D01*
X54382Y38937D01*
X54384Y38945D01*
X54387Y38953D01*
X54390Y38962D01*
X54393Y38971D01*
X54396Y38980D01*
Y38979D01*
D02*
G37*
G36*
X62192Y35704D02*
X62086Y35744D01*
X62086D01*
X62084Y35745D01*
X62081Y35746D01*
X62078Y35747D01*
X62074Y35749D01*
X62069Y35751D01*
X62058Y35754D01*
X62045Y35759D01*
X62032Y35764D01*
X62018Y35768D01*
X62005Y35772D01*
X62006D01*
X62007Y35772D01*
X62009D01*
X62012Y35773D01*
X62015Y35774D01*
X62019Y35775D01*
X62029Y35778D01*
X62041Y35781D01*
X62053Y35784D01*
X62066Y35788D01*
X62080Y35793D01*
X62192Y35835D01*
Y35704D01*
D02*
G37*
G36*
Y38604D02*
X62086Y38644D01*
X62086D01*
X62084Y38645D01*
X62081Y38646D01*
X62078Y38647D01*
X62074Y38649D01*
X62069Y38651D01*
X62058Y38654D01*
X62045Y38659D01*
X62032Y38664D01*
X62018Y38668D01*
X62005Y38672D01*
X62006D01*
X62007Y38672D01*
X62009D01*
X62012Y38673D01*
X62015Y38674D01*
X62019Y38675D01*
X62029Y38678D01*
X62041Y38681D01*
X62053Y38684D01*
X62066Y38688D01*
X62080Y38693D01*
X62192Y38735D01*
Y38604D01*
D02*
G37*
G36*
X54321Y36730D02*
X54263D01*
X54258Y36730D01*
X54253Y36731D01*
X54246Y36731D01*
X54240Y36732D01*
X54233Y36733D01*
X54228Y36735D01*
X54227Y36735D01*
X54225Y36735D01*
X54223Y36737D01*
X54219Y36738D01*
X54216Y36740D01*
X54212Y36742D01*
X54208Y36745D01*
X54205Y36748D01*
X54204Y36748D01*
X54203Y36750D01*
X54200Y36753D01*
X54198Y36757D01*
X54195Y36761D01*
X54192Y36767D01*
X54189Y36773D01*
X54186Y36780D01*
Y36781D01*
X54186Y36781D01*
X54185Y36782D01*
X54185Y36784D01*
X54184Y36786D01*
X54184Y36788D01*
X54182Y36794D01*
X54181Y36801D01*
X54180Y36810D01*
X54179Y36819D01*
X54179Y36830D01*
Y36830D01*
Y36832D01*
Y36834D01*
Y36837D01*
X54179Y36840D01*
X54180Y36844D01*
X54180Y36848D01*
X54180Y36852D01*
X54182Y36863D01*
X54184Y36873D01*
X54188Y36883D01*
X54190Y36887D01*
X54192Y36891D01*
Y36892D01*
X54193Y36892D01*
X54193Y36893D01*
X54194Y36895D01*
X54197Y36899D01*
X54201Y36903D01*
X54206Y36908D01*
X54211Y36913D01*
X54218Y36917D01*
X54224Y36921D01*
X54225Y36921D01*
X54227Y36922D01*
X54230Y36922D01*
X54235Y36923D01*
X54241Y36925D01*
X54248Y36925D01*
X54257Y36926D01*
X54268Y36926D01*
X54321D01*
Y36730D01*
D02*
G37*
D33*
X53220Y39850D02*
X53270D01*
X53180Y39860D02*
X53310D01*
X53120Y39870D02*
X53340D01*
X53360D02*
X53400D01*
X53060Y39880D02*
X53430D01*
X53030Y39890D02*
X53440D01*
X53000Y39900D02*
X53450D01*
X52980Y39910D02*
X53450D01*
X52970Y39920D02*
X53050D01*
X53210D02*
X53460D01*
X52950Y39930D02*
X53020D01*
X53250D02*
X53460D01*
X52940Y39940D02*
X53000D01*
X53270D02*
X53380D01*
X53440D02*
X53460D01*
X52930Y39950D02*
X52980D01*
X53310D02*
X53350D01*
X53630D02*
X53650D01*
X52920Y39960D02*
X52970D01*
X53620D02*
X53650D01*
X52910Y39970D02*
X52960D01*
X53610D02*
X53650D01*
X52900Y39980D02*
X52950D01*
X53610D02*
X53660D01*
X52890Y39990D02*
X52940D01*
X53600D02*
X53660D01*
X52890Y40000D02*
X52930D01*
X53600D02*
X53670D01*
X52880Y40010D02*
X52930D01*
X53600D02*
X53680D01*
X52870Y40020D02*
X52920D01*
X53600D02*
X53700D01*
X52870Y40030D02*
X52910D01*
X53600D02*
X53700D01*
X52870Y40040D02*
X52910D01*
X53610D02*
X53710D01*
X52860Y40050D02*
X52900D01*
X53610D02*
X53720D01*
X52860Y40060D02*
X52900D01*
X53610D02*
X53720D01*
X52850Y40070D02*
X52900D01*
X53620D02*
X53730D01*
X52850Y40080D02*
X52890D01*
X53630D02*
X53730D01*
X52850Y40090D02*
X52890D01*
X53140D02*
X53160D01*
X53630D02*
X53730D01*
X52850Y40100D02*
X52890D01*
X53110D02*
X53190D01*
X53640D02*
X53730D01*
X52840Y40110D02*
X52890D01*
X53090D02*
X53190D01*
X53640D02*
X53740D01*
X52840Y40120D02*
X52880D01*
X53070D02*
X53170D01*
X53650D02*
X53740D01*
X52840Y40130D02*
X52880D01*
X53060D02*
X53150D01*
X53650D02*
X53740D01*
X52840Y40140D02*
X52880D01*
X53040D02*
X53130D01*
X53660D02*
X53740D01*
X52840Y40150D02*
X52880D01*
X53030D02*
X53110D01*
X53660D02*
X53750D01*
X52840Y40160D02*
X52880D01*
X53020D02*
X53100D01*
X53670D02*
X53750D01*
X52830Y40170D02*
X52880D01*
X53000D02*
X53110D01*
X53670D02*
X53750D01*
X52830Y40180D02*
X52880D01*
X52990D02*
X53110D01*
X53330D02*
X53360D01*
X53680D02*
X53750D01*
X52830Y40190D02*
X52870D01*
X52980D02*
X53110D01*
X53310D02*
X53350D01*
X53680D02*
X53750D01*
X52830Y40200D02*
X52870D01*
X52970D02*
X53110D01*
X53290D02*
X53350D01*
X53690D02*
X53760D01*
X52830Y40210D02*
X52870D01*
X52960D02*
X53040D01*
X53050D02*
X53110D01*
X53260D02*
X53340D01*
X53700D02*
X53760D01*
X52830Y40220D02*
X52870D01*
X52950D02*
X53030D01*
X53050D02*
X53110D01*
X53240D02*
X53330D01*
X53710D02*
X53760D01*
X52830Y40230D02*
X52870D01*
X52940D02*
X53020D01*
X53040D02*
X53110D01*
X53220D02*
X53320D01*
X53720D02*
X53760D01*
X52830Y40240D02*
X52870D01*
X52930D02*
X53010D01*
X53040D02*
X53110D01*
X53210D02*
X53310D01*
X53720D02*
X53760D01*
X52830Y40250D02*
X52870D01*
X52920D02*
X53000D01*
X53030D02*
X53110D01*
X53190D02*
X53280D01*
X53720D02*
X53770D01*
X52830Y40260D02*
X52870D01*
X52920D02*
X52990D01*
X53030D02*
X53110D01*
X53180D02*
X53270D01*
X53730D02*
X53770D01*
X52830Y40270D02*
X52870D01*
X52910D02*
X52980D01*
X53020D02*
X53110D01*
X53170D02*
X53250D01*
X53730D02*
X53770D01*
X52830Y40280D02*
X52870D01*
X52900D02*
X52970D01*
X53020D02*
X53110D01*
X53160D02*
X53230D01*
X53730D02*
X53770D01*
X52830Y40290D02*
X52870D01*
X52890D02*
X52960D01*
X53010D02*
X53110D01*
X53150D02*
X53210D01*
X53730D02*
X53770D01*
X52830Y40300D02*
X52870D01*
X52880D02*
X52960D01*
X53010D02*
X53100D01*
X53140D02*
X53200D01*
X53360D02*
X53430D01*
X53730D02*
X53770D01*
X52830Y40310D02*
X52870D01*
X52880D02*
X52950D01*
X53000D02*
X53100D01*
X53130D02*
X53190D01*
X53340D02*
X53450D01*
X53730D02*
X53770D01*
X52830Y40320D02*
X52940D01*
X53000D02*
X53100D01*
X53130D02*
X53180D01*
X53310D02*
X53460D01*
X53730D02*
X53770D01*
X52830Y40330D02*
X52930D01*
X52990D02*
X53100D01*
X53120D02*
X53170D01*
X53300D02*
X53470D01*
X53730D02*
X53770D01*
X52830Y40340D02*
X52920D01*
X52990D02*
X53100D01*
X53110D02*
X53160D01*
X53270D02*
X53470D01*
X53730D02*
X53760D01*
X52820Y40350D02*
X52910D01*
X52980D02*
X53090D01*
X53100D02*
X53150D01*
X53250D02*
X53480D01*
X53730D02*
X53760D01*
X52820Y40360D02*
X52900D01*
X52980D02*
X53150D01*
X53240D02*
X53480D01*
X53730D02*
X53760D01*
X52820Y40370D02*
X52890D01*
X52970D02*
X53140D01*
X53230D02*
X53400D01*
X53430D02*
X53490D01*
X53730D02*
X53760D01*
X52820Y40380D02*
X52890D01*
X52970D02*
X53130D01*
X53210D02*
X53380D01*
X53450D02*
X53490D01*
X53720D02*
X53750D01*
X52820Y40390D02*
X52880D01*
X52960D02*
X53130D01*
X53200D02*
X53360D01*
X53460D02*
X53490D01*
X53720D02*
X53750D01*
X52820Y40400D02*
X52880D01*
X52960D02*
X53020D01*
X53030D02*
X53130D01*
X53190D02*
X53340D01*
X53470D02*
X53490D01*
X53720D02*
X53750D01*
X52810Y40410D02*
X52870D01*
X52960D02*
X53020D01*
X53030D02*
X53120D01*
X53180D02*
X53320D01*
X53480D02*
X53490D01*
X53710D02*
X53750D01*
X52810Y40420D02*
X52870D01*
X52950D02*
X53010D01*
X53030D02*
X53120D01*
X53170D02*
X53310D01*
X53710D02*
X53740D01*
X52810Y40430D02*
X52860D01*
X52950D02*
X53010D01*
X53030D02*
X53110D01*
X53160D02*
X53290D01*
X53360D02*
X53390D01*
X53710D02*
X53740D01*
X52810Y40440D02*
X52850D01*
X52940D02*
X53000D01*
X53040D02*
X53100D01*
X53150D02*
X53270D01*
X53330D02*
X53430D01*
X53700D02*
X53740D01*
X52810Y40450D02*
X52850D01*
X52940D02*
X53000D01*
X53040D02*
X53100D01*
X53140D02*
X53250D01*
X53310D02*
X53430D01*
X53700D02*
X53730D01*
X52800Y40460D02*
X52850D01*
X52930D02*
X52990D01*
X53030D02*
X53090D01*
X53130D02*
X53240D01*
X53300D02*
X53440D01*
X53700D02*
X53730D01*
X52800Y40470D02*
X52840D01*
X52920D02*
X52990D01*
X53030D02*
X53100D01*
X53130D02*
X53230D01*
X53280D02*
X53440D01*
X53690D02*
X53720D01*
X52800Y40480D02*
X52840D01*
X52920D02*
X52980D01*
X53030D02*
X53100D01*
X53120D02*
X53220D01*
X53270D02*
X53390D01*
X53420D02*
X53440D01*
X53690D02*
X53720D01*
X52800Y40490D02*
X52840D01*
X52900D02*
X52980D01*
X53020D02*
X53100D01*
X53110D02*
X53220D01*
X53260D02*
X53370D01*
X53430D02*
X53450D01*
X53680D02*
X53710D01*
X52790Y40500D02*
X52830D01*
X52890D02*
X52980D01*
X53020D02*
X53100D01*
X53110D02*
X53210D01*
X53240D02*
X53350D01*
X53670D02*
X53710D01*
X52790Y40510D02*
X52830D01*
X52870D02*
X52970D01*
X53010D02*
X53200D01*
X53230D02*
X53330D01*
X53670D02*
X53700D01*
X52780Y40520D02*
X52830D01*
X52860D02*
X52970D01*
X53010D02*
X53190D01*
X53210D02*
X53320D01*
X53660D02*
X53700D01*
X52780Y40530D02*
X52830D01*
X52840D02*
X52970D01*
X53000D02*
X53190D01*
X53200D02*
X53300D01*
X53650D02*
X53690D01*
X52780Y40540D02*
X52960D01*
X53000D02*
X53180D01*
X53190D02*
X53290D01*
X53650D02*
X53680D01*
X52780Y40550D02*
X52960D01*
X52990D02*
X53170D01*
X53180D02*
X53280D01*
X53640D02*
X53680D01*
X52780Y40560D02*
X52960D01*
X52990D02*
X53270D01*
X53630D02*
X53670D01*
X52770Y40570D02*
X52960D01*
X52980D02*
X53260D01*
X53620D02*
X53660D01*
X52770Y40580D02*
X52960D01*
X52980D02*
X53250D01*
X53610D02*
X53650D01*
X52770Y40590D02*
X52950D01*
X52980D02*
X53240D01*
X53600D02*
X53650D01*
X52770Y40600D02*
X52950D01*
X52970D02*
X53230D01*
X53590D02*
X53640D01*
X52770Y40610D02*
X52950D01*
X52970D02*
X53220D01*
X53570D02*
X53630D01*
X52770Y40620D02*
X52950D01*
X52970D02*
X53210D01*
X53560D02*
X53620D01*
X52770Y40630D02*
X52950D01*
X52960D02*
X53200D01*
X53540D02*
X53600D01*
X52770Y40640D02*
X52950D01*
X52960D02*
X53190D01*
X53510D02*
X53590D01*
X52770Y40650D02*
X52950D01*
X52960D02*
X53180D01*
X53480D02*
X53580D01*
X52770Y40660D02*
X52940D01*
X52960D02*
X53170D01*
X53300D02*
X53560D01*
X52770Y40670D02*
X52940D01*
X52950D02*
X53160D01*
X53250D02*
X53540D01*
X52770Y40680D02*
X52940D01*
X52950D02*
X53150D01*
X53220D02*
X53520D01*
X52770Y40690D02*
X53140D01*
X53190D02*
X53480D01*
X52770Y40700D02*
X53130D01*
X53170D02*
X53430D01*
X52770Y40710D02*
X53120D01*
X53150D02*
X53360D01*
X52780Y40720D02*
X53110D01*
X53130D02*
X53290D01*
X52780Y40730D02*
X53240D01*
X52780Y40740D02*
X53210D01*
X52780Y40750D02*
X53190D01*
X52780Y40760D02*
X53160D01*
X52790Y40770D02*
X53140D01*
X52790Y40780D02*
X53130D01*
X52790Y40790D02*
X53110D01*
X52790Y40800D02*
X53090D01*
X52790Y40810D02*
X53070D01*
X52800Y40820D02*
X53060D01*
X52790Y40830D02*
X53050D01*
X52790Y40840D02*
X53040D01*
X52790Y40850D02*
X53030D01*
X52780Y40860D02*
X53030D01*
X52770Y40870D02*
X53030D01*
X52760Y40880D02*
X53020D01*
X52750Y40890D02*
X53020D01*
X52740Y40900D02*
X53020D01*
X52740Y40910D02*
X53020D01*
X52730Y40920D02*
X53020D01*
X52730Y40930D02*
X53020D01*
X52730Y40940D02*
X53020D01*
X52700Y40950D02*
X52720D01*
X52730D02*
X53020D01*
X52680Y40960D02*
X53020D01*
X52680Y40970D02*
X53020D01*
X52680Y40980D02*
X53030D01*
X52680Y40990D02*
X53020D01*
X52670Y41000D02*
X53020D01*
X52670Y41010D02*
X53020D01*
X52670Y41020D02*
X53020D01*
X52670Y41030D02*
X53020D01*
X52670Y41040D02*
X53010D01*
X52670Y41050D02*
X53010D01*
X52670Y41060D02*
X53000D01*
X52660Y41070D02*
X53000D01*
X52660Y41080D02*
X53020D01*
X52660Y41090D02*
X53030D01*
X52660Y41100D02*
X53030D01*
X52660Y41110D02*
X53030D01*
X52650Y41120D02*
X53030D01*
X52650Y41130D02*
X53030D01*
X52650Y41140D02*
X53030D01*
X52650Y41150D02*
X53030D01*
X52640Y41160D02*
X53020D01*
X52640Y41170D02*
X53020D01*
X52640Y41180D02*
X53020D01*
X52630Y41190D02*
X53010D01*
X52630Y41200D02*
X53010D01*
X52630Y41210D02*
X53010D01*
X52630Y41220D02*
X53000D01*
X52620Y41230D02*
X53000D01*
X52620Y41240D02*
X53000D01*
X52620Y41250D02*
X52990D01*
X52610Y41260D02*
X52990D01*
X52610Y41270D02*
X52990D01*
X52610Y41280D02*
X52980D01*
X52610Y41290D02*
X52980D01*
X52600Y41300D02*
X52980D01*
X52600Y41310D02*
X52970D01*
X52600Y41320D02*
X52970D01*
X52600Y41330D02*
X52970D01*
X52600Y41340D02*
X52960D01*
X52600Y41350D02*
X52960D01*
X52590Y41360D02*
X52960D01*
X52590Y41370D02*
X52950D01*
X52590Y41380D02*
X52950D01*
X52590Y41390D02*
X52950D01*
X52590Y41400D02*
X52940D01*
X52590Y41410D02*
X52940D01*
X52590Y41420D02*
X52940D01*
X52590Y41430D02*
X52940D01*
X52590Y41440D02*
X52930D01*
X52590Y41450D02*
X52930D01*
X52590Y41460D02*
X52930D01*
X52590Y41470D02*
X52920D01*
X52590Y41480D02*
X52920D01*
X52590Y41490D02*
X52920D01*
X52600Y41500D02*
X52910D01*
X52600Y41510D02*
X52910D01*
X52600Y41520D02*
X52900D01*
X52600Y41530D02*
X52900D01*
X52600Y41540D02*
X52900D01*
X52600Y41550D02*
X52890D01*
X52600Y41560D02*
X52890D01*
X52600Y41570D02*
X52880D01*
X52600Y41580D02*
X52880D01*
X52600Y41590D02*
X52870D01*
X52600Y41600D02*
X52870D01*
X52600Y41610D02*
X52870D01*
X52600Y41620D02*
X52860D01*
X52600Y41630D02*
X52860D01*
X52600Y41640D02*
X52850D01*
X52600Y41650D02*
X52850D01*
X52600Y41660D02*
X52840D01*
X52600Y41670D02*
X52840D01*
X52600Y41680D02*
X52840D01*
X52590Y41690D02*
X52830D01*
X52590Y41700D02*
X52830D01*
X52590Y41710D02*
X52820D01*
X52590Y41720D02*
X52820D01*
X52590Y41730D02*
X52810D01*
X52590Y41740D02*
X52810D01*
X52590Y41750D02*
X52800D01*
X52580Y41760D02*
X52800D01*
X52580Y41770D02*
X52790D01*
X52570Y41780D02*
X52780D01*
X52560Y41790D02*
X52780D01*
X52540Y41800D02*
X52770D01*
X52530Y41810D02*
X52770D01*
X52510Y41820D02*
X52760D01*
X52490Y41830D02*
X52750D01*
X52480Y41840D02*
X52750D01*
X52470Y41850D02*
X52740D01*
X52470Y41860D02*
X52730D01*
X52470Y41870D02*
X52730D01*
X52460Y41880D02*
X52730D01*
X52460Y41890D02*
X52730D01*
X52460Y41900D02*
X52730D01*
X52460Y41910D02*
X52730D01*
X52460Y41920D02*
X52740D01*
X52460Y41930D02*
X52740D01*
X52460Y41940D02*
X52740D01*
X52460Y41950D02*
X52750D01*
X52460Y41960D02*
X52750D01*
X52460Y41970D02*
X52750D01*
X52460Y41980D02*
X52750D01*
X52460Y41990D02*
X52750D01*
X52460Y42000D02*
X52750D01*
X52460Y42010D02*
X52750D01*
X52460Y42020D02*
X52750D01*
X52460Y42030D02*
X52740D01*
X52460Y42040D02*
X52740D01*
X52460Y42050D02*
X52740D01*
X52460Y42060D02*
X52730D01*
X52460Y42070D02*
X52720D01*
X52460Y42080D02*
X52720D01*
X52460Y42090D02*
X52710D01*
X52460Y42100D02*
X52700D01*
X52460Y42110D02*
X52690D01*
X52460Y42120D02*
X52680D01*
X52460Y42130D02*
X52670D01*
X52460Y42140D02*
X52650D01*
X52460Y42150D02*
X52630D01*
X52450Y42160D02*
X52620D01*
X52450Y42170D02*
X52600D01*
X52450Y42180D02*
X52580D01*
X52450Y42190D02*
X52570D01*
X52440Y42200D02*
X52560D01*
X52440Y42210D02*
X52540D01*
X52440Y42220D02*
X52530D01*
X52430Y42230D02*
X52520D01*
X52430Y42240D02*
X52510D01*
X52430Y42250D02*
X52500D01*
X52430Y42260D02*
X52490D01*
X52430Y42270D02*
X52480D01*
X52430Y42280D02*
X52460D01*
M02*
