%FSLAX24Y24*%
%MOIN*%
G70*
G01*
G75*
G04 Layer_Color=65535*
%ADD10R,0.0315X0.0354*%
%ADD11C,0.0200*%
%ADD12C,0.0150*%
%ADD13C,0.1000*%
%ADD14C,0.1250*%
%ADD15O,0.0787X0.0394*%
%ADD16O,0.0787X0.0394*%
%ADD17C,0.0700*%
%ADD18R,0.0591X0.0591*%
%ADD19C,0.0591*%
%ADD20C,0.0551*%
%ADD21C,0.0098*%
%ADD22C,0.0079*%
%ADD23C,0.0100*%
G36*
X59657Y40297D02*
X59660Y40297D01*
X59663Y40296D01*
X59667Y40296D01*
X59672Y40295D01*
X59681Y40292D01*
X59691Y40289D01*
X59696Y40286D01*
X59700Y40284D01*
X59705Y40280D01*
X59709Y40277D01*
X59709Y40276D01*
X59710Y40276D01*
X59711Y40275D01*
X59712Y40273D01*
X59714Y40271D01*
X59716Y40269D01*
X59720Y40263D01*
X59724Y40255D01*
X59727Y40247D01*
X59730Y40237D01*
X59730Y40231D01*
X59731Y40226D01*
Y40225D01*
Y40223D01*
X59730Y40220D01*
X59730Y40216D01*
X59729Y40212D01*
X59728Y40207D01*
X59726Y40201D01*
X59724Y40196D01*
X59724Y40195D01*
X59723Y40193D01*
X59721Y40190D01*
X59719Y40186D01*
X59716Y40182D01*
X59713Y40176D01*
X59708Y40171D01*
X59703Y40164D01*
X59702Y40164D01*
X59700Y40161D01*
X59697Y40158D01*
X59695Y40155D01*
X59692Y40153D01*
X59689Y40150D01*
X59685Y40146D01*
X59681Y40143D01*
X59677Y40138D01*
X59672Y40134D01*
X59666Y40129D01*
X59661Y40125D01*
X59655Y40119D01*
X59654Y40119D01*
X59654Y40118D01*
X59652Y40117D01*
X59650Y40115D01*
X59645Y40111D01*
X59640Y40106D01*
X59634Y40101D01*
X59627Y40095D01*
X59622Y40091D01*
X59620Y40089D01*
X59618Y40087D01*
X59618Y40086D01*
X59617Y40085D01*
X59616Y40084D01*
X59614Y40081D01*
X59609Y40076D01*
X59605Y40070D01*
X59731D01*
Y40040D01*
X59562D01*
Y40040D01*
Y40042D01*
Y40044D01*
X59562Y40047D01*
X59562Y40050D01*
X59563Y40054D01*
X59564Y40058D01*
X59565Y40061D01*
Y40062D01*
X59565Y40062D01*
X59566Y40065D01*
X59568Y40068D01*
X59570Y40072D01*
X59573Y40077D01*
X59577Y40083D01*
X59581Y40089D01*
X59586Y40095D01*
Y40096D01*
X59586Y40096D01*
X59588Y40099D01*
X59592Y40102D01*
X59596Y40107D01*
X59602Y40112D01*
X59609Y40119D01*
X59618Y40126D01*
X59627Y40134D01*
X59627Y40135D01*
X59629Y40136D01*
X59631Y40138D01*
X59634Y40140D01*
X59637Y40143D01*
X59641Y40146D01*
X59650Y40154D01*
X59659Y40163D01*
X59668Y40172D01*
X59673Y40176D01*
X59677Y40180D01*
X59680Y40185D01*
X59684Y40189D01*
Y40189D01*
X59684Y40189D01*
X59685Y40191D01*
X59686Y40192D01*
X59688Y40196D01*
X59691Y40201D01*
X59694Y40207D01*
X59696Y40213D01*
X59698Y40220D01*
X59698Y40227D01*
Y40227D01*
Y40228D01*
X59698Y40230D01*
X59698Y40233D01*
X59697Y40238D01*
X59695Y40243D01*
X59693Y40248D01*
X59689Y40253D01*
X59685Y40258D01*
X59684Y40259D01*
X59682Y40260D01*
X59679Y40262D01*
X59675Y40265D01*
X59670Y40267D01*
X59664Y40269D01*
X59657Y40271D01*
X59650Y40271D01*
X59647D01*
X59646Y40271D01*
X59642Y40270D01*
X59637Y40270D01*
X59631Y40268D01*
X59625Y40265D01*
X59619Y40262D01*
X59613Y40257D01*
X59613Y40256D01*
X59611Y40255D01*
X59609Y40252D01*
X59607Y40247D01*
X59604Y40242D01*
X59602Y40236D01*
X59601Y40228D01*
X59600Y40220D01*
X59567Y40223D01*
Y40224D01*
Y40225D01*
X59568Y40227D01*
X59568Y40229D01*
X59569Y40232D01*
X59569Y40236D01*
X59572Y40244D01*
X59575Y40253D01*
X59579Y40262D01*
X59585Y40270D01*
X59588Y40274D01*
X59592Y40278D01*
X59592Y40279D01*
X59593Y40279D01*
X59594Y40280D01*
X59596Y40281D01*
X59598Y40283D01*
X59601Y40285D01*
X59604Y40286D01*
X59608Y40288D01*
X59611Y40290D01*
X59616Y40292D01*
X59621Y40293D01*
X59626Y40294D01*
X59638Y40297D01*
X59644Y40297D01*
X59650Y40297D01*
X59654D01*
X59657Y40297D01*
D02*
G37*
G36*
X59451Y40296D02*
X59457Y40295D01*
X59464Y40295D01*
X59470Y40294D01*
X59475Y40293D01*
X59476D01*
X59478Y40293D01*
X59482Y40292D01*
X59486Y40291D01*
X59491Y40289D01*
X59496Y40287D01*
X59502Y40285D01*
X59507Y40281D01*
X59507Y40281D01*
X59509Y40280D01*
X59512Y40278D01*
X59514Y40275D01*
X59517Y40272D01*
X59521Y40267D01*
X59524Y40263D01*
X59528Y40257D01*
X59528Y40256D01*
X59529Y40254D01*
X59530Y40251D01*
X59531Y40247D01*
X59533Y40242D01*
X59534Y40236D01*
X59535Y40229D01*
X59535Y40222D01*
Y40222D01*
Y40221D01*
Y40219D01*
X59535Y40217D01*
X59535Y40214D01*
X59534Y40210D01*
X59534Y40207D01*
X59533Y40203D01*
X59530Y40194D01*
X59526Y40185D01*
X59524Y40180D01*
X59521Y40176D01*
X59518Y40171D01*
X59514Y40167D01*
X59514Y40166D01*
X59513Y40166D01*
X59512Y40165D01*
X59510Y40163D01*
X59508Y40162D01*
X59505Y40160D01*
X59501Y40158D01*
X59497Y40156D01*
X59492Y40153D01*
X59487Y40152D01*
X59481Y40150D01*
X59474Y40148D01*
X59466Y40146D01*
X59458Y40145D01*
X59449Y40145D01*
X59439Y40145D01*
X59374D01*
Y40040D01*
X59340D01*
Y40296D01*
X59445D01*
X59451Y40296D01*
D02*
G37*
G36*
X52644Y39250D02*
X52613D01*
Y39450D01*
X52612Y39450D01*
X52611Y39449D01*
X52608Y39447D01*
X52605Y39444D01*
X52600Y39440D01*
X52595Y39437D01*
X52589Y39433D01*
X52583Y39429D01*
X52582D01*
X52582Y39428D01*
X52580Y39427D01*
X52576Y39425D01*
X52572Y39422D01*
X52567Y39420D01*
X52561Y39417D01*
X52555Y39415D01*
X52550Y39412D01*
Y39443D01*
X52550D01*
X52551Y39443D01*
X52553Y39444D01*
X52554Y39445D01*
X52557Y39447D01*
X52559Y39448D01*
X52566Y39451D01*
X52573Y39456D01*
X52580Y39461D01*
X52588Y39466D01*
X52596Y39473D01*
X52596Y39473D01*
X52596Y39473D01*
X52599Y39476D01*
X52602Y39479D01*
X52607Y39484D01*
X52611Y39489D01*
X52616Y39495D01*
X52620Y39501D01*
X52624Y39507D01*
X52644D01*
Y39250D01*
D02*
G37*
G36*
X56400Y38133D02*
X56347Y38099D01*
X56347D01*
X56346Y38098D01*
X56345Y38097D01*
X56343Y38097D01*
X56339Y38094D01*
X56334Y38090D01*
X56328Y38087D01*
X56322Y38082D01*
X56317Y38078D01*
X56312Y38074D01*
X56311Y38074D01*
X56310Y38073D01*
X56308Y38071D01*
X56305Y38069D01*
X56299Y38063D01*
X56297Y38060D01*
X56295Y38057D01*
X56294Y38057D01*
X56294Y38056D01*
X56293Y38055D01*
X56292Y38053D01*
X56290Y38048D01*
X56288Y38042D01*
Y38042D01*
X56287Y38041D01*
Y38039D01*
X56287Y38037D01*
X56287Y38035D01*
Y38032D01*
X56286Y38028D01*
Y38023D01*
Y37984D01*
X56400D01*
Y37950D01*
X56144D01*
Y38063D01*
Y38064D01*
Y38065D01*
Y38067D01*
Y38069D01*
X56144Y38072D01*
Y38075D01*
X56145Y38083D01*
X56145Y38091D01*
X56147Y38100D01*
X56148Y38108D01*
X56150Y38112D01*
X56151Y38115D01*
Y38116D01*
X56151Y38116D01*
X56152Y38118D01*
X56154Y38122D01*
X56157Y38126D01*
X56160Y38130D01*
X56164Y38135D01*
X56169Y38140D01*
X56175Y38144D01*
X56176Y38144D01*
X56178Y38145D01*
X56182Y38147D01*
X56187Y38149D01*
X56193Y38151D01*
X56199Y38153D01*
X56206Y38154D01*
X56214Y38155D01*
X56217D01*
X56219Y38154D01*
X56221D01*
X56224Y38154D01*
X56230Y38152D01*
X56237Y38150D01*
X56245Y38147D01*
X56253Y38143D01*
X56256Y38140D01*
X56260Y38137D01*
X56261Y38136D01*
X56262Y38135D01*
X56263Y38134D01*
X56264Y38132D01*
X56266Y38129D01*
X56268Y38127D01*
X56270Y38124D01*
X56272Y38120D01*
X56274Y38116D01*
X56276Y38111D01*
X56278Y38106D01*
X56279Y38101D01*
X56281Y38095D01*
X56282Y38089D01*
X56283Y38083D01*
X56284Y38083D01*
X56285Y38085D01*
X56286Y38087D01*
X56287Y38090D01*
X56292Y38097D01*
X56294Y38100D01*
X56296Y38103D01*
X56297Y38104D01*
X56299Y38106D01*
X56302Y38108D01*
X56306Y38112D01*
X56311Y38116D01*
X56317Y38121D01*
X56323Y38126D01*
X56331Y38131D01*
X56400Y38175D01*
Y38133D01*
D02*
G37*
G36*
X54796Y42150D02*
X54765D01*
Y42350D01*
X54764Y42350D01*
X54763Y42349D01*
X54760Y42347D01*
X54756Y42344D01*
X54752Y42340D01*
X54747Y42337D01*
X54741Y42333D01*
X54735Y42329D01*
X54734D01*
X54734Y42328D01*
X54731Y42327D01*
X54728Y42325D01*
X54724Y42322D01*
X54719Y42320D01*
X54713Y42317D01*
X54707Y42315D01*
X54702Y42312D01*
Y42343D01*
X54702D01*
X54703Y42343D01*
X54705Y42344D01*
X54706Y42345D01*
X54708Y42347D01*
X54711Y42348D01*
X54717Y42351D01*
X54724Y42356D01*
X54732Y42361D01*
X54740Y42366D01*
X54747Y42373D01*
X54748Y42373D01*
X54748Y42373D01*
X54751Y42376D01*
X54754Y42379D01*
X54758Y42384D01*
X54763Y42389D01*
X54768Y42395D01*
X54772Y42401D01*
X54776Y42407D01*
X54796D01*
Y42150D01*
D02*
G37*
G36*
X54528Y42410D02*
X54531D01*
X54535Y42410D01*
X54539Y42409D01*
X54544Y42409D01*
X54553Y42406D01*
X54564Y42403D01*
X54575Y42399D01*
X54581Y42396D01*
X54586Y42393D01*
X54586D01*
X54587Y42393D01*
X54589Y42392D01*
X54591Y42390D01*
X54593Y42389D01*
X54596Y42386D01*
X54602Y42381D01*
X54609Y42375D01*
X54616Y42366D01*
X54623Y42357D01*
X54629Y42346D01*
Y42346D01*
X54630Y42345D01*
X54631Y42343D01*
X54632Y42341D01*
X54633Y42338D01*
X54634Y42335D01*
X54636Y42331D01*
X54637Y42326D01*
X54638Y42322D01*
X54640Y42316D01*
X54642Y42305D01*
X54644Y42292D01*
X54645Y42278D01*
Y42278D01*
Y42276D01*
Y42275D01*
Y42272D01*
X54644Y42270D01*
Y42267D01*
X54644Y42263D01*
X54643Y42259D01*
X54642Y42250D01*
X54640Y42240D01*
X54638Y42231D01*
X54635Y42221D01*
Y42221D01*
X54634Y42220D01*
X54634Y42219D01*
X54633Y42217D01*
X54632Y42215D01*
X54630Y42212D01*
X54627Y42206D01*
X54623Y42200D01*
X54618Y42192D01*
X54613Y42185D01*
X54606Y42177D01*
X54606D01*
X54607Y42177D01*
X54608Y42176D01*
X54609Y42175D01*
X54612Y42173D01*
X54614Y42172D01*
X54620Y42168D01*
X54627Y42164D01*
X54634Y42161D01*
X54642Y42157D01*
X54650Y42154D01*
X54639Y42130D01*
X54639D01*
X54638Y42131D01*
X54636Y42132D01*
X54634Y42132D01*
X54632Y42133D01*
X54629Y42135D01*
X54626Y42136D01*
X54622Y42138D01*
X54614Y42142D01*
X54604Y42148D01*
X54594Y42154D01*
X54584Y42161D01*
X54584D01*
X54583Y42161D01*
X54581Y42160D01*
X54579Y42159D01*
X54576Y42158D01*
X54573Y42156D01*
X54570Y42155D01*
X54566Y42154D01*
X54561Y42152D01*
X54556Y42151D01*
X54545Y42148D01*
X54534Y42146D01*
X54521Y42146D01*
X54518D01*
X54515Y42146D01*
X54512D01*
X54509Y42146D01*
X54505Y42147D01*
X54501Y42148D01*
X54491Y42150D01*
X54480Y42153D01*
X54469Y42157D01*
X54458Y42162D01*
X54458Y42162D01*
X54457Y42163D01*
X54456Y42164D01*
X54454Y42165D01*
X54451Y42167D01*
X54449Y42169D01*
X54443Y42174D01*
X54435Y42181D01*
X54428Y42189D01*
X54421Y42198D01*
X54415Y42209D01*
Y42210D01*
X54414Y42211D01*
X54414Y42212D01*
X54413Y42215D01*
X54412Y42217D01*
X54411Y42221D01*
X54409Y42225D01*
X54408Y42229D01*
X54406Y42234D01*
X54405Y42239D01*
X54402Y42251D01*
X54401Y42264D01*
X54400Y42278D01*
Y42278D01*
Y42279D01*
Y42282D01*
X54400Y42284D01*
Y42288D01*
X54401Y42292D01*
X54401Y42296D01*
X54402Y42301D01*
X54404Y42311D01*
X54406Y42323D01*
X54410Y42335D01*
X54415Y42347D01*
Y42347D01*
X54416Y42348D01*
X54417Y42350D01*
X54418Y42352D01*
X54419Y42354D01*
X54421Y42357D01*
X54427Y42364D01*
X54433Y42372D01*
X54440Y42380D01*
X54449Y42388D01*
X54459Y42394D01*
X54459Y42395D01*
X54460Y42395D01*
X54462Y42396D01*
X54464Y42397D01*
X54467Y42398D01*
X54470Y42399D01*
X54473Y42401D01*
X54478Y42402D01*
X54482Y42404D01*
X54487Y42405D01*
X54497Y42408D01*
X54510Y42410D01*
X54522Y42411D01*
X54526D01*
X54528Y42410D01*
D02*
G37*
G36*
X52411Y39506D02*
X52417Y39505D01*
X52424Y39505D01*
X52430Y39504D01*
X52435Y39504D01*
X52436D01*
X52438Y39503D01*
X52442Y39502D01*
X52446Y39501D01*
X52451Y39499D01*
X52456Y39497D01*
X52462Y39495D01*
X52467Y39491D01*
X52467Y39491D01*
X52469Y39490D01*
X52472Y39488D01*
X52474Y39485D01*
X52477Y39482D01*
X52481Y39477D01*
X52484Y39473D01*
X52488Y39467D01*
X52488Y39466D01*
X52489Y39464D01*
X52490Y39461D01*
X52491Y39457D01*
X52493Y39452D01*
X52494Y39446D01*
X52495Y39439D01*
X52495Y39432D01*
Y39432D01*
Y39431D01*
Y39429D01*
X52495Y39427D01*
X52495Y39424D01*
X52494Y39420D01*
X52494Y39417D01*
X52493Y39413D01*
X52490Y39404D01*
X52486Y39395D01*
X52484Y39390D01*
X52481Y39386D01*
X52478Y39381D01*
X52474Y39377D01*
X52474Y39376D01*
X52473Y39376D01*
X52472Y39375D01*
X52470Y39373D01*
X52468Y39372D01*
X52465Y39370D01*
X52461Y39368D01*
X52457Y39366D01*
X52452Y39363D01*
X52447Y39362D01*
X52441Y39360D01*
X52434Y39358D01*
X52426Y39356D01*
X52418Y39355D01*
X52409Y39355D01*
X52399Y39355D01*
X52334D01*
Y39250D01*
X52300D01*
Y39506D01*
X52405D01*
X52411Y39506D01*
D02*
G37*
G36*
X55055Y35156D02*
X55062Y35155D01*
X55070Y35155D01*
X55077Y35154D01*
X55083Y35152D01*
X55084D01*
X55085Y35152D01*
X55085D01*
X55087Y35151D01*
X55091Y35150D01*
X55096Y35148D01*
X55102Y35146D01*
X55108Y35143D01*
X55115Y35139D01*
X55121Y35134D01*
X55121D01*
X55122Y35133D01*
X55124Y35131D01*
X55128Y35127D01*
X55132Y35122D01*
X55137Y35116D01*
X55142Y35108D01*
X55147Y35100D01*
X55151Y35090D01*
Y35090D01*
X55152Y35089D01*
X55152Y35087D01*
X55153Y35085D01*
X55154Y35083D01*
X55154Y35080D01*
X55156Y35076D01*
X55156Y35072D01*
X55157Y35068D01*
X55158Y35063D01*
X55160Y35053D01*
X55161Y35042D01*
X55161Y35029D01*
Y35029D01*
Y35028D01*
Y35027D01*
Y35024D01*
X55161Y35022D01*
Y35019D01*
X55161Y35012D01*
X55160Y35004D01*
X55158Y34995D01*
X55157Y34986D01*
X55154Y34978D01*
Y34977D01*
X55154Y34976D01*
X55154Y34975D01*
X55153Y34974D01*
X55152Y34970D01*
X55150Y34964D01*
X55147Y34959D01*
X55144Y34952D01*
X55141Y34946D01*
X55137Y34940D01*
X55136Y34939D01*
X55135Y34938D01*
X55133Y34935D01*
X55130Y34932D01*
X55127Y34928D01*
X55122Y34924D01*
X55118Y34920D01*
X55113Y34917D01*
X55113Y34916D01*
X55111Y34916D01*
X55108Y34914D01*
X55105Y34912D01*
X55101Y34910D01*
X55095Y34908D01*
X55090Y34906D01*
X55083Y34904D01*
X55082D01*
X55080Y34904D01*
X55076Y34903D01*
X55071Y34902D01*
X55065Y34902D01*
X55058Y34901D01*
X55051Y34900D01*
X55042Y34900D01*
X54950D01*
Y35156D01*
X55048D01*
X55055Y35156D01*
D02*
G37*
G36*
X58570Y35528D02*
X58572Y35528D01*
X58576Y35527D01*
X58579Y35525D01*
X58583Y35524D01*
X58587Y35522D01*
X58592Y35520D01*
X58602Y35515D01*
X58613Y35508D01*
X58623Y35500D01*
X58628Y35495D01*
X58632Y35490D01*
X58632Y35490D01*
X58633Y35489D01*
X58634Y35488D01*
X58636Y35485D01*
X58637Y35482D01*
X58639Y35479D01*
X58641Y35476D01*
X58643Y35472D01*
X58645Y35467D01*
X58647Y35462D01*
X58649Y35456D01*
X58650Y35450D01*
X58653Y35437D01*
X58654Y35430D01*
X58654Y35423D01*
Y35422D01*
Y35421D01*
Y35419D01*
X58654Y35416D01*
Y35412D01*
X58653Y35408D01*
X58652Y35404D01*
X58652Y35399D01*
X58650Y35388D01*
X58647Y35377D01*
X58643Y35366D01*
X58640Y35360D01*
X58637Y35355D01*
X58637Y35355D01*
X58636Y35354D01*
X58635Y35353D01*
X58634Y35351D01*
X58630Y35346D01*
X58625Y35341D01*
X58618Y35334D01*
X58609Y35328D01*
X58600Y35321D01*
X58588Y35316D01*
X58588D01*
X58587Y35316D01*
X58585Y35315D01*
X58583Y35314D01*
X58580Y35313D01*
X58576Y35312D01*
X58572Y35310D01*
X58568Y35309D01*
X58563Y35308D01*
X58558Y35307D01*
X58546Y35305D01*
X58533Y35303D01*
X58520Y35303D01*
X58516D01*
X58513Y35303D01*
X58510D01*
X58505Y35303D01*
X58501Y35304D01*
X58496Y35305D01*
X58485Y35307D01*
X58473Y35309D01*
X58461Y35313D01*
X58450Y35318D01*
X58450D01*
X58449Y35319D01*
X58447Y35319D01*
X58445Y35321D01*
X58443Y35322D01*
X58440Y35324D01*
X58433Y35329D01*
X58426Y35335D01*
X58418Y35342D01*
X58411Y35351D01*
X58405Y35361D01*
Y35362D01*
X58404Y35362D01*
X58403Y35364D01*
X58402Y35366D01*
X58401Y35369D01*
X58400Y35372D01*
X58398Y35376D01*
X58397Y35380D01*
X58395Y35384D01*
X58394Y35388D01*
X58391Y35399D01*
X58390Y35411D01*
X58389Y35423D01*
Y35424D01*
Y35425D01*
Y35427D01*
X58389Y35430D01*
X58390Y35433D01*
X58390Y35437D01*
X58391Y35441D01*
X58391Y35446D01*
X58394Y35456D01*
X58397Y35467D01*
X58400Y35472D01*
X58402Y35478D01*
X58405Y35483D01*
X58409Y35488D01*
X58409Y35488D01*
X58410Y35489D01*
X58411Y35490D01*
X58412Y35492D01*
X58414Y35494D01*
X58417Y35497D01*
X58420Y35500D01*
X58423Y35502D01*
X58427Y35505D01*
X58431Y35508D01*
X58436Y35511D01*
X58441Y35514D01*
X58446Y35517D01*
X58451Y35520D01*
X58464Y35525D01*
X58472Y35491D01*
X58471D01*
X58471Y35491D01*
X58469Y35490D01*
X58467Y35489D01*
X58465Y35488D01*
X58462Y35487D01*
X58456Y35484D01*
X58450Y35481D01*
X58443Y35476D01*
X58436Y35471D01*
X58431Y35465D01*
X58430Y35464D01*
X58429Y35462D01*
X58427Y35458D01*
X58424Y35453D01*
X58422Y35447D01*
X58420Y35440D01*
X58418Y35432D01*
X58418Y35422D01*
Y35422D01*
Y35421D01*
Y35420D01*
X58418Y35418D01*
Y35415D01*
X58419Y35412D01*
X58420Y35405D01*
X58421Y35397D01*
X58424Y35389D01*
X58428Y35381D01*
X58432Y35373D01*
Y35373D01*
X58433Y35372D01*
X58435Y35370D01*
X58438Y35367D01*
X58443Y35362D01*
X58448Y35358D01*
X58454Y35353D01*
X58462Y35349D01*
X58471Y35346D01*
X58471D01*
X58472Y35345D01*
X58473Y35345D01*
X58475Y35344D01*
X58477Y35344D01*
X58480Y35343D01*
X58486Y35342D01*
X58493Y35340D01*
X58501Y35339D01*
X58510Y35338D01*
X58520Y35338D01*
X58525D01*
X58528Y35338D01*
X58531D01*
X58535Y35339D01*
X58539Y35339D01*
X58548Y35340D01*
X58558Y35342D01*
X58567Y35344D01*
X58577Y35347D01*
X58577D01*
X58578Y35348D01*
X58579Y35348D01*
X58581Y35349D01*
X58585Y35351D01*
X58590Y35354D01*
X58597Y35358D01*
X58602Y35364D01*
X58608Y35369D01*
X58613Y35376D01*
Y35377D01*
X58614Y35377D01*
X58615Y35378D01*
X58615Y35380D01*
X58617Y35384D01*
X58619Y35390D01*
X58621Y35396D01*
X58623Y35403D01*
X58625Y35411D01*
X58625Y35420D01*
Y35420D01*
Y35421D01*
Y35423D01*
X58625Y35425D01*
Y35427D01*
X58624Y35430D01*
X58623Y35437D01*
X58621Y35444D01*
X58618Y35452D01*
X58614Y35460D01*
X58609Y35468D01*
X58608Y35468D01*
X58608Y35469D01*
X58606Y35471D01*
X58602Y35475D01*
X58597Y35479D01*
X58590Y35483D01*
X58581Y35488D01*
X58571Y35492D01*
X58560Y35495D01*
X58568Y35529D01*
X58569D01*
X58570Y35528D01*
D02*
G37*
G36*
X58650Y35247D02*
X58572Y35217D01*
Y35109D01*
X58650Y35082D01*
Y35046D01*
X58393Y35144D01*
Y35181D01*
X58650Y35285D01*
Y35247D01*
D02*
G37*
G36*
X52486Y41057D02*
X52489Y41057D01*
X52493Y41056D01*
X52497Y41056D01*
X52501Y41055D01*
X52510Y41052D01*
X52520Y41049D01*
X52525Y41046D01*
X52530Y41044D01*
X52534Y41040D01*
X52538Y41037D01*
X52539Y41036D01*
X52539Y41036D01*
X52540Y41035D01*
X52542Y41033D01*
X52544Y41031D01*
X52545Y41029D01*
X52549Y41023D01*
X52553Y41015D01*
X52557Y41007D01*
X52559Y40997D01*
X52560Y40991D01*
X52560Y40986D01*
Y40985D01*
Y40983D01*
X52560Y40980D01*
X52559Y40976D01*
X52559Y40972D01*
X52558Y40967D01*
X52556Y40961D01*
X52554Y40956D01*
X52553Y40955D01*
X52552Y40953D01*
X52551Y40950D01*
X52549Y40946D01*
X52546Y40942D01*
X52542Y40936D01*
X52538Y40931D01*
X52533Y40924D01*
X52532Y40924D01*
X52530Y40921D01*
X52526Y40918D01*
X52524Y40915D01*
X52521Y40913D01*
X52518Y40910D01*
X52514Y40906D01*
X52510Y40903D01*
X52506Y40898D01*
X52501Y40894D01*
X52496Y40889D01*
X52490Y40885D01*
X52484Y40879D01*
X52484Y40879D01*
X52483Y40878D01*
X52481Y40877D01*
X52480Y40875D01*
X52475Y40871D01*
X52469Y40866D01*
X52463Y40861D01*
X52457Y40855D01*
X52452Y40851D01*
X52450Y40849D01*
X52448Y40847D01*
X52448Y40846D01*
X52447Y40845D01*
X52445Y40844D01*
X52443Y40841D01*
X52439Y40836D01*
X52435Y40830D01*
X52561D01*
Y40800D01*
X52391D01*
Y40800D01*
Y40802D01*
Y40804D01*
X52391Y40807D01*
X52392Y40810D01*
X52392Y40814D01*
X52393Y40818D01*
X52395Y40821D01*
Y40822D01*
X52395Y40822D01*
X52396Y40825D01*
X52397Y40828D01*
X52400Y40832D01*
X52402Y40837D01*
X52406Y40843D01*
X52410Y40849D01*
X52415Y40855D01*
Y40856D01*
X52416Y40856D01*
X52418Y40858D01*
X52421Y40862D01*
X52426Y40867D01*
X52432Y40872D01*
X52439Y40879D01*
X52447Y40886D01*
X52457Y40894D01*
X52457Y40895D01*
X52458Y40896D01*
X52460Y40897D01*
X52463Y40900D01*
X52467Y40903D01*
X52471Y40906D01*
X52479Y40914D01*
X52489Y40923D01*
X52498Y40932D01*
X52503Y40936D01*
X52506Y40940D01*
X52510Y40945D01*
X52513Y40949D01*
Y40949D01*
X52514Y40949D01*
X52515Y40951D01*
X52515Y40952D01*
X52518Y40956D01*
X52520Y40961D01*
X52523Y40967D01*
X52526Y40973D01*
X52527Y40980D01*
X52528Y40987D01*
Y40987D01*
Y40988D01*
X52528Y40990D01*
X52527Y40993D01*
X52526Y40998D01*
X52524Y41003D01*
X52522Y41008D01*
X52519Y41013D01*
X52514Y41018D01*
X52513Y41019D01*
X52512Y41020D01*
X52509Y41022D01*
X52505Y41025D01*
X52500Y41027D01*
X52494Y41029D01*
X52487Y41031D01*
X52479Y41031D01*
X52477D01*
X52475Y41031D01*
X52471Y41030D01*
X52466Y41030D01*
X52460Y41028D01*
X52454Y41025D01*
X52448Y41022D01*
X52443Y41017D01*
X52442Y41016D01*
X52441Y41015D01*
X52439Y41012D01*
X52436Y41007D01*
X52434Y41002D01*
X52432Y40996D01*
X52430Y40988D01*
X52429Y40980D01*
X52397Y40983D01*
Y40984D01*
Y40985D01*
X52397Y40987D01*
X52398Y40989D01*
X52398Y40992D01*
X52399Y40996D01*
X52401Y41004D01*
X52404Y41013D01*
X52409Y41022D01*
X52414Y41030D01*
X52418Y41034D01*
X52421Y41038D01*
X52422Y41039D01*
X52423Y41039D01*
X52424Y41040D01*
X52425Y41041D01*
X52428Y41043D01*
X52430Y41045D01*
X52434Y41046D01*
X52437Y41048D01*
X52441Y41050D01*
X52445Y41052D01*
X52450Y41053D01*
X52455Y41054D01*
X52467Y41057D01*
X52473Y41057D01*
X52480Y41057D01*
X52483D01*
X52486Y41057D01*
D02*
G37*
G36*
X52255Y41056D02*
X52262Y41055D01*
X52270Y41055D01*
X52277Y41054D01*
X52283Y41052D01*
X52284D01*
X52285Y41052D01*
X52285D01*
X52287Y41051D01*
X52291Y41050D01*
X52296Y41048D01*
X52302Y41046D01*
X52308Y41043D01*
X52315Y41039D01*
X52321Y41034D01*
X52321D01*
X52322Y41033D01*
X52324Y41031D01*
X52328Y41027D01*
X52332Y41022D01*
X52337Y41016D01*
X52342Y41008D01*
X52347Y41000D01*
X52351Y40990D01*
Y40990D01*
X52352Y40989D01*
X52352Y40987D01*
X52353Y40985D01*
X52354Y40983D01*
X52354Y40980D01*
X52356Y40976D01*
X52356Y40972D01*
X52357Y40968D01*
X52358Y40963D01*
X52360Y40953D01*
X52361Y40942D01*
X52361Y40929D01*
Y40929D01*
Y40928D01*
Y40927D01*
Y40924D01*
X52361Y40922D01*
Y40919D01*
X52361Y40912D01*
X52360Y40904D01*
X52358Y40895D01*
X52357Y40886D01*
X52354Y40878D01*
Y40877D01*
X52354Y40876D01*
X52354Y40875D01*
X52353Y40874D01*
X52352Y40870D01*
X52350Y40864D01*
X52347Y40858D01*
X52344Y40852D01*
X52341Y40846D01*
X52337Y40840D01*
X52336Y40839D01*
X52335Y40838D01*
X52333Y40835D01*
X52330Y40832D01*
X52327Y40828D01*
X52322Y40824D01*
X52318Y40820D01*
X52313Y40817D01*
X52313Y40816D01*
X52311Y40816D01*
X52308Y40814D01*
X52305Y40812D01*
X52301Y40810D01*
X52295Y40808D01*
X52290Y40806D01*
X52283Y40804D01*
X52282D01*
X52280Y40804D01*
X52276Y40803D01*
X52271Y40802D01*
X52265Y40802D01*
X52258Y40801D01*
X52251Y40800D01*
X52242Y40800D01*
X52150D01*
Y41056D01*
X52248D01*
X52255Y41056D01*
D02*
G37*
G36*
X55314Y34900D02*
X55282D01*
Y35100D01*
X55282Y35100D01*
X55280Y35099D01*
X55278Y35097D01*
X55274Y35094D01*
X55270Y35090D01*
X55265Y35087D01*
X55259Y35083D01*
X55252Y35079D01*
X55252D01*
X55251Y35078D01*
X55249Y35077D01*
X55246Y35075D01*
X55241Y35072D01*
X55236Y35070D01*
X55231Y35067D01*
X55225Y35065D01*
X55219Y35062D01*
Y35093D01*
X55220D01*
X55221Y35093D01*
X55222Y35094D01*
X55224Y35095D01*
X55226Y35097D01*
X55229Y35098D01*
X55235Y35101D01*
X55242Y35106D01*
X55250Y35111D01*
X55258Y35116D01*
X55265Y35123D01*
X55266Y35123D01*
X55266Y35123D01*
X55268Y35126D01*
X55272Y35129D01*
X55276Y35134D01*
X55281Y35139D01*
X55285Y35145D01*
X55290Y35151D01*
X55293Y35157D01*
X55314D01*
Y34900D01*
D02*
G37*
G36*
X54047Y40690D02*
X54082D01*
Y40661D01*
X54047D01*
Y40600D01*
X54016D01*
Y40661D01*
X53904D01*
Y40690D01*
X54021Y40856D01*
X54047D01*
Y40690D01*
D02*
G37*
G36*
X59463Y42200D02*
X59432D01*
Y42400D01*
X59432Y42400D01*
X59430Y42399D01*
X59427Y42397D01*
X59424Y42394D01*
X59419Y42390D01*
X59414Y42387D01*
X59408Y42383D01*
X59402Y42379D01*
X59401D01*
X59401Y42378D01*
X59399Y42377D01*
X59395Y42375D01*
X59391Y42372D01*
X59386Y42370D01*
X59380Y42367D01*
X59375Y42365D01*
X59369Y42362D01*
Y42393D01*
X59369D01*
X59370Y42393D01*
X59372Y42394D01*
X59373Y42395D01*
X59376Y42397D01*
X59378Y42398D01*
X59385Y42401D01*
X59392Y42406D01*
X59400Y42411D01*
X59407Y42416D01*
X59415Y42423D01*
X59415Y42423D01*
X59416Y42423D01*
X59418Y42426D01*
X59421Y42429D01*
X59426Y42434D01*
X59430Y42439D01*
X59435Y42445D01*
X59439Y42451D01*
X59443Y42457D01*
X59463D01*
Y42200D01*
D02*
G37*
G36*
X55283Y35907D02*
X55288Y35906D01*
X55294Y35905D01*
X55300Y35903D01*
X55307Y35901D01*
X55313Y35898D01*
X55314D01*
X55314Y35898D01*
X55317Y35896D01*
X55320Y35895D01*
X55324Y35892D01*
X55328Y35888D01*
X55333Y35884D01*
X55337Y35879D01*
X55341Y35873D01*
X55341Y35873D01*
X55342Y35871D01*
X55344Y35868D01*
X55345Y35864D01*
X55347Y35859D01*
X55349Y35853D01*
X55350Y35847D01*
X55350Y35841D01*
Y35840D01*
Y35838D01*
X55350Y35835D01*
X55349Y35831D01*
X55348Y35826D01*
X55346Y35821D01*
X55344Y35816D01*
X55341Y35811D01*
X55341Y35810D01*
X55340Y35808D01*
X55337Y35806D01*
X55335Y35803D01*
X55331Y35799D01*
X55326Y35796D01*
X55321Y35792D01*
X55315Y35789D01*
X55315D01*
X55316Y35788D01*
X55317D01*
X55319Y35788D01*
X55322Y35786D01*
X55328Y35784D01*
X55333Y35781D01*
X55339Y35778D01*
X55345Y35773D01*
X55350Y35767D01*
X55350Y35766D01*
X55352Y35764D01*
X55354Y35760D01*
X55356Y35756D01*
X55359Y35750D01*
X55361Y35743D01*
X55362Y35735D01*
X55363Y35726D01*
Y35725D01*
Y35724D01*
Y35723D01*
X55362Y35720D01*
X55362Y35717D01*
X55361Y35714D01*
X55361Y35710D01*
X55360Y35706D01*
X55357Y35697D01*
X55355Y35692D01*
X55352Y35687D01*
X55349Y35683D01*
X55346Y35678D01*
X55342Y35673D01*
X55338Y35669D01*
X55338Y35668D01*
X55337Y35668D01*
X55336Y35667D01*
X55334Y35665D01*
X55331Y35663D01*
X55328Y35661D01*
X55325Y35659D01*
X55321Y35657D01*
X55317Y35655D01*
X55312Y35653D01*
X55307Y35651D01*
X55302Y35649D01*
X55296Y35648D01*
X55290Y35647D01*
X55283Y35646D01*
X55276Y35646D01*
X55273D01*
X55271Y35646D01*
X55268Y35646D01*
X55265Y35647D01*
X55261Y35647D01*
X55257Y35648D01*
X55248Y35650D01*
X55239Y35654D01*
X55234Y35656D01*
X55230Y35659D01*
X55225Y35662D01*
X55221Y35666D01*
X55220Y35666D01*
X55220Y35666D01*
X55219Y35668D01*
X55217Y35669D01*
X55216Y35671D01*
X55214Y35674D01*
X55211Y35677D01*
X55209Y35680D01*
X55205Y35687D01*
X55201Y35696D01*
X55197Y35707D01*
X55196Y35712D01*
X55195Y35718D01*
X55227Y35722D01*
Y35722D01*
X55227Y35721D01*
Y35719D01*
X55228Y35718D01*
X55229Y35713D01*
X55231Y35707D01*
X55234Y35701D01*
X55237Y35694D01*
X55241Y35689D01*
X55245Y35684D01*
X55246Y35683D01*
X55247Y35682D01*
X55250Y35680D01*
X55254Y35678D01*
X55258Y35676D01*
X55264Y35674D01*
X55270Y35672D01*
X55276Y35672D01*
X55279D01*
X55280Y35672D01*
X55284Y35673D01*
X55289Y35674D01*
X55296Y35676D01*
X55302Y35678D01*
X55308Y35682D01*
X55314Y35687D01*
X55315Y35688D01*
X55316Y35690D01*
X55319Y35693D01*
X55322Y35698D01*
X55324Y35703D01*
X55327Y35710D01*
X55328Y35717D01*
X55329Y35725D01*
Y35726D01*
Y35726D01*
Y35727D01*
X55329Y35729D01*
X55328Y35733D01*
X55327Y35738D01*
X55326Y35743D01*
X55323Y35749D01*
X55319Y35755D01*
X55315Y35761D01*
X55314Y35762D01*
X55312Y35763D01*
X55309Y35765D01*
X55305Y35768D01*
X55300Y35771D01*
X55294Y35772D01*
X55287Y35774D01*
X55279Y35775D01*
X55276D01*
X55273Y35774D01*
X55270Y35774D01*
X55266Y35774D01*
X55262Y35773D01*
X55257Y35772D01*
X55260Y35799D01*
X55262D01*
X55264Y35799D01*
X55269D01*
X55273Y35799D01*
X55278Y35800D01*
X55283Y35801D01*
X55289Y35803D01*
X55295Y35806D01*
X55301Y35809D01*
X55302Y35810D01*
X55304Y35811D01*
X55306Y35814D01*
X55310Y35817D01*
X55313Y35822D01*
X55315Y35827D01*
X55317Y35834D01*
X55318Y35841D01*
Y35842D01*
Y35842D01*
Y35844D01*
X55317Y35847D01*
X55316Y35852D01*
X55315Y35856D01*
X55313Y35861D01*
X55310Y35866D01*
X55306Y35870D01*
X55306Y35870D01*
X55304Y35872D01*
X55301Y35874D01*
X55298Y35876D01*
X55294Y35878D01*
X55289Y35880D01*
X55283Y35881D01*
X55276Y35882D01*
X55273D01*
X55269Y35881D01*
X55266Y35880D01*
X55260Y35879D01*
X55255Y35877D01*
X55250Y35874D01*
X55245Y35870D01*
X55245Y35870D01*
X55243Y35868D01*
X55241Y35865D01*
X55239Y35861D01*
X55236Y35857D01*
X55234Y35851D01*
X55232Y35844D01*
X55230Y35836D01*
X55198Y35841D01*
Y35841D01*
X55199Y35843D01*
X55199Y35844D01*
X55200Y35846D01*
X55200Y35849D01*
X55201Y35852D01*
X55204Y35859D01*
X55207Y35867D01*
X55212Y35875D01*
X55217Y35883D01*
X55224Y35890D01*
X55225Y35890D01*
X55225Y35891D01*
X55226Y35891D01*
X55228Y35893D01*
X55230Y35894D01*
X55232Y35895D01*
X55238Y35899D01*
X55246Y35902D01*
X55255Y35905D01*
X55264Y35907D01*
X55270Y35907D01*
X55279D01*
X55283Y35907D01*
D02*
G37*
G36*
X55072Y35906D02*
X55075D01*
X55083Y35905D01*
X55091Y35905D01*
X55100Y35903D01*
X55108Y35902D01*
X55112Y35900D01*
X55115Y35899D01*
X55116D01*
X55116Y35899D01*
X55118Y35898D01*
X55122Y35896D01*
X55125Y35893D01*
X55130Y35890D01*
X55135Y35886D01*
X55140Y35881D01*
X55144Y35875D01*
X55144Y35874D01*
X55145Y35872D01*
X55147Y35868D01*
X55149Y35863D01*
X55151Y35857D01*
X55153Y35851D01*
X55154Y35844D01*
X55155Y35836D01*
Y35836D01*
Y35835D01*
Y35833D01*
X55154Y35831D01*
Y35829D01*
X55154Y35826D01*
X55152Y35820D01*
X55150Y35813D01*
X55147Y35805D01*
X55143Y35797D01*
X55140Y35794D01*
X55137Y35790D01*
X55136Y35789D01*
X55135Y35788D01*
X55134Y35787D01*
X55132Y35786D01*
X55129Y35784D01*
X55127Y35782D01*
X55124Y35780D01*
X55120Y35778D01*
X55116Y35776D01*
X55111Y35774D01*
X55106Y35772D01*
X55101Y35771D01*
X55095Y35769D01*
X55089Y35768D01*
X55083Y35767D01*
X55083Y35766D01*
X55085Y35765D01*
X55087Y35764D01*
X55090Y35763D01*
X55097Y35758D01*
X55100Y35756D01*
X55103Y35754D01*
X55104Y35753D01*
X55106Y35751D01*
X55108Y35748D01*
X55112Y35744D01*
X55116Y35739D01*
X55121Y35733D01*
X55126Y35727D01*
X55131Y35719D01*
X55175Y35650D01*
X55133D01*
X55099Y35703D01*
Y35703D01*
X55098Y35704D01*
X55097Y35705D01*
X55097Y35707D01*
X55094Y35711D01*
X55090Y35716D01*
X55086Y35722D01*
X55082Y35728D01*
X55078Y35733D01*
X55074Y35738D01*
X55074Y35739D01*
X55073Y35740D01*
X55071Y35742D01*
X55069Y35745D01*
X55063Y35751D01*
X55060Y35753D01*
X55057Y35755D01*
X55057Y35756D01*
X55056Y35756D01*
X55055Y35757D01*
X55053Y35758D01*
X55048Y35760D01*
X55042Y35762D01*
X55042D01*
X55041Y35763D01*
X55039D01*
X55037Y35763D01*
X55035Y35763D01*
X55032D01*
X55028Y35764D01*
X54984D01*
Y35650D01*
X54950D01*
Y35906D01*
X55069D01*
X55072Y35906D01*
D02*
G37*
G36*
X52486Y41707D02*
X52489Y41707D01*
X52492Y41706D01*
X52496Y41706D01*
X52501Y41705D01*
X52510Y41702D01*
X52520Y41699D01*
X52525Y41696D01*
X52529Y41694D01*
X52534Y41690D01*
X52538Y41687D01*
X52538Y41686D01*
X52539Y41686D01*
X52540Y41685D01*
X52542Y41683D01*
X52543Y41681D01*
X52545Y41679D01*
X52549Y41673D01*
X52553Y41665D01*
X52556Y41657D01*
X52559Y41647D01*
X52559Y41641D01*
X52560Y41636D01*
Y41635D01*
Y41633D01*
X52559Y41630D01*
X52559Y41626D01*
X52558Y41622D01*
X52557Y41617D01*
X52556Y41611D01*
X52553Y41606D01*
X52553Y41605D01*
X52552Y41603D01*
X52551Y41600D01*
X52548Y41596D01*
X52545Y41592D01*
X52542Y41586D01*
X52537Y41581D01*
X52532Y41574D01*
X52531Y41574D01*
X52529Y41571D01*
X52526Y41568D01*
X52524Y41565D01*
X52521Y41563D01*
X52518Y41560D01*
X52514Y41556D01*
X52510Y41553D01*
X52506Y41548D01*
X52501Y41544D01*
X52496Y41539D01*
X52490Y41535D01*
X52484Y41529D01*
X52483Y41529D01*
X52483Y41528D01*
X52481Y41527D01*
X52479Y41525D01*
X52474Y41521D01*
X52469Y41516D01*
X52463Y41511D01*
X52457Y41505D01*
X52451Y41501D01*
X52450Y41499D01*
X52448Y41497D01*
X52447Y41496D01*
X52446Y41495D01*
X52445Y41494D01*
X52443Y41491D01*
X52439Y41486D01*
X52434Y41480D01*
X52560D01*
Y41450D01*
X52391D01*
Y41450D01*
Y41452D01*
Y41454D01*
X52391Y41457D01*
X52391Y41460D01*
X52392Y41464D01*
X52393Y41468D01*
X52394Y41471D01*
Y41472D01*
X52395Y41472D01*
X52395Y41475D01*
X52397Y41478D01*
X52399Y41482D01*
X52402Y41487D01*
X52406Y41493D01*
X52410Y41499D01*
X52415Y41505D01*
Y41506D01*
X52416Y41506D01*
X52418Y41508D01*
X52421Y41512D01*
X52425Y41517D01*
X52431Y41522D01*
X52438Y41529D01*
X52447Y41536D01*
X52456Y41544D01*
X52457Y41545D01*
X52458Y41546D01*
X52460Y41547D01*
X52463Y41550D01*
X52466Y41553D01*
X52470Y41556D01*
X52479Y41564D01*
X52488Y41573D01*
X52497Y41582D01*
X52502Y41586D01*
X52506Y41590D01*
X52510Y41595D01*
X52513Y41599D01*
Y41599D01*
X52513Y41599D01*
X52514Y41601D01*
X52515Y41602D01*
X52517Y41606D01*
X52520Y41611D01*
X52523Y41617D01*
X52525Y41623D01*
X52527Y41630D01*
X52528Y41637D01*
Y41637D01*
Y41638D01*
X52527Y41640D01*
X52527Y41643D01*
X52526Y41648D01*
X52524Y41653D01*
X52522Y41658D01*
X52519Y41663D01*
X52514Y41668D01*
X52513Y41669D01*
X52512Y41670D01*
X52508Y41672D01*
X52505Y41675D01*
X52499Y41677D01*
X52494Y41679D01*
X52487Y41681D01*
X52479Y41681D01*
X52476D01*
X52475Y41681D01*
X52471Y41680D01*
X52466Y41680D01*
X52460Y41678D01*
X52454Y41675D01*
X52448Y41672D01*
X52442Y41667D01*
X52442Y41666D01*
X52441Y41665D01*
X52438Y41662D01*
X52436Y41657D01*
X52433Y41652D01*
X52431Y41646D01*
X52430Y41638D01*
X52429Y41630D01*
X52396Y41633D01*
Y41634D01*
Y41635D01*
X52397Y41637D01*
X52397Y41639D01*
X52398Y41642D01*
X52398Y41646D01*
X52401Y41654D01*
X52404Y41663D01*
X52408Y41672D01*
X52414Y41680D01*
X52417Y41684D01*
X52421Y41688D01*
X52421Y41689D01*
X52422Y41689D01*
X52423Y41690D01*
X52425Y41691D01*
X52427Y41693D01*
X52430Y41695D01*
X52433Y41696D01*
X52437Y41698D01*
X52441Y41700D01*
X52445Y41702D01*
X52450Y41703D01*
X52455Y41704D01*
X52467Y41707D01*
X52473Y41707D01*
X52480Y41707D01*
X52483D01*
X52486Y41707D01*
D02*
G37*
G36*
X59301Y42308D02*
Y42308D01*
Y42306D01*
Y42305D01*
Y42302D01*
X59301Y42298D01*
Y42295D01*
X59300Y42290D01*
X59300Y42286D01*
X59299Y42276D01*
X59297Y42266D01*
X59295Y42256D01*
X59292Y42247D01*
Y42246D01*
X59292Y42246D01*
X59291Y42244D01*
X59291Y42243D01*
X59288Y42239D01*
X59285Y42234D01*
X59281Y42228D01*
X59275Y42221D01*
X59268Y42216D01*
X59261Y42210D01*
X59260D01*
X59260Y42209D01*
X59258Y42209D01*
X59256Y42207D01*
X59254Y42207D01*
X59252Y42205D01*
X59248Y42204D01*
X59245Y42203D01*
X59241Y42202D01*
X59236Y42200D01*
X59231Y42199D01*
X59226Y42198D01*
X59214Y42196D01*
X59201Y42196D01*
X59198D01*
X59195Y42196D01*
X59192D01*
X59189Y42196D01*
X59185Y42197D01*
X59180Y42197D01*
X59171Y42199D01*
X59161Y42201D01*
X59151Y42204D01*
X59142Y42208D01*
X59142D01*
X59141Y42209D01*
X59140Y42209D01*
X59139Y42210D01*
X59134Y42213D01*
X59130Y42217D01*
X59124Y42222D01*
X59119Y42228D01*
X59114Y42235D01*
X59110Y42244D01*
Y42244D01*
X59109Y42245D01*
X59109Y42246D01*
X59108Y42248D01*
X59107Y42250D01*
X59107Y42253D01*
X59106Y42257D01*
X59105Y42261D01*
X59104Y42265D01*
X59103Y42270D01*
X59102Y42275D01*
X59102Y42281D01*
X59101Y42287D01*
X59100Y42294D01*
X59100Y42301D01*
Y42308D01*
Y42456D01*
X59134D01*
Y42308D01*
Y42308D01*
Y42306D01*
Y42305D01*
Y42303D01*
Y42300D01*
X59134Y42297D01*
X59135Y42289D01*
X59135Y42282D01*
X59136Y42273D01*
X59138Y42266D01*
X59139Y42262D01*
X59140Y42259D01*
X59140Y42258D01*
X59141Y42256D01*
X59143Y42253D01*
X59145Y42250D01*
X59148Y42246D01*
X59151Y42242D01*
X59156Y42238D01*
X59161Y42234D01*
X59162Y42234D01*
X59164Y42233D01*
X59167Y42232D01*
X59171Y42230D01*
X59177Y42229D01*
X59183Y42227D01*
X59190Y42227D01*
X59198Y42226D01*
X59201D01*
X59204Y42227D01*
X59207D01*
X59211Y42227D01*
X59219Y42228D01*
X59228Y42230D01*
X59236Y42233D01*
X59244Y42237D01*
X59248Y42240D01*
X59251Y42243D01*
Y42243D01*
X59252Y42244D01*
X59253Y42245D01*
X59254Y42246D01*
X59255Y42248D01*
X59256Y42251D01*
X59258Y42254D01*
X59260Y42257D01*
X59261Y42262D01*
X59262Y42266D01*
X59264Y42271D01*
X59265Y42278D01*
X59266Y42284D01*
X59267Y42291D01*
X59267Y42299D01*
Y42308D01*
Y42456D01*
X59301D01*
Y42308D01*
D02*
G37*
G36*
X56400Y38282D02*
X56200D01*
X56200Y38282D01*
X56201Y38280D01*
X56203Y38277D01*
X56206Y38274D01*
X56210Y38269D01*
X56213Y38264D01*
X56217Y38258D01*
X56221Y38252D01*
Y38251D01*
X56222Y38251D01*
X56223Y38249D01*
X56225Y38245D01*
X56228Y38241D01*
X56230Y38236D01*
X56233Y38230D01*
X56235Y38225D01*
X56238Y38219D01*
X56207D01*
Y38219D01*
X56207Y38220D01*
X56206Y38222D01*
X56205Y38223D01*
X56203Y38226D01*
X56202Y38228D01*
X56199Y38235D01*
X56194Y38242D01*
X56189Y38250D01*
X56184Y38257D01*
X56177Y38265D01*
X56177Y38265D01*
X56177Y38266D01*
X56174Y38268D01*
X56171Y38271D01*
X56166Y38276D01*
X56161Y38280D01*
X56155Y38285D01*
X56149Y38289D01*
X56143Y38293D01*
Y38313D01*
X56400D01*
Y38282D01*
D02*
G37*
G36*
X52272Y41706D02*
X52275D01*
X52283Y41705D01*
X52291Y41705D01*
X52300Y41703D01*
X52308Y41702D01*
X52312Y41700D01*
X52315Y41699D01*
X52316D01*
X52316Y41699D01*
X52318Y41698D01*
X52322Y41696D01*
X52326Y41693D01*
X52330Y41690D01*
X52335Y41686D01*
X52340Y41681D01*
X52344Y41675D01*
X52344Y41674D01*
X52345Y41672D01*
X52347Y41668D01*
X52349Y41663D01*
X52351Y41657D01*
X52353Y41651D01*
X52354Y41644D01*
X52355Y41636D01*
Y41636D01*
Y41635D01*
Y41633D01*
X52354Y41631D01*
Y41629D01*
X52354Y41626D01*
X52352Y41620D01*
X52350Y41613D01*
X52347Y41605D01*
X52343Y41597D01*
X52340Y41594D01*
X52337Y41590D01*
X52336Y41589D01*
X52335Y41588D01*
X52334Y41587D01*
X52332Y41586D01*
X52329Y41584D01*
X52327Y41582D01*
X52324Y41580D01*
X52320Y41578D01*
X52316Y41576D01*
X52311Y41574D01*
X52306Y41572D01*
X52301Y41571D01*
X52295Y41569D01*
X52289Y41568D01*
X52283Y41567D01*
X52283Y41566D01*
X52285Y41565D01*
X52287Y41564D01*
X52290Y41563D01*
X52297Y41558D01*
X52300Y41556D01*
X52303Y41554D01*
X52304Y41553D01*
X52306Y41551D01*
X52308Y41548D01*
X52312Y41544D01*
X52316Y41539D01*
X52321Y41533D01*
X52326Y41527D01*
X52331Y41519D01*
X52375Y41450D01*
X52333D01*
X52299Y41503D01*
Y41503D01*
X52298Y41504D01*
X52297Y41505D01*
X52297Y41507D01*
X52294Y41511D01*
X52290Y41516D01*
X52287Y41522D01*
X52282Y41528D01*
X52278Y41533D01*
X52274Y41538D01*
X52274Y41539D01*
X52273Y41540D01*
X52271Y41542D01*
X52269Y41545D01*
X52263Y41551D01*
X52260Y41553D01*
X52257Y41555D01*
X52257Y41556D01*
X52256Y41556D01*
X52255Y41557D01*
X52253Y41558D01*
X52248Y41560D01*
X52242Y41562D01*
X52242D01*
X52241Y41563D01*
X52239D01*
X52237Y41563D01*
X52235Y41563D01*
X52232D01*
X52228Y41564D01*
X52184D01*
Y41450D01*
X52150D01*
Y41706D01*
X52269D01*
X52272Y41706D01*
D02*
G37*
G36*
X53792Y40856D02*
X53795D01*
X53803Y40855D01*
X53811Y40855D01*
X53820Y40853D01*
X53828Y40852D01*
X53832Y40850D01*
X53835Y40849D01*
X53836D01*
X53836Y40849D01*
X53838Y40848D01*
X53842Y40846D01*
X53846Y40843D01*
X53850Y40840D01*
X53855Y40836D01*
X53860Y40831D01*
X53864Y40825D01*
X53864Y40824D01*
X53865Y40822D01*
X53867Y40818D01*
X53869Y40813D01*
X53871Y40807D01*
X53873Y40801D01*
X53874Y40794D01*
X53875Y40786D01*
Y40786D01*
Y40785D01*
Y40783D01*
X53874Y40781D01*
Y40779D01*
X53874Y40776D01*
X53872Y40770D01*
X53870Y40763D01*
X53867Y40755D01*
X53863Y40747D01*
X53860Y40744D01*
X53857Y40740D01*
X53856Y40739D01*
X53855Y40738D01*
X53854Y40737D01*
X53852Y40736D01*
X53849Y40734D01*
X53847Y40732D01*
X53844Y40730D01*
X53840Y40728D01*
X53836Y40726D01*
X53831Y40724D01*
X53826Y40722D01*
X53821Y40721D01*
X53815Y40719D01*
X53809Y40718D01*
X53803Y40717D01*
X53803Y40716D01*
X53805Y40715D01*
X53807Y40714D01*
X53810Y40713D01*
X53817Y40708D01*
X53820Y40706D01*
X53823Y40704D01*
X53824Y40703D01*
X53826Y40701D01*
X53828Y40698D01*
X53832Y40694D01*
X53836Y40689D01*
X53841Y40683D01*
X53846Y40677D01*
X53851Y40669D01*
X53895Y40600D01*
X53853D01*
X53819Y40653D01*
Y40653D01*
X53818Y40654D01*
X53817Y40655D01*
X53817Y40657D01*
X53814Y40661D01*
X53810Y40666D01*
X53807Y40672D01*
X53802Y40678D01*
X53798Y40683D01*
X53794Y40688D01*
X53794Y40689D01*
X53793Y40690D01*
X53791Y40692D01*
X53789Y40695D01*
X53783Y40701D01*
X53780Y40703D01*
X53777Y40705D01*
X53777Y40706D01*
X53776Y40706D01*
X53775Y40707D01*
X53773Y40708D01*
X53768Y40710D01*
X53762Y40712D01*
X53762D01*
X53761Y40713D01*
X53759D01*
X53757Y40713D01*
X53755Y40713D01*
X53752D01*
X53748Y40714D01*
X53704D01*
Y40600D01*
X53670D01*
Y40856D01*
X53789D01*
X53792Y40856D01*
D02*
G37*
%LPC*%
G36*
X55037Y35126D02*
X54984D01*
Y34930D01*
X55042D01*
X55047Y34930D01*
X55053Y34931D01*
X55059Y34931D01*
X55065Y34932D01*
X55072Y34933D01*
X55078Y34935D01*
X55078Y34935D01*
X55080Y34935D01*
X55083Y34937D01*
X55086Y34938D01*
X55090Y34940D01*
X55094Y34942D01*
X55097Y34945D01*
X55101Y34948D01*
X55101Y34948D01*
X55102Y34950D01*
X55105Y34953D01*
X55108Y34957D01*
X55110Y34961D01*
X55113Y34967D01*
X55117Y34973D01*
X55119Y34980D01*
Y34981D01*
X55120Y34981D01*
X55120Y34982D01*
X55120Y34984D01*
X55121Y34986D01*
X55122Y34988D01*
X55123Y34994D01*
X55124Y35001D01*
X55125Y35010D01*
X55126Y35019D01*
X55126Y35030D01*
Y35030D01*
Y35032D01*
Y35034D01*
Y35036D01*
X55126Y35040D01*
X55125Y35044D01*
X55125Y35048D01*
X55125Y35052D01*
X55123Y35063D01*
X55121Y35073D01*
X55117Y35083D01*
X55115Y35087D01*
X55113Y35091D01*
Y35092D01*
X55112Y35092D01*
X55112Y35093D01*
X55111Y35095D01*
X55108Y35099D01*
X55104Y35103D01*
X55099Y35108D01*
X55094Y35113D01*
X55088Y35117D01*
X55081Y35121D01*
X55080Y35121D01*
X55078Y35122D01*
X55075Y35122D01*
X55071Y35123D01*
X55064Y35125D01*
X55057Y35125D01*
X55048Y35126D01*
X55037Y35126D01*
D02*
G37*
G36*
X58544Y35206D02*
X58474Y35179D01*
X58473D01*
X58472Y35179D01*
X58471Y35178D01*
X58468Y35177D01*
X58466Y35176D01*
X58462Y35175D01*
X58455Y35173D01*
X58446Y35170D01*
X58437Y35167D01*
X58428Y35164D01*
X58420Y35161D01*
X58420D01*
X58421Y35161D01*
X58422D01*
X58424Y35160D01*
X58427Y35160D01*
X58429Y35159D01*
X58436Y35157D01*
X58443Y35155D01*
X58451Y35153D01*
X58460Y35150D01*
X58469Y35147D01*
X58544Y35119D01*
Y35206D01*
D02*
G37*
G36*
X53785Y40828D02*
X53704D01*
Y40743D01*
X53780D01*
X53785Y40744D01*
X53790Y40744D01*
X53796Y40744D01*
X53802Y40745D01*
X53808Y40746D01*
X53813Y40748D01*
X53814Y40748D01*
X53815Y40749D01*
X53817Y40750D01*
X53820Y40751D01*
X53823Y40754D01*
X53827Y40756D01*
X53830Y40760D01*
X53833Y40763D01*
X53833Y40763D01*
X53834Y40765D01*
X53835Y40767D01*
X53836Y40770D01*
X53837Y40773D01*
X53838Y40777D01*
X53839Y40781D01*
X53840Y40786D01*
Y40786D01*
Y40787D01*
Y40789D01*
X53839Y40792D01*
X53838Y40797D01*
X53837Y40801D01*
X53834Y40806D01*
X53831Y40811D01*
X53826Y40816D01*
X53826Y40816D01*
X53824Y40818D01*
X53821Y40820D01*
X53816Y40822D01*
X53810Y40824D01*
X53803Y40826D01*
X53795Y40827D01*
X53785Y40828D01*
D02*
G37*
G36*
X54016Y40805D02*
X53935Y40690D01*
X54016D01*
Y40805D01*
D02*
G37*
G36*
X59447Y40266D02*
X59374D01*
Y40175D01*
X59443D01*
X59445Y40175D01*
X59448D01*
X59451Y40175D01*
X59458Y40176D01*
X59466Y40178D01*
X59473Y40180D01*
X59480Y40183D01*
X59484Y40185D01*
X59486Y40187D01*
X59487Y40187D01*
X59489Y40189D01*
X59491Y40192D01*
X59493Y40196D01*
X59496Y40200D01*
X59498Y40206D01*
X59500Y40213D01*
X59500Y40221D01*
Y40222D01*
Y40224D01*
X59500Y40227D01*
X59499Y40231D01*
X59498Y40235D01*
X59497Y40240D01*
X59495Y40244D01*
X59492Y40249D01*
X59492Y40249D01*
X59491Y40251D01*
X59489Y40253D01*
X59486Y40255D01*
X59483Y40257D01*
X59480Y40260D01*
X59475Y40262D01*
X59471Y40264D01*
X59470D01*
X59469Y40264D01*
X59467Y40265D01*
X59464Y40265D01*
X59459Y40265D01*
X59454Y40266D01*
X59447Y40266D01*
D02*
G37*
G36*
X54522Y42381D02*
X54519D01*
X54516Y42381D01*
X54513Y42380D01*
X54509Y42380D01*
X54505Y42379D01*
X54501Y42378D01*
X54490Y42375D01*
X54485Y42373D01*
X54480Y42370D01*
X54475Y42367D01*
X54469Y42364D01*
X54464Y42360D01*
X54460Y42355D01*
X54459Y42355D01*
X54458Y42354D01*
X54457Y42352D01*
X54456Y42350D01*
X54454Y42348D01*
X54452Y42344D01*
X54450Y42340D01*
X54448Y42336D01*
X54445Y42331D01*
X54443Y42325D01*
X54441Y42318D01*
X54439Y42312D01*
X54437Y42304D01*
X54436Y42296D01*
X54435Y42287D01*
X54435Y42278D01*
Y42278D01*
Y42276D01*
Y42273D01*
X54435Y42270D01*
X54436Y42265D01*
X54436Y42261D01*
X54437Y42255D01*
X54438Y42249D01*
X54441Y42237D01*
X54443Y42231D01*
X54446Y42224D01*
X54448Y42218D01*
X54451Y42212D01*
X54455Y42206D01*
X54460Y42201D01*
X54460Y42201D01*
X54461Y42200D01*
X54462Y42199D01*
X54464Y42197D01*
X54467Y42195D01*
X54469Y42193D01*
X54473Y42190D01*
X54477Y42188D01*
X54481Y42185D01*
X54486Y42183D01*
X54491Y42181D01*
X54497Y42179D01*
X54503Y42177D01*
X54509Y42176D01*
X54515Y42175D01*
X54522Y42175D01*
X54526D01*
X54529Y42175D01*
X54533Y42175D01*
X54538Y42176D01*
X54544Y42177D01*
X54551Y42179D01*
X54556Y42181D01*
X54556Y42182D01*
X54554Y42183D01*
X54551Y42185D01*
X54546Y42187D01*
X54542Y42189D01*
X54536Y42192D01*
X54530Y42194D01*
X54523Y42196D01*
X54531Y42221D01*
X54532D01*
X54533Y42220D01*
X54534Y42220D01*
X54536Y42219D01*
X54539Y42218D01*
X54542Y42217D01*
X54549Y42214D01*
X54556Y42211D01*
X54564Y42207D01*
X54572Y42202D01*
X54579Y42196D01*
X54580Y42196D01*
X54581Y42197D01*
X54582Y42199D01*
X54584Y42201D01*
X54586Y42204D01*
X54589Y42208D01*
X54591Y42212D01*
X54595Y42217D01*
X54597Y42222D01*
X54600Y42228D01*
X54602Y42235D01*
X54605Y42242D01*
X54607Y42250D01*
X54608Y42259D01*
X54609Y42268D01*
X54609Y42278D01*
Y42278D01*
Y42279D01*
Y42281D01*
Y42283D01*
X54609Y42286D01*
Y42289D01*
X54608Y42296D01*
X54607Y42305D01*
X54605Y42314D01*
X54602Y42323D01*
X54599Y42332D01*
Y42333D01*
X54599Y42333D01*
X54598Y42334D01*
X54597Y42336D01*
X54595Y42340D01*
X54591Y42345D01*
X54587Y42351D01*
X54581Y42357D01*
X54575Y42363D01*
X54568Y42368D01*
X54568D01*
X54567Y42369D01*
X54566Y42370D01*
X54565Y42370D01*
X54560Y42372D01*
X54555Y42375D01*
X54548Y42377D01*
X54540Y42379D01*
X54532Y42381D01*
X54522Y42381D01*
D02*
G37*
G36*
X56214Y38120D02*
X56211D01*
X56208Y38119D01*
X56203Y38118D01*
X56199Y38117D01*
X56194Y38114D01*
X56189Y38111D01*
X56184Y38106D01*
X56184Y38106D01*
X56182Y38104D01*
X56180Y38101D01*
X56178Y38096D01*
X56176Y38090D01*
X56174Y38083D01*
X56173Y38075D01*
X56172Y38065D01*
Y37984D01*
X56257D01*
Y38056D01*
Y38057D01*
Y38058D01*
Y38059D01*
Y38060D01*
X56256Y38065D01*
X56256Y38070D01*
X56256Y38076D01*
X56255Y38082D01*
X56254Y38088D01*
X56252Y38093D01*
X56252Y38094D01*
X56251Y38095D01*
X56250Y38097D01*
X56249Y38100D01*
X56246Y38103D01*
X56244Y38107D01*
X56240Y38110D01*
X56237Y38113D01*
X56237Y38113D01*
X56235Y38114D01*
X56233Y38115D01*
X56230Y38116D01*
X56227Y38117D01*
X56223Y38118D01*
X56219Y38119D01*
X56214Y38120D01*
D02*
G37*
G36*
X52265Y41678D02*
X52184D01*
Y41593D01*
X52260D01*
X52265Y41594D01*
X52270Y41594D01*
X52276Y41594D01*
X52282Y41595D01*
X52288Y41596D01*
X52293Y41598D01*
X52294Y41598D01*
X52295Y41599D01*
X52297Y41600D01*
X52300Y41601D01*
X52303Y41604D01*
X52307Y41606D01*
X52310Y41610D01*
X52313Y41613D01*
X52313Y41613D01*
X52314Y41615D01*
X52315Y41617D01*
X52316Y41620D01*
X52317Y41623D01*
X52318Y41627D01*
X52319Y41631D01*
X52320Y41636D01*
Y41636D01*
Y41637D01*
Y41639D01*
X52319Y41642D01*
X52318Y41647D01*
X52317Y41651D01*
X52314Y41656D01*
X52311Y41661D01*
X52306Y41666D01*
X52306Y41666D01*
X52304Y41668D01*
X52301Y41670D01*
X52296Y41672D01*
X52290Y41674D01*
X52283Y41676D01*
X52275Y41677D01*
X52265Y41678D01*
D02*
G37*
G36*
X52237Y41026D02*
X52184D01*
Y40830D01*
X52242D01*
X52247Y40830D01*
X52253Y40831D01*
X52259Y40831D01*
X52265Y40832D01*
X52272Y40833D01*
X52278Y40835D01*
X52278Y40835D01*
X52280Y40835D01*
X52283Y40837D01*
X52286Y40838D01*
X52290Y40840D01*
X52294Y40842D01*
X52297Y40845D01*
X52301Y40848D01*
X52301Y40848D01*
X52302Y40850D01*
X52305Y40853D01*
X52308Y40857D01*
X52310Y40861D01*
X52313Y40867D01*
X52317Y40873D01*
X52319Y40880D01*
Y40881D01*
X52320Y40881D01*
X52320Y40882D01*
X52320Y40884D01*
X52321Y40886D01*
X52322Y40888D01*
X52323Y40894D01*
X52324Y40901D01*
X52325Y40910D01*
X52326Y40919D01*
X52326Y40930D01*
Y40930D01*
Y40932D01*
Y40934D01*
Y40936D01*
X52326Y40940D01*
X52326Y40944D01*
X52325Y40948D01*
X52325Y40952D01*
X52323Y40963D01*
X52321Y40973D01*
X52317Y40983D01*
X52315Y40987D01*
X52313Y40991D01*
Y40992D01*
X52312Y40992D01*
X52312Y40993D01*
X52311Y40995D01*
X52308Y40999D01*
X52304Y41003D01*
X52299Y41008D01*
X52294Y41013D01*
X52288Y41017D01*
X52281Y41021D01*
X52280Y41021D01*
X52278Y41022D01*
X52275Y41022D01*
X52271Y41023D01*
X52264Y41025D01*
X52257Y41025D01*
X52248Y41026D01*
X52237Y41026D01*
D02*
G37*
G36*
X55065Y35878D02*
X54984D01*
Y35793D01*
X55060D01*
X55065Y35794D01*
X55070Y35794D01*
X55076Y35794D01*
X55082Y35795D01*
X55088Y35796D01*
X55093Y35798D01*
X55094Y35798D01*
X55095Y35799D01*
X55097Y35800D01*
X55100Y35801D01*
X55103Y35804D01*
X55107Y35806D01*
X55110Y35810D01*
X55113Y35813D01*
X55113Y35813D01*
X55114Y35815D01*
X55115Y35817D01*
X55116Y35820D01*
X55117Y35823D01*
X55118Y35827D01*
X55119Y35831D01*
X55120Y35836D01*
Y35836D01*
Y35837D01*
Y35839D01*
X55119Y35842D01*
X55118Y35847D01*
X55117Y35851D01*
X55114Y35856D01*
X55111Y35861D01*
X55106Y35866D01*
X55106Y35866D01*
X55104Y35868D01*
X55101Y35870D01*
X55096Y35872D01*
X55090Y35874D01*
X55083Y35876D01*
X55075Y35877D01*
X55065Y35878D01*
D02*
G37*
G36*
X52407Y39476D02*
X52334D01*
Y39385D01*
X52403D01*
X52405Y39385D01*
X52408D01*
X52411Y39385D01*
X52418Y39386D01*
X52426Y39388D01*
X52433Y39390D01*
X52440Y39393D01*
X52444Y39395D01*
X52446Y39397D01*
X52447Y39397D01*
X52449Y39399D01*
X52451Y39402D01*
X52453Y39406D01*
X52456Y39410D01*
X52458Y39416D01*
X52460Y39423D01*
X52460Y39431D01*
Y39432D01*
Y39434D01*
X52460Y39437D01*
X52459Y39441D01*
X52458Y39445D01*
X52457Y39450D01*
X52455Y39454D01*
X52452Y39459D01*
X52452Y39459D01*
X52451Y39461D01*
X52449Y39463D01*
X52446Y39465D01*
X52443Y39467D01*
X52440Y39470D01*
X52435Y39472D01*
X52431Y39474D01*
X52430D01*
X52429Y39474D01*
X52427Y39475D01*
X52424Y39475D01*
X52419Y39475D01*
X52414Y39476D01*
X52407Y39476D01*
D02*
G37*
%LPD*%
D21*
X56231Y40186D02*
G03*
X56231Y40186I-49J0D01*
G01*
D22*
X56241Y42080D02*
G03*
X56241Y40520I-591J-780D01*
G01*
X56241D02*
Y42080D01*
X52800Y36400D02*
Y39400D01*
Y36400D02*
X53800D01*
Y39400D01*
X52800D02*
X53800D01*
X56300Y37100D02*
X56600D01*
Y39100D01*
X56000D02*
X56600D01*
X56000Y37100D02*
Y39100D01*
Y37100D02*
X56300D01*
Y39100D02*
Y39190D01*
Y37010D02*
Y37100D01*
D23*
X62329Y33361D02*
Y34119D01*
X59337Y33361D02*
X62329D01*
X59337D02*
Y39729D01*
X62319D01*
X62339Y39709D01*
Y39099D02*
Y39709D01*
Y39099D02*
X62358Y39080D01*
X62348Y37249D02*
Y38046D01*
Y35103D02*
Y35930D01*
X58571Y41315D02*
Y41532D01*
X58561Y40262D02*
Y40518D01*
X58463Y40400D02*
X58669D01*
X57321Y33520D02*
X57469Y33372D01*
X57321Y33520D02*
Y42398D01*
X57469Y33372D02*
X58797D01*
X58807Y33382D01*
Y42428D01*
X57193D02*
X58807D01*
X57183Y42418D02*
X57193Y42428D01*
X57183Y33599D02*
Y42418D01*
Y33599D02*
X57409Y33372D01*
M02*
