%FSLAX25Y25*%
%MOIN*%
G70*
G01*
G75*
G04 Layer_Physical_Order=1*
G04 Layer_Color=255*
%ADD10R,0.03937X0.03937*%
G04:AMPARAMS|DCode=11|XSize=83mil|YSize=55mil|CornerRadius=13.75mil|HoleSize=0mil|Usage=FLASHONLY|Rotation=90.000|XOffset=0mil|YOffset=0mil|HoleType=Round|Shape=RoundedRectangle|*
%AMROUNDEDRECTD11*
21,1,0.08300,0.02750,0,0,90.0*
21,1,0.05550,0.05500,0,0,90.0*
1,1,0.02750,0.01375,0.02775*
1,1,0.02750,0.01375,-0.02775*
1,1,0.02750,-0.01375,-0.02775*
1,1,0.02750,-0.01375,0.02775*
%
%ADD11ROUNDEDRECTD11*%
%ADD12R,0.03150X0.05118*%
%ADD13R,0.05118X0.03150*%
%ADD14R,0.03740X0.03937*%
%ADD15R,0.03937X0.03740*%
%ADD16R,0.03937X0.03937*%
%ADD17C,0.01500*%
%ADD18C,0.02000*%
%ADD19R,0.05906X0.05906*%
%ADD20C,0.05906*%
%ADD21C,0.12500*%
%ADD22C,0.05000*%
G36*
X345500Y137000D02*
Y136500D01*
X343000Y134000D01*
X245043D01*
Y134441D01*
X245043D01*
Y137500D01*
X242469D01*
Y138000D01*
X241968D01*
Y141559D01*
X239894D01*
Y141559D01*
X239831D01*
X239477Y141913D01*
Y142256D01*
X239346Y142919D01*
X238970Y143482D01*
X226226Y156226D01*
X225663Y156601D01*
X225000Y156733D01*
X215704D01*
X215282Y157282D01*
X214614Y157795D01*
X213835Y158118D01*
X213000Y158228D01*
X212165Y158118D01*
X211386Y157795D01*
X210718Y157282D01*
X210205Y156614D01*
X209882Y155835D01*
X209772Y155000D01*
X209882Y154165D01*
X210205Y153386D01*
X210718Y152718D01*
X211386Y152205D01*
X212165Y151882D01*
X213000Y151772D01*
X213835Y151882D01*
X214614Y152205D01*
X215282Y152718D01*
X215704Y153267D01*
X224282D01*
X235828Y141721D01*
X235636Y141259D01*
X235469Y141259D01*
X235382D01*
X235295D01*
X235116Y141259D01*
X235116Y141259D01*
Y141259D01*
X230924D01*
X230924Y141259D01*
Y141259D01*
X230745Y141259D01*
X230658D01*
X230570D01*
X230391Y141259D01*
X230391Y141259D01*
Y141259D01*
X226199D01*
X226199Y141259D01*
Y141259D01*
X226021Y141259D01*
X225933D01*
X225846D01*
X225667Y141259D01*
X225667Y141259D01*
Y141259D01*
X221475D01*
X221475Y141259D01*
Y141259D01*
X221296Y141259D01*
X221209D01*
X221121D01*
X220942Y141259D01*
X220942Y141259D01*
Y141259D01*
X216750D01*
X216750Y141259D01*
Y141259D01*
X216572Y141259D01*
X216484D01*
X216397D01*
X216218Y141259D01*
X216218Y141259D01*
Y141259D01*
X212026D01*
X212026Y141259D01*
Y141259D01*
X211847Y141259D01*
X211760D01*
X211672D01*
X211494Y141259D01*
X211494Y141259D01*
Y141259D01*
X207302D01*
X207302Y141259D01*
Y141259D01*
X207123Y141259D01*
X207035D01*
X206948D01*
X206769Y141259D01*
X206769Y141259D01*
Y141259D01*
X202577D01*
X202577Y141259D01*
Y141259D01*
X202398Y141259D01*
X202311D01*
X202224D01*
X202045Y141259D01*
X202045Y141259D01*
Y141259D01*
X197853D01*
X197853Y141259D01*
Y141259D01*
X197674Y141259D01*
X197587D01*
X197499D01*
X197320Y141259D01*
X197320Y141259D01*
Y141259D01*
X193075D01*
Y141559D01*
X191000D01*
Y138000D01*
X190000D01*
Y141559D01*
X189500D01*
Y179796D01*
X189962Y179987D01*
X207274Y162674D01*
X207274Y162674D01*
X207274D01*
X207274Y162674D01*
X207274D01*
X207274Y162674D01*
Y162674D01*
Y162674D01*
D01*
D01*
X207274D01*
Y162674D01*
X207837Y162299D01*
X208500Y162167D01*
X234697D01*
X235118Y161618D01*
X235786Y161105D01*
X236565Y160782D01*
X237400Y160672D01*
X238235Y160782D01*
X239014Y161105D01*
X239682Y161618D01*
X240195Y162286D01*
X240518Y163065D01*
X240628Y163900D01*
X240518Y164735D01*
X240195Y165514D01*
X239682Y166182D01*
X239016Y166693D01*
X239032Y166738D01*
X239209Y167167D01*
X239896D01*
X240318Y166618D01*
X240986Y166105D01*
X241765Y165782D01*
X242600Y165672D01*
X243435Y165782D01*
X244214Y166105D01*
X244882Y166618D01*
X245395Y167286D01*
X245718Y168065D01*
X245828Y168900D01*
X245718Y169735D01*
X245395Y170514D01*
X244882Y171182D01*
X244214Y171695D01*
X243435Y172018D01*
X242600Y172128D01*
X241765Y172018D01*
X240986Y171695D01*
X240318Y171182D01*
X239896Y170633D01*
X222991D01*
X206590Y187035D01*
X206781Y187497D01*
X206948Y187497D01*
X207035D01*
X207123D01*
X207302Y187497D01*
X207302Y187497D01*
Y187497D01*
X211494D01*
X211494Y187497D01*
Y187497D01*
X211672Y187497D01*
X211760D01*
X211847D01*
X212026Y187497D01*
X212026Y187497D01*
Y187497D01*
X212389D01*
Y184100D01*
X212521Y183437D01*
X212896Y182874D01*
X212896Y182874D01*
X212896Y182874D01*
X222535Y173235D01*
X223098Y172860D01*
X223761Y172728D01*
X223761Y172728D01*
X235603D01*
X235918Y172318D01*
X236586Y171805D01*
X237365Y171482D01*
X238200Y171372D01*
X239035Y171482D01*
X239814Y171805D01*
X240482Y172318D01*
X240995Y172986D01*
X241318Y173765D01*
X241428Y174600D01*
X241318Y175435D01*
X240995Y176214D01*
X240482Y176882D01*
X239814Y177395D01*
X239035Y177718D01*
X238200Y177828D01*
X237365Y177718D01*
X236586Y177395D01*
X235918Y176882D01*
X235405Y176214D01*
X235397Y176194D01*
X224479D01*
X215855Y184818D01*
Y187497D01*
X216218D01*
X216218Y187497D01*
Y187497D01*
X216397Y187497D01*
X216484D01*
X216572D01*
X216750Y187497D01*
X216750Y187497D01*
Y187497D01*
X220942D01*
X220942Y187497D01*
Y187497D01*
X221121Y187497D01*
X221209D01*
X221296D01*
X221475Y187497D01*
X221475Y187497D01*
Y187497D01*
X225667D01*
X225667Y187497D01*
Y187497D01*
X225846Y187497D01*
X225933D01*
X226021D01*
X226199Y187497D01*
X226199Y187497D01*
Y187497D01*
X230570D01*
Y187497D01*
X230570D01*
X230570Y187497D01*
X230745D01*
Y187497D01*
X235116D01*
X235116Y187497D01*
Y187497D01*
X235295Y187497D01*
X235382D01*
X235469D01*
X235648Y187497D01*
X235648Y187497D01*
Y187497D01*
X239840D01*
X239840Y187497D01*
Y187497D01*
X240019Y187497D01*
X240106D01*
X240194D01*
X240372Y187497D01*
X240372Y187497D01*
Y187497D01*
X244743D01*
Y190579D01*
X247526Y193362D01*
X248025Y193330D01*
X248418Y192818D01*
X249086Y192305D01*
X249865Y191982D01*
X250074Y191955D01*
X250041Y191456D01*
X248461D01*
Y184938D01*
X253011D01*
Y191456D01*
X251359D01*
X251326Y191955D01*
X251535Y191982D01*
X252314Y192305D01*
X252982Y192818D01*
X253495Y193486D01*
X253818Y194265D01*
X253928Y195100D01*
X253818Y195935D01*
X253495Y196714D01*
X252982Y197382D01*
X252314Y197895D01*
X251535Y198218D01*
X250700Y198328D01*
X249865Y198218D01*
X249086Y197895D01*
X248418Y197382D01*
X247996Y196833D01*
X246813D01*
X246149Y196701D01*
X245587Y196326D01*
X243276Y194015D01*
X240372D01*
X240372Y194015D01*
Y194015D01*
X240194Y194015D01*
X240106D01*
X240019D01*
X239840Y194015D01*
X239840Y194015D01*
Y194015D01*
X239477D01*
Y199326D01*
X239618Y199467D01*
X253482D01*
X258527Y194422D01*
X258518Y194282D01*
X258005Y193614D01*
X257682Y192835D01*
X257572Y192000D01*
X257682Y191165D01*
X258005Y190386D01*
X258518Y189718D01*
X259186Y189205D01*
X259965Y188882D01*
X260800Y188772D01*
X261635Y188882D01*
X262414Y189205D01*
X263082Y189718D01*
X263595Y190386D01*
X263918Y191165D01*
X264028Y192000D01*
X263918Y192835D01*
X263595Y193614D01*
X263082Y194282D01*
X262509Y194722D01*
X262401Y195263D01*
X262026Y195826D01*
X255426Y202426D01*
X254863Y202801D01*
X254200Y202933D01*
X238900D01*
X238237Y202801D01*
X237674Y202426D01*
X236519Y201270D01*
X236143Y200707D01*
X236011Y200044D01*
Y194015D01*
X235648D01*
X235648Y194015D01*
Y194015D01*
X235469Y194015D01*
X235382D01*
X235295D01*
X235116Y194015D01*
X235116Y194015D01*
Y194015D01*
X234753D01*
Y196480D01*
X234621Y197144D01*
X234245Y197706D01*
X232726Y199226D01*
X232163Y199601D01*
X231500Y199733D01*
X229700D01*
X229037Y199601D01*
X228474Y199226D01*
X227070Y197821D01*
X226694Y197259D01*
X226562Y196595D01*
Y194015D01*
X226199D01*
X226199Y194015D01*
Y194015D01*
X226021Y194015D01*
X225933D01*
X225846D01*
X225667Y194015D01*
X225667Y194015D01*
Y194015D01*
X221475D01*
X221475Y194015D01*
Y194015D01*
X221296Y194015D01*
X221209D01*
X221121D01*
X220942Y194015D01*
X220942Y194015D01*
Y194015D01*
X216750D01*
X216750Y194015D01*
Y194015D01*
X216572Y194015D01*
X216484D01*
X216397D01*
X216218Y194015D01*
X216218Y194015D01*
Y194015D01*
X212026D01*
X212026Y194015D01*
Y194015D01*
X211847Y194015D01*
X211760D01*
X211672D01*
X211494Y194015D01*
X211494Y194015D01*
Y194015D01*
X207302D01*
X207302Y194015D01*
Y194015D01*
X207123Y194015D01*
X207035D01*
X206948D01*
X206769Y194015D01*
X206769Y194015D01*
Y194015D01*
X202577D01*
X202577Y194015D01*
Y194015D01*
X202398Y194015D01*
X202311D01*
X202224D01*
X202045Y194015D01*
X202045Y194015D01*
Y194015D01*
X197853D01*
X197853Y194015D01*
Y194015D01*
X197674Y194015D01*
X197587D01*
X197499D01*
X197320Y194015D01*
X197320Y194015D01*
Y194015D01*
X193128D01*
X193128Y194015D01*
Y194015D01*
X192950Y194015D01*
X192862D01*
X192775D01*
X192596Y194015D01*
X192596Y194015D01*
Y194015D01*
X189500D01*
Y201500D01*
X188133D01*
Y220300D01*
X188133Y220300D01*
X188133Y220300D01*
Y220300D01*
X188133D01*
X188133Y220300D01*
X188001Y220963D01*
X187626Y221526D01*
X183933Y225218D01*
Y230593D01*
X184407Y230753D01*
X184818Y230218D01*
X185486Y229705D01*
X186265Y229382D01*
X187100Y229272D01*
X187935Y229382D01*
X188714Y229705D01*
X189382Y230218D01*
X189895Y230886D01*
X190218Y231665D01*
X190328Y232500D01*
X190218Y233335D01*
X189895Y234114D01*
X189382Y234782D01*
X188833Y235204D01*
Y240482D01*
X191318Y242967D01*
X196623D01*
X196768Y242488D01*
X196674Y242426D01*
X195586Y241337D01*
X194900Y241428D01*
X194065Y241318D01*
X193286Y240995D01*
X192618Y240482D01*
X192105Y239814D01*
X191782Y239035D01*
X191672Y238200D01*
X191782Y237365D01*
X192105Y236586D01*
X192618Y235918D01*
X193286Y235405D01*
X194065Y235082D01*
X194900Y234972D01*
X195735Y235082D01*
X196514Y235405D01*
X197182Y235918D01*
X197695Y236586D01*
X198018Y237365D01*
X198128Y238200D01*
X198037Y238886D01*
X198618Y239467D01*
X222982D01*
Y238000D01*
X228919D01*
Y239467D01*
X229581D01*
Y234930D01*
X231067D01*
Y231003D01*
X230518Y230582D01*
X230005Y229914D01*
X229682Y229135D01*
X229572Y228300D01*
X229682Y227465D01*
X230005Y226686D01*
X230518Y226018D01*
X231186Y225505D01*
X231965Y225182D01*
X232800Y225072D01*
X233635Y225182D01*
X234414Y225505D01*
X235082Y226018D01*
X235595Y226686D01*
X235918Y227465D01*
X236028Y228300D01*
X235918Y229135D01*
X235595Y229914D01*
X235082Y230582D01*
X234533Y231003D01*
Y234930D01*
X234918D01*
Y239467D01*
X251082D01*
X262308Y228241D01*
X262308Y228241D01*
X262308D01*
X262308Y228241D01*
X262308D01*
X262308Y228241D01*
Y228241D01*
Y228241D01*
D01*
D01*
X262308D01*
Y228241D01*
X262870Y227865D01*
X263533Y227733D01*
X266883D01*
Y226798D01*
X272220D01*
Y232135D01*
X266883D01*
Y231200D01*
X264251D01*
X253026Y242426D01*
X252932Y242488D01*
X253077Y242967D01*
X267384D01*
Y242032D01*
X272721D01*
Y247369D01*
X267384D01*
Y246433D01*
X190600D01*
X189937Y246301D01*
X189374Y245926D01*
X185874Y242426D01*
X185499Y241863D01*
X185367Y241200D01*
Y235204D01*
X184818Y234782D01*
X184407Y234247D01*
X183933Y234407D01*
Y244782D01*
X185814Y246663D01*
X186500Y246572D01*
X187335Y246682D01*
X188114Y247005D01*
X188782Y247518D01*
X189295Y248186D01*
X189618Y248965D01*
X189728Y249800D01*
X189618Y250635D01*
X189295Y251414D01*
X188782Y252082D01*
X188114Y252595D01*
X187335Y252918D01*
X186500Y253028D01*
X185665Y252918D01*
X184886Y252595D01*
X184218Y252082D01*
X183705Y251414D01*
X183382Y250635D01*
X183272Y249800D01*
X183363Y249114D01*
X180974Y246726D01*
X180599Y246163D01*
X180467Y245500D01*
Y234518D01*
X173682Y227733D01*
X172936D01*
X172891Y227842D01*
X172305Y228605D01*
X171542Y229191D01*
X170654Y229559D01*
X169700Y229684D01*
X168746Y229559D01*
X167858Y229191D01*
X167095Y228605D01*
X166509Y227842D01*
X166141Y226954D01*
X166016Y226000D01*
X166141Y225046D01*
X166509Y224158D01*
X167095Y223395D01*
X167858Y222809D01*
X168746Y222441D01*
X169700Y222316D01*
X170654Y222441D01*
X171542Y222809D01*
X172305Y223395D01*
X172891Y224158D01*
X172936Y224267D01*
X174400D01*
X175063Y224399D01*
X175626Y224774D01*
X180005Y229153D01*
X180467Y228962D01*
Y224500D01*
X180599Y223837D01*
X180974Y223274D01*
X180974Y223274D01*
X180974Y223274D01*
X184667Y219582D01*
Y201500D01*
X177451D01*
X176226Y202726D01*
X175663Y203101D01*
X175000Y203233D01*
X159218D01*
X154733Y207718D01*
Y240582D01*
X158638Y244486D01*
X158746Y244441D01*
X159700Y244316D01*
X160654Y244441D01*
X161542Y244809D01*
X162305Y245395D01*
X162891Y246158D01*
X163259Y247046D01*
X163384Y248000D01*
X163259Y248954D01*
X163214Y249062D01*
X165518Y251367D01*
X166047D01*
Y244347D01*
X173353D01*
Y251367D01*
X179200D01*
X179863Y251499D01*
X180426Y251874D01*
X180426Y251874D01*
X180426Y251874D01*
X182818Y254267D01*
X223000D01*
X223663Y254399D01*
X224226Y254774D01*
X224226Y254774D01*
X224226Y254774D01*
X226214Y256763D01*
X226900Y256672D01*
X227735Y256782D01*
X228514Y257105D01*
X229182Y257618D01*
X229695Y258286D01*
X229734Y258381D01*
X230174Y258674D01*
X234983Y263484D01*
X237868D01*
Y268821D01*
X232531D01*
Y265935D01*
X228954Y262357D01*
X228514Y262695D01*
X227735Y263018D01*
X226900Y263128D01*
X226065Y263018D01*
X225286Y262695D01*
X224618Y262182D01*
X224105Y261514D01*
X223782Y260735D01*
X223672Y259900D01*
X223763Y259214D01*
X222282Y257733D01*
X182100D01*
X181437Y257601D01*
X180874Y257226D01*
X178482Y254833D01*
X172351D01*
X172190Y255307D01*
X172305Y255395D01*
X172891Y256158D01*
X173259Y257046D01*
X173384Y258000D01*
X173259Y258954D01*
X172891Y259842D01*
X172305Y260605D01*
X171542Y261191D01*
X170654Y261559D01*
X169700Y261684D01*
X168746Y261559D01*
X167858Y261191D01*
X167095Y260605D01*
X166509Y259842D01*
X166141Y258954D01*
X166016Y258000D01*
X166141Y257046D01*
X166509Y256158D01*
X167095Y255395D01*
X167210Y255307D01*
X167049Y254833D01*
X164800D01*
X164137Y254701D01*
X163574Y254326D01*
X160762Y251514D01*
X160654Y251559D01*
X159700Y251684D01*
X158746Y251559D01*
X157858Y251191D01*
X157095Y250605D01*
X156509Y249842D01*
X156141Y248954D01*
X156016Y248000D01*
X156141Y247046D01*
X156186Y246938D01*
X151774Y242526D01*
X151399Y241963D01*
X151267Y241300D01*
Y207000D01*
X151399Y206337D01*
X151774Y205774D01*
X151774Y205774D01*
X151774Y205774D01*
X151774Y205774D01*
Y205774D01*
X155587Y201962D01*
X155395Y201500D01*
X148500D01*
Y302500D01*
X345500D01*
Y137000D01*
D02*
G37*
%LPC*%
G36*
X283200Y202228D02*
X282365Y202118D01*
X281586Y201795D01*
X280918Y201282D01*
X280497Y200733D01*
X279917D01*
Y201669D01*
X274580D01*
Y196332D01*
X279917D01*
Y197267D01*
X280497D01*
X280918Y196718D01*
X281586Y196205D01*
X282365Y195882D01*
X283200Y195772D01*
X284035Y195882D01*
X284814Y196205D01*
X285482Y196718D01*
X285995Y197386D01*
X286318Y198165D01*
X286428Y199000D01*
X286318Y199835D01*
X285995Y200614D01*
X285482Y201282D01*
X284814Y201795D01*
X284035Y202118D01*
X283200Y202228D01*
D02*
G37*
G36*
X219018Y200400D02*
X216550D01*
Y198030D01*
X219018D01*
Y200400D01*
D02*
G37*
G36*
X215550Y203770D02*
X213081D01*
Y201400D01*
X215550D01*
Y203770D01*
D02*
G37*
G36*
X328000Y208684D02*
X327046Y208559D01*
X326158Y208191D01*
X325395Y207605D01*
X324809Y206842D01*
X324441Y205954D01*
X324316Y205000D01*
X324441Y204046D01*
X324809Y203158D01*
X325395Y202395D01*
X326158Y201809D01*
X327046Y201441D01*
X328000Y201316D01*
X328954Y201441D01*
X329842Y201809D01*
X330605Y202395D01*
X331191Y203158D01*
X331559Y204046D01*
X331684Y205000D01*
X331559Y205954D01*
X331191Y206842D01*
X330605Y207605D01*
X329842Y208191D01*
X328954Y208559D01*
X328000Y208684D01*
D02*
G37*
G36*
X298000D02*
X297046Y208559D01*
X296158Y208191D01*
X295395Y207605D01*
X294809Y206842D01*
X294441Y205954D01*
X294316Y205000D01*
X294441Y204046D01*
X294809Y203158D01*
X295395Y202395D01*
X296158Y201809D01*
X297046Y201441D01*
X298000Y201316D01*
X298954Y201441D01*
X299842Y201809D01*
X300605Y202395D01*
X301191Y203158D01*
X301559Y204046D01*
X301684Y205000D01*
X301559Y205954D01*
X301191Y206842D01*
X300605Y207605D01*
X299842Y208191D01*
X298954Y208559D01*
X298000Y208684D01*
D02*
G37*
G36*
X301953Y188953D02*
X298500D01*
Y185500D01*
X301953D01*
Y188953D01*
D02*
G37*
G36*
X297500D02*
X294047D01*
Y185500D01*
X297500D01*
Y188953D01*
D02*
G37*
G36*
X327500D02*
X324047D01*
Y185500D01*
X327500D01*
Y188953D01*
D02*
G37*
G36*
X215550Y200400D02*
X213081D01*
Y198030D01*
X215550D01*
Y200400D01*
D02*
G37*
G36*
X331953Y188953D02*
X328500D01*
Y185500D01*
X331953D01*
Y188953D01*
D02*
G37*
G36*
X219018Y203770D02*
X216550D01*
Y201400D01*
X219018D01*
Y203770D01*
D02*
G37*
G36*
X169200Y219921D02*
X168668Y219851D01*
X167707Y219453D01*
X166881Y218819D01*
X166247Y217993D01*
X165849Y217032D01*
X165779Y216500D01*
X169200D01*
Y219921D01*
D02*
G37*
G36*
X159700Y219684D02*
X158746Y219559D01*
X157858Y219191D01*
X157095Y218605D01*
X156509Y217842D01*
X156141Y216954D01*
X156016Y216000D01*
X156141Y215046D01*
X156509Y214158D01*
X157095Y213395D01*
X157858Y212809D01*
X158746Y212441D01*
X159700Y212316D01*
X160654Y212441D01*
X161542Y212809D01*
X162305Y213395D01*
X162891Y214158D01*
X163259Y215046D01*
X163384Y216000D01*
X163259Y216954D01*
X162891Y217842D01*
X162305Y218605D01*
X161542Y219191D01*
X160654Y219559D01*
X159700Y219684D01*
D02*
G37*
G36*
X170200Y219921D02*
Y216500D01*
X173621D01*
X173551Y217032D01*
X173153Y217993D01*
X172519Y218819D01*
X171693Y219453D01*
X170732Y219851D01*
X170200Y219921D01*
D02*
G37*
G36*
X163353Y229653D02*
X156047D01*
Y222347D01*
X163353D01*
Y229653D01*
D02*
G37*
G36*
X243600Y220533D02*
X224400D01*
X223737Y220401D01*
X223174Y220026D01*
X221231Y218082D01*
X221214Y218095D01*
X220435Y218418D01*
X219600Y218528D01*
X218765Y218418D01*
X217986Y218095D01*
X217318Y217582D01*
X216805Y216914D01*
X216482Y216135D01*
X216372Y215300D01*
X216482Y214465D01*
X216805Y213686D01*
X217318Y213018D01*
X217986Y212505D01*
X218765Y212182D01*
X219600Y212072D01*
X220435Y212182D01*
X221214Y212505D01*
X221882Y213018D01*
X222395Y213686D01*
X222718Y214465D01*
X222748Y214697D01*
X225118Y217067D01*
X232630D01*
Y216618D01*
X232630D01*
Y214150D01*
X238370D01*
Y216618D01*
X238370D01*
Y216713D01*
X238724Y217067D01*
X242882D01*
X262174Y197774D01*
X262174Y197774D01*
X262174D01*
X262174Y197774D01*
X262174D01*
X262174Y197774D01*
Y197774D01*
Y197774D01*
D01*
D01*
X262174D01*
Y197774D01*
X262737Y197399D01*
X263400Y197267D01*
X268084D01*
Y196332D01*
X273421D01*
Y201669D01*
X268084D01*
Y200733D01*
X264118D01*
X244826Y220026D01*
X244263Y220401D01*
X243600Y220533D01*
D02*
G37*
G36*
X173621Y215500D02*
X170200D01*
Y212079D01*
X170732Y212149D01*
X171693Y212547D01*
X172519Y213181D01*
X173153Y214007D01*
X173551Y214968D01*
X173621Y215500D01*
D02*
G37*
G36*
X279716Y216902D02*
X274379D01*
Y211565D01*
X279716D01*
Y212500D01*
X280472D01*
X280472Y212500D01*
X280582Y211665D01*
X280905Y210886D01*
X281418Y210218D01*
X282086Y209705D01*
X282865Y209382D01*
X283700Y209272D01*
X284535Y209382D01*
X285314Y209705D01*
X285982Y210218D01*
X286495Y210886D01*
X286818Y211665D01*
X286928Y212500D01*
X286818Y213335D01*
X286495Y214114D01*
X285982Y214782D01*
X285314Y215295D01*
X284535Y215618D01*
X283700Y215728D01*
X282940Y215628D01*
X282630Y215835D01*
X281967Y215967D01*
X279716D01*
Y216902D01*
D02*
G37*
G36*
X208900Y210728D02*
X208065Y210618D01*
X207286Y210295D01*
X206618Y209782D01*
X206105Y209114D01*
X205782Y208335D01*
X205672Y207500D01*
X205782Y206665D01*
X206105Y205886D01*
X206618Y205218D01*
X207286Y204705D01*
X208017Y204402D01*
Y203470D01*
X207082D01*
Y198330D01*
X212419D01*
Y203470D01*
X211484D01*
Y205611D01*
X211603Y205767D01*
X223882D01*
X224963Y204686D01*
X224872Y204000D01*
X224982Y203165D01*
X225305Y202386D01*
X225818Y201718D01*
X226486Y201205D01*
X227265Y200882D01*
X228100Y200772D01*
X228935Y200882D01*
X229714Y201205D01*
X230382Y201718D01*
X230895Y202386D01*
X231218Y203165D01*
X231328Y204000D01*
X231237Y204686D01*
X232168Y205617D01*
X232930D01*
Y204682D01*
X238070D01*
Y210019D01*
X232930D01*
Y209084D01*
X231450D01*
X230787Y208952D01*
X230225Y208576D01*
X228786Y207137D01*
X228100Y207228D01*
X227414Y207137D01*
X225826Y208726D01*
X225263Y209101D01*
X224600Y209233D01*
X211603D01*
X211182Y209782D01*
X210514Y210295D01*
X209735Y210618D01*
X208900Y210728D01*
D02*
G37*
G36*
X235000Y213150D02*
X232630D01*
Y210681D01*
X235000D01*
Y213150D01*
D02*
G37*
G36*
X169200Y215500D02*
X165779D01*
X165849Y214968D01*
X166247Y214007D01*
X166881Y213181D01*
X167707Y212547D01*
X168668Y212149D01*
X169200Y212079D01*
Y215500D01*
D02*
G37*
G36*
X238370Y213150D02*
X236000D01*
Y210681D01*
X238370D01*
Y213150D01*
D02*
G37*
G36*
X331953Y184500D02*
X328500D01*
Y181047D01*
X331953D01*
Y184500D01*
D02*
G37*
G36*
X265000Y167728D02*
X264165Y167618D01*
X263386Y167295D01*
X262718Y166782D01*
X262205Y166114D01*
X261882Y165335D01*
X261772Y164500D01*
X261882Y163665D01*
X262205Y162886D01*
X262718Y162218D01*
X263386Y161705D01*
X264165Y161382D01*
X264167Y161382D01*
Y144600D01*
X264299Y143937D01*
X264674Y143374D01*
X264674Y143374D01*
X264674Y143374D01*
D01*
X264674D01*
Y143374D01*
D01*
X267274Y140774D01*
X267274Y140774D01*
X267650Y140523D01*
X267837Y140399D01*
X268500Y140267D01*
X268500Y140267D01*
X269232D01*
Y139331D01*
X274569D01*
Y144668D01*
X269232D01*
Y144373D01*
X268770Y144182D01*
X267633Y145318D01*
Y162675D01*
X267795Y162886D01*
X268118Y163665D01*
X268228Y164500D01*
X268118Y165335D01*
X267795Y166114D01*
X267282Y166782D01*
X266614Y167295D01*
X265835Y167618D01*
X265000Y167728D01*
D02*
G37*
G36*
X331953Y142000D02*
X328500D01*
Y138547D01*
X331953D01*
Y142000D01*
D02*
G37*
G36*
X297500Y146453D02*
X294047D01*
Y143000D01*
X297500D01*
Y146453D01*
D02*
G37*
G36*
X327500D02*
X324047D01*
Y143000D01*
X327500D01*
Y146453D01*
D02*
G37*
G36*
X301953D02*
X298500D01*
Y143000D01*
X301953D01*
Y146453D01*
D02*
G37*
G36*
X327500Y142000D02*
X324047D01*
Y138547D01*
X327500D01*
Y142000D01*
D02*
G37*
G36*
X253011Y143818D02*
X248461D01*
Y137300D01*
X253011D01*
Y143818D01*
D02*
G37*
G36*
X281065Y144668D02*
X275728D01*
Y139331D01*
X281065D01*
Y140267D01*
X284282D01*
X284863Y139686D01*
X284772Y139000D01*
X284882Y138165D01*
X285205Y137386D01*
X285718Y136718D01*
X286386Y136205D01*
X287165Y135882D01*
X288000Y135772D01*
X288835Y135882D01*
X289614Y136205D01*
X290282Y136718D01*
X290795Y137386D01*
X291118Y138165D01*
X291228Y139000D01*
X291118Y139835D01*
X290795Y140614D01*
X290282Y141282D01*
X289614Y141795D01*
X288835Y142118D01*
X288000Y142228D01*
X287314Y142137D01*
X286226Y143226D01*
X285663Y143601D01*
X285000Y143733D01*
X281065D01*
Y144668D01*
D02*
G37*
G36*
X245043Y141559D02*
X242969D01*
Y138500D01*
X245043D01*
Y141559D01*
D02*
G37*
G36*
X301953Y142000D02*
X298500D01*
Y138547D01*
X301953D01*
Y142000D01*
D02*
G37*
G36*
X297500D02*
X294047D01*
Y138547D01*
X297500D01*
Y142000D01*
D02*
G37*
G36*
X331953Y146453D02*
X328500D01*
Y143000D01*
X331953D01*
Y146453D01*
D02*
G37*
G36*
X256751Y182794D02*
X250233D01*
Y179157D01*
X249933D01*
Y177083D01*
X257051D01*
Y179157D01*
X256751D01*
Y182794D01*
D02*
G37*
G36*
X257051Y176083D02*
X249933D01*
Y174093D01*
X249933Y174093D01*
X249933D01*
X249933Y174008D01*
X250233Y173739D01*
X250233Y173654D01*
X250233Y173654D01*
X250233D01*
Y169369D01*
X250233Y169369D01*
X250233D01*
X250233Y169190D01*
Y169102D01*
Y169015D01*
X250233Y168836D01*
X250233Y168836D01*
X250233D01*
Y164644D01*
X250233Y164644D01*
X250233D01*
X250233Y164465D01*
Y164378D01*
Y164291D01*
X250233Y164112D01*
X250233Y164112D01*
X250233D01*
Y159920D01*
X250233Y159920D01*
X250233D01*
X250233Y159741D01*
Y159653D01*
Y159566D01*
X250233Y159387D01*
X250233Y159387D01*
X250233D01*
Y155102D01*
X250233Y155102D01*
X250233D01*
X250233Y155017D01*
X249933Y154748D01*
X249933Y154663D01*
X249933Y154663D01*
X249933D01*
Y152673D01*
X257051D01*
Y154663D01*
X257051Y154663D01*
D01*
D01*
X257051Y154663D01*
X257051Y154748D01*
X256988Y154805D01*
X256988Y154805D01*
X256802Y154971D01*
X256751Y155017D01*
X256751Y155102D01*
X256751Y155102D01*
X256751D01*
Y159387D01*
X256751Y159387D01*
D01*
D01*
X256751Y159566D01*
Y159588D01*
Y159653D01*
X256751Y159741D01*
D01*
X256751Y159920D01*
X256751Y159920D01*
X256751D01*
Y164112D01*
X256751Y164112D01*
D01*
D01*
X256751Y164291D01*
Y164312D01*
Y164378D01*
X256751Y164465D01*
D01*
X256751Y164644D01*
X256751Y164644D01*
X256751D01*
Y168836D01*
X256751Y168836D01*
D01*
D01*
X256751Y169015D01*
Y169037D01*
Y169102D01*
X256751Y169190D01*
D01*
X256751Y169369D01*
X256751Y169369D01*
X256751D01*
Y173654D01*
D01*
D01*
D01*
X256751Y173654D01*
D01*
X257051Y174008D01*
X257051Y174008D01*
D01*
X257051Y174008D01*
X257051Y174008D01*
X257051Y174093D01*
X257051Y174093D01*
X257051D01*
Y176083D01*
D02*
G37*
G36*
X297500Y184500D02*
X294047D01*
Y181047D01*
X297500D01*
Y184500D01*
D02*
G37*
G36*
X327500D02*
X324047D01*
Y181047D01*
X327500D01*
Y184500D01*
D02*
G37*
G36*
X301953D02*
X298500D01*
Y181047D01*
X301953D01*
Y184500D01*
D02*
G37*
G36*
X328000Y166184D02*
X327046Y166059D01*
X326158Y165691D01*
X325395Y165105D01*
X324809Y164342D01*
X324441Y163454D01*
X324316Y162500D01*
X324441Y161546D01*
X324809Y160658D01*
X325395Y159895D01*
X326158Y159309D01*
X327046Y158941D01*
X328000Y158816D01*
X328954Y158941D01*
X329842Y159309D01*
X330605Y159895D01*
X331191Y160658D01*
X331559Y161546D01*
X331684Y162500D01*
X331559Y163454D01*
X331191Y164342D01*
X330605Y165105D01*
X329842Y165691D01*
X328954Y166059D01*
X328000Y166184D01*
D02*
G37*
G36*
X280565Y154668D02*
X275228D01*
Y149331D01*
X280565D01*
Y150267D01*
X283539D01*
X283772Y150000D01*
X283882Y149165D01*
X284205Y148386D01*
X284718Y147718D01*
X285386Y147205D01*
X286165Y146882D01*
X287000Y146772D01*
X287835Y146882D01*
X288614Y147205D01*
X289282Y147718D01*
X289795Y148386D01*
X290118Y149165D01*
X290228Y150000D01*
X290118Y150835D01*
X289795Y151614D01*
X289282Y152282D01*
X288614Y152795D01*
X287835Y153118D01*
X287000Y153228D01*
X286314Y153137D01*
X286226Y153226D01*
X285663Y153601D01*
X285000Y153733D01*
X280565D01*
Y154668D01*
D02*
G37*
G36*
X257051Y151673D02*
X249933D01*
Y149598D01*
X250233D01*
Y145961D01*
X256751D01*
Y149598D01*
X257051D01*
Y151673D01*
D02*
G37*
G36*
X328000Y156184D02*
X327046Y156059D01*
X326158Y155691D01*
X325395Y155105D01*
X324809Y154342D01*
X324441Y153454D01*
X324316Y152500D01*
X324441Y151546D01*
X324809Y150658D01*
X325395Y149895D01*
X326158Y149309D01*
X327046Y148941D01*
X328000Y148816D01*
X328954Y148941D01*
X329842Y149309D01*
X330605Y149895D01*
X331191Y150658D01*
X331559Y151546D01*
X331684Y152500D01*
X331559Y153454D01*
X331191Y154342D01*
X330605Y155105D01*
X329842Y155691D01*
X328954Y156059D01*
X328000Y156184D01*
D02*
G37*
G36*
X298000Y166184D02*
X297046Y166059D01*
X296158Y165691D01*
X295395Y165105D01*
X294809Y164342D01*
X294441Y163454D01*
X294316Y162500D01*
X294441Y161546D01*
X294809Y160658D01*
X295395Y159895D01*
X296158Y159309D01*
X297046Y158941D01*
X298000Y158816D01*
X298954Y158941D01*
X299842Y159309D01*
X300605Y159895D01*
X301191Y160658D01*
X301559Y161546D01*
X301684Y162500D01*
X301559Y163454D01*
X301191Y164342D01*
X300605Y165105D01*
X299842Y165691D01*
X298954Y166059D01*
X298000Y166184D01*
D02*
G37*
G36*
X276000Y166328D02*
X275165Y166218D01*
X274386Y165895D01*
X273718Y165382D01*
X273205Y164714D01*
X272882Y163935D01*
X272772Y163100D01*
X272882Y162265D01*
X273205Y161486D01*
X273718Y160818D01*
X273841Y160723D01*
X273873Y160224D01*
X270174Y156526D01*
X269799Y155963D01*
X269667Y155300D01*
Y154668D01*
X268731D01*
Y149331D01*
X274068D01*
Y154668D01*
X273873D01*
X273682Y155130D01*
X277226Y158674D01*
X277226Y158674D01*
X277226Y158674D01*
X277601Y159237D01*
X277733Y159900D01*
Y160397D01*
X278282Y160818D01*
X278795Y161486D01*
X279118Y162265D01*
X279228Y163100D01*
X279118Y163935D01*
X278795Y164714D01*
X278282Y165382D01*
X277614Y165895D01*
X276835Y166218D01*
X276000Y166328D01*
D02*
G37*
G36*
X249600Y224533D02*
X215900D01*
X215237Y224401D01*
X214674Y224026D01*
X213086Y222437D01*
X212400Y222528D01*
X211565Y222418D01*
X210786Y222095D01*
X210118Y221582D01*
X209605Y220914D01*
X209282Y220135D01*
X209172Y219300D01*
X209282Y218465D01*
X209605Y217686D01*
X210118Y217018D01*
X210786Y216505D01*
X211565Y216182D01*
X212400Y216072D01*
X213235Y216182D01*
X214014Y216505D01*
X214682Y217018D01*
X215195Y217686D01*
X215518Y218465D01*
X215628Y219300D01*
X215537Y219986D01*
X216618Y221067D01*
X248882D01*
X257174Y212774D01*
X257174Y212774D01*
X257174D01*
X257174Y212774D01*
X257174D01*
X257174Y212774D01*
Y212774D01*
Y212774D01*
D01*
D01*
X257174D01*
Y212774D01*
X257737Y212399D01*
X258400Y212267D01*
X267883D01*
Y211565D01*
X273220D01*
Y216902D01*
X267883D01*
Y215733D01*
X259118D01*
X250826Y224026D01*
X250263Y224401D01*
X249600Y224533D01*
D02*
G37*
G36*
X159200Y271921D02*
X158668Y271851D01*
X157707Y271453D01*
X156881Y270819D01*
X156247Y269993D01*
X155849Y269032D01*
X155779Y268500D01*
X159200D01*
Y271921D01*
D02*
G37*
G36*
X274770Y270819D02*
X272400D01*
Y268350D01*
X274770D01*
Y270819D01*
D02*
G37*
G36*
X160200Y271921D02*
Y268500D01*
X163621D01*
X163551Y269032D01*
X163153Y269993D01*
X162519Y270819D01*
X161693Y271453D01*
X160732Y271851D01*
X160200Y271921D01*
D02*
G37*
G36*
X301953Y273453D02*
X298500D01*
Y270000D01*
X301953D01*
Y273453D01*
D02*
G37*
G36*
X297500D02*
X294047D01*
Y270000D01*
X297500D01*
Y273453D01*
D02*
G37*
G36*
X271400Y270819D02*
X269030D01*
Y268350D01*
X271400D01*
Y270819D01*
D02*
G37*
G36*
X297500Y269000D02*
X294047D01*
Y265547D01*
X297500D01*
Y269000D01*
D02*
G37*
G36*
X274770Y267350D02*
X272400D01*
Y264882D01*
X274770D01*
Y267350D01*
D02*
G37*
G36*
X301953Y269000D02*
X298500D01*
Y265547D01*
X301953D01*
Y269000D01*
D02*
G37*
G36*
X331953D02*
X328500D01*
Y265547D01*
X331953D01*
Y269000D01*
D02*
G37*
G36*
X327500D02*
X324047D01*
Y265547D01*
X327500D01*
Y269000D01*
D02*
G37*
G36*
Y273453D02*
X324047D01*
Y270000D01*
X327500D01*
Y273453D01*
D02*
G37*
G36*
X158500Y300484D02*
X157138Y300349D01*
X155827Y299952D01*
X154620Y299307D01*
X153562Y298438D01*
X152693Y297380D01*
X152048Y296172D01*
X151651Y294862D01*
X151516Y293500D01*
X151651Y292138D01*
X152048Y290827D01*
X152693Y289620D01*
X153562Y288562D01*
X154620Y287693D01*
X155827Y287048D01*
X157138Y286651D01*
X158500Y286516D01*
X159862Y286651D01*
X161172Y287048D01*
X162380Y287693D01*
X163438Y288562D01*
X164307Y289620D01*
X164952Y290827D01*
X165349Y292138D01*
X165484Y293500D01*
X165349Y294862D01*
X164952Y296172D01*
X164307Y297380D01*
X163438Y298438D01*
X162380Y299307D01*
X161172Y299952D01*
X159862Y300349D01*
X158500Y300484D01*
D02*
G37*
G36*
X328000Y293184D02*
X327046Y293059D01*
X326158Y292691D01*
X325395Y292105D01*
X324809Y291342D01*
X324441Y290454D01*
X324316Y289500D01*
X324441Y288546D01*
X324809Y287658D01*
X325395Y286895D01*
X326158Y286309D01*
X327046Y285941D01*
X328000Y285816D01*
X328954Y285941D01*
X329842Y286309D01*
X330605Y286895D01*
X331191Y287658D01*
X331559Y288546D01*
X331684Y289500D01*
X331559Y290454D01*
X331191Y291342D01*
X330605Y292105D01*
X329842Y292691D01*
X328954Y293059D01*
X328000Y293184D01*
D02*
G37*
G36*
X204500Y300484D02*
X203138Y300349D01*
X201828Y299952D01*
X200620Y299307D01*
X199562Y298438D01*
X198693Y297380D01*
X198048Y296172D01*
X197651Y294862D01*
X197516Y293500D01*
X197651Y292138D01*
X198048Y290827D01*
X198693Y289620D01*
X199562Y288562D01*
X200620Y287693D01*
X201828Y287048D01*
X203138Y286651D01*
X204500Y286516D01*
X205862Y286651D01*
X207172Y287048D01*
X208380Y287693D01*
X209438Y288562D01*
X210307Y289620D01*
X210952Y290827D01*
X211349Y292138D01*
X211484Y293500D01*
X211349Y294862D01*
X210952Y296172D01*
X210307Y297380D01*
X209438Y298438D01*
X208380Y299307D01*
X207172Y299952D01*
X205862Y300349D01*
X204500Y300484D01*
D02*
G37*
G36*
X246175Y295297D02*
X245300D01*
Y290600D01*
X248597D01*
Y292875D01*
X248412Y293802D01*
X247887Y294587D01*
X247102Y295112D01*
X246175Y295297D01*
D02*
G37*
G36*
X244300D02*
X243425D01*
X242498Y295112D01*
X241713Y294587D01*
X241188Y293802D01*
X241003Y292875D01*
Y290600D01*
X244300D01*
Y295297D01*
D02*
G37*
G36*
X298000Y293184D02*
X297046Y293059D01*
X296158Y292691D01*
X295395Y292105D01*
X294809Y291342D01*
X294441Y290454D01*
X294316Y289500D01*
X294441Y288546D01*
X294809Y287658D01*
X295395Y286895D01*
X296158Y286309D01*
X297046Y285941D01*
X298000Y285816D01*
X298954Y285941D01*
X299842Y286309D01*
X300605Y286895D01*
X301191Y287658D01*
X301559Y288546D01*
X301684Y289500D01*
X301559Y290454D01*
X301191Y291342D01*
X300605Y292105D01*
X299842Y292691D01*
X298954Y293059D01*
X298000Y293184D01*
D02*
G37*
G36*
X263875Y294991D02*
X261125D01*
X260315Y294830D01*
X259629Y294371D01*
X259170Y293685D01*
X259009Y292875D01*
Y287325D01*
X259170Y286515D01*
X259629Y285829D01*
X260315Y285370D01*
X260767Y285281D01*
Y273738D01*
X260305Y273547D01*
X259978Y273874D01*
X259415Y274249D01*
X258752Y274381D01*
X237868D01*
Y275317D01*
X232531D01*
Y269980D01*
X237868D01*
Y270915D01*
X258034D01*
X260767Y268182D01*
Y259119D01*
X260315Y259030D01*
X259629Y258571D01*
X259170Y257885D01*
X259009Y257075D01*
Y256033D01*
X258000D01*
X257337Y255901D01*
X256774Y255526D01*
X254886Y253637D01*
X254200Y253728D01*
X253365Y253618D01*
X252586Y253295D01*
X251918Y252782D01*
X251405Y252114D01*
X251082Y251335D01*
X250972Y250500D01*
X251082Y249665D01*
X251405Y248886D01*
X251918Y248218D01*
X252586Y247705D01*
X253365Y247382D01*
X254200Y247272D01*
X255035Y247382D01*
X255814Y247705D01*
X256482Y248218D01*
X256995Y248886D01*
X257318Y249665D01*
X257428Y250500D01*
X257337Y251186D01*
X258547Y252396D01*
X259009Y252205D01*
Y251525D01*
X259170Y250715D01*
X259629Y250029D01*
X260315Y249570D01*
X261125Y249409D01*
X263875D01*
X264685Y249570D01*
X265371Y250029D01*
X265830Y250715D01*
X265991Y251525D01*
Y257075D01*
X265830Y257885D01*
X265371Y258571D01*
X264685Y259030D01*
X264233Y259119D01*
Y268182D01*
X268468Y272416D01*
X269330D01*
Y271481D01*
X274470D01*
Y276818D01*
X269330D01*
Y275883D01*
X267750D01*
X267086Y275751D01*
X266524Y275375D01*
X264695Y273547D01*
X264233Y273738D01*
Y285281D01*
X264685Y285370D01*
X265371Y285829D01*
X265830Y286515D01*
X265991Y287325D01*
Y292875D01*
X265830Y293685D01*
X265371Y294371D01*
X264685Y294830D01*
X263875Y294991D01*
D02*
G37*
G36*
X331953Y273453D02*
X328500D01*
Y270000D01*
X331953D01*
Y273453D01*
D02*
G37*
G36*
X279500Y286028D02*
X278665Y285918D01*
X277886Y285595D01*
X277218Y285082D01*
X276705Y284414D01*
X276382Y283635D01*
X276272Y282800D01*
X276382Y281965D01*
X276705Y281186D01*
X277218Y280518D01*
X277886Y280005D01*
X278665Y279682D01*
X279500Y279572D01*
X280186Y279663D01*
X281574Y278274D01*
X281574Y278274D01*
X282137Y277899D01*
X282800Y277767D01*
X284982D01*
X286867Y275882D01*
Y238900D01*
Y219000D01*
X286999Y218337D01*
X287374Y217774D01*
X287374Y217774D01*
X287374Y217774D01*
D01*
X287374D01*
Y217774D01*
D01*
X289467Y215682D01*
Y200000D01*
Y159300D01*
X289599Y158637D01*
X289974Y158074D01*
X289974Y158074D01*
X289974Y158074D01*
X294486Y153562D01*
X294441Y153454D01*
X294316Y152500D01*
X294441Y151546D01*
X294809Y150658D01*
X295395Y149895D01*
X296158Y149309D01*
X297046Y148941D01*
X298000Y148816D01*
X298954Y148941D01*
X299842Y149309D01*
X300605Y149895D01*
X301191Y150658D01*
X301559Y151546D01*
X301684Y152500D01*
X301559Y153454D01*
X301191Y154342D01*
X300605Y155105D01*
X299842Y155691D01*
X298954Y156059D01*
X298000Y156184D01*
X297046Y156059D01*
X296938Y156014D01*
X292933Y160018D01*
Y195162D01*
X293395Y195353D01*
X294402Y194347D01*
X294441Y194046D01*
X294809Y193158D01*
X295395Y192395D01*
X296158Y191809D01*
X297046Y191441D01*
X298000Y191316D01*
X298954Y191441D01*
X299842Y191809D01*
X300605Y192395D01*
X301191Y193158D01*
X301236Y193267D01*
X324764D01*
X324809Y193158D01*
X325395Y192395D01*
X326158Y191809D01*
X327046Y191441D01*
X328000Y191316D01*
X328954Y191441D01*
X329842Y191809D01*
X330605Y192395D01*
X331191Y193158D01*
X331559Y194046D01*
X331684Y195000D01*
X331559Y195954D01*
X331191Y196842D01*
X330605Y197605D01*
X329842Y198191D01*
X328954Y198559D01*
X328000Y198684D01*
X327046Y198559D01*
X326158Y198191D01*
X325395Y197605D01*
X324809Y196842D01*
X324764Y196733D01*
X301236D01*
X301191Y196842D01*
X300605Y197605D01*
X299842Y198191D01*
X298954Y198559D01*
X298000Y198684D01*
X297046Y198559D01*
X296158Y198191D01*
X295763Y197888D01*
X292933Y200718D01*
Y216400D01*
X292933Y216400D01*
X292801Y217063D01*
X292677Y217250D01*
X292426Y217626D01*
X292426Y217626D01*
X290333Y219718D01*
Y235130D01*
X290500Y235267D01*
X290500Y235267D01*
X294764D01*
X294809Y235158D01*
X295395Y234395D01*
X296158Y233809D01*
X297046Y233441D01*
X298000Y233316D01*
X298954Y233441D01*
X299842Y233809D01*
X300605Y234395D01*
X301191Y235158D01*
X301236Y235267D01*
X324764D01*
X324809Y235158D01*
X325395Y234395D01*
X326158Y233809D01*
X327046Y233441D01*
X328000Y233316D01*
X328954Y233441D01*
X329842Y233809D01*
X330605Y234395D01*
X331191Y235158D01*
X331559Y236046D01*
X331684Y237000D01*
X331559Y237954D01*
X331191Y238842D01*
X330605Y239605D01*
X329842Y240191D01*
X328954Y240559D01*
X328000Y240684D01*
X327046Y240559D01*
X326158Y240191D01*
X325395Y239605D01*
X324809Y238842D01*
X324764Y238733D01*
X301236D01*
X301191Y238842D01*
X300605Y239605D01*
X299842Y240191D01*
X298954Y240559D01*
X298000Y240684D01*
X297046Y240559D01*
X296158Y240191D01*
X295395Y239605D01*
X294809Y238842D01*
X294764Y238733D01*
X291218D01*
X290333Y239618D01*
Y276600D01*
X290201Y277263D01*
X290160Y277326D01*
X290395Y277767D01*
X294764D01*
X294809Y277658D01*
X295395Y276895D01*
X296158Y276309D01*
X297046Y275941D01*
X298000Y275816D01*
X298954Y275941D01*
X299842Y276309D01*
X300605Y276895D01*
X301191Y277658D01*
X301236Y277767D01*
X324764D01*
X324809Y277658D01*
X325395Y276895D01*
X326158Y276309D01*
X327046Y275941D01*
X328000Y275816D01*
X328954Y275941D01*
X329842Y276309D01*
X330605Y276895D01*
X331191Y277658D01*
X331559Y278546D01*
X331684Y279500D01*
X331559Y280454D01*
X331191Y281342D01*
X330605Y282105D01*
X329842Y282691D01*
X328954Y283059D01*
X328000Y283184D01*
X327046Y283059D01*
X326158Y282691D01*
X325395Y282105D01*
X324809Y281342D01*
X324764Y281233D01*
X301236D01*
X301191Y281342D01*
X300605Y282105D01*
X299842Y282691D01*
X298954Y283059D01*
X298000Y283184D01*
X297046Y283059D01*
X296158Y282691D01*
X295395Y282105D01*
X294809Y281342D01*
X294764Y281233D01*
X283518D01*
X282637Y282114D01*
X282728Y282800D01*
X282618Y283635D01*
X282295Y284414D01*
X281782Y285082D01*
X281114Y285595D01*
X280335Y285918D01*
X279500Y286028D01*
D02*
G37*
G36*
X248597Y289600D02*
X245300D01*
Y284904D01*
X246175D01*
X247102Y285088D01*
X247887Y285613D01*
X248412Y286398D01*
X248597Y287325D01*
Y289600D01*
D02*
G37*
G36*
X244300D02*
X241003D01*
Y287325D01*
X241188Y286398D01*
X241713Y285613D01*
X242498Y285088D01*
X243425Y284904D01*
X244300D01*
Y289600D01*
D02*
G37*
G36*
X331953Y230953D02*
X328500D01*
Y227500D01*
X331953D01*
Y230953D01*
D02*
G37*
G36*
X327500D02*
X324047D01*
Y227500D01*
X327500D01*
Y230953D01*
D02*
G37*
G36*
X282300Y234228D02*
X281465Y234118D01*
X280686Y233795D01*
X280018Y233282D01*
X279505Y232614D01*
X279207Y231895D01*
X278716Y231992D01*
Y232135D01*
X273379D01*
Y226798D01*
X278716D01*
Y227733D01*
X280767D01*
X281430Y227865D01*
X281459Y227885D01*
X281465Y227882D01*
X282300Y227772D01*
X283135Y227882D01*
X283914Y228205D01*
X284582Y228718D01*
X285095Y229386D01*
X285418Y230165D01*
X285528Y231000D01*
X285418Y231835D01*
X285095Y232614D01*
X284582Y233282D01*
X283914Y233795D01*
X283135Y234118D01*
X282300Y234228D01*
D02*
G37*
G36*
X228919Y237000D02*
X226450D01*
Y234630D01*
X228919D01*
Y237000D01*
D02*
G37*
G36*
X225450D02*
X222982D01*
Y234630D01*
X225450D01*
Y237000D01*
D02*
G37*
G36*
X301953Y230953D02*
X298500D01*
Y227500D01*
X301953D01*
Y230953D01*
D02*
G37*
G36*
Y226500D02*
X298500D01*
Y223047D01*
X301953D01*
Y226500D01*
D02*
G37*
G36*
X297500D02*
X294047D01*
Y223047D01*
X297500D01*
Y226500D01*
D02*
G37*
G36*
X327500D02*
X324047D01*
Y223047D01*
X327500D01*
Y226500D01*
D02*
G37*
G36*
X297500Y230953D02*
X294047D01*
Y227500D01*
X297500D01*
Y230953D01*
D02*
G37*
G36*
X331953Y226500D02*
X328500D01*
Y223047D01*
X331953D01*
Y226500D01*
D02*
G37*
G36*
X280500Y260728D02*
X279665Y260618D01*
X278886Y260295D01*
X278218Y259782D01*
X277705Y259114D01*
X277382Y258335D01*
X277272Y257500D01*
X277382Y256665D01*
X277705Y255886D01*
X278218Y255218D01*
X278886Y254705D01*
X279022Y254649D01*
Y249264D01*
X277126Y247369D01*
X273880D01*
Y242032D01*
X279217D01*
Y245278D01*
X281545Y247607D01*
X281866Y248086D01*
X281978Y248652D01*
Y254649D01*
X282114Y254705D01*
X282782Y255218D01*
X283295Y255886D01*
X283618Y256665D01*
X283728Y257500D01*
X283618Y258335D01*
X283295Y259114D01*
X282782Y259782D01*
X282114Y260295D01*
X281335Y260618D01*
X280500Y260728D01*
D02*
G37*
G36*
X159200Y267500D02*
X155779D01*
X155849Y266968D01*
X156247Y266007D01*
X156881Y265181D01*
X157707Y264547D01*
X158668Y264149D01*
X159200Y264079D01*
Y267500D01*
D02*
G37*
G36*
X246175Y259496D02*
X245300D01*
Y254800D01*
X248597D01*
Y257075D01*
X248412Y258002D01*
X247887Y258787D01*
X247102Y259312D01*
X246175Y259496D01*
D02*
G37*
G36*
X163621Y267500D02*
X160200D01*
Y264079D01*
X160732Y264149D01*
X161693Y264547D01*
X162519Y265181D01*
X163153Y266007D01*
X163551Y266968D01*
X163621Y267500D01*
D02*
G37*
G36*
X271400Y267350D02*
X269030D01*
Y264882D01*
X271400D01*
Y267350D01*
D02*
G37*
G36*
X169700Y271684D02*
X168746Y271559D01*
X167858Y271191D01*
X167095Y270605D01*
X166509Y269842D01*
X166141Y268954D01*
X166016Y268000D01*
X166141Y267046D01*
X166509Y266158D01*
X167095Y265395D01*
X167858Y264809D01*
X168746Y264441D01*
X169700Y264316D01*
X170654Y264441D01*
X171542Y264809D01*
X172305Y265395D01*
X172891Y266158D01*
X173259Y267046D01*
X173384Y268000D01*
X173259Y268954D01*
X172891Y269842D01*
X172305Y270605D01*
X171542Y271191D01*
X170654Y271559D01*
X169700Y271684D01*
D02*
G37*
G36*
X244300Y259496D02*
X243425D01*
X242498Y259312D01*
X241713Y258787D01*
X241188Y258002D01*
X241003Y257075D01*
Y254800D01*
X244300D01*
Y259496D01*
D02*
G37*
G36*
X328000Y250684D02*
X327046Y250559D01*
X326158Y250191D01*
X325395Y249605D01*
X324809Y248842D01*
X324441Y247954D01*
X324316Y247000D01*
X324441Y246046D01*
X324809Y245158D01*
X325395Y244395D01*
X326158Y243809D01*
X327046Y243441D01*
X328000Y243316D01*
X328954Y243441D01*
X329842Y243809D01*
X330605Y244395D01*
X331191Y245158D01*
X331559Y246046D01*
X331684Y247000D01*
X331559Y247954D01*
X331191Y248842D01*
X330605Y249605D01*
X329842Y250191D01*
X328954Y250559D01*
X328000Y250684D01*
D02*
G37*
G36*
X298000D02*
X297046Y250559D01*
X296158Y250191D01*
X295395Y249605D01*
X294809Y248842D01*
X294441Y247954D01*
X294316Y247000D01*
X294441Y246046D01*
X294809Y245158D01*
X295395Y244395D01*
X296158Y243809D01*
X297046Y243441D01*
X298000Y243316D01*
X298954Y243441D01*
X299842Y243809D01*
X300605Y244395D01*
X301191Y245158D01*
X301559Y246046D01*
X301684Y247000D01*
X301559Y247954D01*
X301191Y248842D01*
X300605Y249605D01*
X299842Y250191D01*
X298954Y250559D01*
X298000Y250684D01*
D02*
G37*
G36*
X244300Y253800D02*
X241003D01*
Y251525D01*
X241188Y250598D01*
X241713Y249813D01*
X242498Y249288D01*
X243425Y249103D01*
X244300D01*
Y253800D01*
D02*
G37*
G36*
X159700Y261684D02*
X158746Y261559D01*
X157858Y261191D01*
X157095Y260605D01*
X156509Y259842D01*
X156141Y258954D01*
X156016Y258000D01*
X156141Y257046D01*
X156509Y256158D01*
X157095Y255395D01*
X157858Y254809D01*
X158746Y254441D01*
X159700Y254316D01*
X160654Y254441D01*
X161542Y254809D01*
X162305Y255395D01*
X162891Y256158D01*
X163259Y257046D01*
X163384Y258000D01*
X163259Y258954D01*
X162891Y259842D01*
X162305Y260605D01*
X161542Y261191D01*
X160654Y261559D01*
X159700Y261684D01*
D02*
G37*
G36*
X248597Y253800D02*
X245300D01*
Y249103D01*
X246175D01*
X247102Y249288D01*
X247887Y249813D01*
X248412Y250598D01*
X248597Y251525D01*
Y253800D01*
D02*
G37*
%LPD*%
D10*
X277896Y152000D02*
D03*
X271400D02*
D03*
X276548Y244700D02*
D03*
X270052D02*
D03*
X276048Y229467D02*
D03*
X269552D02*
D03*
X277048Y214233D02*
D03*
X270552D02*
D03*
X277248Y199000D02*
D03*
X270752D02*
D03*
X278396Y142000D02*
D03*
X271900D02*
D03*
D11*
X262500Y290100D02*
D03*
X244800D02*
D03*
X262500Y254300D02*
D03*
X244800D02*
D03*
D12*
X190500Y138000D02*
D03*
X195224D02*
D03*
X199949D02*
D03*
X204673D02*
D03*
X209398D02*
D03*
X214122D02*
D03*
X218847D02*
D03*
X223571D02*
D03*
X228295D02*
D03*
X233020D02*
D03*
X237744D02*
D03*
X242469D02*
D03*
Y190756D02*
D03*
X237744D02*
D03*
X233020D02*
D03*
X228295D02*
D03*
X223571D02*
D03*
X218847D02*
D03*
X214122D02*
D03*
X209398D02*
D03*
X204673D02*
D03*
X199949D02*
D03*
X195224D02*
D03*
X190500D02*
D03*
X250736Y140559D02*
D03*
Y188197D02*
D03*
X175933D02*
D03*
Y140559D02*
D03*
D13*
X253492Y148236D02*
D03*
Y152173D02*
D03*
Y157291D02*
D03*
Y162016D02*
D03*
Y166740D02*
D03*
Y171465D02*
D03*
Y176583D02*
D03*
Y180520D02*
D03*
D14*
X271900Y267850D02*
D03*
Y274150D02*
D03*
X235500Y207350D02*
D03*
Y213650D02*
D03*
D15*
X232250Y237500D02*
D03*
X225950D02*
D03*
X209750Y200900D02*
D03*
X216050D02*
D03*
D16*
X235200Y266152D02*
D03*
Y272648D02*
D03*
D17*
X280500Y248652D02*
Y257500D01*
X276548Y244700D02*
X280500Y248652D01*
D18*
X291200Y159300D02*
X298000Y152500D01*
X291200Y159300D02*
Y200000D01*
X153000Y207000D02*
Y241300D01*
X175000Y201500D02*
X181500Y195000D01*
X158500Y201500D02*
X175000D01*
X153000Y207000D02*
X158500Y201500D01*
X153000Y241300D02*
X159700Y248000D01*
X181500Y181000D02*
Y195000D01*
Y181000D02*
X184500Y178000D01*
X213000Y155000D02*
X225000D01*
X237744Y142256D01*
Y138000D02*
Y142256D01*
X278396Y142000D02*
X285000D01*
X288000Y139000D01*
X285000Y152000D02*
X287000Y150000D01*
X277896Y152000D02*
X285000D01*
X182200Y224500D02*
Y233800D01*
X186400Y186000D02*
X208500Y163900D01*
X182200Y224500D02*
X186400Y220300D01*
Y186000D02*
Y220300D01*
X233020Y190756D02*
Y196480D01*
X231500Y198000D02*
X233020Y196480D01*
X229700Y198000D02*
X231500D01*
X228295Y196595D02*
X229700Y198000D01*
X228295Y190756D02*
Y196595D01*
X291200Y200000D02*
X296200Y195000D01*
X291200Y200000D02*
Y216400D01*
X298000Y195000D02*
X328000D01*
X296200D02*
X298000D01*
X288600Y219000D02*
X291200Y216400D01*
X288600Y219000D02*
Y238900D01*
X298000Y237000D02*
X328000D01*
X285700Y279500D02*
X298000D01*
X282800D02*
X285700D01*
X290500Y237000D02*
X298000D01*
X288600Y238900D02*
X290500Y237000D01*
X288600Y238900D02*
Y276600D01*
X285700Y279500D02*
X288600Y276600D01*
X298000Y279500D02*
X328000D01*
X279500Y282800D02*
X282800Y279500D01*
X228948Y259900D02*
X235200Y266152D01*
X226900Y259900D02*
X228948D01*
X223000Y256000D02*
X226900Y259900D01*
X182100Y256000D02*
X223000D01*
X179200Y253100D02*
X182100Y256000D01*
X164800Y253100D02*
X179200D01*
X159700Y248000D02*
X164800Y253100D01*
X208900Y207500D02*
X224600D01*
X228100Y204000D01*
X182200Y245500D02*
X186500Y249800D01*
X182200Y233800D02*
Y245500D01*
X174400Y226000D02*
X182200Y233800D01*
X169700Y226000D02*
X174400D01*
X208500Y163900D02*
X237400D01*
X204673Y186500D02*
X222273Y168900D01*
X242600D01*
X265000Y164500D02*
X265900Y163600D01*
Y144600D02*
Y163600D01*
Y144600D02*
X268500Y142000D01*
X271900D01*
X276000Y159900D02*
Y163100D01*
X271400Y155300D02*
X276000Y159900D01*
X271400Y152000D02*
Y155300D01*
X214122Y184100D02*
X223761Y174461D01*
X238061D01*
X238200Y174600D01*
X254200Y201200D02*
X260800Y194600D01*
Y192000D02*
Y194600D01*
X199949Y180351D02*
X206000Y174300D01*
X199949Y180351D02*
Y190756D01*
X258752Y272648D02*
X262500Y268900D01*
X235200Y272648D02*
X258752D01*
X262500Y268900D02*
Y290100D01*
X267750Y274150D02*
X271900D01*
X262500Y268900D02*
X267750Y274150D01*
X262500Y254300D02*
Y268900D01*
X258000Y254300D02*
X262500D01*
X254200Y250500D02*
X258000Y254300D01*
X204673Y186500D02*
Y190756D01*
X214122Y184100D02*
Y190756D01*
X280767Y229467D02*
X282300Y231000D01*
X276048Y229467D02*
X280767D01*
X277048Y214233D02*
X281967D01*
X283700Y212500D01*
X277248Y199000D02*
X283200D01*
X270319Y214000D02*
X270552Y214233D01*
X258400Y214000D02*
X270319D01*
X249600Y222800D02*
X258400Y214000D01*
X215900Y222800D02*
X249600D01*
X212400Y219300D02*
X215900Y222800D01*
X220900Y215300D02*
X224400Y218800D01*
X219600Y215300D02*
X220900D01*
X263400Y199000D02*
X270752D01*
X243600Y218800D02*
X263400Y199000D01*
X224400Y218800D02*
X243600D01*
X263533Y229467D02*
X269552D01*
X251800Y241200D02*
X263533Y229467D01*
X197900Y241200D02*
X251800D01*
X194900Y238200D02*
X197900Y241200D01*
X190600Y244700D02*
X270052D01*
X187100Y241200D02*
X190600Y244700D01*
X187100Y232500D02*
Y241200D01*
X232250Y237500D02*
X232800Y236950D01*
Y228300D02*
Y236950D01*
X231450Y207350D02*
X235500D01*
X228100Y204000D02*
X231450Y207350D01*
X209750Y200900D02*
Y206650D01*
X208900Y207500D02*
X209750Y206650D01*
X242469Y190756D02*
X246813Y195100D01*
X250700D01*
X238900Y201200D02*
X254200D01*
X237744Y200044D02*
X238900Y201200D01*
X237744Y190756D02*
Y200044D01*
D19*
X169700Y248000D02*
D03*
X159700Y226000D02*
D03*
X298000Y269500D02*
D03*
Y185000D02*
D03*
X328000Y269500D02*
D03*
Y185000D02*
D03*
X298000Y227000D02*
D03*
Y142500D02*
D03*
X328000Y227000D02*
D03*
Y142500D02*
D03*
D20*
X159700Y248000D02*
D03*
X169700Y258000D02*
D03*
X159700D02*
D03*
X169700Y268000D02*
D03*
X159700D02*
D03*
X169700Y216000D02*
D03*
X159700D02*
D03*
X169700Y226000D02*
D03*
X298000Y289500D02*
D03*
Y279500D02*
D03*
Y205000D02*
D03*
Y195000D02*
D03*
X328000Y289500D02*
D03*
Y279500D02*
D03*
Y205000D02*
D03*
Y195000D02*
D03*
X298000Y247000D02*
D03*
Y237000D02*
D03*
Y162500D02*
D03*
Y152500D02*
D03*
X328000Y247000D02*
D03*
Y237000D02*
D03*
Y162500D02*
D03*
Y152500D02*
D03*
D21*
X204500Y293500D02*
D03*
X158500D02*
D03*
D22*
X280500Y257500D02*
D03*
X184500Y178000D02*
D03*
X213000Y155000D02*
D03*
X288000Y139000D02*
D03*
X287000Y150000D02*
D03*
X279500Y282800D02*
D03*
X226900Y259900D02*
D03*
X186500Y249800D02*
D03*
X237400Y163900D02*
D03*
X242600Y168900D02*
D03*
X265000Y164500D02*
D03*
X276000Y163100D02*
D03*
X238200Y174600D02*
D03*
X260800Y192000D02*
D03*
X206000Y174300D02*
D03*
X254200Y250500D02*
D03*
X282300Y231000D02*
D03*
X283700Y212500D02*
D03*
X283200Y199000D02*
D03*
X212400Y219300D02*
D03*
X219600Y215300D02*
D03*
X194900Y238200D02*
D03*
X187100Y232500D02*
D03*
X232800Y228300D02*
D03*
X228100Y204000D02*
D03*
X208900Y207500D02*
D03*
X250700Y195100D02*
D03*
M02*
