%FSLAX25Y25*%
%MOIN*%
G70*
G01*
G75*
G04 Layer_Color=8388736*
%ADD10R,0.03937X0.03937*%
G04:AMPARAMS|DCode=11|XSize=83mil|YSize=55mil|CornerRadius=13.75mil|HoleSize=0mil|Usage=FLASHONLY|Rotation=90.000|XOffset=0mil|YOffset=0mil|HoleType=Round|Shape=RoundedRectangle|*
%AMROUNDEDRECTD11*
21,1,0.08300,0.02750,0,0,90.0*
21,1,0.05550,0.05500,0,0,90.0*
1,1,0.02750,0.01375,0.02775*
1,1,0.02750,0.01375,-0.02775*
1,1,0.02750,-0.01375,-0.02775*
1,1,0.02750,-0.01375,0.02775*
%
%ADD11ROUNDEDRECTD11*%
%ADD12R,0.03150X0.05118*%
%ADD13R,0.05118X0.03150*%
%ADD14R,0.03740X0.03937*%
%ADD15R,0.03937X0.03740*%
%ADD16R,0.03937X0.03937*%
%ADD17C,0.01500*%
%ADD18C,0.02000*%
%ADD19R,0.05906X0.05906*%
%ADD20C,0.05906*%
%ADD21C,0.12500*%
%ADD22C,0.05000*%
%ADD23O,0.08071X0.02362*%
%ADD24O,0.02362X0.08071*%
G04:AMPARAMS|DCode=25|XSize=82.68mil|YSize=62.99mil|CornerRadius=15.75mil|HoleSize=0mil|Usage=FLASHONLY|Rotation=180.000|XOffset=0mil|YOffset=0mil|HoleType=Round|Shape=RoundedRectangle|*
%AMROUNDEDRECTD25*
21,1,0.08268,0.03150,0,0,180.0*
21,1,0.05118,0.06299,0,0,180.0*
1,1,0.03150,-0.02559,0.01575*
1,1,0.03150,0.02559,0.01575*
1,1,0.03150,0.02559,-0.01575*
1,1,0.03150,-0.02559,-0.01575*
%
%ADD25ROUNDEDRECTD25*%
G04:AMPARAMS|DCode=26|XSize=70.87mil|YSize=74.8mil|CornerRadius=17.72mil|HoleSize=0mil|Usage=FLASHONLY|Rotation=180.000|XOffset=0mil|YOffset=0mil|HoleType=Round|Shape=RoundedRectangle|*
%AMROUNDEDRECTD26*
21,1,0.07087,0.03937,0,0,180.0*
21,1,0.03543,0.07480,0,0,180.0*
1,1,0.03543,-0.01772,0.01969*
1,1,0.03543,0.01772,0.01969*
1,1,0.03543,0.01772,-0.01969*
1,1,0.03543,-0.01772,-0.01969*
%
%ADD26ROUNDEDRECTD26*%
G04:AMPARAMS|DCode=27|XSize=15.75mil|YSize=53.15mil|CornerRadius=3.94mil|HoleSize=0mil|Usage=FLASHONLY|Rotation=180.000|XOffset=0mil|YOffset=0mil|HoleType=Round|Shape=RoundedRectangle|*
%AMROUNDEDRECTD27*
21,1,0.01575,0.04528,0,0,180.0*
21,1,0.00787,0.05315,0,0,180.0*
1,1,0.00787,-0.00394,0.02264*
1,1,0.00787,0.00394,0.02264*
1,1,0.00787,0.00394,-0.02264*
1,1,0.00787,-0.00394,-0.02264*
%
%ADD27ROUNDEDRECTD27*%
G04:AMPARAMS|DCode=28|XSize=74.8mil|YSize=74.8mil|CornerRadius=18.7mil|HoleSize=0mil|Usage=FLASHONLY|Rotation=180.000|XOffset=0mil|YOffset=0mil|HoleType=Round|Shape=RoundedRectangle|*
%AMROUNDEDRECTD28*
21,1,0.07480,0.03740,0,0,180.0*
21,1,0.03740,0.07480,0,0,180.0*
1,1,0.03740,-0.01870,0.01870*
1,1,0.03740,0.01870,0.01870*
1,1,0.03740,0.01870,-0.01870*
1,1,0.03740,-0.01870,-0.01870*
%
%ADD28ROUNDEDRECTD28*%
%ADD29R,0.04724X0.07677*%
%ADD30R,0.09449X0.03937*%
%ADD31R,0.09449X0.12992*%
%ADD32C,0.01000*%
%ADD33C,0.00787*%
%ADD34C,0.00100*%
%ADD35R,0.04737X0.04737*%
G04:AMPARAMS|DCode=36|XSize=91mil|YSize=63mil|CornerRadius=17.75mil|HoleSize=0mil|Usage=FLASHONLY|Rotation=90.000|XOffset=0mil|YOffset=0mil|HoleType=Round|Shape=RoundedRectangle|*
%AMROUNDEDRECTD36*
21,1,0.09100,0.02750,0,0,90.0*
21,1,0.05550,0.06300,0,0,90.0*
1,1,0.03550,0.01375,0.02775*
1,1,0.03550,0.01375,-0.02775*
1,1,0.03550,-0.01375,-0.02775*
1,1,0.03550,-0.01375,0.02775*
%
%ADD36ROUNDEDRECTD36*%
%ADD37R,0.03950X0.05918*%
%ADD38R,0.05918X0.03950*%
%ADD39R,0.04540X0.04737*%
%ADD40R,0.04737X0.04540*%
%ADD41R,0.04737X0.04737*%
%ADD42R,0.06706X0.06706*%
%ADD43C,0.06706*%
%ADD44C,0.13300*%
%ADD45C,0.05800*%
D35*
X277896Y152000D02*
D03*
X271400D02*
D03*
X276548Y244700D02*
D03*
X270052D02*
D03*
X276048Y229467D02*
D03*
X269552D02*
D03*
X277048Y214233D02*
D03*
X270552D02*
D03*
X277248Y199000D02*
D03*
X270752D02*
D03*
X278396Y142000D02*
D03*
X271900D02*
D03*
D36*
X262500Y290100D02*
D03*
X244800D02*
D03*
X262500Y254300D02*
D03*
X244800D02*
D03*
D37*
X190500Y138000D02*
D03*
X195224D02*
D03*
X199949D02*
D03*
X204673D02*
D03*
X209398D02*
D03*
X214122D02*
D03*
X218847D02*
D03*
X223571D02*
D03*
X228295D02*
D03*
X233020D02*
D03*
X237744D02*
D03*
X242469D02*
D03*
Y190756D02*
D03*
X237744D02*
D03*
X233020D02*
D03*
X228295D02*
D03*
X223571D02*
D03*
X218847D02*
D03*
X214122D02*
D03*
X209398D02*
D03*
X204673D02*
D03*
X199949D02*
D03*
X195224D02*
D03*
X190500D02*
D03*
X250736Y140559D02*
D03*
Y188197D02*
D03*
X175933D02*
D03*
Y140559D02*
D03*
D38*
X253492Y148236D02*
D03*
Y152173D02*
D03*
Y157291D02*
D03*
Y162016D02*
D03*
Y166740D02*
D03*
Y171465D02*
D03*
Y176583D02*
D03*
Y180520D02*
D03*
D39*
X271900Y267850D02*
D03*
Y274150D02*
D03*
X235500Y207350D02*
D03*
Y213650D02*
D03*
D40*
X232250Y237500D02*
D03*
X225950D02*
D03*
X209750Y200900D02*
D03*
X216050D02*
D03*
D41*
X235200Y266152D02*
D03*
Y272648D02*
D03*
D42*
X169700Y248000D02*
D03*
X159700Y226000D02*
D03*
X298000Y269500D02*
D03*
Y185000D02*
D03*
X328000Y269500D02*
D03*
Y185000D02*
D03*
X298000Y227000D02*
D03*
Y142500D02*
D03*
X328000Y227000D02*
D03*
Y142500D02*
D03*
D43*
X159700Y248000D02*
D03*
X169700Y258000D02*
D03*
X159700D02*
D03*
X169700Y268000D02*
D03*
X159700D02*
D03*
X169700Y216000D02*
D03*
X159700D02*
D03*
X169700Y226000D02*
D03*
X298000Y289500D02*
D03*
Y279500D02*
D03*
Y205000D02*
D03*
Y195000D02*
D03*
X328000Y289500D02*
D03*
Y279500D02*
D03*
Y205000D02*
D03*
Y195000D02*
D03*
X298000Y247000D02*
D03*
Y237000D02*
D03*
Y162500D02*
D03*
Y152500D02*
D03*
X328000Y247000D02*
D03*
Y237000D02*
D03*
Y162500D02*
D03*
Y152500D02*
D03*
D44*
X204500Y293500D02*
D03*
X158500D02*
D03*
D45*
X280500Y257500D02*
D03*
X184500Y178000D02*
D03*
X213000Y155000D02*
D03*
X288000Y139000D02*
D03*
X287000Y150000D02*
D03*
X279500Y282800D02*
D03*
X226900Y259900D02*
D03*
X186500Y249800D02*
D03*
X237400Y163900D02*
D03*
X242600Y168900D02*
D03*
X265000Y164500D02*
D03*
X276000Y163100D02*
D03*
X238200Y174600D02*
D03*
X260800Y192000D02*
D03*
X206000Y174300D02*
D03*
X254200Y250500D02*
D03*
X282300Y231000D02*
D03*
X283700Y212500D02*
D03*
X283200Y199000D02*
D03*
X212400Y219300D02*
D03*
X219600Y215300D02*
D03*
X194900Y238200D02*
D03*
X187100Y232500D02*
D03*
X232800Y228300D02*
D03*
X228100Y204000D02*
D03*
X208900Y207500D02*
D03*
X250700Y195100D02*
D03*
M02*
