M48
;Layer_Color=9474304
;FILE_FORMAT=2:5
INCH,LZ
;TYPE=PLATED
T1F00S00C0.02800
T2F00S00C0.03543
T3F00S00C0.04000
T4F00S00C0.12500
%
T01
X0213Y0155
X0287Y015
X0288Y0139
X0276Y01631
X0265Y01645
X02426Y01689
X02382Y01746
X02374Y01639
X0206Y01743
X01845Y0178
X02089Y02075
X02124Y02193
X02196Y02153
X02281Y0204
X02328Y02283
X02269Y02599
X02542Y02505
X02805Y02575
X02795Y02828
X02823Y0231
X02837Y02125
X02832Y0199
X02608Y0192
X02507Y01951
X01949Y02382
X01871Y02325
X01865Y02498
T02
X01597Y0216
X01697
Y0226
X01597
Y0248
X01697
Y0258
X01597
Y0268
X01697
T03
X0298Y01425
Y01525
X0328
Y01425
Y01625
Y0185
Y0195
Y0205
Y0227
Y0237
Y0247
Y02695
Y02795
Y02895
X0298
Y02795
Y02695
Y0247
Y0237
Y0227
Y0205
Y0195
Y0185
Y01625
T04
X01585Y02935
X02045
M30
