%FSLAX24Y24*%
%MOIN*%
G70*
G01*
G75*
G04 Layer_Physical_Order=2*
G04 Layer_Color=16711680*
%ADD10R,0.0315X0.0354*%
%ADD11C,0.0200*%
%ADD12C,0.0150*%
%ADD13C,0.1000*%
%ADD14C,0.1250*%
%ADD15O,0.0787X0.0394*%
%ADD16O,0.0787X0.0394*%
%ADD17C,0.0700*%
%ADD18R,0.0591X0.0591*%
%ADD19C,0.0591*%
%ADD20C,0.0551*%
G36*
X62100Y39050D02*
Y37900D01*
X61900Y37700D01*
X59700D01*
X59050Y37050D01*
Y36200D01*
X58500Y35650D01*
X57600D01*
X57250Y36000D01*
Y38100D01*
X58400Y39250D01*
X61900D01*
X62100Y39050D01*
D02*
G37*
G36*
X62150Y37000D02*
Y33800D01*
Y33600D01*
X61900Y33350D01*
X57650D01*
X57350Y33650D01*
Y34373D01*
X57352Y34373D01*
Y34435D01*
X57350Y34435D01*
Y35000D01*
X57500Y35150D01*
X59150D01*
X59800Y35800D01*
X59850Y35850D01*
Y36700D01*
Y36800D01*
X60350Y37300D01*
X61850D01*
X62150Y37000D01*
D02*
G37*
%LPC*%
G36*
X60950Y35148D02*
X60882Y35141D01*
X60769Y35107D01*
X60665Y35051D01*
X60574Y34976D01*
X60499Y34885D01*
X60443Y34781D01*
X60409Y34668D01*
X60402Y34600D01*
X60950D01*
Y35148D01*
D02*
G37*
G36*
X58050Y35002D02*
Y34454D01*
X58598D01*
X58591Y34522D01*
X58557Y34635D01*
X58501Y34739D01*
X58426Y34830D01*
X58335Y34905D01*
X58231Y34961D01*
X58118Y34995D01*
X58050Y35002D01*
D02*
G37*
G36*
X57950Y36354D02*
X57402D01*
X57409Y36286D01*
X57443Y36173D01*
X57499Y36069D01*
X57574Y35978D01*
X57665Y35903D01*
X57769Y35847D01*
X57882Y35813D01*
X57950Y35806D01*
Y36354D01*
D02*
G37*
G36*
X61050Y35148D02*
Y34600D01*
X61598D01*
X61591Y34668D01*
X61557Y34781D01*
X61501Y34885D01*
X61426Y34976D01*
X61335Y35051D01*
X61231Y35107D01*
X61118Y35141D01*
X61050Y35148D01*
D02*
G37*
G36*
X58598Y34354D02*
X58050D01*
Y33806D01*
X58118Y33813D01*
X58231Y33847D01*
X58335Y33903D01*
X58426Y33978D01*
X58501Y34069D01*
X58557Y34173D01*
X58591Y34286D01*
X58598Y34354D01*
D02*
G37*
G36*
X57950D02*
X57402D01*
X57409Y34286D01*
X57443Y34173D01*
X57499Y34069D01*
X57574Y33978D01*
X57665Y33903D01*
X57769Y33847D01*
X57882Y33813D01*
X57950Y33806D01*
Y34354D01*
D02*
G37*
G36*
X60950Y34500D02*
X60402D01*
X60409Y34432D01*
X60443Y34319D01*
X60499Y34215D01*
X60574Y34124D01*
X60665Y34049D01*
X60769Y33993D01*
X60882Y33959D01*
X60950Y33952D01*
Y34500D01*
D02*
G37*
G36*
X57950Y35002D02*
X57882Y34995D01*
X57769Y34961D01*
X57665Y34905D01*
X57574Y34830D01*
X57499Y34739D01*
X57443Y34635D01*
X57409Y34522D01*
X57402Y34454D01*
X57950D01*
Y35002D01*
D02*
G37*
G36*
X61598Y34500D02*
X61050D01*
Y33952D01*
X61118Y33959D01*
X61231Y33993D01*
X61335Y34049D01*
X61426Y34124D01*
X61501Y34215D01*
X61557Y34319D01*
X61591Y34432D01*
X61598Y34500D01*
D02*
G37*
G36*
X60950Y38500D02*
X60402D01*
X60409Y38432D01*
X60443Y38319D01*
X60499Y38215D01*
X60574Y38124D01*
X60665Y38049D01*
X60769Y37993D01*
X60882Y37959D01*
X60950Y37952D01*
Y38500D01*
D02*
G37*
G36*
X61050Y37148D02*
Y36600D01*
X61598D01*
X61591Y36668D01*
X61557Y36781D01*
X61501Y36885D01*
X61426Y36976D01*
X61335Y37051D01*
X61231Y37107D01*
X61118Y37141D01*
X61050Y37148D01*
D02*
G37*
G36*
X61598Y38500D02*
X61050D01*
Y37952D01*
X61118Y37959D01*
X61231Y37993D01*
X61335Y38049D01*
X61426Y38124D01*
X61501Y38215D01*
X61557Y38319D01*
X61591Y38432D01*
X61598Y38500D01*
D02*
G37*
G36*
X61050Y39148D02*
Y38600D01*
X61598D01*
X61591Y38668D01*
X61557Y38781D01*
X61501Y38885D01*
X61426Y38976D01*
X61335Y39051D01*
X61231Y39107D01*
X61118Y39141D01*
X61050Y39148D01*
D02*
G37*
G36*
X60950D02*
X60882Y39141D01*
X60769Y39107D01*
X60665Y39051D01*
X60574Y38976D01*
X60499Y38885D01*
X60443Y38781D01*
X60409Y38668D01*
X60402Y38600D01*
X60950D01*
Y39148D01*
D02*
G37*
G36*
Y37148D02*
X60882Y37141D01*
X60769Y37107D01*
X60665Y37051D01*
X60574Y36976D01*
X60499Y36885D01*
X60443Y36781D01*
X60409Y36668D01*
X60402Y36600D01*
X60950D01*
Y37148D01*
D02*
G37*
G36*
Y36500D02*
X60402D01*
X60409Y36432D01*
X60443Y36319D01*
X60499Y36215D01*
X60574Y36124D01*
X60665Y36049D01*
X60769Y35993D01*
X60882Y35959D01*
X60950Y35952D01*
Y36500D01*
D02*
G37*
G36*
X58598Y36354D02*
X58050D01*
Y35806D01*
X58118Y35813D01*
X58231Y35847D01*
X58335Y35903D01*
X58426Y35978D01*
X58501Y36069D01*
X58557Y36173D01*
X58591Y36286D01*
X58598Y36354D01*
D02*
G37*
G36*
X61598Y36500D02*
X61050D01*
Y35952D01*
X61118Y35959D01*
X61231Y35993D01*
X61335Y36049D01*
X61426Y36124D01*
X61501Y36215D01*
X61557Y36319D01*
X61591Y36432D01*
X61598Y36500D01*
D02*
G37*
G36*
X58050Y37002D02*
Y36454D01*
X58598D01*
X58591Y36522D01*
X58557Y36635D01*
X58501Y36739D01*
X58426Y36830D01*
X58335Y36905D01*
X58231Y36961D01*
X58118Y36995D01*
X58050Y37002D01*
D02*
G37*
G36*
X57950D02*
X57882Y36995D01*
X57769Y36961D01*
X57665Y36905D01*
X57574Y36830D01*
X57499Y36739D01*
X57443Y36635D01*
X57409Y36522D01*
X57402Y36454D01*
X57950D01*
Y37002D01*
D02*
G37*
%LPD*%
D11*
X53300Y36900D02*
X53750D01*
X55650Y38800D01*
Y40800D01*
D13*
X61000Y34550D02*
D03*
Y36550D02*
D03*
Y38550D02*
D03*
X58000Y34404D02*
D03*
Y36404D02*
D03*
D14*
X54050Y34550D02*
D03*
X60800Y41300D02*
D03*
D15*
X55650Y41800D02*
D03*
Y40800D02*
D03*
D16*
Y41300D02*
D03*
D17*
X58000Y40404D02*
D03*
Y41404D02*
D03*
D18*
X53300Y38900D02*
D03*
D19*
Y37900D02*
D03*
Y36900D02*
D03*
D20*
X56300Y36600D02*
D03*
Y39600D02*
D03*
M02*
